G04 #@! TF.FileFunction,Copper,L2,Bot,Signal*
%FSLAX46Y46*%
G04 Gerber Fmt 4.6, Leading zero omitted, Abs format (unit mm)*
G04 Created by KiCad (PCBNEW 4.0.2+dfsg1-stable) date Sun 13 Aug 2017 19:16:48 AEST*
%MOMM*%
G01*
G04 APERTURE LIST*
%ADD10C,0.100000*%
%ADD11C,0.600000*%
%ADD12R,0.650000X1.560000*%
%ADD13R,0.800000X1.500000*%
%ADD14R,2.032000X1.727200*%
%ADD15O,2.032000X1.727200*%
%ADD16R,2.032000X2.032000*%
%ADD17O,2.032000X2.032000*%
%ADD18R,1.200000X0.900000*%
%ADD19R,1.200000X0.750000*%
%ADD20R,0.750000X1.200000*%
%ADD21R,1.000000X1.250000*%
%ADD22R,0.800000X0.750000*%
%ADD23R,0.900000X1.200000*%
%ADD24R,1.500000X0.800000*%
%ADD25R,0.700000X0.650000*%
%ADD26R,1.400000X1.800000*%
%ADD27R,1.950000X0.600000*%
%ADD28R,0.250000X0.700000*%
%ADD29R,0.700000X0.250000*%
%ADD30R,1.725000X1.725000*%
%ADD31R,1.700000X1.700000*%
%ADD32O,1.700000X1.700000*%
%ADD33R,0.900000X0.300000*%
%ADD34R,1.397000X0.797560*%
%ADD35R,1.900000X1.900000*%
%ADD36R,1.800000X1.900000*%
%ADD37R,0.400000X1.350000*%
%ADD38R,2.100000X1.600000*%
%ADD39C,0.508000*%
%ADD40C,0.203200*%
%ADD41C,0.304800*%
%ADD42C,0.635000*%
%ADD43C,0.762000*%
%ADD44C,0.254000*%
%ADD45C,0.152400*%
G04 APERTURE END LIST*
D10*
D11*
X214100000Y-124800000D03*
X192100000Y-125900000D03*
X208800000Y-119350000D03*
X214250000Y-112550000D03*
X214200000Y-113800000D03*
X211000000Y-106500000D03*
X192700000Y-107300000D03*
X193200000Y-99000000D03*
X193000000Y-97100000D03*
X198500000Y-124000000D03*
X201700000Y-121400000D03*
X197100000Y-117000000D03*
D12*
X217866000Y-117886511D03*
X216916000Y-117886511D03*
X215966000Y-117886511D03*
X215966000Y-115286511D03*
X217866000Y-115186511D03*
D11*
X203174600Y-118567200D03*
X204774800Y-116814600D03*
X200507600Y-118100000D03*
X198399400Y-126263400D03*
X192600000Y-124700000D03*
X212013800Y-100660200D03*
X207949800Y-97409000D03*
X194300000Y-110800000D03*
X190373000Y-116001800D03*
X192709800Y-116230400D03*
X198100000Y-119600000D03*
X196300000Y-122600000D03*
X198000000Y-112800000D03*
X204597000Y-104394000D03*
X202717400Y-107213400D03*
X214500000Y-116000000D03*
X218200000Y-111700000D03*
X207500000Y-117400000D03*
X207750000Y-121150000D03*
X212800000Y-124150000D03*
X200787000Y-114046000D03*
D13*
X196149000Y-120553000D03*
X194249000Y-120553000D03*
X195199000Y-117953000D03*
D11*
X193167000Y-109474000D03*
X202692000Y-103886000D03*
X203327000Y-98806000D03*
X203581000Y-100711000D03*
X206756000Y-107289600D03*
X211074000Y-95504000D03*
X200914000Y-123088400D03*
X204266800Y-113385600D03*
X202819000Y-109347000D03*
D14*
X190754000Y-105156000D03*
D15*
X190754000Y-107696000D03*
X190754000Y-110236000D03*
D16*
X217424000Y-125500000D03*
D17*
X217424000Y-122960000D03*
D14*
X216990000Y-96266000D03*
D15*
X216990000Y-98806000D03*
X216990000Y-101346000D03*
D14*
X217170000Y-105156000D03*
D15*
X217170000Y-107696000D03*
X217170000Y-110236000D03*
D14*
X190754000Y-96266000D03*
D15*
X190754000Y-98806000D03*
X190754000Y-101346000D03*
D18*
X196680000Y-96266000D03*
X194480000Y-96266000D03*
X196215000Y-103886000D03*
X194015000Y-103886000D03*
X214460000Y-105156000D03*
X212260000Y-105156000D03*
X214460000Y-96266000D03*
X212260000Y-96266000D03*
D19*
X214310000Y-103251000D03*
X212410000Y-103251000D03*
D20*
X197485000Y-108646000D03*
X197485000Y-106746000D03*
X208788000Y-115636000D03*
X208788000Y-117536000D03*
X199390000Y-114051000D03*
X199390000Y-115951000D03*
D21*
X217940231Y-120015000D03*
X215940231Y-120015000D03*
D20*
X199390000Y-119756000D03*
X199390000Y-117856000D03*
D22*
X217666000Y-113411000D03*
X216166000Y-113411000D03*
D18*
X209720000Y-113665000D03*
X211920000Y-113665000D03*
X209720000Y-112014000D03*
X211920000Y-112014000D03*
X212800000Y-116700000D03*
X210600000Y-116700000D03*
X210600000Y-118300000D03*
X212800000Y-118300000D03*
D23*
X209804000Y-123741000D03*
X209804000Y-125941000D03*
X211328000Y-123741000D03*
X211328000Y-125941000D03*
D18*
X196390000Y-124770000D03*
X194190000Y-124770000D03*
D11*
X195600000Y-114500000D03*
D13*
X194630000Y-98141000D03*
X196530000Y-98141000D03*
X195580000Y-100741000D03*
X193680000Y-105791000D03*
X195580000Y-105791000D03*
X194630000Y-108391000D03*
X212410000Y-98141000D03*
X214310000Y-98141000D03*
X213360000Y-100741000D03*
X212410000Y-107061000D03*
X214310000Y-107061000D03*
X213360000Y-109661000D03*
D24*
X213200000Y-119650000D03*
X213200000Y-121550000D03*
X210600000Y-120600000D03*
D25*
X213172000Y-123112000D03*
X215072000Y-123112000D03*
X215072000Y-126062000D03*
X213172000Y-126062000D03*
D26*
X190119000Y-125730000D03*
X190119000Y-113730000D03*
D27*
X199770000Y-110236000D03*
X199770000Y-108966000D03*
X199770000Y-107696000D03*
X199770000Y-106426000D03*
X199770000Y-105156000D03*
X199770000Y-103886000D03*
X199770000Y-102616000D03*
X199770000Y-101346000D03*
X199770000Y-100076000D03*
X199770000Y-98806000D03*
X209170000Y-98806000D03*
X209170000Y-100076000D03*
X209170000Y-101346000D03*
X209170000Y-102616000D03*
X209170000Y-103886000D03*
X209170000Y-105156000D03*
X209170000Y-106426000D03*
X209170000Y-107696000D03*
X209170000Y-108966000D03*
X209170000Y-110236000D03*
D28*
X202312500Y-115228500D03*
X202812500Y-115228500D03*
X203312500Y-115228500D03*
X203812500Y-115228500D03*
X204312500Y-115228500D03*
X204812500Y-115228500D03*
X205312500Y-115228500D03*
X205812500Y-115228500D03*
D29*
X206462500Y-115878500D03*
X206462500Y-116378500D03*
X206462500Y-116878500D03*
X206462500Y-117378500D03*
X206462500Y-117878500D03*
X206462500Y-118378500D03*
X206462500Y-118878500D03*
X206462500Y-119378500D03*
D28*
X205812500Y-120028500D03*
X205312500Y-120028500D03*
X204812500Y-120028500D03*
X204312500Y-120028500D03*
X203812500Y-120028500D03*
X203312500Y-120028500D03*
X202812500Y-120028500D03*
X202312500Y-120028500D03*
D29*
X201662500Y-119378500D03*
X201662500Y-118878500D03*
X201662500Y-118378500D03*
X201662500Y-117878500D03*
X201662500Y-117378500D03*
X201662500Y-116878500D03*
X201662500Y-116378500D03*
X201662500Y-115878500D03*
D30*
X204925000Y-118491000D03*
X203200000Y-118491000D03*
X204925000Y-116766000D03*
X203200000Y-116766000D03*
D31*
X200672700Y-95631000D03*
D32*
X203212700Y-95631000D03*
X205752700Y-95631000D03*
X208292700Y-95631000D03*
D33*
X202576000Y-112395000D03*
X200776000Y-112395000D03*
X200776000Y-111745000D03*
X202576000Y-111745000D03*
X200776000Y-113045000D03*
X202576000Y-113045000D03*
X206640000Y-112395000D03*
X204840000Y-112395000D03*
X204840000Y-111745000D03*
X206640000Y-111745000D03*
X204840000Y-113045000D03*
X206640000Y-113045000D03*
D34*
X194190980Y-126190000D03*
X196289020Y-126190000D03*
D35*
X205200100Y-125564900D03*
X202800100Y-125564900D03*
D36*
X207800100Y-125564900D03*
X200200100Y-125564900D03*
D37*
X202700100Y-122889900D03*
X205300100Y-122889900D03*
X203350100Y-122889900D03*
X204650100Y-122889900D03*
X204000100Y-122889900D03*
D38*
X200900100Y-123014900D03*
X207100100Y-123014900D03*
D24*
X193800000Y-114150000D03*
X193800000Y-112250000D03*
X196400000Y-113200000D03*
D23*
X192400000Y-122000000D03*
X192400000Y-119800000D03*
D11*
X215050000Y-121550000D03*
X214450000Y-121550000D03*
X194535427Y-123270999D03*
X202565000Y-114046000D03*
X198577790Y-111140190D03*
X212410000Y-99502000D03*
X207391000Y-99568000D03*
X207401744Y-110098256D03*
X207479900Y-113030000D03*
X212344000Y-108458000D03*
X203835000Y-111760000D03*
X209268800Y-122301000D03*
X208812199Y-121844399D03*
X192024000Y-117856000D03*
X197612000Y-115951000D03*
X212090000Y-101981000D03*
X209900000Y-115300000D03*
X216350000Y-112350000D03*
X215700000Y-112350000D03*
X210947000Y-110871000D03*
X197485000Y-105410000D03*
X196215000Y-117983000D03*
X206502000Y-97282000D03*
X204837882Y-121475622D03*
X197400000Y-120650000D03*
X212344000Y-114808000D03*
X206583138Y-120328650D03*
X213000000Y-115400000D03*
X206502000Y-121239589D03*
X191770000Y-123825000D03*
X200533000Y-116268500D03*
X200596500Y-115255611D03*
X206679800Y-114803229D03*
X205475256Y-110246744D03*
X191389000Y-113000000D03*
X205740000Y-121239589D03*
X211000000Y-121700000D03*
X193300000Y-123200000D03*
X192300000Y-114800000D03*
X193100000Y-118500000D03*
X207400000Y-118300000D03*
D39*
X215050000Y-121550000D02*
X216530231Y-121550000D01*
X216530231Y-121550000D02*
X217940231Y-120140000D01*
X217940231Y-120140000D02*
X217940231Y-120015000D01*
X214450000Y-121550000D02*
X215050000Y-121550000D01*
D40*
X194535427Y-123270999D02*
X193264428Y-122000000D01*
X193264428Y-122000000D02*
X192400000Y-122000000D01*
D39*
X217866000Y-117886511D02*
X217866000Y-119940769D01*
X217866000Y-119940769D02*
X217940231Y-120015000D01*
D41*
X215849200Y-110236000D02*
X215185200Y-110900000D01*
X217170000Y-110236000D02*
X215849200Y-110236000D01*
D39*
X215974001Y-123975999D02*
X215700000Y-124250000D01*
X217424000Y-122960000D02*
X216408001Y-123975999D01*
X216408001Y-123975999D02*
X215974001Y-123975999D01*
X217424000Y-122960000D02*
X215224000Y-122960000D01*
X215224000Y-122960000D02*
X215072000Y-123112000D01*
X200200100Y-125564900D02*
X200200100Y-123714900D01*
X200200100Y-123714900D02*
X200900100Y-123014900D01*
X200914000Y-123088400D02*
X200914000Y-122186000D01*
X200914000Y-122186000D02*
X201700000Y-121400000D01*
X207800100Y-125564900D02*
X207800100Y-123714900D01*
X207800100Y-123714900D02*
X207100100Y-123014900D01*
D40*
X211328000Y-125941000D02*
X211328000Y-125791000D01*
X211328000Y-125791000D02*
X212293200Y-124825800D01*
X204940000Y-113045000D02*
X204709000Y-113045000D01*
X204709000Y-113045000D02*
X204216000Y-113538000D01*
X201662500Y-117878500D02*
X202587500Y-117878500D01*
X202587500Y-117878500D02*
X203200000Y-118491000D01*
X206462500Y-116378500D02*
X205312500Y-116378500D01*
X205312500Y-116378500D02*
X204925000Y-116766000D01*
X206462500Y-116378500D02*
X207015700Y-116378500D01*
X207015700Y-116378500D02*
X207518000Y-116880800D01*
X201662500Y-117878500D02*
X201042500Y-117878500D01*
X201042500Y-117878500D02*
X199390000Y-119531000D01*
X199390000Y-119531000D02*
X199390000Y-119756000D01*
D39*
X200200000Y-125550000D02*
X199011200Y-125550000D01*
X199011200Y-125550000D02*
X198399400Y-126161800D01*
X216916000Y-117886511D02*
X216916000Y-119039231D01*
X216916000Y-119039231D02*
X215940231Y-120015000D01*
X197485000Y-109524800D02*
X198196200Y-110236000D01*
X198196200Y-110236000D02*
X199770000Y-110236000D01*
X197485000Y-108646000D02*
X197485000Y-109524800D01*
X199770000Y-108966000D02*
X197805000Y-108966000D01*
X197805000Y-108966000D02*
X197485000Y-108646000D01*
D41*
X200914000Y-124836000D02*
X200200000Y-125550000D01*
X206540000Y-111745000D02*
X206540000Y-111290200D01*
X206540000Y-111290200D02*
X206120800Y-110871000D01*
D39*
X190754000Y-96266000D02*
X191008000Y-96266000D01*
X191008000Y-96266000D02*
X192278000Y-94996000D01*
X192278000Y-94996000D02*
X196368000Y-94996000D01*
X196368000Y-94996000D02*
X196680000Y-95308000D01*
X196680000Y-95308000D02*
X196680000Y-96266000D01*
D42*
X196680000Y-96266000D02*
X196530000Y-96266000D01*
X191287400Y-96266000D02*
X191135000Y-96266000D01*
D43*
X196530000Y-98141000D02*
X196530000Y-96416000D01*
X196530000Y-96416000D02*
X196680000Y-96266000D01*
D39*
X190754000Y-98806000D02*
X190906400Y-98806000D01*
X194672000Y-100741000D02*
X195580000Y-100741000D01*
X190906400Y-98806000D02*
X192841400Y-100741000D01*
X192841400Y-100741000D02*
X194672000Y-100741000D01*
X196215000Y-103886000D02*
X196065000Y-103886000D01*
X191559601Y-102978799D02*
X190754000Y-103784400D01*
X190754000Y-103784400D02*
X190754000Y-105156000D01*
X196065000Y-103886000D02*
X195157799Y-102978799D01*
X195157799Y-102978799D02*
X191559601Y-102978799D01*
X196215000Y-103886000D02*
X196215000Y-105156000D01*
X196215000Y-105156000D02*
X195580000Y-105791000D01*
X194630000Y-108391000D02*
X191449000Y-108391000D01*
X191449000Y-108391000D02*
X190754000Y-107696000D01*
X214460000Y-96266000D02*
X214460000Y-97991000D01*
X214460000Y-97991000D02*
X214310000Y-98141000D01*
X214460000Y-96266000D02*
X216990000Y-96266000D01*
X213360000Y-100741000D02*
X215055000Y-100741000D01*
X215055000Y-100741000D02*
X216990000Y-98806000D01*
D40*
X202565000Y-114046000D02*
X202565000Y-113134000D01*
X202565000Y-113134000D02*
X202476000Y-113045000D01*
X197612000Y-110617000D02*
X198135190Y-111140190D01*
X198135190Y-111140190D02*
X198577790Y-111140190D01*
X196773810Y-109778810D02*
X197612000Y-110617000D01*
X197104000Y-104521000D02*
X197104000Y-104902000D01*
X197104000Y-104902000D02*
X196773810Y-105232190D01*
X196773810Y-105232190D02*
X196773810Y-109778810D01*
X194630000Y-98141000D02*
X194630000Y-98491000D01*
X194630000Y-98491000D02*
X195233200Y-99094200D01*
X195233200Y-99094200D02*
X195631842Y-99094200D01*
X195631842Y-99094200D02*
X197119801Y-100582159D01*
X197119801Y-100582159D02*
X197119801Y-104505199D01*
X197119801Y-104505199D02*
X197104000Y-104521000D01*
X194630000Y-98141000D02*
X194630000Y-96416000D01*
X194630000Y-96416000D02*
X194480000Y-96266000D01*
X207401744Y-110098256D02*
X207401744Y-99578744D01*
X207401744Y-99578744D02*
X207391000Y-99568000D01*
X206540000Y-113045000D02*
X207376000Y-113045000D01*
X207376000Y-113045000D02*
X207391000Y-113030000D01*
X212410000Y-98141000D02*
X212410000Y-99502000D01*
X212260000Y-96266000D02*
X212260000Y-97991000D01*
X212260000Y-97991000D02*
X212410000Y-98141000D01*
X200876000Y-111745000D02*
X198165250Y-111745000D01*
X195834000Y-109413750D02*
X195834000Y-107696000D01*
X198165250Y-111745000D02*
X195834000Y-109413750D01*
X195834000Y-107696000D02*
X195199000Y-107061000D01*
X195199000Y-107061000D02*
X194600000Y-107061000D01*
X194600000Y-107061000D02*
X193680000Y-106141000D01*
X193680000Y-106141000D02*
X193680000Y-105791000D01*
X193680000Y-105791000D02*
X193680000Y-104221000D01*
X193680000Y-104221000D02*
X194015000Y-103886000D01*
X212410000Y-108014200D02*
X212410000Y-108392000D01*
X212410000Y-108392000D02*
X212344000Y-108458000D01*
X204940000Y-111745000D02*
X203850000Y-111745000D01*
X203850000Y-111745000D02*
X203835000Y-111760000D01*
X212410000Y-108014200D02*
X212410000Y-107061000D01*
X212260000Y-105156000D02*
X212260000Y-106911000D01*
X212260000Y-106911000D02*
X212410000Y-107061000D01*
X209804000Y-122836200D02*
X209804000Y-123741000D01*
X209268800Y-122301000D02*
X209804000Y-122836200D01*
D41*
X205300000Y-122875000D02*
X205300000Y-121895200D01*
X205300000Y-121895200D02*
X205350801Y-121844399D01*
X205350801Y-121844399D02*
X208812199Y-121844399D01*
X205300000Y-122875000D02*
X205300000Y-122233000D01*
D40*
X204650100Y-122011700D02*
X204454101Y-122011699D01*
X204454101Y-122011699D02*
X202812500Y-120370098D01*
X202812500Y-120370098D02*
X202812500Y-120028500D01*
X204650100Y-122889900D02*
X204650100Y-122011700D01*
X204000100Y-122889900D02*
X204000100Y-122060606D01*
X204000100Y-122060606D02*
X202312500Y-120373006D01*
X202312500Y-120373006D02*
X202312500Y-120028500D01*
D39*
X214310000Y-107061000D02*
X214310000Y-105306000D01*
X214310000Y-105306000D02*
X214460000Y-105156000D01*
X217170000Y-105156000D02*
X214460000Y-105156000D01*
X213360000Y-109661000D02*
X215205000Y-109661000D01*
X215205000Y-109661000D02*
X217170000Y-107696000D01*
D41*
X217284800Y-112350000D02*
X216350000Y-112350000D01*
X217666000Y-113411000D02*
X217666000Y-112731200D01*
X217666000Y-112731200D02*
X217284800Y-112350000D01*
X217666000Y-113411000D02*
X217661000Y-113411000D01*
X217666000Y-113411000D02*
X217666000Y-113366000D01*
D44*
X209900000Y-115300000D02*
X209124000Y-115300000D01*
X209124000Y-115300000D02*
X208788000Y-115636000D01*
D41*
X194945000Y-115951000D02*
X197612000Y-115951000D01*
X198120000Y-115951000D02*
X197612000Y-115951000D01*
X194249000Y-116647000D02*
X194249000Y-117856000D01*
X194249000Y-117856000D02*
X194249000Y-120553000D01*
X192024000Y-117856000D02*
X194249000Y-117856000D01*
X194945000Y-115951000D02*
X194249000Y-116647000D01*
X198120000Y-115951000D02*
X199390000Y-115951000D01*
X211201000Y-101092000D02*
X211201000Y-98552000D01*
X211201000Y-98552000D02*
X208280000Y-95631000D01*
X212090000Y-101981000D02*
X211201000Y-101092000D01*
X212090000Y-101981000D02*
X212090000Y-102931000D01*
X212090000Y-102931000D02*
X212410000Y-103251000D01*
X208981000Y-115443000D02*
X208788000Y-115636000D01*
D39*
X217666000Y-113411000D02*
X217666000Y-114986511D01*
X217666000Y-114986511D02*
X217866000Y-115186511D01*
D40*
X206462500Y-115878500D02*
X208545500Y-115878500D01*
X208545500Y-115878500D02*
X208788000Y-115636000D01*
X201662500Y-116878500D02*
X200092500Y-116878500D01*
X200092500Y-116878500D02*
X199390000Y-116176000D01*
X199390000Y-116176000D02*
X199390000Y-115951000D01*
X212185000Y-103251000D02*
X212410000Y-103251000D01*
X211606800Y-103251000D02*
X210990000Y-103867800D01*
X212410000Y-103251000D02*
X211606800Y-103251000D01*
X210990000Y-104514200D02*
X210990000Y-103867800D01*
X210348200Y-105156000D02*
X210990000Y-104514200D01*
X209170000Y-105156000D02*
X210348200Y-105156000D01*
X209720000Y-112014000D02*
X209804000Y-112014000D01*
X209804000Y-112014000D02*
X210947000Y-110871000D01*
X209720000Y-113665000D02*
X209720000Y-112014000D01*
D44*
X197485000Y-105410000D02*
X197485000Y-106746000D01*
X195199000Y-117953000D02*
X196185000Y-117953000D01*
X196185000Y-117953000D02*
X196215000Y-117983000D01*
D40*
X199770000Y-106426000D02*
X197805000Y-106426000D01*
X197805000Y-106426000D02*
X197485000Y-106746000D01*
X201662500Y-117378500D02*
X199420500Y-117378500D01*
X194190980Y-126190000D02*
X194190980Y-124770980D01*
X194190980Y-124770980D02*
X194190000Y-124770000D01*
D45*
X207243365Y-110652257D02*
X207207443Y-110652257D01*
X206847743Y-110292557D02*
X206847743Y-110256635D01*
X207207443Y-110652257D02*
X206847743Y-110292557D01*
D40*
X208389510Y-111798402D02*
X207243365Y-110652257D01*
X208389511Y-113443219D02*
X208389510Y-111798402D01*
X205907597Y-114249219D02*
X207583511Y-114249219D01*
X207583511Y-114249219D02*
X208389511Y-113443219D01*
X206734404Y-110143296D02*
X206847743Y-110256635D01*
X206095610Y-109504502D02*
X206734404Y-110143296D01*
X206095610Y-99314000D02*
X206095610Y-109504502D01*
X206095610Y-99314000D02*
X206095610Y-97688390D01*
X206095610Y-97688390D02*
X206502000Y-97282000D01*
X205282780Y-114249220D02*
X205907597Y-114249219D01*
X204812500Y-114719500D02*
X205282780Y-114249220D01*
X204812500Y-115228500D02*
X204812500Y-114719500D01*
X204312500Y-115228500D02*
X204312500Y-114716592D01*
X204312500Y-114716592D02*
X204856092Y-114173000D01*
X204856092Y-114173000D02*
X204856092Y-114167908D01*
X205752700Y-96833081D02*
X205752700Y-95631000D01*
X204856092Y-114167908D02*
X205130390Y-113893610D01*
X208033901Y-113295921D02*
X208033901Y-111945701D01*
X205740000Y-109651800D02*
X205740000Y-96845781D01*
X205130390Y-113893610D02*
X207436212Y-113893610D01*
X208033901Y-111945701D02*
X205740000Y-109651800D01*
X205740000Y-96845781D02*
X205752700Y-96833081D01*
X207436212Y-113893610D02*
X208033901Y-113295921D01*
X196149000Y-120553000D02*
X197303000Y-120553000D01*
X197303000Y-120553000D02*
X197400000Y-120650000D01*
X204312500Y-120028500D02*
X204312500Y-120950240D01*
X204312500Y-120950240D02*
X204837882Y-121475622D01*
X196246000Y-120650000D02*
X196149000Y-120553000D01*
X210600000Y-120600000D02*
X210950000Y-120600000D01*
X210950000Y-120600000D02*
X211650000Y-119900000D01*
X211650000Y-119900000D02*
X211650000Y-116850000D01*
X211650000Y-116850000D02*
X211800000Y-116700000D01*
X211800000Y-116700000D02*
X212800000Y-116700000D01*
X211920000Y-113665000D02*
X211920000Y-114384000D01*
X211920000Y-114384000D02*
X212344000Y-114808000D01*
X209170000Y-106426000D02*
X209845000Y-106426000D01*
X209845000Y-106426000D02*
X211582000Y-108163000D01*
X211582000Y-108163000D02*
X211582000Y-108930092D01*
X211582000Y-108930092D02*
X212471000Y-109819092D01*
X212471000Y-109819092D02*
X212471000Y-110871000D01*
X212471000Y-110871000D02*
X212979000Y-111379000D01*
X212979000Y-112756000D02*
X212070000Y-113665000D01*
X212979000Y-111379000D02*
X212979000Y-112756000D01*
X212070000Y-113665000D02*
X211920000Y-113665000D01*
X206140700Y-120028500D02*
X206282988Y-120028500D01*
X206282988Y-120028500D02*
X206583138Y-120328650D01*
X205812500Y-120028500D02*
X206140700Y-120028500D01*
X206140700Y-120028500D02*
X206154200Y-120015000D01*
X211963000Y-115570000D02*
X212830000Y-115570000D01*
X212830000Y-115570000D02*
X213000000Y-115400000D01*
X211836000Y-115443000D02*
X211963000Y-115570000D01*
X210820000Y-114427000D02*
X211836000Y-115443000D01*
X210820000Y-112310800D02*
X210820000Y-114427000D01*
X211920000Y-112014000D02*
X211116800Y-112014000D01*
X211116800Y-112014000D02*
X210820000Y-112310800D01*
X209170000Y-107696000D02*
X209845000Y-107696000D01*
X209845000Y-107696000D02*
X211836000Y-109687000D01*
X211836000Y-109687000D02*
X211836000Y-111360800D01*
X211836000Y-111360800D02*
X211836000Y-112014000D01*
X206154301Y-120683301D02*
X206502000Y-121031000D01*
X206502000Y-121031000D02*
X206502000Y-121239589D01*
X205414101Y-120683301D02*
X206154301Y-120683301D01*
X205312500Y-120028500D02*
X205312500Y-120581700D01*
X205312500Y-120581700D02*
X205414101Y-120683301D01*
X210600000Y-118300000D02*
X210600000Y-116700000D01*
X207300000Y-115300000D02*
X207002951Y-115300000D01*
X207002951Y-115300000D02*
X206945721Y-115357230D01*
X206945721Y-115357230D02*
X206269430Y-115357230D01*
X206140700Y-115228500D02*
X205812500Y-115228500D01*
X206269430Y-115357230D02*
X206140700Y-115228500D01*
X208000000Y-114600000D02*
X207300000Y-115300000D01*
X210019922Y-114600000D02*
X208000000Y-114600000D01*
X210600000Y-116700000D02*
X210600000Y-115180078D01*
X210600000Y-115180078D02*
X210019922Y-114600000D01*
X205812500Y-115228500D02*
X205812500Y-115236100D01*
X210674800Y-122917800D02*
X210439000Y-122682000D01*
X210439000Y-122682000D02*
X210439000Y-122651278D01*
X210439000Y-122651278D02*
X207166222Y-119378500D01*
X210674800Y-122937800D02*
X210674800Y-122917800D01*
X206462500Y-119378500D02*
X207166222Y-119378500D01*
X210674800Y-122937800D02*
X211328000Y-123591000D01*
X211328000Y-123591000D02*
X211328000Y-123741000D01*
X209804000Y-125941000D02*
X209804000Y-125095000D01*
X209804000Y-125095000D02*
X210058000Y-124841000D01*
X211328000Y-124714000D02*
X211328000Y-123741000D01*
X210058000Y-124841000D02*
X211201000Y-124841000D01*
X211201000Y-124841000D02*
X211328000Y-124714000D01*
X196390000Y-124770000D02*
X196540000Y-124770000D01*
X196540000Y-124770000D02*
X197078591Y-124231409D01*
X199644000Y-121666000D02*
X200400906Y-121666000D01*
X197078591Y-124231409D02*
X197081841Y-124231409D01*
X197081841Y-124231409D02*
X198755000Y-122558250D01*
X201055610Y-120444390D02*
X201662500Y-119837500D01*
X198755000Y-122558250D02*
X198755000Y-122555000D01*
X198755000Y-122555000D02*
X199644000Y-121666000D01*
X200400906Y-121666000D02*
X201055610Y-121011298D01*
X201055610Y-121011298D02*
X201055610Y-120444390D01*
X201662500Y-119837500D02*
X201662500Y-119378500D01*
X191770000Y-123825000D02*
X196913500Y-123825000D01*
X198348591Y-122389909D02*
X198348591Y-122386659D01*
X200304410Y-121259590D02*
X200700000Y-120864000D01*
X196913500Y-123825000D02*
X198348591Y-122389909D01*
X198348591Y-122386659D02*
X199475659Y-121259591D01*
X200700000Y-120864000D02*
X200700000Y-119408798D01*
X199475659Y-121259591D02*
X200304410Y-121259590D01*
X200700000Y-119408798D02*
X201230298Y-118878500D01*
X201230298Y-118878500D02*
X201662500Y-118878500D01*
X201662500Y-116378500D02*
X200643000Y-116378500D01*
X200643000Y-116378500D02*
X200533000Y-116268500D01*
X201662500Y-115878500D02*
X201219389Y-115878500D01*
X201219389Y-115878500D02*
X200596500Y-115255611D01*
D45*
X205460573Y-114579427D02*
X206455998Y-114579427D01*
X206455998Y-114579427D02*
X206679800Y-114803229D01*
X205312500Y-115228500D02*
X205312500Y-114727500D01*
X205312500Y-114727500D02*
X205460573Y-114579427D01*
D40*
X205475256Y-110246744D02*
X205359000Y-110130488D01*
X205359000Y-110130488D02*
X205359000Y-107315000D01*
X205359000Y-107315000D02*
X203200000Y-105156000D01*
X203200000Y-105156000D02*
X199770000Y-105156000D01*
X205475256Y-110246744D02*
X205486000Y-110236000D01*
X203708000Y-112649000D02*
X203962000Y-112395000D01*
X203962000Y-112395000D02*
X204940000Y-112395000D01*
X203708000Y-114282708D02*
X203708000Y-112649000D01*
X203312500Y-115228500D02*
X203312500Y-114678208D01*
X203312500Y-114678208D02*
X203708000Y-114282708D01*
X202312500Y-115228500D02*
X201984300Y-115228500D01*
X201429200Y-112395000D02*
X200876000Y-112395000D01*
X201984300Y-115228500D02*
X201676000Y-114920200D01*
X201676000Y-114920200D02*
X201676000Y-112641800D01*
X201676000Y-112641800D02*
X201429200Y-112395000D01*
X203812500Y-115228500D02*
X203812500Y-114703500D01*
X203812500Y-114703500D02*
X204978000Y-113538000D01*
X204978000Y-113538000D02*
X205613000Y-113538000D01*
X205613000Y-113538000D02*
X205740000Y-113411000D01*
X205740000Y-113411000D02*
X205740000Y-112522000D01*
X205740000Y-112522000D02*
X205867000Y-112395000D01*
X205867000Y-112395000D02*
X206540000Y-112395000D01*
X203327000Y-112649000D02*
X203073000Y-112395000D01*
X203073000Y-112395000D02*
X202476000Y-112395000D01*
X203327000Y-114160800D02*
X203327000Y-112649000D01*
X202812500Y-115228500D02*
X202812500Y-114675300D01*
X202812500Y-114675300D02*
X203327000Y-114160800D01*
X206462500Y-118878500D02*
X207169130Y-118878500D01*
X207169130Y-118878500D02*
X210874430Y-122583800D01*
X210874430Y-122583800D02*
X212618800Y-122583800D01*
X213147000Y-123112000D02*
X213172000Y-123112000D01*
X212618800Y-122583800D02*
X213147000Y-123112000D01*
X191389000Y-113000000D02*
X190119000Y-113000000D01*
X205245761Y-121089711D02*
X205395639Y-121239589D01*
X205395639Y-121239589D02*
X205740000Y-121239589D01*
X204812500Y-120028500D02*
X204812500Y-120656450D01*
X204812500Y-120656450D02*
X205245761Y-121089711D01*
X211900000Y-121224264D02*
X211900000Y-120600000D01*
X211900000Y-120600000D02*
X212850000Y-119650000D01*
X212850000Y-119650000D02*
X213200000Y-119650000D01*
X211000000Y-121700000D02*
X211424264Y-121700000D01*
X211424264Y-121700000D02*
X211900000Y-121224264D01*
X213600000Y-119650000D02*
X213250000Y-119650000D01*
X191500000Y-122900000D02*
X191500000Y-120850000D01*
X191500000Y-120850000D02*
X192400000Y-119950000D01*
X192400000Y-119950000D02*
X192400000Y-119800000D01*
X191600000Y-123000000D02*
X191500000Y-122900000D01*
X191892798Y-123000000D02*
X191600000Y-123000000D01*
X193300000Y-123200000D02*
X192092798Y-123200000D01*
X192092798Y-123200000D02*
X191892798Y-123000000D01*
X192400000Y-119800000D02*
X192400000Y-119650000D01*
X191469999Y-116650279D02*
X192766277Y-115354001D01*
X192400000Y-119650000D02*
X191469999Y-118719999D01*
X191469999Y-118719999D02*
X191469999Y-116650279D01*
X192766277Y-115354001D02*
X196265921Y-115354001D01*
X196265921Y-115354001D02*
X196554001Y-115065921D01*
X196554001Y-113957201D02*
X196400000Y-113803200D01*
X196554001Y-115065921D02*
X196554001Y-113957201D01*
X196400000Y-113803200D02*
X196400000Y-113200000D01*
X192300000Y-114800000D02*
X193753200Y-114800000D01*
X193800000Y-114753200D02*
X193800000Y-114150000D01*
X193753200Y-114800000D02*
X193800000Y-114753200D01*
X193400000Y-121500000D02*
X193400000Y-118800000D01*
X193400000Y-118800000D02*
X193100000Y-118500000D01*
X193544390Y-121644390D02*
X193400000Y-121500000D01*
X193644390Y-121644390D02*
X193544390Y-121644390D01*
X198587952Y-121644390D02*
X193644390Y-121644390D01*
X193800000Y-114150000D02*
X193450000Y-114150000D01*
X200300000Y-120600000D02*
X200300000Y-119187800D01*
X201109300Y-118378500D02*
X201662500Y-118378500D01*
X198587952Y-121644390D02*
X199432342Y-120800000D01*
X199432342Y-120800000D02*
X200100000Y-120800000D01*
X200100000Y-120800000D02*
X200300000Y-120600000D01*
X200300000Y-119187800D02*
X201109300Y-118378500D01*
X207151500Y-118378500D02*
X207321500Y-118378500D01*
X207321500Y-118378500D02*
X207400000Y-118300000D01*
X206462500Y-118378500D02*
X207151500Y-118378500D01*
D44*
G36*
X193789741Y-109141000D02*
X193819850Y-109301015D01*
X193914419Y-109447980D01*
X194058715Y-109546573D01*
X194230000Y-109581259D01*
X195030000Y-109581259D01*
X195190015Y-109551150D01*
X195312281Y-109472474D01*
X195341203Y-109617873D01*
X195456829Y-109790921D01*
X197788077Y-112122168D01*
X197788079Y-112122171D01*
X197890906Y-112190877D01*
X197961126Y-112237797D01*
X198165250Y-112278400D01*
X199885741Y-112278400D01*
X199885741Y-112437233D01*
X199787673Y-112535302D01*
X199691000Y-112768691D01*
X199691000Y-112811250D01*
X199695750Y-112816000D01*
X199675750Y-112816000D01*
X199517000Y-112974750D01*
X199517000Y-113924000D01*
X200241250Y-113924000D01*
X200335250Y-113830000D01*
X200490250Y-113830000D01*
X200649000Y-113671250D01*
X200649000Y-113120000D01*
X200629000Y-113120000D01*
X200629000Y-112985259D01*
X200923000Y-112985259D01*
X200923000Y-113120000D01*
X200903000Y-113120000D01*
X200903000Y-113671250D01*
X201061750Y-113830000D01*
X201142600Y-113830000D01*
X201142600Y-114766839D01*
X201011573Y-114635583D01*
X200742703Y-114523938D01*
X200451575Y-114523684D01*
X200400000Y-114544994D01*
X200400000Y-114336750D01*
X200241250Y-114178000D01*
X199517000Y-114178000D01*
X199517000Y-114198000D01*
X199263000Y-114198000D01*
X199263000Y-114178000D01*
X198538750Y-114178000D01*
X198380000Y-114336750D01*
X198380000Y-114777309D01*
X198476673Y-115010698D01*
X198624146Y-115158172D01*
X198609427Y-115179715D01*
X198574741Y-115351000D01*
X198574741Y-115366800D01*
X198062839Y-115366800D01*
X198027073Y-115330972D01*
X197758203Y-115219327D01*
X197467075Y-115219073D01*
X197198010Y-115330248D01*
X197161394Y-115366800D01*
X196982148Y-115366800D01*
X197046798Y-115270044D01*
X197087402Y-115065921D01*
X197087401Y-115065916D01*
X197087401Y-114040259D01*
X197150000Y-114040259D01*
X197310015Y-114010150D01*
X197456980Y-113915581D01*
X197555573Y-113771285D01*
X197590259Y-113600000D01*
X197590259Y-113324691D01*
X198380000Y-113324691D01*
X198380000Y-113765250D01*
X198538750Y-113924000D01*
X199263000Y-113924000D01*
X199263000Y-112974750D01*
X199104250Y-112816000D01*
X198888690Y-112816000D01*
X198655301Y-112912673D01*
X198476673Y-113091302D01*
X198380000Y-113324691D01*
X197590259Y-113324691D01*
X197590259Y-112800000D01*
X197560150Y-112639985D01*
X197465581Y-112493020D01*
X197321285Y-112394427D01*
X197150000Y-112359741D01*
X195650000Y-112359741D01*
X195489985Y-112389850D01*
X195343020Y-112484419D01*
X195244427Y-112628715D01*
X195209741Y-112800000D01*
X195209741Y-113600000D01*
X195239850Y-113760015D01*
X195334419Y-113906980D01*
X195478715Y-114005573D01*
X195650000Y-114040259D01*
X195929210Y-114040259D01*
X196020601Y-114177037D01*
X196020601Y-114820601D01*
X194887713Y-114820601D01*
X194955573Y-114721285D01*
X194990259Y-114550000D01*
X194990259Y-113750000D01*
X194960150Y-113589985D01*
X194865581Y-113443020D01*
X194721285Y-113344427D01*
X194550000Y-113309741D01*
X193050000Y-113309741D01*
X192889985Y-113339850D01*
X192743020Y-113434419D01*
X192644427Y-113578715D01*
X192609741Y-113750000D01*
X192609741Y-114136234D01*
X192446203Y-114068327D01*
X192155075Y-114068073D01*
X191886010Y-114179248D01*
X191679972Y-114384927D01*
X191568327Y-114653797D01*
X191568073Y-114944925D01*
X191679248Y-115213990D01*
X191884927Y-115420028D01*
X191928016Y-115437920D01*
X191092828Y-116273108D01*
X190977202Y-116446156D01*
X190936599Y-116650279D01*
X190936599Y-118719999D01*
X190977202Y-118924122D01*
X191092828Y-119097170D01*
X191509741Y-119514083D01*
X191509741Y-120085917D01*
X191122829Y-120472829D01*
X191007203Y-120645877D01*
X190966600Y-120850000D01*
X190966600Y-122900000D01*
X191007203Y-123104123D01*
X191122829Y-123277171D01*
X191202825Y-123357167D01*
X191149972Y-123409927D01*
X191038327Y-123678797D01*
X191038073Y-123969925D01*
X191149248Y-124238990D01*
X191354927Y-124445028D01*
X191623797Y-124556673D01*
X191914925Y-124556927D01*
X192183990Y-124445752D01*
X192271494Y-124358400D01*
X193149741Y-124358400D01*
X193149741Y-125220000D01*
X193179850Y-125380015D01*
X193225019Y-125450209D01*
X193185500Y-125475639D01*
X193086907Y-125619935D01*
X193052221Y-125791220D01*
X193052221Y-126493200D01*
X191454000Y-126493200D01*
X191454000Y-126015750D01*
X191295250Y-125857000D01*
X190246000Y-125857000D01*
X190246000Y-125877000D01*
X189992000Y-125877000D01*
X189992000Y-125857000D01*
X189972000Y-125857000D01*
X189972000Y-125603000D01*
X189992000Y-125603000D01*
X189992000Y-124353750D01*
X190246000Y-124353750D01*
X190246000Y-125603000D01*
X191295250Y-125603000D01*
X191454000Y-125444250D01*
X191454000Y-124703691D01*
X191357327Y-124470302D01*
X191178699Y-124291673D01*
X190945310Y-124195000D01*
X190404750Y-124195000D01*
X190246000Y-124353750D01*
X189992000Y-124353750D01*
X189833250Y-124195000D01*
X189506800Y-124195000D01*
X189506800Y-115070259D01*
X190819000Y-115070259D01*
X190979015Y-115040150D01*
X191125980Y-114945581D01*
X191224573Y-114801285D01*
X191259259Y-114630000D01*
X191259259Y-113731687D01*
X191533925Y-113731927D01*
X191802990Y-113620752D01*
X192009028Y-113415073D01*
X192120673Y-113146203D01*
X192120927Y-112855075D01*
X192009752Y-112586010D01*
X191959580Y-112535750D01*
X192415000Y-112535750D01*
X192415000Y-112776310D01*
X192511673Y-113009699D01*
X192690302Y-113188327D01*
X192923691Y-113285000D01*
X193514250Y-113285000D01*
X193673000Y-113126250D01*
X193673000Y-112377000D01*
X193927000Y-112377000D01*
X193927000Y-113126250D01*
X194085750Y-113285000D01*
X194676309Y-113285000D01*
X194909698Y-113188327D01*
X195088327Y-113009699D01*
X195185000Y-112776310D01*
X195185000Y-112535750D01*
X195026250Y-112377000D01*
X193927000Y-112377000D01*
X193673000Y-112377000D01*
X192573750Y-112377000D01*
X192415000Y-112535750D01*
X191959580Y-112535750D01*
X191804073Y-112379972D01*
X191535203Y-112268327D01*
X191244075Y-112268073D01*
X190975010Y-112379248D01*
X190939961Y-112414236D01*
X190819000Y-112389741D01*
X189506800Y-112389741D01*
X189506800Y-111723690D01*
X192415000Y-111723690D01*
X192415000Y-111964250D01*
X192573750Y-112123000D01*
X193673000Y-112123000D01*
X193673000Y-111373750D01*
X193927000Y-111373750D01*
X193927000Y-112123000D01*
X195026250Y-112123000D01*
X195185000Y-111964250D01*
X195185000Y-111723690D01*
X195088327Y-111490301D01*
X194909698Y-111311673D01*
X194676309Y-111215000D01*
X194085750Y-111215000D01*
X193927000Y-111373750D01*
X193673000Y-111373750D01*
X193514250Y-111215000D01*
X192923691Y-111215000D01*
X192690302Y-111311673D01*
X192511673Y-111490301D01*
X192415000Y-111723690D01*
X189506800Y-111723690D01*
X189506800Y-111230538D01*
X189839680Y-111527954D01*
X190392087Y-111721184D01*
X190627000Y-111576924D01*
X190627000Y-110363000D01*
X190881000Y-110363000D01*
X190881000Y-111576924D01*
X191115913Y-111721184D01*
X191668320Y-111527954D01*
X192104732Y-111138036D01*
X192358709Y-110610791D01*
X192361358Y-110595026D01*
X192240217Y-110363000D01*
X190881000Y-110363000D01*
X190627000Y-110363000D01*
X190607000Y-110363000D01*
X190607000Y-110109000D01*
X190627000Y-110109000D01*
X190627000Y-110089000D01*
X190881000Y-110089000D01*
X190881000Y-110109000D01*
X192240217Y-110109000D01*
X192361358Y-109876974D01*
X192358709Y-109861209D01*
X192104732Y-109333964D01*
X191816904Y-109076800D01*
X193789741Y-109076800D01*
X193789741Y-109141000D01*
X193789741Y-109141000D01*
G37*
X193789741Y-109141000D02*
X193819850Y-109301015D01*
X193914419Y-109447980D01*
X194058715Y-109546573D01*
X194230000Y-109581259D01*
X195030000Y-109581259D01*
X195190015Y-109551150D01*
X195312281Y-109472474D01*
X195341203Y-109617873D01*
X195456829Y-109790921D01*
X197788077Y-112122168D01*
X197788079Y-112122171D01*
X197890906Y-112190877D01*
X197961126Y-112237797D01*
X198165250Y-112278400D01*
X199885741Y-112278400D01*
X199885741Y-112437233D01*
X199787673Y-112535302D01*
X199691000Y-112768691D01*
X199691000Y-112811250D01*
X199695750Y-112816000D01*
X199675750Y-112816000D01*
X199517000Y-112974750D01*
X199517000Y-113924000D01*
X200241250Y-113924000D01*
X200335250Y-113830000D01*
X200490250Y-113830000D01*
X200649000Y-113671250D01*
X200649000Y-113120000D01*
X200629000Y-113120000D01*
X200629000Y-112985259D01*
X200923000Y-112985259D01*
X200923000Y-113120000D01*
X200903000Y-113120000D01*
X200903000Y-113671250D01*
X201061750Y-113830000D01*
X201142600Y-113830000D01*
X201142600Y-114766839D01*
X201011573Y-114635583D01*
X200742703Y-114523938D01*
X200451575Y-114523684D01*
X200400000Y-114544994D01*
X200400000Y-114336750D01*
X200241250Y-114178000D01*
X199517000Y-114178000D01*
X199517000Y-114198000D01*
X199263000Y-114198000D01*
X199263000Y-114178000D01*
X198538750Y-114178000D01*
X198380000Y-114336750D01*
X198380000Y-114777309D01*
X198476673Y-115010698D01*
X198624146Y-115158172D01*
X198609427Y-115179715D01*
X198574741Y-115351000D01*
X198574741Y-115366800D01*
X198062839Y-115366800D01*
X198027073Y-115330972D01*
X197758203Y-115219327D01*
X197467075Y-115219073D01*
X197198010Y-115330248D01*
X197161394Y-115366800D01*
X196982148Y-115366800D01*
X197046798Y-115270044D01*
X197087402Y-115065921D01*
X197087401Y-115065916D01*
X197087401Y-114040259D01*
X197150000Y-114040259D01*
X197310015Y-114010150D01*
X197456980Y-113915581D01*
X197555573Y-113771285D01*
X197590259Y-113600000D01*
X197590259Y-113324691D01*
X198380000Y-113324691D01*
X198380000Y-113765250D01*
X198538750Y-113924000D01*
X199263000Y-113924000D01*
X199263000Y-112974750D01*
X199104250Y-112816000D01*
X198888690Y-112816000D01*
X198655301Y-112912673D01*
X198476673Y-113091302D01*
X198380000Y-113324691D01*
X197590259Y-113324691D01*
X197590259Y-112800000D01*
X197560150Y-112639985D01*
X197465581Y-112493020D01*
X197321285Y-112394427D01*
X197150000Y-112359741D01*
X195650000Y-112359741D01*
X195489985Y-112389850D01*
X195343020Y-112484419D01*
X195244427Y-112628715D01*
X195209741Y-112800000D01*
X195209741Y-113600000D01*
X195239850Y-113760015D01*
X195334419Y-113906980D01*
X195478715Y-114005573D01*
X195650000Y-114040259D01*
X195929210Y-114040259D01*
X196020601Y-114177037D01*
X196020601Y-114820601D01*
X194887713Y-114820601D01*
X194955573Y-114721285D01*
X194990259Y-114550000D01*
X194990259Y-113750000D01*
X194960150Y-113589985D01*
X194865581Y-113443020D01*
X194721285Y-113344427D01*
X194550000Y-113309741D01*
X193050000Y-113309741D01*
X192889985Y-113339850D01*
X192743020Y-113434419D01*
X192644427Y-113578715D01*
X192609741Y-113750000D01*
X192609741Y-114136234D01*
X192446203Y-114068327D01*
X192155075Y-114068073D01*
X191886010Y-114179248D01*
X191679972Y-114384927D01*
X191568327Y-114653797D01*
X191568073Y-114944925D01*
X191679248Y-115213990D01*
X191884927Y-115420028D01*
X191928016Y-115437920D01*
X191092828Y-116273108D01*
X190977202Y-116446156D01*
X190936599Y-116650279D01*
X190936599Y-118719999D01*
X190977202Y-118924122D01*
X191092828Y-119097170D01*
X191509741Y-119514083D01*
X191509741Y-120085917D01*
X191122829Y-120472829D01*
X191007203Y-120645877D01*
X190966600Y-120850000D01*
X190966600Y-122900000D01*
X191007203Y-123104123D01*
X191122829Y-123277171D01*
X191202825Y-123357167D01*
X191149972Y-123409927D01*
X191038327Y-123678797D01*
X191038073Y-123969925D01*
X191149248Y-124238990D01*
X191354927Y-124445028D01*
X191623797Y-124556673D01*
X191914925Y-124556927D01*
X192183990Y-124445752D01*
X192271494Y-124358400D01*
X193149741Y-124358400D01*
X193149741Y-125220000D01*
X193179850Y-125380015D01*
X193225019Y-125450209D01*
X193185500Y-125475639D01*
X193086907Y-125619935D01*
X193052221Y-125791220D01*
X193052221Y-126493200D01*
X191454000Y-126493200D01*
X191454000Y-126015750D01*
X191295250Y-125857000D01*
X190246000Y-125857000D01*
X190246000Y-125877000D01*
X189992000Y-125877000D01*
X189992000Y-125857000D01*
X189972000Y-125857000D01*
X189972000Y-125603000D01*
X189992000Y-125603000D01*
X189992000Y-124353750D01*
X190246000Y-124353750D01*
X190246000Y-125603000D01*
X191295250Y-125603000D01*
X191454000Y-125444250D01*
X191454000Y-124703691D01*
X191357327Y-124470302D01*
X191178699Y-124291673D01*
X190945310Y-124195000D01*
X190404750Y-124195000D01*
X190246000Y-124353750D01*
X189992000Y-124353750D01*
X189833250Y-124195000D01*
X189506800Y-124195000D01*
X189506800Y-115070259D01*
X190819000Y-115070259D01*
X190979015Y-115040150D01*
X191125980Y-114945581D01*
X191224573Y-114801285D01*
X191259259Y-114630000D01*
X191259259Y-113731687D01*
X191533925Y-113731927D01*
X191802990Y-113620752D01*
X192009028Y-113415073D01*
X192120673Y-113146203D01*
X192120927Y-112855075D01*
X192009752Y-112586010D01*
X191959580Y-112535750D01*
X192415000Y-112535750D01*
X192415000Y-112776310D01*
X192511673Y-113009699D01*
X192690302Y-113188327D01*
X192923691Y-113285000D01*
X193514250Y-113285000D01*
X193673000Y-113126250D01*
X193673000Y-112377000D01*
X193927000Y-112377000D01*
X193927000Y-113126250D01*
X194085750Y-113285000D01*
X194676309Y-113285000D01*
X194909698Y-113188327D01*
X195088327Y-113009699D01*
X195185000Y-112776310D01*
X195185000Y-112535750D01*
X195026250Y-112377000D01*
X193927000Y-112377000D01*
X193673000Y-112377000D01*
X192573750Y-112377000D01*
X192415000Y-112535750D01*
X191959580Y-112535750D01*
X191804073Y-112379972D01*
X191535203Y-112268327D01*
X191244075Y-112268073D01*
X190975010Y-112379248D01*
X190939961Y-112414236D01*
X190819000Y-112389741D01*
X189506800Y-112389741D01*
X189506800Y-111723690D01*
X192415000Y-111723690D01*
X192415000Y-111964250D01*
X192573750Y-112123000D01*
X193673000Y-112123000D01*
X193673000Y-111373750D01*
X193927000Y-111373750D01*
X193927000Y-112123000D01*
X195026250Y-112123000D01*
X195185000Y-111964250D01*
X195185000Y-111723690D01*
X195088327Y-111490301D01*
X194909698Y-111311673D01*
X194676309Y-111215000D01*
X194085750Y-111215000D01*
X193927000Y-111373750D01*
X193673000Y-111373750D01*
X193514250Y-111215000D01*
X192923691Y-111215000D01*
X192690302Y-111311673D01*
X192511673Y-111490301D01*
X192415000Y-111723690D01*
X189506800Y-111723690D01*
X189506800Y-111230538D01*
X189839680Y-111527954D01*
X190392087Y-111721184D01*
X190627000Y-111576924D01*
X190627000Y-110363000D01*
X190881000Y-110363000D01*
X190881000Y-111576924D01*
X191115913Y-111721184D01*
X191668320Y-111527954D01*
X192104732Y-111138036D01*
X192358709Y-110610791D01*
X192361358Y-110595026D01*
X192240217Y-110363000D01*
X190881000Y-110363000D01*
X190627000Y-110363000D01*
X190607000Y-110363000D01*
X190607000Y-110109000D01*
X190627000Y-110109000D01*
X190627000Y-110089000D01*
X190881000Y-110089000D01*
X190881000Y-110109000D01*
X192240217Y-110109000D01*
X192361358Y-109876974D01*
X192358709Y-109861209D01*
X192104732Y-109333964D01*
X191816904Y-109076800D01*
X193789741Y-109076800D01*
X193789741Y-109141000D01*
G36*
X201777350Y-120538515D02*
X201871919Y-120685480D01*
X201909054Y-120710853D01*
X201935329Y-120750177D01*
X202861951Y-121676799D01*
X202800100Y-121738650D01*
X202800100Y-121962281D01*
X202744527Y-122043615D01*
X202709841Y-122214900D01*
X202709841Y-123564900D01*
X202739950Y-123724915D01*
X202800100Y-123818391D01*
X202800100Y-124041150D01*
X202927100Y-124168150D01*
X202927100Y-125437900D01*
X205073100Y-125437900D01*
X205073100Y-125417900D01*
X205327100Y-125417900D01*
X205327100Y-125437900D01*
X207673100Y-125437900D01*
X207673100Y-125417900D01*
X207927100Y-125417900D01*
X207927100Y-125437900D01*
X207947100Y-125437900D01*
X207947100Y-125691900D01*
X207927100Y-125691900D01*
X207927100Y-125711900D01*
X207673100Y-125711900D01*
X207673100Y-125691900D01*
X205327100Y-125691900D01*
X205327100Y-125711900D01*
X205073100Y-125711900D01*
X205073100Y-125691900D01*
X202927100Y-125691900D01*
X202927100Y-125711900D01*
X202673100Y-125711900D01*
X202673100Y-125691900D01*
X200327100Y-125691900D01*
X200327100Y-125711900D01*
X200073100Y-125711900D01*
X200073100Y-125691900D01*
X198823850Y-125691900D01*
X198665100Y-125850650D01*
X198665100Y-126493200D01*
X197622520Y-126493200D01*
X197622520Y-126475750D01*
X197463770Y-126317000D01*
X196416020Y-126317000D01*
X196416020Y-126337000D01*
X196162020Y-126337000D01*
X196162020Y-126317000D01*
X196142020Y-126317000D01*
X196142020Y-126063000D01*
X196162020Y-126063000D01*
X196162020Y-126043000D01*
X196416020Y-126043000D01*
X196416020Y-126063000D01*
X197463770Y-126063000D01*
X197622520Y-125904250D01*
X197622520Y-125664910D01*
X197525847Y-125431521D01*
X197410736Y-125316410D01*
X197430259Y-125220000D01*
X197430259Y-124634083D01*
X197449218Y-124615124D01*
X197459012Y-124608580D01*
X197579002Y-124488590D01*
X198665100Y-124488590D01*
X198665100Y-125279150D01*
X198823850Y-125437900D01*
X200073100Y-125437900D01*
X200073100Y-125417900D01*
X200327100Y-125417900D01*
X200327100Y-125437900D01*
X202673100Y-125437900D01*
X202673100Y-124138650D01*
X202587850Y-124053400D01*
X202600100Y-124041150D01*
X202600100Y-123016900D01*
X202023850Y-123016900D01*
X201898850Y-123141900D01*
X201027100Y-123141900D01*
X201027100Y-123161900D01*
X200773100Y-123161900D01*
X200773100Y-123141900D01*
X199373850Y-123141900D01*
X199215100Y-123300650D01*
X199215100Y-123941210D01*
X199231126Y-123979900D01*
X199173791Y-123979900D01*
X198940402Y-124076573D01*
X198761773Y-124255201D01*
X198665100Y-124488590D01*
X197579002Y-124488590D01*
X199132171Y-122935421D01*
X199138715Y-122925627D01*
X199275146Y-122789196D01*
X199373850Y-122887900D01*
X200773100Y-122887900D01*
X200773100Y-122867900D01*
X201027100Y-122867900D01*
X201027100Y-122887900D01*
X202426350Y-122887900D01*
X202551350Y-122762900D01*
X202600100Y-122762900D01*
X202600100Y-121738650D01*
X202441350Y-121579900D01*
X202373791Y-121579900D01*
X202225100Y-121641490D01*
X202076409Y-121579900D01*
X201241348Y-121579900D01*
X201432778Y-121388471D01*
X201432781Y-121388469D01*
X201518894Y-121259591D01*
X201548407Y-121215422D01*
X201589010Y-121011299D01*
X201589010Y-120665332D01*
X201767607Y-120486735D01*
X201777350Y-120538515D01*
X201777350Y-120538515D01*
G37*
X201777350Y-120538515D02*
X201871919Y-120685480D01*
X201909054Y-120710853D01*
X201935329Y-120750177D01*
X202861951Y-121676799D01*
X202800100Y-121738650D01*
X202800100Y-121962281D01*
X202744527Y-122043615D01*
X202709841Y-122214900D01*
X202709841Y-123564900D01*
X202739950Y-123724915D01*
X202800100Y-123818391D01*
X202800100Y-124041150D01*
X202927100Y-124168150D01*
X202927100Y-125437900D01*
X205073100Y-125437900D01*
X205073100Y-125417900D01*
X205327100Y-125417900D01*
X205327100Y-125437900D01*
X207673100Y-125437900D01*
X207673100Y-125417900D01*
X207927100Y-125417900D01*
X207927100Y-125437900D01*
X207947100Y-125437900D01*
X207947100Y-125691900D01*
X207927100Y-125691900D01*
X207927100Y-125711900D01*
X207673100Y-125711900D01*
X207673100Y-125691900D01*
X205327100Y-125691900D01*
X205327100Y-125711900D01*
X205073100Y-125711900D01*
X205073100Y-125691900D01*
X202927100Y-125691900D01*
X202927100Y-125711900D01*
X202673100Y-125711900D01*
X202673100Y-125691900D01*
X200327100Y-125691900D01*
X200327100Y-125711900D01*
X200073100Y-125711900D01*
X200073100Y-125691900D01*
X198823850Y-125691900D01*
X198665100Y-125850650D01*
X198665100Y-126493200D01*
X197622520Y-126493200D01*
X197622520Y-126475750D01*
X197463770Y-126317000D01*
X196416020Y-126317000D01*
X196416020Y-126337000D01*
X196162020Y-126337000D01*
X196162020Y-126317000D01*
X196142020Y-126317000D01*
X196142020Y-126063000D01*
X196162020Y-126063000D01*
X196162020Y-126043000D01*
X196416020Y-126043000D01*
X196416020Y-126063000D01*
X197463770Y-126063000D01*
X197622520Y-125904250D01*
X197622520Y-125664910D01*
X197525847Y-125431521D01*
X197410736Y-125316410D01*
X197430259Y-125220000D01*
X197430259Y-124634083D01*
X197449218Y-124615124D01*
X197459012Y-124608580D01*
X197579002Y-124488590D01*
X198665100Y-124488590D01*
X198665100Y-125279150D01*
X198823850Y-125437900D01*
X200073100Y-125437900D01*
X200073100Y-125417900D01*
X200327100Y-125417900D01*
X200327100Y-125437900D01*
X202673100Y-125437900D01*
X202673100Y-124138650D01*
X202587850Y-124053400D01*
X202600100Y-124041150D01*
X202600100Y-123016900D01*
X202023850Y-123016900D01*
X201898850Y-123141900D01*
X201027100Y-123141900D01*
X201027100Y-123161900D01*
X200773100Y-123161900D01*
X200773100Y-123141900D01*
X199373850Y-123141900D01*
X199215100Y-123300650D01*
X199215100Y-123941210D01*
X199231126Y-123979900D01*
X199173791Y-123979900D01*
X198940402Y-124076573D01*
X198761773Y-124255201D01*
X198665100Y-124488590D01*
X197579002Y-124488590D01*
X199132171Y-122935421D01*
X199138715Y-122925627D01*
X199275146Y-122789196D01*
X199373850Y-122887900D01*
X200773100Y-122887900D01*
X200773100Y-122867900D01*
X201027100Y-122867900D01*
X201027100Y-122887900D01*
X202426350Y-122887900D01*
X202551350Y-122762900D01*
X202600100Y-122762900D01*
X202600100Y-121738650D01*
X202441350Y-121579900D01*
X202373791Y-121579900D01*
X202225100Y-121641490D01*
X202076409Y-121579900D01*
X201241348Y-121579900D01*
X201432778Y-121388471D01*
X201432781Y-121388469D01*
X201518894Y-121259591D01*
X201548407Y-121215422D01*
X201589010Y-121011299D01*
X201589010Y-120665332D01*
X201767607Y-120486735D01*
X201777350Y-120538515D01*
G36*
X214303797Y-122281673D02*
X214329279Y-122281695D01*
X214183673Y-122427302D01*
X214087000Y-122660691D01*
X214087000Y-122826250D01*
X214245750Y-122985000D01*
X214945000Y-122985000D01*
X214945000Y-122965000D01*
X215199000Y-122965000D01*
X215199000Y-122985000D01*
X215219000Y-122985000D01*
X215219000Y-123239000D01*
X215199000Y-123239000D01*
X215199000Y-123913250D01*
X215357750Y-124072000D01*
X215548310Y-124072000D01*
X215781699Y-123975327D01*
X215960327Y-123796698D01*
X215983148Y-123741603D01*
X216017615Y-123824818D01*
X216248449Y-124073763D01*
X216247985Y-124073850D01*
X216101020Y-124168419D01*
X216002427Y-124312715D01*
X215967741Y-124484000D01*
X215967741Y-125395201D01*
X215960327Y-125377302D01*
X215781699Y-125198673D01*
X215548310Y-125102000D01*
X215357750Y-125102000D01*
X215199000Y-125260750D01*
X215199000Y-125935000D01*
X215219000Y-125935000D01*
X215219000Y-126189000D01*
X215199000Y-126189000D01*
X215199000Y-126209000D01*
X214945000Y-126209000D01*
X214945000Y-126189000D01*
X214245750Y-126189000D01*
X214087000Y-126347750D01*
X214087000Y-126493200D01*
X213940753Y-126493200D01*
X213962259Y-126387000D01*
X213962259Y-125737000D01*
X213938493Y-125610691D01*
X214087000Y-125610691D01*
X214087000Y-125776250D01*
X214245750Y-125935000D01*
X214945000Y-125935000D01*
X214945000Y-125260750D01*
X214786250Y-125102000D01*
X214595690Y-125102000D01*
X214362301Y-125198673D01*
X214183673Y-125377302D01*
X214087000Y-125610691D01*
X213938493Y-125610691D01*
X213932150Y-125576985D01*
X213837581Y-125430020D01*
X213693285Y-125331427D01*
X213522000Y-125296741D01*
X212822000Y-125296741D01*
X212661985Y-125326850D01*
X212515020Y-125421419D01*
X212416427Y-125565715D01*
X212413000Y-125582638D01*
X212413000Y-125214691D01*
X212316327Y-124981302D01*
X212137699Y-124802673D01*
X211967503Y-124732175D01*
X212084980Y-124656581D01*
X212183573Y-124512285D01*
X212218259Y-124341000D01*
X212218259Y-123141000D01*
X212213781Y-123117200D01*
X212381741Y-123117200D01*
X212381741Y-123437000D01*
X212411850Y-123597015D01*
X212506419Y-123743980D01*
X212650715Y-123842573D01*
X212822000Y-123877259D01*
X213522000Y-123877259D01*
X213682015Y-123847150D01*
X213828980Y-123752581D01*
X213927573Y-123608285D01*
X213962259Y-123437000D01*
X213962259Y-123397750D01*
X214087000Y-123397750D01*
X214087000Y-123563309D01*
X214183673Y-123796698D01*
X214362301Y-123975327D01*
X214595690Y-124072000D01*
X214786250Y-124072000D01*
X214945000Y-123913250D01*
X214945000Y-123239000D01*
X214245750Y-123239000D01*
X214087000Y-123397750D01*
X213962259Y-123397750D01*
X213962259Y-122787000D01*
X213932150Y-122626985D01*
X213837581Y-122480020D01*
X213706211Y-122390259D01*
X213950000Y-122390259D01*
X214110015Y-122360150D01*
X214256980Y-122265581D01*
X214258762Y-122262973D01*
X214303797Y-122281673D01*
X214303797Y-122281673D01*
G37*
X214303797Y-122281673D02*
X214329279Y-122281695D01*
X214183673Y-122427302D01*
X214087000Y-122660691D01*
X214087000Y-122826250D01*
X214245750Y-122985000D01*
X214945000Y-122985000D01*
X214945000Y-122965000D01*
X215199000Y-122965000D01*
X215199000Y-122985000D01*
X215219000Y-122985000D01*
X215219000Y-123239000D01*
X215199000Y-123239000D01*
X215199000Y-123913250D01*
X215357750Y-124072000D01*
X215548310Y-124072000D01*
X215781699Y-123975327D01*
X215960327Y-123796698D01*
X215983148Y-123741603D01*
X216017615Y-123824818D01*
X216248449Y-124073763D01*
X216247985Y-124073850D01*
X216101020Y-124168419D01*
X216002427Y-124312715D01*
X215967741Y-124484000D01*
X215967741Y-125395201D01*
X215960327Y-125377302D01*
X215781699Y-125198673D01*
X215548310Y-125102000D01*
X215357750Y-125102000D01*
X215199000Y-125260750D01*
X215199000Y-125935000D01*
X215219000Y-125935000D01*
X215219000Y-126189000D01*
X215199000Y-126189000D01*
X215199000Y-126209000D01*
X214945000Y-126209000D01*
X214945000Y-126189000D01*
X214245750Y-126189000D01*
X214087000Y-126347750D01*
X214087000Y-126493200D01*
X213940753Y-126493200D01*
X213962259Y-126387000D01*
X213962259Y-125737000D01*
X213938493Y-125610691D01*
X214087000Y-125610691D01*
X214087000Y-125776250D01*
X214245750Y-125935000D01*
X214945000Y-125935000D01*
X214945000Y-125260750D01*
X214786250Y-125102000D01*
X214595690Y-125102000D01*
X214362301Y-125198673D01*
X214183673Y-125377302D01*
X214087000Y-125610691D01*
X213938493Y-125610691D01*
X213932150Y-125576985D01*
X213837581Y-125430020D01*
X213693285Y-125331427D01*
X213522000Y-125296741D01*
X212822000Y-125296741D01*
X212661985Y-125326850D01*
X212515020Y-125421419D01*
X212416427Y-125565715D01*
X212413000Y-125582638D01*
X212413000Y-125214691D01*
X212316327Y-124981302D01*
X212137699Y-124802673D01*
X211967503Y-124732175D01*
X212084980Y-124656581D01*
X212183573Y-124512285D01*
X212218259Y-124341000D01*
X212218259Y-123141000D01*
X212213781Y-123117200D01*
X212381741Y-123117200D01*
X212381741Y-123437000D01*
X212411850Y-123597015D01*
X212506419Y-123743980D01*
X212650715Y-123842573D01*
X212822000Y-123877259D01*
X213522000Y-123877259D01*
X213682015Y-123847150D01*
X213828980Y-123752581D01*
X213927573Y-123608285D01*
X213962259Y-123437000D01*
X213962259Y-123397750D01*
X214087000Y-123397750D01*
X214087000Y-123563309D01*
X214183673Y-123796698D01*
X214362301Y-123975327D01*
X214595690Y-124072000D01*
X214786250Y-124072000D01*
X214945000Y-123913250D01*
X214945000Y-123239000D01*
X214245750Y-123239000D01*
X214087000Y-123397750D01*
X213962259Y-123397750D01*
X213962259Y-122787000D01*
X213932150Y-122626985D01*
X213837581Y-122480020D01*
X213706211Y-122390259D01*
X213950000Y-122390259D01*
X214110015Y-122360150D01*
X214256980Y-122265581D01*
X214258762Y-122262973D01*
X214303797Y-122281673D01*
G36*
X211455000Y-125814000D02*
X211475000Y-125814000D01*
X211475000Y-126068000D01*
X211455000Y-126068000D01*
X211455000Y-126088000D01*
X211201000Y-126088000D01*
X211201000Y-126068000D01*
X211181000Y-126068000D01*
X211181000Y-125814000D01*
X211201000Y-125814000D01*
X211201000Y-125794000D01*
X211455000Y-125794000D01*
X211455000Y-125814000D01*
X211455000Y-125814000D01*
G37*
X211455000Y-125814000D02*
X211475000Y-125814000D01*
X211475000Y-126068000D01*
X211455000Y-126068000D01*
X211455000Y-126088000D01*
X211201000Y-126088000D01*
X211201000Y-126068000D01*
X211181000Y-126068000D01*
X211181000Y-125814000D01*
X211201000Y-125814000D01*
X211201000Y-125794000D01*
X211455000Y-125794000D01*
X211455000Y-125814000D01*
G36*
X208853727Y-122921028D02*
X208953411Y-122962421D01*
X208948427Y-122969715D01*
X208913741Y-123141000D01*
X208913741Y-124016074D01*
X208826409Y-123979900D01*
X208769074Y-123979900D01*
X208785100Y-123941210D01*
X208785100Y-123300650D01*
X208626350Y-123141900D01*
X207227100Y-123141900D01*
X207227100Y-123161900D01*
X206973100Y-123161900D01*
X206973100Y-123141900D01*
X206953100Y-123141900D01*
X206953100Y-122887900D01*
X206973100Y-122887900D01*
X206973100Y-122867900D01*
X207227100Y-122867900D01*
X207227100Y-122887900D01*
X208626350Y-122887900D01*
X208723588Y-122790662D01*
X208853727Y-122921028D01*
X208853727Y-122921028D01*
G37*
X208853727Y-122921028D02*
X208953411Y-122962421D01*
X208948427Y-122969715D01*
X208913741Y-123141000D01*
X208913741Y-124016074D01*
X208826409Y-123979900D01*
X208769074Y-123979900D01*
X208785100Y-123941210D01*
X208785100Y-123300650D01*
X208626350Y-123141900D01*
X207227100Y-123141900D01*
X207227100Y-123161900D01*
X206973100Y-123161900D01*
X206973100Y-123141900D01*
X206953100Y-123141900D01*
X206953100Y-122887900D01*
X206973100Y-122887900D01*
X206973100Y-122867900D01*
X207227100Y-122867900D01*
X207227100Y-122887900D01*
X208626350Y-122887900D01*
X208723588Y-122790662D01*
X208853727Y-122921028D01*
G36*
X196692558Y-123291600D02*
X195267210Y-123291600D01*
X195267354Y-123126074D01*
X195156179Y-122857009D01*
X194950500Y-122650971D01*
X194681630Y-122539326D01*
X194557988Y-122539218D01*
X194196560Y-122177790D01*
X197806368Y-122177790D01*
X196692558Y-123291600D01*
X196692558Y-123291600D01*
G37*
X196692558Y-123291600D02*
X195267210Y-123291600D01*
X195267354Y-123126074D01*
X195156179Y-122857009D01*
X194950500Y-122650971D01*
X194681630Y-122539326D01*
X194557988Y-122539218D01*
X194196560Y-122177790D01*
X197806368Y-122177790D01*
X196692558Y-123291600D01*
G36*
X217551000Y-122833000D02*
X217571000Y-122833000D01*
X217571000Y-123087000D01*
X217551000Y-123087000D01*
X217551000Y-123107000D01*
X217297000Y-123107000D01*
X217297000Y-123087000D01*
X217277000Y-123087000D01*
X217277000Y-122833000D01*
X217297000Y-122833000D01*
X217297000Y-122813000D01*
X217551000Y-122813000D01*
X217551000Y-122833000D01*
X217551000Y-122833000D01*
G37*
X217551000Y-122833000D02*
X217571000Y-122833000D01*
X217571000Y-123087000D01*
X217551000Y-123087000D01*
X217551000Y-123107000D01*
X217297000Y-123107000D01*
X217297000Y-123087000D01*
X217277000Y-123087000D01*
X217277000Y-122833000D01*
X217297000Y-122833000D01*
X217297000Y-122813000D01*
X217551000Y-122813000D01*
X217551000Y-122833000D01*
G36*
X208293579Y-121260199D02*
X207233783Y-121260199D01*
X207233927Y-121094664D01*
X207122752Y-120825599D01*
X207121951Y-120824797D01*
X207203166Y-120743723D01*
X207314811Y-120474853D01*
X207314980Y-120281600D01*
X208293579Y-121260199D01*
X208293579Y-121260199D01*
G37*
X208293579Y-121260199D02*
X207233783Y-121260199D01*
X207233927Y-121094664D01*
X207122752Y-120825599D01*
X207121951Y-120824797D01*
X207203166Y-120743723D01*
X207314811Y-120474853D01*
X207314980Y-120281600D01*
X208293579Y-121260199D01*
G36*
X197196927Y-116571028D02*
X197465797Y-116682673D01*
X197756925Y-116682927D01*
X198025990Y-116571752D01*
X198062606Y-116535200D01*
X198574741Y-116535200D01*
X198574741Y-116551000D01*
X198604850Y-116711015D01*
X198699419Y-116857980D01*
X198765727Y-116903286D01*
X198708020Y-116940419D01*
X198609427Y-117084715D01*
X198574741Y-117256000D01*
X198574741Y-118456000D01*
X198604850Y-118616015D01*
X198625253Y-118647722D01*
X198476673Y-118796302D01*
X198380000Y-119029691D01*
X198380000Y-119470250D01*
X198538750Y-119629000D01*
X199263000Y-119629000D01*
X199263000Y-119609000D01*
X199517000Y-119609000D01*
X199517000Y-119629000D01*
X199537000Y-119629000D01*
X199537000Y-119883000D01*
X199517000Y-119883000D01*
X199517000Y-119903000D01*
X199263000Y-119903000D01*
X199263000Y-119883000D01*
X198538750Y-119883000D01*
X198380000Y-120041750D01*
X198380000Y-120482309D01*
X198476673Y-120715698D01*
X198619487Y-120858513D01*
X198367010Y-121110990D01*
X197974031Y-121110990D01*
X198020028Y-121065073D01*
X198131673Y-120796203D01*
X198131927Y-120505075D01*
X198020752Y-120236010D01*
X197815073Y-120029972D01*
X197546203Y-119918327D01*
X197255075Y-119918073D01*
X197009360Y-120019600D01*
X196989259Y-120019600D01*
X196989259Y-119803000D01*
X196959150Y-119642985D01*
X196864581Y-119496020D01*
X196720285Y-119397427D01*
X196549000Y-119362741D01*
X195749000Y-119362741D01*
X195588985Y-119392850D01*
X195442020Y-119487419D01*
X195343427Y-119631715D01*
X195308741Y-119803000D01*
X195308741Y-121110990D01*
X195089259Y-121110990D01*
X195089259Y-119803000D01*
X195059150Y-119642985D01*
X194964581Y-119496020D01*
X194833200Y-119406251D01*
X194833200Y-119143259D01*
X195599000Y-119143259D01*
X195759015Y-119113150D01*
X195905980Y-119018581D01*
X196004573Y-118874285D01*
X196039259Y-118703000D01*
X196039259Y-118702408D01*
X196068797Y-118714673D01*
X196359925Y-118714927D01*
X196628990Y-118603752D01*
X196835028Y-118398073D01*
X196946673Y-118129203D01*
X196946927Y-117838075D01*
X196835752Y-117569010D01*
X196630073Y-117362972D01*
X196361203Y-117251327D01*
X196070075Y-117251073D01*
X196039259Y-117263806D01*
X196039259Y-117203000D01*
X196009150Y-117042985D01*
X195914581Y-116896020D01*
X195770285Y-116797427D01*
X195599000Y-116762741D01*
X194959443Y-116762741D01*
X195186984Y-116535200D01*
X197161161Y-116535200D01*
X197196927Y-116571028D01*
X197196927Y-116571028D01*
G37*
X197196927Y-116571028D02*
X197465797Y-116682673D01*
X197756925Y-116682927D01*
X198025990Y-116571752D01*
X198062606Y-116535200D01*
X198574741Y-116535200D01*
X198574741Y-116551000D01*
X198604850Y-116711015D01*
X198699419Y-116857980D01*
X198765727Y-116903286D01*
X198708020Y-116940419D01*
X198609427Y-117084715D01*
X198574741Y-117256000D01*
X198574741Y-118456000D01*
X198604850Y-118616015D01*
X198625253Y-118647722D01*
X198476673Y-118796302D01*
X198380000Y-119029691D01*
X198380000Y-119470250D01*
X198538750Y-119629000D01*
X199263000Y-119629000D01*
X199263000Y-119609000D01*
X199517000Y-119609000D01*
X199517000Y-119629000D01*
X199537000Y-119629000D01*
X199537000Y-119883000D01*
X199517000Y-119883000D01*
X199517000Y-119903000D01*
X199263000Y-119903000D01*
X199263000Y-119883000D01*
X198538750Y-119883000D01*
X198380000Y-120041750D01*
X198380000Y-120482309D01*
X198476673Y-120715698D01*
X198619487Y-120858513D01*
X198367010Y-121110990D01*
X197974031Y-121110990D01*
X198020028Y-121065073D01*
X198131673Y-120796203D01*
X198131927Y-120505075D01*
X198020752Y-120236010D01*
X197815073Y-120029972D01*
X197546203Y-119918327D01*
X197255075Y-119918073D01*
X197009360Y-120019600D01*
X196989259Y-120019600D01*
X196989259Y-119803000D01*
X196959150Y-119642985D01*
X196864581Y-119496020D01*
X196720285Y-119397427D01*
X196549000Y-119362741D01*
X195749000Y-119362741D01*
X195588985Y-119392850D01*
X195442020Y-119487419D01*
X195343427Y-119631715D01*
X195308741Y-119803000D01*
X195308741Y-121110990D01*
X195089259Y-121110990D01*
X195089259Y-119803000D01*
X195059150Y-119642985D01*
X194964581Y-119496020D01*
X194833200Y-119406251D01*
X194833200Y-119143259D01*
X195599000Y-119143259D01*
X195759015Y-119113150D01*
X195905980Y-119018581D01*
X196004573Y-118874285D01*
X196039259Y-118703000D01*
X196039259Y-118702408D01*
X196068797Y-118714673D01*
X196359925Y-118714927D01*
X196628990Y-118603752D01*
X196835028Y-118398073D01*
X196946673Y-118129203D01*
X196946927Y-117838075D01*
X196835752Y-117569010D01*
X196630073Y-117362972D01*
X196361203Y-117251327D01*
X196070075Y-117251073D01*
X196039259Y-117263806D01*
X196039259Y-117203000D01*
X196009150Y-117042985D01*
X195914581Y-116896020D01*
X195770285Y-116797427D01*
X195599000Y-116762741D01*
X194959443Y-116762741D01*
X195186984Y-116535200D01*
X197161161Y-116535200D01*
X197196927Y-116571028D01*
G36*
X217297000Y-110109000D02*
X217317000Y-110109000D01*
X217317000Y-110363000D01*
X217297000Y-110363000D01*
X217297000Y-111576924D01*
X217531913Y-111721184D01*
X218084320Y-111527954D01*
X218493200Y-111162635D01*
X218493200Y-112966598D01*
X218476150Y-112875985D01*
X218381581Y-112729020D01*
X218237285Y-112630427D01*
X218229856Y-112628923D01*
X218205730Y-112507636D01*
X218079092Y-112318108D01*
X217697892Y-111936908D01*
X217661213Y-111912400D01*
X217508364Y-111810270D01*
X217284800Y-111765800D01*
X216800839Y-111765800D01*
X216765073Y-111729972D01*
X216496203Y-111618327D01*
X216205075Y-111618073D01*
X216024889Y-111692524D01*
X215846203Y-111618327D01*
X215555075Y-111618073D01*
X215286010Y-111729248D01*
X215079972Y-111934927D01*
X214968327Y-112203797D01*
X214968073Y-112494925D01*
X215079248Y-112763990D01*
X215158476Y-112843357D01*
X215131000Y-112909690D01*
X215131000Y-113125250D01*
X215289750Y-113284000D01*
X216039000Y-113284000D01*
X216039000Y-113264000D01*
X216293000Y-113264000D01*
X216293000Y-113284000D01*
X216313000Y-113284000D01*
X216313000Y-113538000D01*
X216293000Y-113538000D01*
X216293000Y-113558000D01*
X216039000Y-113558000D01*
X216039000Y-113538000D01*
X215289750Y-113538000D01*
X215131000Y-113696750D01*
X215131000Y-113912310D01*
X215227673Y-114145699D01*
X215309212Y-114227238D01*
X215235427Y-114335226D01*
X215200741Y-114506511D01*
X215200741Y-116066511D01*
X215230850Y-116226526D01*
X215325419Y-116373491D01*
X215469715Y-116472084D01*
X215641000Y-116506770D01*
X216291000Y-116506770D01*
X216451015Y-116476661D01*
X216597980Y-116382092D01*
X216696573Y-116237796D01*
X216731259Y-116066511D01*
X216731259Y-114506511D01*
X216713516Y-114412216D01*
X216925698Y-114324327D01*
X216980200Y-114269825D01*
X216980200Y-114986511D01*
X217032403Y-115248956D01*
X217100741Y-115351231D01*
X217100741Y-115966511D01*
X217130850Y-116126526D01*
X217225419Y-116273491D01*
X217369715Y-116372084D01*
X217541000Y-116406770D01*
X218191000Y-116406770D01*
X218351015Y-116376661D01*
X218493200Y-116285168D01*
X218493200Y-116790388D01*
X218362285Y-116700938D01*
X218191000Y-116666252D01*
X217698766Y-116666252D01*
X217600699Y-116568184D01*
X217367310Y-116471511D01*
X217201750Y-116471511D01*
X217043000Y-116630261D01*
X217043000Y-117759511D01*
X217063000Y-117759511D01*
X217063000Y-118013511D01*
X217043000Y-118013511D01*
X217043000Y-118033511D01*
X216789000Y-118033511D01*
X216789000Y-118013511D01*
X216769000Y-118013511D01*
X216769000Y-117759511D01*
X216789000Y-117759511D01*
X216789000Y-116630261D01*
X216630250Y-116471511D01*
X216464690Y-116471511D01*
X216231301Y-116568184D01*
X216133234Y-116666252D01*
X215641000Y-116666252D01*
X215480985Y-116696361D01*
X215334020Y-116790930D01*
X215235427Y-116935226D01*
X215200741Y-117106511D01*
X215200741Y-118666511D01*
X215224371Y-118792093D01*
X215080533Y-118851673D01*
X214901904Y-119030301D01*
X214805231Y-119263690D01*
X214805231Y-119729250D01*
X214963981Y-119888000D01*
X215813231Y-119888000D01*
X215813231Y-119868000D01*
X216067231Y-119868000D01*
X216067231Y-119888000D01*
X216087231Y-119888000D01*
X216087231Y-120142000D01*
X216067231Y-120142000D01*
X216067231Y-120162000D01*
X215813231Y-120162000D01*
X215813231Y-120142000D01*
X214963981Y-120142000D01*
X214805231Y-120300750D01*
X214805231Y-120766310D01*
X214838130Y-120845734D01*
X214793439Y-120864200D01*
X214706677Y-120864200D01*
X214596203Y-120818327D01*
X214305075Y-120818073D01*
X214257712Y-120837643D01*
X214121285Y-120744427D01*
X213950000Y-120709741D01*
X212544601Y-120709741D01*
X212764083Y-120490259D01*
X213950000Y-120490259D01*
X214110015Y-120460150D01*
X214256980Y-120365581D01*
X214355573Y-120221285D01*
X214390259Y-120050000D01*
X214390259Y-119250000D01*
X214360150Y-119089985D01*
X214265581Y-118943020D01*
X214121285Y-118844427D01*
X214035000Y-118826954D01*
X214035000Y-118585750D01*
X213876250Y-118427000D01*
X212927000Y-118427000D01*
X212927000Y-118447000D01*
X212673000Y-118447000D01*
X212673000Y-118427000D01*
X212653000Y-118427000D01*
X212653000Y-118173000D01*
X212673000Y-118173000D01*
X212673000Y-118153000D01*
X212927000Y-118153000D01*
X212927000Y-118173000D01*
X213876250Y-118173000D01*
X214035000Y-118014250D01*
X214035000Y-117723690D01*
X213938327Y-117490301D01*
X213790853Y-117342828D01*
X213805573Y-117321285D01*
X213840259Y-117150000D01*
X213840259Y-116250000D01*
X213810150Y-116089985D01*
X213715581Y-115943020D01*
X213582765Y-115852271D01*
X213620028Y-115815073D01*
X213731673Y-115546203D01*
X213731927Y-115255075D01*
X213620752Y-114986010D01*
X213415073Y-114779972D01*
X213146203Y-114668327D01*
X213075922Y-114668266D01*
X213075927Y-114663075D01*
X212964752Y-114394010D01*
X212897796Y-114326938D01*
X212925573Y-114286285D01*
X212960259Y-114115000D01*
X212960259Y-113529083D01*
X213356171Y-113133171D01*
X213471797Y-112960123D01*
X213512400Y-112756000D01*
X213512400Y-111379000D01*
X213493979Y-111286393D01*
X213471797Y-111174876D01*
X213392816Y-111056673D01*
X213356171Y-111001829D01*
X213356168Y-111001827D01*
X213205600Y-110851259D01*
X213760000Y-110851259D01*
X213920015Y-110821150D01*
X214066980Y-110726581D01*
X214165573Y-110582285D01*
X214200259Y-110411000D01*
X214200259Y-110346800D01*
X215205000Y-110346800D01*
X215467445Y-110294597D01*
X215519000Y-110260149D01*
X215519000Y-110363002D01*
X215683782Y-110363002D01*
X215562642Y-110595026D01*
X215565291Y-110610791D01*
X215819268Y-111138036D01*
X216255680Y-111527954D01*
X216808087Y-111721184D01*
X217043000Y-111576924D01*
X217043000Y-110363000D01*
X217023000Y-110363000D01*
X217023000Y-110109000D01*
X217043000Y-110109000D01*
X217043000Y-110089000D01*
X217297000Y-110089000D01*
X217297000Y-110109000D01*
X217297000Y-110109000D01*
G37*
X217297000Y-110109000D02*
X217317000Y-110109000D01*
X217317000Y-110363000D01*
X217297000Y-110363000D01*
X217297000Y-111576924D01*
X217531913Y-111721184D01*
X218084320Y-111527954D01*
X218493200Y-111162635D01*
X218493200Y-112966598D01*
X218476150Y-112875985D01*
X218381581Y-112729020D01*
X218237285Y-112630427D01*
X218229856Y-112628923D01*
X218205730Y-112507636D01*
X218079092Y-112318108D01*
X217697892Y-111936908D01*
X217661213Y-111912400D01*
X217508364Y-111810270D01*
X217284800Y-111765800D01*
X216800839Y-111765800D01*
X216765073Y-111729972D01*
X216496203Y-111618327D01*
X216205075Y-111618073D01*
X216024889Y-111692524D01*
X215846203Y-111618327D01*
X215555075Y-111618073D01*
X215286010Y-111729248D01*
X215079972Y-111934927D01*
X214968327Y-112203797D01*
X214968073Y-112494925D01*
X215079248Y-112763990D01*
X215158476Y-112843357D01*
X215131000Y-112909690D01*
X215131000Y-113125250D01*
X215289750Y-113284000D01*
X216039000Y-113284000D01*
X216039000Y-113264000D01*
X216293000Y-113264000D01*
X216293000Y-113284000D01*
X216313000Y-113284000D01*
X216313000Y-113538000D01*
X216293000Y-113538000D01*
X216293000Y-113558000D01*
X216039000Y-113558000D01*
X216039000Y-113538000D01*
X215289750Y-113538000D01*
X215131000Y-113696750D01*
X215131000Y-113912310D01*
X215227673Y-114145699D01*
X215309212Y-114227238D01*
X215235427Y-114335226D01*
X215200741Y-114506511D01*
X215200741Y-116066511D01*
X215230850Y-116226526D01*
X215325419Y-116373491D01*
X215469715Y-116472084D01*
X215641000Y-116506770D01*
X216291000Y-116506770D01*
X216451015Y-116476661D01*
X216597980Y-116382092D01*
X216696573Y-116237796D01*
X216731259Y-116066511D01*
X216731259Y-114506511D01*
X216713516Y-114412216D01*
X216925698Y-114324327D01*
X216980200Y-114269825D01*
X216980200Y-114986511D01*
X217032403Y-115248956D01*
X217100741Y-115351231D01*
X217100741Y-115966511D01*
X217130850Y-116126526D01*
X217225419Y-116273491D01*
X217369715Y-116372084D01*
X217541000Y-116406770D01*
X218191000Y-116406770D01*
X218351015Y-116376661D01*
X218493200Y-116285168D01*
X218493200Y-116790388D01*
X218362285Y-116700938D01*
X218191000Y-116666252D01*
X217698766Y-116666252D01*
X217600699Y-116568184D01*
X217367310Y-116471511D01*
X217201750Y-116471511D01*
X217043000Y-116630261D01*
X217043000Y-117759511D01*
X217063000Y-117759511D01*
X217063000Y-118013511D01*
X217043000Y-118013511D01*
X217043000Y-118033511D01*
X216789000Y-118033511D01*
X216789000Y-118013511D01*
X216769000Y-118013511D01*
X216769000Y-117759511D01*
X216789000Y-117759511D01*
X216789000Y-116630261D01*
X216630250Y-116471511D01*
X216464690Y-116471511D01*
X216231301Y-116568184D01*
X216133234Y-116666252D01*
X215641000Y-116666252D01*
X215480985Y-116696361D01*
X215334020Y-116790930D01*
X215235427Y-116935226D01*
X215200741Y-117106511D01*
X215200741Y-118666511D01*
X215224371Y-118792093D01*
X215080533Y-118851673D01*
X214901904Y-119030301D01*
X214805231Y-119263690D01*
X214805231Y-119729250D01*
X214963981Y-119888000D01*
X215813231Y-119888000D01*
X215813231Y-119868000D01*
X216067231Y-119868000D01*
X216067231Y-119888000D01*
X216087231Y-119888000D01*
X216087231Y-120142000D01*
X216067231Y-120142000D01*
X216067231Y-120162000D01*
X215813231Y-120162000D01*
X215813231Y-120142000D01*
X214963981Y-120142000D01*
X214805231Y-120300750D01*
X214805231Y-120766310D01*
X214838130Y-120845734D01*
X214793439Y-120864200D01*
X214706677Y-120864200D01*
X214596203Y-120818327D01*
X214305075Y-120818073D01*
X214257712Y-120837643D01*
X214121285Y-120744427D01*
X213950000Y-120709741D01*
X212544601Y-120709741D01*
X212764083Y-120490259D01*
X213950000Y-120490259D01*
X214110015Y-120460150D01*
X214256980Y-120365581D01*
X214355573Y-120221285D01*
X214390259Y-120050000D01*
X214390259Y-119250000D01*
X214360150Y-119089985D01*
X214265581Y-118943020D01*
X214121285Y-118844427D01*
X214035000Y-118826954D01*
X214035000Y-118585750D01*
X213876250Y-118427000D01*
X212927000Y-118427000D01*
X212927000Y-118447000D01*
X212673000Y-118447000D01*
X212673000Y-118427000D01*
X212653000Y-118427000D01*
X212653000Y-118173000D01*
X212673000Y-118173000D01*
X212673000Y-118153000D01*
X212927000Y-118153000D01*
X212927000Y-118173000D01*
X213876250Y-118173000D01*
X214035000Y-118014250D01*
X214035000Y-117723690D01*
X213938327Y-117490301D01*
X213790853Y-117342828D01*
X213805573Y-117321285D01*
X213840259Y-117150000D01*
X213840259Y-116250000D01*
X213810150Y-116089985D01*
X213715581Y-115943020D01*
X213582765Y-115852271D01*
X213620028Y-115815073D01*
X213731673Y-115546203D01*
X213731927Y-115255075D01*
X213620752Y-114986010D01*
X213415073Y-114779972D01*
X213146203Y-114668327D01*
X213075922Y-114668266D01*
X213075927Y-114663075D01*
X212964752Y-114394010D01*
X212897796Y-114326938D01*
X212925573Y-114286285D01*
X212960259Y-114115000D01*
X212960259Y-113529083D01*
X213356171Y-113133171D01*
X213471797Y-112960123D01*
X213512400Y-112756000D01*
X213512400Y-111379000D01*
X213493979Y-111286393D01*
X213471797Y-111174876D01*
X213392816Y-111056673D01*
X213356171Y-111001829D01*
X213356168Y-111001827D01*
X213205600Y-110851259D01*
X213760000Y-110851259D01*
X213920015Y-110821150D01*
X214066980Y-110726581D01*
X214165573Y-110582285D01*
X214200259Y-110411000D01*
X214200259Y-110346800D01*
X215205000Y-110346800D01*
X215467445Y-110294597D01*
X215519000Y-110260149D01*
X215519000Y-110363002D01*
X215683782Y-110363002D01*
X215562642Y-110595026D01*
X215565291Y-110610791D01*
X215819268Y-111138036D01*
X216255680Y-111527954D01*
X216808087Y-111721184D01*
X217043000Y-111576924D01*
X217043000Y-110363000D01*
X217023000Y-110363000D01*
X217023000Y-110109000D01*
X217043000Y-110109000D01*
X217043000Y-110089000D01*
X217297000Y-110089000D01*
X217297000Y-110109000D01*
G36*
X208023253Y-116427722D02*
X207874673Y-116576302D01*
X207778000Y-116809691D01*
X207778000Y-117250250D01*
X207936750Y-117409000D01*
X208661000Y-117409000D01*
X208661000Y-117389000D01*
X208915000Y-117389000D01*
X208915000Y-117409000D01*
X208935000Y-117409000D01*
X208935000Y-117663000D01*
X208915000Y-117663000D01*
X208915000Y-118612250D01*
X209073750Y-118771000D01*
X209289310Y-118771000D01*
X209522699Y-118674327D01*
X209559741Y-118637285D01*
X209559741Y-118750000D01*
X209589850Y-118910015D01*
X209684419Y-119056980D01*
X209828715Y-119155573D01*
X210000000Y-119190259D01*
X211116600Y-119190259D01*
X211116600Y-119679059D01*
X211035918Y-119759741D01*
X209850000Y-119759741D01*
X209689985Y-119789850D01*
X209543020Y-119884419D01*
X209444427Y-120028715D01*
X209409741Y-120200000D01*
X209409741Y-120364770D01*
X207889923Y-118844951D01*
X208020028Y-118715073D01*
X208041746Y-118662771D01*
X208053301Y-118674327D01*
X208286690Y-118771000D01*
X208502250Y-118771000D01*
X208661000Y-118612250D01*
X208661000Y-117663000D01*
X207936750Y-117663000D01*
X207867380Y-117732370D01*
X207815073Y-117679972D01*
X207546203Y-117568327D01*
X207255075Y-117568073D01*
X207238277Y-117575014D01*
X207252759Y-117503500D01*
X207252759Y-117253500D01*
X207228375Y-117123911D01*
X207252759Y-117003500D01*
X207252759Y-116961266D01*
X207350827Y-116863199D01*
X207447500Y-116629810D01*
X207447500Y-116599750D01*
X207353252Y-116505502D01*
X207447500Y-116505502D01*
X207447500Y-116411900D01*
X208013072Y-116411900D01*
X208023253Y-116427722D01*
X208023253Y-116427722D01*
G37*
X208023253Y-116427722D02*
X207874673Y-116576302D01*
X207778000Y-116809691D01*
X207778000Y-117250250D01*
X207936750Y-117409000D01*
X208661000Y-117409000D01*
X208661000Y-117389000D01*
X208915000Y-117389000D01*
X208915000Y-117409000D01*
X208935000Y-117409000D01*
X208935000Y-117663000D01*
X208915000Y-117663000D01*
X208915000Y-118612250D01*
X209073750Y-118771000D01*
X209289310Y-118771000D01*
X209522699Y-118674327D01*
X209559741Y-118637285D01*
X209559741Y-118750000D01*
X209589850Y-118910015D01*
X209684419Y-119056980D01*
X209828715Y-119155573D01*
X210000000Y-119190259D01*
X211116600Y-119190259D01*
X211116600Y-119679059D01*
X211035918Y-119759741D01*
X209850000Y-119759741D01*
X209689985Y-119789850D01*
X209543020Y-119884419D01*
X209444427Y-120028715D01*
X209409741Y-120200000D01*
X209409741Y-120364770D01*
X207889923Y-118844951D01*
X208020028Y-118715073D01*
X208041746Y-118662771D01*
X208053301Y-118674327D01*
X208286690Y-118771000D01*
X208502250Y-118771000D01*
X208661000Y-118612250D01*
X208661000Y-117663000D01*
X207936750Y-117663000D01*
X207867380Y-117732370D01*
X207815073Y-117679972D01*
X207546203Y-117568327D01*
X207255075Y-117568073D01*
X207238277Y-117575014D01*
X207252759Y-117503500D01*
X207252759Y-117253500D01*
X207228375Y-117123911D01*
X207252759Y-117003500D01*
X207252759Y-116961266D01*
X207350827Y-116863199D01*
X207447500Y-116629810D01*
X207447500Y-116599750D01*
X207353252Y-116505502D01*
X207447500Y-116505502D01*
X207447500Y-116411900D01*
X208013072Y-116411900D01*
X208023253Y-116427722D01*
G36*
X203327000Y-116639000D02*
X204798000Y-116639000D01*
X204798000Y-116619000D01*
X205052000Y-116619000D01*
X205052000Y-116639000D01*
X205072000Y-116639000D01*
X205072000Y-116893000D01*
X205052000Y-116893000D01*
X205052000Y-118364000D01*
X205072000Y-118364000D01*
X205072000Y-118618000D01*
X205052000Y-118618000D01*
X205052000Y-118638000D01*
X204798000Y-118638000D01*
X204798000Y-118618000D01*
X203327000Y-118618000D01*
X203327000Y-118638000D01*
X203073000Y-118638000D01*
X203073000Y-118618000D01*
X203053000Y-118618000D01*
X203053000Y-118364000D01*
X203073000Y-118364000D01*
X203073000Y-116893000D01*
X203327000Y-116893000D01*
X203327000Y-118364000D01*
X204798000Y-118364000D01*
X204798000Y-116893000D01*
X203327000Y-116893000D01*
X203073000Y-116893000D01*
X203053000Y-116893000D01*
X203053000Y-116639000D01*
X203073000Y-116639000D01*
X203073000Y-116619000D01*
X203327000Y-116619000D01*
X203327000Y-116639000D01*
X203327000Y-116639000D01*
G37*
X203327000Y-116639000D02*
X204798000Y-116639000D01*
X204798000Y-116619000D01*
X205052000Y-116619000D01*
X205052000Y-116639000D01*
X205072000Y-116639000D01*
X205072000Y-116893000D01*
X205052000Y-116893000D01*
X205052000Y-118364000D01*
X205072000Y-118364000D01*
X205072000Y-118618000D01*
X205052000Y-118618000D01*
X205052000Y-118638000D01*
X204798000Y-118638000D01*
X204798000Y-118618000D01*
X203327000Y-118618000D01*
X203327000Y-118638000D01*
X203073000Y-118638000D01*
X203073000Y-118618000D01*
X203053000Y-118618000D01*
X203053000Y-118364000D01*
X203073000Y-118364000D01*
X203073000Y-116893000D01*
X203327000Y-116893000D01*
X203327000Y-118364000D01*
X204798000Y-118364000D01*
X204798000Y-116893000D01*
X203327000Y-116893000D01*
X203073000Y-116893000D01*
X203053000Y-116893000D01*
X203053000Y-116639000D01*
X203073000Y-116639000D01*
X203073000Y-116619000D01*
X203327000Y-116619000D01*
X203327000Y-116639000D01*
G36*
X200677500Y-118005502D02*
X200727956Y-118005502D01*
X200186926Y-118546532D01*
X200205259Y-118456000D01*
X200205259Y-117911900D01*
X200677500Y-117911900D01*
X200677500Y-118005502D01*
X200677500Y-118005502D01*
G37*
X200677500Y-118005502D02*
X200727956Y-118005502D01*
X200186926Y-118546532D01*
X200205259Y-118456000D01*
X200205259Y-117911900D01*
X200677500Y-117911900D01*
X200677500Y-118005502D01*
G36*
X193835908Y-116233908D02*
X193709270Y-116423436D01*
X193664800Y-116647000D01*
X193664800Y-117271800D01*
X192474839Y-117271800D01*
X192439073Y-117235972D01*
X192170203Y-117124327D01*
X192003399Y-117124181D01*
X192003399Y-116871221D01*
X192987219Y-115887401D01*
X194182415Y-115887401D01*
X193835908Y-116233908D01*
X193835908Y-116233908D01*
G37*
X193835908Y-116233908D02*
X193709270Y-116423436D01*
X193664800Y-116647000D01*
X193664800Y-117271800D01*
X192474839Y-117271800D01*
X192439073Y-117235972D01*
X192170203Y-117124327D01*
X192003399Y-117124181D01*
X192003399Y-116871221D01*
X192987219Y-115887401D01*
X194182415Y-115887401D01*
X193835908Y-116233908D01*
G36*
X204987000Y-113004600D02*
X204978000Y-113004600D01*
X204773877Y-113045203D01*
X204693000Y-113099243D01*
X204693000Y-112985259D01*
X204987000Y-112985259D01*
X204987000Y-113004600D01*
X204987000Y-113004600D01*
G37*
X204987000Y-113004600D02*
X204978000Y-113004600D01*
X204773877Y-113045203D01*
X204693000Y-113099243D01*
X204693000Y-112985259D01*
X204987000Y-112985259D01*
X204987000Y-113004600D01*
G36*
X204825600Y-107535942D02*
X204825600Y-109903023D01*
X204743583Y-110100541D01*
X204743329Y-110391669D01*
X204854504Y-110660734D01*
X205060183Y-110866772D01*
X205329053Y-110978417D01*
X205620181Y-110978671D01*
X205889246Y-110867496D01*
X206045436Y-110711578D01*
X206293858Y-110960000D01*
X206063690Y-110960000D01*
X205830301Y-111056673D01*
X205651673Y-111235302D01*
X205620338Y-111310952D01*
X205605581Y-111288020D01*
X205461285Y-111189427D01*
X205290000Y-111154741D01*
X204390000Y-111154741D01*
X204284612Y-111174571D01*
X204250073Y-111139972D01*
X203981203Y-111028327D01*
X203690075Y-111028073D01*
X203454455Y-111125429D01*
X203385699Y-111056673D01*
X203152310Y-110960000D01*
X202861750Y-110960000D01*
X202703000Y-111118750D01*
X202703000Y-111670000D01*
X202723000Y-111670000D01*
X202723000Y-111804741D01*
X202429000Y-111804741D01*
X202429000Y-111670000D01*
X202449000Y-111670000D01*
X202449000Y-111118750D01*
X202290250Y-110960000D01*
X201999690Y-110960000D01*
X201766301Y-111056673D01*
X201587673Y-111235302D01*
X201556338Y-111310952D01*
X201541581Y-111288020D01*
X201397285Y-111189427D01*
X201226000Y-111154741D01*
X200910562Y-111154741D01*
X201104698Y-111074327D01*
X201283327Y-110895699D01*
X201380000Y-110662310D01*
X201380000Y-110521750D01*
X201221250Y-110363000D01*
X199897000Y-110363000D01*
X199897000Y-111012250D01*
X200055750Y-111171000D01*
X200239591Y-111171000D01*
X200165985Y-111184850D01*
X200124414Y-111211600D01*
X199309528Y-111211600D01*
X199309564Y-111171000D01*
X199484250Y-111171000D01*
X199643000Y-111012250D01*
X199643000Y-110363000D01*
X198318750Y-110363000D01*
X198215546Y-110466204D01*
X197612002Y-109862660D01*
X197612002Y-109722252D01*
X197770750Y-109881000D01*
X197986310Y-109881000D01*
X198160317Y-109808924D01*
X198160000Y-109809690D01*
X198160000Y-109950250D01*
X198318750Y-110109000D01*
X199643000Y-110109000D01*
X199643000Y-109093000D01*
X199897000Y-109093000D01*
X199897000Y-110109000D01*
X201221250Y-110109000D01*
X201380000Y-109950250D01*
X201380000Y-109809690D01*
X201293558Y-109601000D01*
X201380000Y-109392310D01*
X201380000Y-109251750D01*
X201221250Y-109093000D01*
X199897000Y-109093000D01*
X199643000Y-109093000D01*
X199623000Y-109093000D01*
X199623000Y-108839000D01*
X199643000Y-108839000D01*
X199643000Y-108819000D01*
X199897000Y-108819000D01*
X199897000Y-108839000D01*
X201221250Y-108839000D01*
X201380000Y-108680250D01*
X201380000Y-108539690D01*
X201283327Y-108306301D01*
X201148031Y-108171006D01*
X201150573Y-108167285D01*
X201185259Y-107996000D01*
X201185259Y-107396000D01*
X201155150Y-107235985D01*
X201060581Y-107089020D01*
X201020654Y-107061739D01*
X201051980Y-107041581D01*
X201150573Y-106897285D01*
X201185259Y-106726000D01*
X201185259Y-106126000D01*
X201155150Y-105965985D01*
X201060581Y-105819020D01*
X201020654Y-105791739D01*
X201051980Y-105771581D01*
X201108132Y-105689400D01*
X202979058Y-105689400D01*
X204825600Y-107535942D01*
X204825600Y-107535942D01*
G37*
X204825600Y-107535942D02*
X204825600Y-109903023D01*
X204743583Y-110100541D01*
X204743329Y-110391669D01*
X204854504Y-110660734D01*
X205060183Y-110866772D01*
X205329053Y-110978417D01*
X205620181Y-110978671D01*
X205889246Y-110867496D01*
X206045436Y-110711578D01*
X206293858Y-110960000D01*
X206063690Y-110960000D01*
X205830301Y-111056673D01*
X205651673Y-111235302D01*
X205620338Y-111310952D01*
X205605581Y-111288020D01*
X205461285Y-111189427D01*
X205290000Y-111154741D01*
X204390000Y-111154741D01*
X204284612Y-111174571D01*
X204250073Y-111139972D01*
X203981203Y-111028327D01*
X203690075Y-111028073D01*
X203454455Y-111125429D01*
X203385699Y-111056673D01*
X203152310Y-110960000D01*
X202861750Y-110960000D01*
X202703000Y-111118750D01*
X202703000Y-111670000D01*
X202723000Y-111670000D01*
X202723000Y-111804741D01*
X202429000Y-111804741D01*
X202429000Y-111670000D01*
X202449000Y-111670000D01*
X202449000Y-111118750D01*
X202290250Y-110960000D01*
X201999690Y-110960000D01*
X201766301Y-111056673D01*
X201587673Y-111235302D01*
X201556338Y-111310952D01*
X201541581Y-111288020D01*
X201397285Y-111189427D01*
X201226000Y-111154741D01*
X200910562Y-111154741D01*
X201104698Y-111074327D01*
X201283327Y-110895699D01*
X201380000Y-110662310D01*
X201380000Y-110521750D01*
X201221250Y-110363000D01*
X199897000Y-110363000D01*
X199897000Y-111012250D01*
X200055750Y-111171000D01*
X200239591Y-111171000D01*
X200165985Y-111184850D01*
X200124414Y-111211600D01*
X199309528Y-111211600D01*
X199309564Y-111171000D01*
X199484250Y-111171000D01*
X199643000Y-111012250D01*
X199643000Y-110363000D01*
X198318750Y-110363000D01*
X198215546Y-110466204D01*
X197612002Y-109862660D01*
X197612002Y-109722252D01*
X197770750Y-109881000D01*
X197986310Y-109881000D01*
X198160317Y-109808924D01*
X198160000Y-109809690D01*
X198160000Y-109950250D01*
X198318750Y-110109000D01*
X199643000Y-110109000D01*
X199643000Y-109093000D01*
X199897000Y-109093000D01*
X199897000Y-110109000D01*
X201221250Y-110109000D01*
X201380000Y-109950250D01*
X201380000Y-109809690D01*
X201293558Y-109601000D01*
X201380000Y-109392310D01*
X201380000Y-109251750D01*
X201221250Y-109093000D01*
X199897000Y-109093000D01*
X199643000Y-109093000D01*
X199623000Y-109093000D01*
X199623000Y-108839000D01*
X199643000Y-108839000D01*
X199643000Y-108819000D01*
X199897000Y-108819000D01*
X199897000Y-108839000D01*
X201221250Y-108839000D01*
X201380000Y-108680250D01*
X201380000Y-108539690D01*
X201283327Y-108306301D01*
X201148031Y-108171006D01*
X201150573Y-108167285D01*
X201185259Y-107996000D01*
X201185259Y-107396000D01*
X201155150Y-107235985D01*
X201060581Y-107089020D01*
X201020654Y-107061739D01*
X201051980Y-107041581D01*
X201150573Y-106897285D01*
X201185259Y-106726000D01*
X201185259Y-106126000D01*
X201155150Y-105965985D01*
X201060581Y-105819020D01*
X201020654Y-105791739D01*
X201051980Y-105771581D01*
X201108132Y-105689400D01*
X202979058Y-105689400D01*
X204825600Y-107535942D01*
G36*
X206767000Y-111670000D02*
X206787000Y-111670000D01*
X206787000Y-111804741D01*
X206493000Y-111804741D01*
X206493000Y-111670000D01*
X206513000Y-111670000D01*
X206513000Y-111598000D01*
X206767000Y-111598000D01*
X206767000Y-111670000D01*
X206767000Y-111670000D01*
G37*
X206767000Y-111670000D02*
X206787000Y-111670000D01*
X206787000Y-111804741D01*
X206493000Y-111804741D01*
X206493000Y-111670000D01*
X206513000Y-111670000D01*
X206513000Y-111598000D01*
X206767000Y-111598000D01*
X206767000Y-111670000D01*
G36*
X207108471Y-96146636D02*
X207386331Y-96562481D01*
X207802176Y-96840341D01*
X208292700Y-96937912D01*
X208683077Y-96860261D01*
X209693816Y-97871000D01*
X209455750Y-97871000D01*
X209297000Y-98029750D01*
X209297000Y-98679000D01*
X209317000Y-98679000D01*
X209317000Y-98933000D01*
X209297000Y-98933000D01*
X209297000Y-99949000D01*
X209317000Y-99949000D01*
X209317000Y-100203000D01*
X209297000Y-100203000D01*
X209297000Y-101219000D01*
X209317000Y-101219000D01*
X209317000Y-101473000D01*
X209297000Y-101473000D01*
X209297000Y-102489000D01*
X210621250Y-102489000D01*
X210780000Y-102330250D01*
X210780000Y-102189690D01*
X210693558Y-101981000D01*
X210780000Y-101772310D01*
X210780000Y-101631750D01*
X210621252Y-101473002D01*
X210766466Y-101473002D01*
X210787908Y-101505092D01*
X211358117Y-102075301D01*
X211358073Y-102125925D01*
X211469248Y-102394990D01*
X211505800Y-102431606D01*
X211505800Y-102558630D01*
X211503020Y-102560419D01*
X211404427Y-102704715D01*
X211392174Y-102765221D01*
X211229629Y-102873829D01*
X210740099Y-103363359D01*
X210693558Y-103251000D01*
X210780000Y-103042310D01*
X210780000Y-102901750D01*
X210621250Y-102743000D01*
X209297000Y-102743000D01*
X209297000Y-103759000D01*
X209317000Y-103759000D01*
X209317000Y-104013000D01*
X209297000Y-104013000D01*
X209297000Y-104033000D01*
X209043000Y-104033000D01*
X209043000Y-104013000D01*
X209023000Y-104013000D01*
X209023000Y-103759000D01*
X209043000Y-103759000D01*
X209043000Y-102743000D01*
X209023000Y-102743000D01*
X209023000Y-102489000D01*
X209043000Y-102489000D01*
X209043000Y-101473000D01*
X209023000Y-101473000D01*
X209023000Y-101219000D01*
X209043000Y-101219000D01*
X209043000Y-100203000D01*
X209023000Y-100203000D01*
X209023000Y-99949000D01*
X209043000Y-99949000D01*
X209043000Y-98933000D01*
X207770017Y-98933000D01*
X207537203Y-98836327D01*
X207246075Y-98836073D01*
X206977010Y-98947248D01*
X206770972Y-99152927D01*
X206659327Y-99421797D01*
X206659073Y-99712925D01*
X206770248Y-99981990D01*
X206868344Y-100080257D01*
X206868344Y-109522894D01*
X206629010Y-109283560D01*
X206629010Y-98379690D01*
X207560000Y-98379690D01*
X207560000Y-98520250D01*
X207718750Y-98679000D01*
X209043000Y-98679000D01*
X209043000Y-98029750D01*
X208884250Y-97871000D01*
X208068691Y-97871000D01*
X207835302Y-97967673D01*
X207656673Y-98146301D01*
X207560000Y-98379690D01*
X206629010Y-98379690D01*
X206629010Y-98013911D01*
X206646925Y-98013927D01*
X206915990Y-97902752D01*
X207122028Y-97697073D01*
X207233673Y-97428203D01*
X207233927Y-97137075D01*
X207122752Y-96868010D01*
X206917073Y-96661972D01*
X206663066Y-96556499D01*
X206936929Y-96146636D01*
X207022700Y-95715435D01*
X207108471Y-96146636D01*
X207108471Y-96146636D01*
G37*
X207108471Y-96146636D02*
X207386331Y-96562481D01*
X207802176Y-96840341D01*
X208292700Y-96937912D01*
X208683077Y-96860261D01*
X209693816Y-97871000D01*
X209455750Y-97871000D01*
X209297000Y-98029750D01*
X209297000Y-98679000D01*
X209317000Y-98679000D01*
X209317000Y-98933000D01*
X209297000Y-98933000D01*
X209297000Y-99949000D01*
X209317000Y-99949000D01*
X209317000Y-100203000D01*
X209297000Y-100203000D01*
X209297000Y-101219000D01*
X209317000Y-101219000D01*
X209317000Y-101473000D01*
X209297000Y-101473000D01*
X209297000Y-102489000D01*
X210621250Y-102489000D01*
X210780000Y-102330250D01*
X210780000Y-102189690D01*
X210693558Y-101981000D01*
X210780000Y-101772310D01*
X210780000Y-101631750D01*
X210621252Y-101473002D01*
X210766466Y-101473002D01*
X210787908Y-101505092D01*
X211358117Y-102075301D01*
X211358073Y-102125925D01*
X211469248Y-102394990D01*
X211505800Y-102431606D01*
X211505800Y-102558630D01*
X211503020Y-102560419D01*
X211404427Y-102704715D01*
X211392174Y-102765221D01*
X211229629Y-102873829D01*
X210740099Y-103363359D01*
X210693558Y-103251000D01*
X210780000Y-103042310D01*
X210780000Y-102901750D01*
X210621250Y-102743000D01*
X209297000Y-102743000D01*
X209297000Y-103759000D01*
X209317000Y-103759000D01*
X209317000Y-104013000D01*
X209297000Y-104013000D01*
X209297000Y-104033000D01*
X209043000Y-104033000D01*
X209043000Y-104013000D01*
X209023000Y-104013000D01*
X209023000Y-103759000D01*
X209043000Y-103759000D01*
X209043000Y-102743000D01*
X209023000Y-102743000D01*
X209023000Y-102489000D01*
X209043000Y-102489000D01*
X209043000Y-101473000D01*
X209023000Y-101473000D01*
X209023000Y-101219000D01*
X209043000Y-101219000D01*
X209043000Y-100203000D01*
X209023000Y-100203000D01*
X209023000Y-99949000D01*
X209043000Y-99949000D01*
X209043000Y-98933000D01*
X207770017Y-98933000D01*
X207537203Y-98836327D01*
X207246075Y-98836073D01*
X206977010Y-98947248D01*
X206770972Y-99152927D01*
X206659327Y-99421797D01*
X206659073Y-99712925D01*
X206770248Y-99981990D01*
X206868344Y-100080257D01*
X206868344Y-109522894D01*
X206629010Y-109283560D01*
X206629010Y-98379690D01*
X207560000Y-98379690D01*
X207560000Y-98520250D01*
X207718750Y-98679000D01*
X209043000Y-98679000D01*
X209043000Y-98029750D01*
X208884250Y-97871000D01*
X208068691Y-97871000D01*
X207835302Y-97967673D01*
X207656673Y-98146301D01*
X207560000Y-98379690D01*
X206629010Y-98379690D01*
X206629010Y-98013911D01*
X206646925Y-98013927D01*
X206915990Y-97902752D01*
X207122028Y-97697073D01*
X207233673Y-97428203D01*
X207233927Y-97137075D01*
X207122752Y-96868010D01*
X206917073Y-96661972D01*
X206663066Y-96556499D01*
X206936929Y-96146636D01*
X207022700Y-95715435D01*
X207108471Y-96146636D01*
G36*
X217117000Y-101219000D02*
X217137000Y-101219000D01*
X217137000Y-101473000D01*
X217117000Y-101473000D01*
X217117000Y-102686924D01*
X217351913Y-102831184D01*
X217904320Y-102637954D01*
X218340732Y-102248036D01*
X218493200Y-101931519D01*
X218493200Y-103979694D01*
X218357285Y-103886827D01*
X218186000Y-103852141D01*
X216154000Y-103852141D01*
X215993985Y-103882250D01*
X215847020Y-103976819D01*
X215748427Y-104121115D01*
X215713741Y-104292400D01*
X215713741Y-104470200D01*
X215421384Y-104470200D01*
X215375581Y-104399020D01*
X215231285Y-104300427D01*
X215060000Y-104265741D01*
X213860000Y-104265741D01*
X213699985Y-104295850D01*
X213553020Y-104390419D01*
X213454427Y-104534715D01*
X213419741Y-104706000D01*
X213419741Y-105606000D01*
X213449850Y-105766015D01*
X213544419Y-105912980D01*
X213624200Y-105967492D01*
X213624200Y-105981790D01*
X213603020Y-105995419D01*
X213504427Y-106139715D01*
X213469741Y-106311000D01*
X213469741Y-107811000D01*
X213499850Y-107971015D01*
X213594419Y-108117980D01*
X213738715Y-108216573D01*
X213910000Y-108251259D01*
X214710000Y-108251259D01*
X214870015Y-108221150D01*
X215016980Y-108126581D01*
X215115573Y-107982285D01*
X215150259Y-107811000D01*
X215150259Y-106311000D01*
X215120150Y-106150985D01*
X215052761Y-106046259D01*
X215060000Y-106046259D01*
X215220015Y-106016150D01*
X215366980Y-105921581D01*
X215421492Y-105841800D01*
X215713741Y-105841800D01*
X215713741Y-106019600D01*
X215743850Y-106179615D01*
X215838419Y-106326580D01*
X215982715Y-106425173D01*
X216154000Y-106459859D01*
X216691320Y-106459859D01*
X216493508Y-106499206D01*
X216073250Y-106780014D01*
X215792442Y-107200272D01*
X215693836Y-107696000D01*
X215777836Y-108118296D01*
X214920932Y-108975200D01*
X214200259Y-108975200D01*
X214200259Y-108911000D01*
X214170150Y-108750985D01*
X214075581Y-108604020D01*
X213931285Y-108505427D01*
X213760000Y-108470741D01*
X213075789Y-108470741D01*
X213075927Y-108313075D01*
X213023677Y-108186620D01*
X213116980Y-108126581D01*
X213215573Y-107982285D01*
X213250259Y-107811000D01*
X213250259Y-106311000D01*
X213220150Y-106150985D01*
X213125581Y-106004020D01*
X213083524Y-105975283D01*
X213166980Y-105921581D01*
X213265573Y-105777285D01*
X213300259Y-105606000D01*
X213300259Y-104706000D01*
X213270150Y-104545985D01*
X213175581Y-104399020D01*
X213031285Y-104300427D01*
X212860000Y-104265741D01*
X211660000Y-104265741D01*
X211523400Y-104291444D01*
X211523400Y-104088742D01*
X211604172Y-104007970D01*
X211638715Y-104031573D01*
X211810000Y-104066259D01*
X213010000Y-104066259D01*
X213170015Y-104036150D01*
X213201722Y-104015747D01*
X213350302Y-104164327D01*
X213583691Y-104261000D01*
X214024250Y-104261000D01*
X214183000Y-104102250D01*
X214183000Y-103378000D01*
X214437000Y-103378000D01*
X214437000Y-104102250D01*
X214595750Y-104261000D01*
X215036309Y-104261000D01*
X215269698Y-104164327D01*
X215448327Y-103985699D01*
X215545000Y-103752310D01*
X215545000Y-103536750D01*
X215386250Y-103378000D01*
X214437000Y-103378000D01*
X214183000Y-103378000D01*
X214163000Y-103378000D01*
X214163000Y-103124000D01*
X214183000Y-103124000D01*
X214183000Y-102399750D01*
X214437000Y-102399750D01*
X214437000Y-103124000D01*
X215386250Y-103124000D01*
X215545000Y-102965250D01*
X215545000Y-102749690D01*
X215448327Y-102516301D01*
X215269698Y-102337673D01*
X215036309Y-102241000D01*
X214595750Y-102241000D01*
X214437000Y-102399750D01*
X214183000Y-102399750D01*
X214024250Y-102241000D01*
X213583691Y-102241000D01*
X213350302Y-102337673D01*
X213202828Y-102485146D01*
X213181285Y-102470427D01*
X213010000Y-102435741D01*
X212674200Y-102435741D01*
X212674200Y-102431839D01*
X212710028Y-102396073D01*
X212821673Y-102127203D01*
X212821868Y-101903287D01*
X212960000Y-101931259D01*
X213760000Y-101931259D01*
X213920015Y-101901150D01*
X214066980Y-101806581D01*
X214165573Y-101662285D01*
X214200259Y-101491000D01*
X214200259Y-101426800D01*
X215055000Y-101426800D01*
X215317445Y-101374597D01*
X215339000Y-101360194D01*
X215339000Y-101473002D01*
X215503782Y-101473002D01*
X215382642Y-101705026D01*
X215385291Y-101720791D01*
X215639268Y-102248036D01*
X216075680Y-102637954D01*
X216628087Y-102831184D01*
X216863000Y-102686924D01*
X216863000Y-101473000D01*
X216843000Y-101473000D01*
X216843000Y-101219000D01*
X216863000Y-101219000D01*
X216863000Y-101199000D01*
X217117000Y-101199000D01*
X217117000Y-101219000D01*
X217117000Y-101219000D01*
G37*
X217117000Y-101219000D02*
X217137000Y-101219000D01*
X217137000Y-101473000D01*
X217117000Y-101473000D01*
X217117000Y-102686924D01*
X217351913Y-102831184D01*
X217904320Y-102637954D01*
X218340732Y-102248036D01*
X218493200Y-101931519D01*
X218493200Y-103979694D01*
X218357285Y-103886827D01*
X218186000Y-103852141D01*
X216154000Y-103852141D01*
X215993985Y-103882250D01*
X215847020Y-103976819D01*
X215748427Y-104121115D01*
X215713741Y-104292400D01*
X215713741Y-104470200D01*
X215421384Y-104470200D01*
X215375581Y-104399020D01*
X215231285Y-104300427D01*
X215060000Y-104265741D01*
X213860000Y-104265741D01*
X213699985Y-104295850D01*
X213553020Y-104390419D01*
X213454427Y-104534715D01*
X213419741Y-104706000D01*
X213419741Y-105606000D01*
X213449850Y-105766015D01*
X213544419Y-105912980D01*
X213624200Y-105967492D01*
X213624200Y-105981790D01*
X213603020Y-105995419D01*
X213504427Y-106139715D01*
X213469741Y-106311000D01*
X213469741Y-107811000D01*
X213499850Y-107971015D01*
X213594419Y-108117980D01*
X213738715Y-108216573D01*
X213910000Y-108251259D01*
X214710000Y-108251259D01*
X214870015Y-108221150D01*
X215016980Y-108126581D01*
X215115573Y-107982285D01*
X215150259Y-107811000D01*
X215150259Y-106311000D01*
X215120150Y-106150985D01*
X215052761Y-106046259D01*
X215060000Y-106046259D01*
X215220015Y-106016150D01*
X215366980Y-105921581D01*
X215421492Y-105841800D01*
X215713741Y-105841800D01*
X215713741Y-106019600D01*
X215743850Y-106179615D01*
X215838419Y-106326580D01*
X215982715Y-106425173D01*
X216154000Y-106459859D01*
X216691320Y-106459859D01*
X216493508Y-106499206D01*
X216073250Y-106780014D01*
X215792442Y-107200272D01*
X215693836Y-107696000D01*
X215777836Y-108118296D01*
X214920932Y-108975200D01*
X214200259Y-108975200D01*
X214200259Y-108911000D01*
X214170150Y-108750985D01*
X214075581Y-108604020D01*
X213931285Y-108505427D01*
X213760000Y-108470741D01*
X213075789Y-108470741D01*
X213075927Y-108313075D01*
X213023677Y-108186620D01*
X213116980Y-108126581D01*
X213215573Y-107982285D01*
X213250259Y-107811000D01*
X213250259Y-106311000D01*
X213220150Y-106150985D01*
X213125581Y-106004020D01*
X213083524Y-105975283D01*
X213166980Y-105921581D01*
X213265573Y-105777285D01*
X213300259Y-105606000D01*
X213300259Y-104706000D01*
X213270150Y-104545985D01*
X213175581Y-104399020D01*
X213031285Y-104300427D01*
X212860000Y-104265741D01*
X211660000Y-104265741D01*
X211523400Y-104291444D01*
X211523400Y-104088742D01*
X211604172Y-104007970D01*
X211638715Y-104031573D01*
X211810000Y-104066259D01*
X213010000Y-104066259D01*
X213170015Y-104036150D01*
X213201722Y-104015747D01*
X213350302Y-104164327D01*
X213583691Y-104261000D01*
X214024250Y-104261000D01*
X214183000Y-104102250D01*
X214183000Y-103378000D01*
X214437000Y-103378000D01*
X214437000Y-104102250D01*
X214595750Y-104261000D01*
X215036309Y-104261000D01*
X215269698Y-104164327D01*
X215448327Y-103985699D01*
X215545000Y-103752310D01*
X215545000Y-103536750D01*
X215386250Y-103378000D01*
X214437000Y-103378000D01*
X214183000Y-103378000D01*
X214163000Y-103378000D01*
X214163000Y-103124000D01*
X214183000Y-103124000D01*
X214183000Y-102399750D01*
X214437000Y-102399750D01*
X214437000Y-103124000D01*
X215386250Y-103124000D01*
X215545000Y-102965250D01*
X215545000Y-102749690D01*
X215448327Y-102516301D01*
X215269698Y-102337673D01*
X215036309Y-102241000D01*
X214595750Y-102241000D01*
X214437000Y-102399750D01*
X214183000Y-102399750D01*
X214024250Y-102241000D01*
X213583691Y-102241000D01*
X213350302Y-102337673D01*
X213202828Y-102485146D01*
X213181285Y-102470427D01*
X213010000Y-102435741D01*
X212674200Y-102435741D01*
X212674200Y-102431839D01*
X212710028Y-102396073D01*
X212821673Y-102127203D01*
X212821868Y-101903287D01*
X212960000Y-101931259D01*
X213760000Y-101931259D01*
X213920015Y-101901150D01*
X214066980Y-101806581D01*
X214165573Y-101662285D01*
X214200259Y-101491000D01*
X214200259Y-101426800D01*
X215055000Y-101426800D01*
X215317445Y-101374597D01*
X215339000Y-101360194D01*
X215339000Y-101473002D01*
X215503782Y-101473002D01*
X215382642Y-101705026D01*
X215385291Y-101720791D01*
X215639268Y-102248036D01*
X216075680Y-102637954D01*
X216628087Y-102831184D01*
X216863000Y-102686924D01*
X216863000Y-101473000D01*
X216843000Y-101473000D01*
X216843000Y-101219000D01*
X216863000Y-101219000D01*
X216863000Y-101199000D01*
X217117000Y-101199000D01*
X217117000Y-101219000D01*
G36*
X197612000Y-108519000D02*
X197632000Y-108519000D01*
X197632000Y-108773000D01*
X197612000Y-108773000D01*
X197612000Y-108793000D01*
X197358000Y-108793000D01*
X197358000Y-108773000D01*
X197338000Y-108773000D01*
X197338000Y-108519000D01*
X197358000Y-108519000D01*
X197358000Y-108499000D01*
X197612000Y-108499000D01*
X197612000Y-108519000D01*
X197612000Y-108519000D01*
G37*
X197612000Y-108519000D02*
X197632000Y-108519000D01*
X197632000Y-108773000D01*
X197612000Y-108773000D01*
X197612000Y-108793000D01*
X197358000Y-108793000D01*
X197358000Y-108773000D01*
X197338000Y-108773000D01*
X197338000Y-108519000D01*
X197358000Y-108519000D01*
X197358000Y-108499000D01*
X197612000Y-108499000D01*
X197612000Y-108519000D01*
G36*
X192974741Y-104336000D02*
X193004850Y-104496015D01*
X193099419Y-104642980D01*
X193100251Y-104643548D01*
X192973020Y-104725419D01*
X192874427Y-104869715D01*
X192839741Y-105041000D01*
X192839741Y-106541000D01*
X192869850Y-106701015D01*
X192964419Y-106847980D01*
X193108715Y-106946573D01*
X193280000Y-106981259D01*
X193765918Y-106981259D01*
X194036838Y-107252179D01*
X193923020Y-107325419D01*
X193824427Y-107469715D01*
X193789741Y-107641000D01*
X193789741Y-107705200D01*
X192228334Y-107705200D01*
X192230164Y-107696000D01*
X192131558Y-107200272D01*
X191850750Y-106780014D01*
X191430492Y-106499206D01*
X191232680Y-106459859D01*
X191770000Y-106459859D01*
X191930015Y-106429750D01*
X192076980Y-106335181D01*
X192175573Y-106190885D01*
X192210259Y-106019600D01*
X192210259Y-104292400D01*
X192180150Y-104132385D01*
X192085581Y-103985420D01*
X191941285Y-103886827D01*
X191770000Y-103852141D01*
X191656127Y-103852141D01*
X191843669Y-103664599D01*
X192974741Y-103664599D01*
X192974741Y-104336000D01*
X192974741Y-104336000D01*
G37*
X192974741Y-104336000D02*
X193004850Y-104496015D01*
X193099419Y-104642980D01*
X193100251Y-104643548D01*
X192973020Y-104725419D01*
X192874427Y-104869715D01*
X192839741Y-105041000D01*
X192839741Y-106541000D01*
X192869850Y-106701015D01*
X192964419Y-106847980D01*
X193108715Y-106946573D01*
X193280000Y-106981259D01*
X193765918Y-106981259D01*
X194036838Y-107252179D01*
X193923020Y-107325419D01*
X193824427Y-107469715D01*
X193789741Y-107641000D01*
X193789741Y-107705200D01*
X192228334Y-107705200D01*
X192230164Y-107696000D01*
X192131558Y-107200272D01*
X191850750Y-106780014D01*
X191430492Y-106499206D01*
X191232680Y-106459859D01*
X191770000Y-106459859D01*
X191930015Y-106429750D01*
X192076980Y-106335181D01*
X192175573Y-106190885D01*
X192210259Y-106019600D01*
X192210259Y-104292400D01*
X192180150Y-104132385D01*
X192085581Y-103985420D01*
X191941285Y-103886827D01*
X191770000Y-103852141D01*
X191656127Y-103852141D01*
X191843669Y-103664599D01*
X192974741Y-103664599D01*
X192974741Y-104336000D01*
G36*
X211219741Y-105606000D02*
X211249850Y-105766015D01*
X211344419Y-105912980D01*
X211488715Y-106011573D01*
X211660000Y-106046259D01*
X211668283Y-106046259D01*
X211604427Y-106139715D01*
X211569741Y-106311000D01*
X211569741Y-107396399D01*
X210585259Y-106411917D01*
X210585259Y-106126000D01*
X210555150Y-105965985D01*
X210460581Y-105819020D01*
X210420654Y-105791739D01*
X210451980Y-105771581D01*
X210533287Y-105652583D01*
X210552323Y-105648797D01*
X210725371Y-105533171D01*
X211219741Y-105038801D01*
X211219741Y-105606000D01*
X211219741Y-105606000D01*
G37*
X211219741Y-105606000D02*
X211249850Y-105766015D01*
X211344419Y-105912980D01*
X211488715Y-106011573D01*
X211660000Y-106046259D01*
X211668283Y-106046259D01*
X211604427Y-106139715D01*
X211569741Y-106311000D01*
X211569741Y-107396399D01*
X210585259Y-106411917D01*
X210585259Y-106126000D01*
X210555150Y-105965985D01*
X210460581Y-105819020D01*
X210420654Y-105791739D01*
X210451980Y-105771581D01*
X210533287Y-105652583D01*
X210552323Y-105648797D01*
X210725371Y-105533171D01*
X211219741Y-105038801D01*
X211219741Y-105606000D01*
G36*
X199187700Y-95345250D02*
X199346450Y-95504000D01*
X200545700Y-95504000D01*
X200545700Y-95484000D01*
X200799700Y-95484000D01*
X200799700Y-95504000D01*
X200819700Y-95504000D01*
X200819700Y-95758000D01*
X200799700Y-95758000D01*
X200799700Y-96957250D01*
X200958450Y-97116000D01*
X201649010Y-97116000D01*
X201882399Y-97019327D01*
X202061027Y-96840698D01*
X202157700Y-96607309D01*
X202157700Y-96340040D01*
X202306331Y-96562481D01*
X202722176Y-96840341D01*
X203212700Y-96937912D01*
X203703224Y-96840341D01*
X204119069Y-96562481D01*
X204396929Y-96146636D01*
X204482700Y-95715435D01*
X204568471Y-96146636D01*
X204846331Y-96562481D01*
X205214075Y-96808201D01*
X205206600Y-96845781D01*
X205206600Y-106408258D01*
X203577171Y-104778829D01*
X203404123Y-104663203D01*
X203200000Y-104622600D01*
X201107928Y-104622600D01*
X201060581Y-104549020D01*
X201020654Y-104521739D01*
X201051980Y-104501581D01*
X201150573Y-104357285D01*
X201185259Y-104186000D01*
X201185259Y-103586000D01*
X201155150Y-103425985D01*
X201146493Y-103412532D01*
X201283327Y-103275699D01*
X201380000Y-103042310D01*
X201380000Y-102901750D01*
X201221250Y-102743000D01*
X199897000Y-102743000D01*
X199897000Y-102763000D01*
X199643000Y-102763000D01*
X199643000Y-102743000D01*
X198318750Y-102743000D01*
X198160000Y-102901750D01*
X198160000Y-103042310D01*
X198256673Y-103275699D01*
X198391969Y-103410994D01*
X198389427Y-103414715D01*
X198354741Y-103586000D01*
X198354741Y-104186000D01*
X198384850Y-104346015D01*
X198479419Y-104492980D01*
X198519346Y-104520261D01*
X198488020Y-104540419D01*
X198389427Y-104684715D01*
X198354741Y-104856000D01*
X198354741Y-105456000D01*
X198384850Y-105616015D01*
X198479419Y-105762980D01*
X198519346Y-105790261D01*
X198488020Y-105810419D01*
X198431868Y-105892600D01*
X198210059Y-105892600D01*
X198175581Y-105839020D01*
X198116110Y-105798385D01*
X198216673Y-105556203D01*
X198216927Y-105265075D01*
X198105752Y-104996010D01*
X197900073Y-104789972D01*
X197637400Y-104680900D01*
X197637400Y-104584635D01*
X197653201Y-104505199D01*
X197653201Y-101631750D01*
X198160000Y-101631750D01*
X198160000Y-101772310D01*
X198246442Y-101981000D01*
X198160000Y-102189690D01*
X198160000Y-102330250D01*
X198318750Y-102489000D01*
X199643000Y-102489000D01*
X199643000Y-101473000D01*
X199897000Y-101473000D01*
X199897000Y-102489000D01*
X201221250Y-102489000D01*
X201380000Y-102330250D01*
X201380000Y-102189690D01*
X201293558Y-101981000D01*
X201380000Y-101772310D01*
X201380000Y-101631750D01*
X201221250Y-101473000D01*
X199897000Y-101473000D01*
X199643000Y-101473000D01*
X198318750Y-101473000D01*
X198160000Y-101631750D01*
X197653201Y-101631750D01*
X197653201Y-100582159D01*
X197612598Y-100378036D01*
X197601717Y-100361750D01*
X198160000Y-100361750D01*
X198160000Y-100502310D01*
X198246442Y-100711000D01*
X198160000Y-100919690D01*
X198160000Y-101060250D01*
X198318750Y-101219000D01*
X199643000Y-101219000D01*
X199643000Y-100203000D01*
X199897000Y-100203000D01*
X199897000Y-101219000D01*
X201221250Y-101219000D01*
X201380000Y-101060250D01*
X201380000Y-100919690D01*
X201293558Y-100711000D01*
X201380000Y-100502310D01*
X201380000Y-100361750D01*
X201221250Y-100203000D01*
X199897000Y-100203000D01*
X199643000Y-100203000D01*
X198318750Y-100203000D01*
X198160000Y-100361750D01*
X197601717Y-100361750D01*
X197496972Y-100204988D01*
X196623243Y-99331259D01*
X196930000Y-99331259D01*
X197090015Y-99301150D01*
X197236980Y-99206581D01*
X197315440Y-99091750D01*
X198160000Y-99091750D01*
X198160000Y-99232310D01*
X198246442Y-99441000D01*
X198160000Y-99649690D01*
X198160000Y-99790250D01*
X198318750Y-99949000D01*
X199643000Y-99949000D01*
X199643000Y-98933000D01*
X199897000Y-98933000D01*
X199897000Y-99949000D01*
X201221250Y-99949000D01*
X201380000Y-99790250D01*
X201380000Y-99649690D01*
X201293558Y-99441000D01*
X201380000Y-99232310D01*
X201380000Y-99091750D01*
X201221250Y-98933000D01*
X199897000Y-98933000D01*
X199643000Y-98933000D01*
X198318750Y-98933000D01*
X198160000Y-99091750D01*
X197315440Y-99091750D01*
X197335573Y-99062285D01*
X197370259Y-98891000D01*
X197370259Y-98379690D01*
X198160000Y-98379690D01*
X198160000Y-98520250D01*
X198318750Y-98679000D01*
X199643000Y-98679000D01*
X199643000Y-98029750D01*
X199897000Y-98029750D01*
X199897000Y-98679000D01*
X201221250Y-98679000D01*
X201380000Y-98520250D01*
X201380000Y-98379690D01*
X201283327Y-98146301D01*
X201104698Y-97967673D01*
X200871309Y-97871000D01*
X200055750Y-97871000D01*
X199897000Y-98029750D01*
X199643000Y-98029750D01*
X199484250Y-97871000D01*
X198668691Y-97871000D01*
X198435302Y-97967673D01*
X198256673Y-98146301D01*
X198160000Y-98379690D01*
X197370259Y-98379690D01*
X197370259Y-97391000D01*
X197342800Y-97245068D01*
X197342800Y-97144442D01*
X197440015Y-97126150D01*
X197586980Y-97031581D01*
X197685573Y-96887285D01*
X197720259Y-96716000D01*
X197720259Y-95916750D01*
X199187700Y-95916750D01*
X199187700Y-96607309D01*
X199284373Y-96840698D01*
X199463001Y-97019327D01*
X199696390Y-97116000D01*
X200386950Y-97116000D01*
X200545700Y-96957250D01*
X200545700Y-95758000D01*
X199346450Y-95758000D01*
X199187700Y-95916750D01*
X197720259Y-95916750D01*
X197720259Y-95816000D01*
X197690150Y-95655985D01*
X197595581Y-95509020D01*
X197451285Y-95410427D01*
X197365800Y-95393116D01*
X197365800Y-95308005D01*
X197365801Y-95308000D01*
X197313597Y-95045555D01*
X197164934Y-94823066D01*
X197082668Y-94740800D01*
X199187700Y-94740800D01*
X199187700Y-95345250D01*
X199187700Y-95345250D01*
G37*
X199187700Y-95345250D02*
X199346450Y-95504000D01*
X200545700Y-95504000D01*
X200545700Y-95484000D01*
X200799700Y-95484000D01*
X200799700Y-95504000D01*
X200819700Y-95504000D01*
X200819700Y-95758000D01*
X200799700Y-95758000D01*
X200799700Y-96957250D01*
X200958450Y-97116000D01*
X201649010Y-97116000D01*
X201882399Y-97019327D01*
X202061027Y-96840698D01*
X202157700Y-96607309D01*
X202157700Y-96340040D01*
X202306331Y-96562481D01*
X202722176Y-96840341D01*
X203212700Y-96937912D01*
X203703224Y-96840341D01*
X204119069Y-96562481D01*
X204396929Y-96146636D01*
X204482700Y-95715435D01*
X204568471Y-96146636D01*
X204846331Y-96562481D01*
X205214075Y-96808201D01*
X205206600Y-96845781D01*
X205206600Y-106408258D01*
X203577171Y-104778829D01*
X203404123Y-104663203D01*
X203200000Y-104622600D01*
X201107928Y-104622600D01*
X201060581Y-104549020D01*
X201020654Y-104521739D01*
X201051980Y-104501581D01*
X201150573Y-104357285D01*
X201185259Y-104186000D01*
X201185259Y-103586000D01*
X201155150Y-103425985D01*
X201146493Y-103412532D01*
X201283327Y-103275699D01*
X201380000Y-103042310D01*
X201380000Y-102901750D01*
X201221250Y-102743000D01*
X199897000Y-102743000D01*
X199897000Y-102763000D01*
X199643000Y-102763000D01*
X199643000Y-102743000D01*
X198318750Y-102743000D01*
X198160000Y-102901750D01*
X198160000Y-103042310D01*
X198256673Y-103275699D01*
X198391969Y-103410994D01*
X198389427Y-103414715D01*
X198354741Y-103586000D01*
X198354741Y-104186000D01*
X198384850Y-104346015D01*
X198479419Y-104492980D01*
X198519346Y-104520261D01*
X198488020Y-104540419D01*
X198389427Y-104684715D01*
X198354741Y-104856000D01*
X198354741Y-105456000D01*
X198384850Y-105616015D01*
X198479419Y-105762980D01*
X198519346Y-105790261D01*
X198488020Y-105810419D01*
X198431868Y-105892600D01*
X198210059Y-105892600D01*
X198175581Y-105839020D01*
X198116110Y-105798385D01*
X198216673Y-105556203D01*
X198216927Y-105265075D01*
X198105752Y-104996010D01*
X197900073Y-104789972D01*
X197637400Y-104680900D01*
X197637400Y-104584635D01*
X197653201Y-104505199D01*
X197653201Y-101631750D01*
X198160000Y-101631750D01*
X198160000Y-101772310D01*
X198246442Y-101981000D01*
X198160000Y-102189690D01*
X198160000Y-102330250D01*
X198318750Y-102489000D01*
X199643000Y-102489000D01*
X199643000Y-101473000D01*
X199897000Y-101473000D01*
X199897000Y-102489000D01*
X201221250Y-102489000D01*
X201380000Y-102330250D01*
X201380000Y-102189690D01*
X201293558Y-101981000D01*
X201380000Y-101772310D01*
X201380000Y-101631750D01*
X201221250Y-101473000D01*
X199897000Y-101473000D01*
X199643000Y-101473000D01*
X198318750Y-101473000D01*
X198160000Y-101631750D01*
X197653201Y-101631750D01*
X197653201Y-100582159D01*
X197612598Y-100378036D01*
X197601717Y-100361750D01*
X198160000Y-100361750D01*
X198160000Y-100502310D01*
X198246442Y-100711000D01*
X198160000Y-100919690D01*
X198160000Y-101060250D01*
X198318750Y-101219000D01*
X199643000Y-101219000D01*
X199643000Y-100203000D01*
X199897000Y-100203000D01*
X199897000Y-101219000D01*
X201221250Y-101219000D01*
X201380000Y-101060250D01*
X201380000Y-100919690D01*
X201293558Y-100711000D01*
X201380000Y-100502310D01*
X201380000Y-100361750D01*
X201221250Y-100203000D01*
X199897000Y-100203000D01*
X199643000Y-100203000D01*
X198318750Y-100203000D01*
X198160000Y-100361750D01*
X197601717Y-100361750D01*
X197496972Y-100204988D01*
X196623243Y-99331259D01*
X196930000Y-99331259D01*
X197090015Y-99301150D01*
X197236980Y-99206581D01*
X197315440Y-99091750D01*
X198160000Y-99091750D01*
X198160000Y-99232310D01*
X198246442Y-99441000D01*
X198160000Y-99649690D01*
X198160000Y-99790250D01*
X198318750Y-99949000D01*
X199643000Y-99949000D01*
X199643000Y-98933000D01*
X199897000Y-98933000D01*
X199897000Y-99949000D01*
X201221250Y-99949000D01*
X201380000Y-99790250D01*
X201380000Y-99649690D01*
X201293558Y-99441000D01*
X201380000Y-99232310D01*
X201380000Y-99091750D01*
X201221250Y-98933000D01*
X199897000Y-98933000D01*
X199643000Y-98933000D01*
X198318750Y-98933000D01*
X198160000Y-99091750D01*
X197315440Y-99091750D01*
X197335573Y-99062285D01*
X197370259Y-98891000D01*
X197370259Y-98379690D01*
X198160000Y-98379690D01*
X198160000Y-98520250D01*
X198318750Y-98679000D01*
X199643000Y-98679000D01*
X199643000Y-98029750D01*
X199897000Y-98029750D01*
X199897000Y-98679000D01*
X201221250Y-98679000D01*
X201380000Y-98520250D01*
X201380000Y-98379690D01*
X201283327Y-98146301D01*
X201104698Y-97967673D01*
X200871309Y-97871000D01*
X200055750Y-97871000D01*
X199897000Y-98029750D01*
X199643000Y-98029750D01*
X199484250Y-97871000D01*
X198668691Y-97871000D01*
X198435302Y-97967673D01*
X198256673Y-98146301D01*
X198160000Y-98379690D01*
X197370259Y-98379690D01*
X197370259Y-97391000D01*
X197342800Y-97245068D01*
X197342800Y-97144442D01*
X197440015Y-97126150D01*
X197586980Y-97031581D01*
X197685573Y-96887285D01*
X197720259Y-96716000D01*
X197720259Y-95916750D01*
X199187700Y-95916750D01*
X199187700Y-96607309D01*
X199284373Y-96840698D01*
X199463001Y-97019327D01*
X199696390Y-97116000D01*
X200386950Y-97116000D01*
X200545700Y-96957250D01*
X200545700Y-95758000D01*
X199346450Y-95758000D01*
X199187700Y-95916750D01*
X197720259Y-95916750D01*
X197720259Y-95816000D01*
X197690150Y-95655985D01*
X197595581Y-95509020D01*
X197451285Y-95410427D01*
X197365800Y-95393116D01*
X197365800Y-95308005D01*
X197365801Y-95308000D01*
X197313597Y-95045555D01*
X197164934Y-94823066D01*
X197082668Y-94740800D01*
X199187700Y-94740800D01*
X199187700Y-95345250D01*
G36*
X196586401Y-100803101D02*
X196586401Y-102995741D01*
X196144609Y-102995741D01*
X195642733Y-102493865D01*
X195420244Y-102345202D01*
X195157799Y-102292999D01*
X192054408Y-102292999D01*
X192104732Y-102248036D01*
X192358709Y-101720791D01*
X192361358Y-101705026D01*
X192240217Y-101473000D01*
X190881000Y-101473000D01*
X190881000Y-101493000D01*
X190627000Y-101493000D01*
X190627000Y-101473000D01*
X190607000Y-101473000D01*
X190607000Y-101219000D01*
X190627000Y-101219000D01*
X190627000Y-101199000D01*
X190881000Y-101199000D01*
X190881000Y-101219000D01*
X192240217Y-101219000D01*
X192277714Y-101147182D01*
X192356466Y-101225934D01*
X192578956Y-101374597D01*
X192841400Y-101426800D01*
X194739741Y-101426800D01*
X194739741Y-101491000D01*
X194769850Y-101651015D01*
X194864419Y-101797980D01*
X195008715Y-101896573D01*
X195180000Y-101931259D01*
X195980000Y-101931259D01*
X196140015Y-101901150D01*
X196286980Y-101806581D01*
X196385573Y-101662285D01*
X196420259Y-101491000D01*
X196420259Y-100636959D01*
X196586401Y-100803101D01*
X196586401Y-100803101D01*
G37*
X196586401Y-100803101D02*
X196586401Y-102995741D01*
X196144609Y-102995741D01*
X195642733Y-102493865D01*
X195420244Y-102345202D01*
X195157799Y-102292999D01*
X192054408Y-102292999D01*
X192104732Y-102248036D01*
X192358709Y-101720791D01*
X192361358Y-101705026D01*
X192240217Y-101473000D01*
X190881000Y-101473000D01*
X190881000Y-101493000D01*
X190627000Y-101493000D01*
X190627000Y-101473000D01*
X190607000Y-101473000D01*
X190607000Y-101219000D01*
X190627000Y-101219000D01*
X190627000Y-101199000D01*
X190881000Y-101199000D01*
X190881000Y-101219000D01*
X192240217Y-101219000D01*
X192277714Y-101147182D01*
X192356466Y-101225934D01*
X192578956Y-101374597D01*
X192841400Y-101426800D01*
X194739741Y-101426800D01*
X194739741Y-101491000D01*
X194769850Y-101651015D01*
X194864419Y-101797980D01*
X195008715Y-101896573D01*
X195180000Y-101931259D01*
X195980000Y-101931259D01*
X196140015Y-101901150D01*
X196286980Y-101806581D01*
X196385573Y-101662285D01*
X196420259Y-101491000D01*
X196420259Y-100636959D01*
X196586401Y-100803101D01*
G36*
X211789248Y-99915990D02*
X211994927Y-100122028D01*
X212263797Y-100233673D01*
X212519741Y-100233896D01*
X212519741Y-101375666D01*
X212505073Y-101360972D01*
X212236203Y-101249327D01*
X212184466Y-101249282D01*
X211785200Y-100850016D01*
X211785200Y-99906193D01*
X211789248Y-99915990D01*
X211789248Y-99915990D01*
G37*
X211789248Y-99915990D02*
X211994927Y-100122028D01*
X212263797Y-100233673D01*
X212519741Y-100233896D01*
X212519741Y-101375666D01*
X212505073Y-101360972D01*
X212236203Y-101249327D01*
X212184466Y-101249282D01*
X211785200Y-100850016D01*
X211785200Y-99906193D01*
X211789248Y-99915990D01*
G36*
X218493200Y-100760481D02*
X218340732Y-100443964D01*
X217904320Y-100054046D01*
X217697867Y-99981830D01*
X218086750Y-99721986D01*
X218367558Y-99301728D01*
X218466164Y-98806000D01*
X218367558Y-98310272D01*
X218086750Y-97890014D01*
X217666492Y-97609206D01*
X217468680Y-97569859D01*
X218006000Y-97569859D01*
X218166015Y-97539750D01*
X218312980Y-97445181D01*
X218411573Y-97300885D01*
X218446259Y-97129600D01*
X218446259Y-95402400D01*
X218416150Y-95242385D01*
X218321581Y-95095420D01*
X218177285Y-94996827D01*
X218006000Y-94962141D01*
X215974000Y-94962141D01*
X215813985Y-94992250D01*
X215667020Y-95086819D01*
X215568427Y-95231115D01*
X215533741Y-95402400D01*
X215533741Y-95580200D01*
X215421384Y-95580200D01*
X215375581Y-95509020D01*
X215231285Y-95410427D01*
X215060000Y-95375741D01*
X213860000Y-95375741D01*
X213699985Y-95405850D01*
X213553020Y-95500419D01*
X213454427Y-95644715D01*
X213419741Y-95816000D01*
X213419741Y-96716000D01*
X213449850Y-96876015D01*
X213544419Y-97022980D01*
X213612365Y-97069406D01*
X213603020Y-97075419D01*
X213504427Y-97219715D01*
X213469741Y-97391000D01*
X213469741Y-98891000D01*
X213499850Y-99051015D01*
X213594419Y-99197980D01*
X213738715Y-99296573D01*
X213910000Y-99331259D01*
X214710000Y-99331259D01*
X214870015Y-99301150D01*
X215016980Y-99206581D01*
X215115573Y-99062285D01*
X215150259Y-98891000D01*
X215150259Y-97391000D01*
X215145800Y-97367303D01*
X215145800Y-97140115D01*
X215220015Y-97126150D01*
X215366980Y-97031581D01*
X215421492Y-96951800D01*
X215533741Y-96951800D01*
X215533741Y-97129600D01*
X215563850Y-97289615D01*
X215658419Y-97436580D01*
X215802715Y-97535173D01*
X215974000Y-97569859D01*
X216511320Y-97569859D01*
X216313508Y-97609206D01*
X215893250Y-97890014D01*
X215612442Y-98310272D01*
X215513836Y-98806000D01*
X215597836Y-99228296D01*
X214770932Y-100055200D01*
X214200259Y-100055200D01*
X214200259Y-99991000D01*
X214170150Y-99830985D01*
X214075581Y-99684020D01*
X213931285Y-99585427D01*
X213760000Y-99550741D01*
X213141758Y-99550741D01*
X213141927Y-99357075D01*
X213087565Y-99225509D01*
X213116980Y-99206581D01*
X213215573Y-99062285D01*
X213250259Y-98891000D01*
X213250259Y-97391000D01*
X213220150Y-97230985D01*
X213125581Y-97084020D01*
X213106135Y-97070733D01*
X213166980Y-97031581D01*
X213265573Y-96887285D01*
X213300259Y-96716000D01*
X213300259Y-95816000D01*
X213270150Y-95655985D01*
X213175581Y-95509020D01*
X213031285Y-95410427D01*
X212860000Y-95375741D01*
X211660000Y-95375741D01*
X211499985Y-95405850D01*
X211353020Y-95500419D01*
X211254427Y-95644715D01*
X211219741Y-95816000D01*
X211219741Y-96716000D01*
X211249850Y-96876015D01*
X211344419Y-97022980D01*
X211488715Y-97121573D01*
X211649269Y-97154086D01*
X211604427Y-97219715D01*
X211569741Y-97391000D01*
X211569741Y-98094557D01*
X209500968Y-96025784D01*
X209574500Y-95656112D01*
X209574500Y-95605888D01*
X209476929Y-95115364D01*
X209226652Y-94740800D01*
X218493200Y-94740800D01*
X218493200Y-100760481D01*
X218493200Y-100760481D01*
G37*
X218493200Y-100760481D02*
X218340732Y-100443964D01*
X217904320Y-100054046D01*
X217697867Y-99981830D01*
X218086750Y-99721986D01*
X218367558Y-99301728D01*
X218466164Y-98806000D01*
X218367558Y-98310272D01*
X218086750Y-97890014D01*
X217666492Y-97609206D01*
X217468680Y-97569859D01*
X218006000Y-97569859D01*
X218166015Y-97539750D01*
X218312980Y-97445181D01*
X218411573Y-97300885D01*
X218446259Y-97129600D01*
X218446259Y-95402400D01*
X218416150Y-95242385D01*
X218321581Y-95095420D01*
X218177285Y-94996827D01*
X218006000Y-94962141D01*
X215974000Y-94962141D01*
X215813985Y-94992250D01*
X215667020Y-95086819D01*
X215568427Y-95231115D01*
X215533741Y-95402400D01*
X215533741Y-95580200D01*
X215421384Y-95580200D01*
X215375581Y-95509020D01*
X215231285Y-95410427D01*
X215060000Y-95375741D01*
X213860000Y-95375741D01*
X213699985Y-95405850D01*
X213553020Y-95500419D01*
X213454427Y-95644715D01*
X213419741Y-95816000D01*
X213419741Y-96716000D01*
X213449850Y-96876015D01*
X213544419Y-97022980D01*
X213612365Y-97069406D01*
X213603020Y-97075419D01*
X213504427Y-97219715D01*
X213469741Y-97391000D01*
X213469741Y-98891000D01*
X213499850Y-99051015D01*
X213594419Y-99197980D01*
X213738715Y-99296573D01*
X213910000Y-99331259D01*
X214710000Y-99331259D01*
X214870015Y-99301150D01*
X215016980Y-99206581D01*
X215115573Y-99062285D01*
X215150259Y-98891000D01*
X215150259Y-97391000D01*
X215145800Y-97367303D01*
X215145800Y-97140115D01*
X215220015Y-97126150D01*
X215366980Y-97031581D01*
X215421492Y-96951800D01*
X215533741Y-96951800D01*
X215533741Y-97129600D01*
X215563850Y-97289615D01*
X215658419Y-97436580D01*
X215802715Y-97535173D01*
X215974000Y-97569859D01*
X216511320Y-97569859D01*
X216313508Y-97609206D01*
X215893250Y-97890014D01*
X215612442Y-98310272D01*
X215513836Y-98806000D01*
X215597836Y-99228296D01*
X214770932Y-100055200D01*
X214200259Y-100055200D01*
X214200259Y-99991000D01*
X214170150Y-99830985D01*
X214075581Y-99684020D01*
X213931285Y-99585427D01*
X213760000Y-99550741D01*
X213141758Y-99550741D01*
X213141927Y-99357075D01*
X213087565Y-99225509D01*
X213116980Y-99206581D01*
X213215573Y-99062285D01*
X213250259Y-98891000D01*
X213250259Y-97391000D01*
X213220150Y-97230985D01*
X213125581Y-97084020D01*
X213106135Y-97070733D01*
X213166980Y-97031581D01*
X213265573Y-96887285D01*
X213300259Y-96716000D01*
X213300259Y-95816000D01*
X213270150Y-95655985D01*
X213175581Y-95509020D01*
X213031285Y-95410427D01*
X212860000Y-95375741D01*
X211660000Y-95375741D01*
X211499985Y-95405850D01*
X211353020Y-95500419D01*
X211254427Y-95644715D01*
X211219741Y-95816000D01*
X211219741Y-96716000D01*
X211249850Y-96876015D01*
X211344419Y-97022980D01*
X211488715Y-97121573D01*
X211649269Y-97154086D01*
X211604427Y-97219715D01*
X211569741Y-97391000D01*
X211569741Y-98094557D01*
X209500968Y-96025784D01*
X209574500Y-95656112D01*
X209574500Y-95605888D01*
X209476929Y-95115364D01*
X209226652Y-94740800D01*
X218493200Y-94740800D01*
X218493200Y-100760481D01*
G36*
X193439741Y-95816000D02*
X193439741Y-96716000D01*
X193469850Y-96876015D01*
X193564419Y-97022980D01*
X193708715Y-97121573D01*
X193869269Y-97154086D01*
X193824427Y-97219715D01*
X193789741Y-97391000D01*
X193789741Y-98891000D01*
X193819850Y-99051015D01*
X193914419Y-99197980D01*
X194058715Y-99296573D01*
X194230000Y-99331259D01*
X194715918Y-99331259D01*
X194856027Y-99471368D01*
X194856029Y-99471371D01*
X194925999Y-99518123D01*
X195019930Y-99580885D01*
X194873020Y-99675419D01*
X194774427Y-99819715D01*
X194739741Y-99991000D01*
X194739741Y-100055200D01*
X193125468Y-100055200D01*
X192171449Y-99101181D01*
X192230164Y-98806000D01*
X192131558Y-98310272D01*
X191850750Y-97890014D01*
X191430492Y-97609206D01*
X191232680Y-97569859D01*
X191770000Y-97569859D01*
X191930015Y-97539750D01*
X192076980Y-97445181D01*
X192175573Y-97300885D01*
X192210259Y-97129600D01*
X192210259Y-96033609D01*
X192562068Y-95681800D01*
X193466917Y-95681800D01*
X193439741Y-95816000D01*
X193439741Y-95816000D01*
G37*
X193439741Y-95816000D02*
X193439741Y-96716000D01*
X193469850Y-96876015D01*
X193564419Y-97022980D01*
X193708715Y-97121573D01*
X193869269Y-97154086D01*
X193824427Y-97219715D01*
X193789741Y-97391000D01*
X193789741Y-98891000D01*
X193819850Y-99051015D01*
X193914419Y-99197980D01*
X194058715Y-99296573D01*
X194230000Y-99331259D01*
X194715918Y-99331259D01*
X194856027Y-99471368D01*
X194856029Y-99471371D01*
X194925999Y-99518123D01*
X195019930Y-99580885D01*
X194873020Y-99675419D01*
X194774427Y-99819715D01*
X194739741Y-99991000D01*
X194739741Y-100055200D01*
X193125468Y-100055200D01*
X192171449Y-99101181D01*
X192230164Y-98806000D01*
X192131558Y-98310272D01*
X191850750Y-97890014D01*
X191430492Y-97609206D01*
X191232680Y-97569859D01*
X191770000Y-97569859D01*
X191930015Y-97539750D01*
X192076980Y-97445181D01*
X192175573Y-97300885D01*
X192210259Y-97129600D01*
X192210259Y-96033609D01*
X192562068Y-95681800D01*
X193466917Y-95681800D01*
X193439741Y-95816000D01*
M02*
