M48
;DRILL file {KiCad 4.0.2+dfsg1-stable} date Sun 13 Aug 2017 19:16:54 AEST
;FORMAT={2:4/ absolute / inch / keep zeros}
FMAT,2
INCH,TZ
T1C0.012
T2C0.039
T3C0.040
%
G90
G05
M72
T1
X074950Y-045670
X075350Y-044488
X075500Y-048750
X075600Y-046400
X075630Y-049567
X075709Y-045197
X075827Y-049094
X075866Y-042244
X075870Y-045760
X075984Y-038228
X076024Y-046654
X076050Y-043100
X076063Y-038976
X076102Y-048504
X076496Y-043622
X076589Y-048532
X077008Y-045079
X077250Y-046450
X077283Y-048268
X077598Y-046063
X077717Y-047500
X077750Y-041500
X077800Y-045650
X077953Y-044409
X077992Y-047087
X078110Y-049710
X078150Y-048819
X078180Y-043756
X078940Y-046496
X078950Y-045775
X078975Y-045376
X079050Y-044900
X079100Y-048460
X079409Y-047795
X079750Y-044900
X079800Y-040900
X079810Y-042210
X079850Y-043050
X079990Y-046680
X080050Y-038900
X080150Y-039650
X080250Y-044000
X080420Y-044640
X080550Y-041100
X080620Y-045990
X080645Y-047825
X080896Y-043404
X081000Y-047732
X081300Y-038300
X081300Y-047732
X081332Y-047373
X081370Y-045198
X081400Y-042240
X081650Y-039200
X081654Y-046575
X081654Y-043346
X081685Y-044500
X081693Y-046220
X081791Y-047697
X081870Y-038350
X082205Y-046988
X082210Y-047970
X082389Y-048150
X082638Y-045394
X083050Y-043650
X083071Y-041929
X083071Y-047913
X083100Y-037600
X083470Y-039630
X083500Y-040150
X083600Y-042700
X083600Y-045200
X083626Y-039174
X083780Y-048878
X083858Y-045433
X084291Y-049134
X084331Y-044803
X084350Y-044311
X084429Y-047854
X084449Y-045669
X084665Y-047854
X084921Y-044232
X085177Y-044232
X085906Y-043976
T2
X079005Y-037650
X080005Y-037650
X081005Y-037650
X082005Y-037650
T3
X075100Y-037900
X075100Y-038900
X075100Y-039900
X075100Y-041400
X075100Y-042400
X075100Y-043400
X085429Y-037900
X085429Y-038900
X085429Y-039900
X085500Y-041400
X085500Y-042400
X085500Y-043400
X085600Y-048409
X085600Y-049409
T0
M30
