G04 #@! TF.FileFunction,Legend,Bot*
%FSLAX46Y46*%
G04 Gerber Fmt 4.6, Leading zero omitted, Abs format (unit mm)*
G04 Created by KiCad (PCBNEW 4.0.2+dfsg1-stable) date Sun 13 Aug 2017 19:16:48 AEST*
%MOMM*%
G01*
G04 APERTURE LIST*
%ADD10C,0.100000*%
%ADD11C,0.304800*%
%ADD12C,0.300000*%
%ADD13C,0.152400*%
%ADD14C,0.200000*%
%ADD15C,0.150000*%
%ADD16C,0.120000*%
G04 APERTURE END LIST*
D10*
D11*
X198299902Y-110185200D02*
G75*
G03X198299902Y-110185200I-154502J0D01*
G01*
D12*
X206061484Y-121412000D02*
G75*
G03X206061484Y-121412000I-143684J0D01*
G01*
D13*
X202387200Y-114503200D02*
G75*
G03X202387200Y-114503200I-76200J0D01*
G01*
D14*
X196414286Y-110097619D02*
X196366667Y-110050000D01*
X196271429Y-110002381D01*
X196033333Y-110002381D01*
X195938095Y-110050000D01*
X195890476Y-110097619D01*
X195842857Y-110192857D01*
X195842857Y-110288095D01*
X195890476Y-110430952D01*
X196461905Y-111002381D01*
X195842857Y-111002381D01*
X195223810Y-110002381D02*
X195128571Y-110002381D01*
X195033333Y-110050000D01*
X194985714Y-110097619D01*
X194938095Y-110192857D01*
X194890476Y-110383333D01*
X194890476Y-110621429D01*
X194938095Y-110811905D01*
X194985714Y-110907143D01*
X195033333Y-110954762D01*
X195128571Y-111002381D01*
X195223810Y-111002381D01*
X195319048Y-110954762D01*
X195366667Y-110907143D01*
X195414286Y-110811905D01*
X195461905Y-110621429D01*
X195461905Y-110383333D01*
X195414286Y-110192857D01*
X195366667Y-110097619D01*
X195319048Y-110050000D01*
X195223810Y-110002381D01*
X193938095Y-111002381D02*
X194509524Y-111002381D01*
X194223810Y-111002381D02*
X194223810Y-110002381D01*
X194319048Y-110145238D01*
X194414286Y-110240476D01*
X194509524Y-110288095D01*
X193604762Y-110002381D02*
X192938095Y-110002381D01*
X193366667Y-111002381D01*
D15*
X199458105Y-122108981D02*
X199458105Y-122918505D01*
X199410486Y-123013743D01*
X199362867Y-123061362D01*
X199267629Y-123108981D01*
X199077152Y-123108981D01*
X198981914Y-123061362D01*
X198934295Y-123013743D01*
X198886676Y-122918505D01*
X198886676Y-122108981D01*
X198458105Y-123061362D02*
X198315248Y-123108981D01*
X198077152Y-123108981D01*
X197981914Y-123061362D01*
X197934295Y-123013743D01*
X197886676Y-122918505D01*
X197886676Y-122823267D01*
X197934295Y-122728029D01*
X197981914Y-122680410D01*
X198077152Y-122632790D01*
X198267629Y-122585171D01*
X198362867Y-122537552D01*
X198410486Y-122489933D01*
X198458105Y-122394695D01*
X198458105Y-122299457D01*
X198410486Y-122204219D01*
X198362867Y-122156600D01*
X198267629Y-122108981D01*
X198029533Y-122108981D01*
X197886676Y-122156600D01*
X197124771Y-122585171D02*
X196981914Y-122632790D01*
X196934295Y-122680410D01*
X196886676Y-122775648D01*
X196886676Y-122918505D01*
X196934295Y-123013743D01*
X196981914Y-123061362D01*
X197077152Y-123108981D01*
X197458105Y-123108981D01*
X197458105Y-122108981D01*
X197124771Y-122108981D01*
X197029533Y-122156600D01*
X196981914Y-122204219D01*
X196934295Y-122299457D01*
X196934295Y-122394695D01*
X196981914Y-122489933D01*
X197029533Y-122537552D01*
X197124771Y-122585171D01*
X197458105Y-122585171D01*
X218716000Y-116836511D02*
G75*
G03X218716000Y-116836511I-100000J0D01*
G01*
X218366000Y-116286511D02*
X218366000Y-116786511D01*
X215466000Y-116286511D02*
X218366000Y-116286511D01*
X215466000Y-116786511D02*
X215466000Y-116286511D01*
X218366000Y-116786511D02*
X215466000Y-116786511D01*
D16*
X193619000Y-118493000D02*
X194549000Y-118493000D01*
X196779000Y-118493000D02*
X195849000Y-118493000D01*
X196779000Y-118493000D02*
X196779000Y-120653000D01*
X193619000Y-118493000D02*
X193619000Y-119953000D01*
D15*
X195080000Y-96941000D02*
X196080000Y-96941000D01*
X196080000Y-95591000D02*
X195080000Y-95591000D01*
X194615000Y-104561000D02*
X195615000Y-104561000D01*
X195615000Y-103211000D02*
X194615000Y-103211000D01*
X212860000Y-105831000D02*
X213860000Y-105831000D01*
X213860000Y-104481000D02*
X212860000Y-104481000D01*
X212860000Y-96941000D02*
X213860000Y-96941000D01*
X213860000Y-95591000D02*
X212860000Y-95591000D01*
D16*
X213710000Y-102651000D02*
X213010000Y-102651000D01*
X213010000Y-103851000D02*
X213710000Y-103851000D01*
X198085000Y-108046000D02*
X198085000Y-107346000D01*
X196885000Y-107346000D02*
X196885000Y-108046000D01*
X208188000Y-116236000D02*
X208188000Y-116936000D01*
X209388000Y-116936000D02*
X209388000Y-116236000D01*
X198790000Y-114651000D02*
X198790000Y-115351000D01*
X199990000Y-115351000D02*
X199990000Y-114651000D01*
X216440231Y-119165000D02*
X217440231Y-119165000D01*
X217440231Y-120865000D02*
X216440231Y-120865000D01*
X199990000Y-119156000D02*
X199990000Y-118456000D01*
X198790000Y-118456000D02*
X198790000Y-119156000D01*
X217266000Y-112811000D02*
X216566000Y-112811000D01*
X216566000Y-114011000D02*
X217266000Y-114011000D01*
X211320000Y-112985000D02*
X210320000Y-112985000D01*
X210320000Y-114345000D02*
X211320000Y-114345000D01*
X211320000Y-111334000D02*
X210320000Y-111334000D01*
X210320000Y-112694000D02*
X211320000Y-112694000D01*
X211200000Y-117380000D02*
X212200000Y-117380000D01*
X212200000Y-116020000D02*
X211200000Y-116020000D01*
X212200000Y-117620000D02*
X211200000Y-117620000D01*
X211200000Y-118980000D02*
X212200000Y-118980000D01*
X210484000Y-125341000D02*
X210484000Y-124341000D01*
X209124000Y-124341000D02*
X209124000Y-125341000D01*
X212008000Y-125341000D02*
X212008000Y-124341000D01*
X210648000Y-124341000D02*
X210648000Y-125341000D01*
X194790000Y-125450000D02*
X195790000Y-125450000D01*
X195790000Y-124090000D02*
X194790000Y-124090000D01*
X197160000Y-100201000D02*
X196230000Y-100201000D01*
X194000000Y-100201000D02*
X194930000Y-100201000D01*
X194000000Y-100201000D02*
X194000000Y-98041000D01*
X197160000Y-100201000D02*
X197160000Y-98741000D01*
X196210000Y-107851000D02*
X195280000Y-107851000D01*
X193050000Y-107851000D02*
X193980000Y-107851000D01*
X193050000Y-107851000D02*
X193050000Y-105691000D01*
X196210000Y-107851000D02*
X196210000Y-106391000D01*
X214940000Y-100201000D02*
X214010000Y-100201000D01*
X211780000Y-100201000D02*
X212710000Y-100201000D01*
X211780000Y-100201000D02*
X211780000Y-98041000D01*
X214940000Y-100201000D02*
X214940000Y-98741000D01*
X214940000Y-109121000D02*
X214010000Y-109121000D01*
X211780000Y-109121000D02*
X212710000Y-109121000D01*
X211780000Y-109121000D02*
X211780000Y-106961000D01*
X214940000Y-109121000D02*
X214940000Y-107661000D01*
X211140000Y-122180000D02*
X211140000Y-121250000D01*
X211140000Y-119020000D02*
X211140000Y-119950000D01*
X211140000Y-119020000D02*
X213300000Y-119020000D01*
X211140000Y-122180000D02*
X212600000Y-122180000D01*
D14*
X213722000Y-124587000D02*
X213122000Y-124587000D01*
X214522000Y-124587000D02*
X214022000Y-125087000D01*
X215122000Y-124587000D02*
X214522000Y-124587000D01*
X213122000Y-123787000D02*
X213122000Y-125387000D01*
X215122000Y-123787000D02*
X215122000Y-125387000D01*
D15*
X190119000Y-124130000D02*
X190119000Y-124630000D01*
X190119000Y-115330000D02*
X190119000Y-114830000D01*
X190119000Y-124130000D02*
X190119000Y-123530000D01*
X190119000Y-123530000D02*
X189519000Y-119730000D01*
X190119000Y-115430000D02*
X190119000Y-119730000D01*
X191019000Y-116230000D02*
X191019000Y-123230000D01*
X189219000Y-123230000D02*
X189219000Y-116230000D01*
X191019000Y-123230000D02*
G75*
G02X189219000Y-123230000I-900000J0D01*
G01*
X189219000Y-116230000D02*
G75*
G02X191019000Y-116230000I900000J0D01*
G01*
X200595000Y-111096000D02*
X200595000Y-110761000D01*
X208345000Y-111096000D02*
X208345000Y-110761000D01*
X208345000Y-97946000D02*
X208345000Y-98281000D01*
X200595000Y-97946000D02*
X200595000Y-98281000D01*
X200595000Y-111096000D02*
X208345000Y-111096000D01*
X200595000Y-97946000D02*
X208345000Y-97946000D01*
X200595000Y-110761000D02*
X198795000Y-110761000D01*
X201437500Y-120253500D02*
X201962500Y-120253500D01*
X206687500Y-115003500D02*
X206162500Y-115003500D01*
X206687500Y-120253500D02*
X206162500Y-120253500D01*
X201437500Y-115003500D02*
X201437500Y-115528500D01*
X206687500Y-115003500D02*
X206687500Y-115528500D01*
X206687500Y-120253500D02*
X206687500Y-119728500D01*
X201437500Y-120253500D02*
X201437500Y-119728500D01*
X200935042Y-113563400D02*
G75*
G03X200935042Y-113563400I-71842J0D01*
G01*
X204999042Y-113563400D02*
G75*
G03X204999042Y-113563400I-71842J0D01*
G01*
X196340000Y-126740000D02*
X194440000Y-126740000D01*
X196340000Y-125640000D02*
X194440000Y-125640000D01*
X195440000Y-126190000D02*
X194990000Y-126190000D01*
X195490000Y-125940000D02*
X195490000Y-126440000D01*
X195490000Y-126190000D02*
X195240000Y-125940000D01*
X195240000Y-125940000D02*
X195240000Y-126440000D01*
X195240000Y-126440000D02*
X195490000Y-126190000D01*
D14*
X205873231Y-121627900D02*
G75*
G03X205873231Y-121627900I-95131J0D01*
G01*
D15*
X208700100Y-127014900D02*
X199300100Y-127014900D01*
D16*
X195860000Y-111620000D02*
X195860000Y-112550000D01*
X195860000Y-114780000D02*
X195860000Y-113850000D01*
X195860000Y-114780000D02*
X193700000Y-114780000D01*
X195860000Y-111620000D02*
X194400000Y-111620000D01*
D15*
X191725000Y-120400000D02*
X191725000Y-121400000D01*
X193075000Y-121400000D02*
X193075000Y-120400000D01*
X214395105Y-114376276D02*
X215042724Y-114376276D01*
X215118914Y-114414371D01*
X215157010Y-114452467D01*
X215195105Y-114528657D01*
X215195105Y-114681038D01*
X215157010Y-114757229D01*
X215118914Y-114795324D01*
X215042724Y-114833419D01*
X214395105Y-114833419D01*
X214471295Y-115176276D02*
X214433200Y-115214371D01*
X214395105Y-115290562D01*
X214395105Y-115481038D01*
X214433200Y-115557228D01*
X214471295Y-115595324D01*
X214547486Y-115633419D01*
X214623676Y-115633419D01*
X214737962Y-115595324D01*
X215195105Y-115138181D01*
X215195105Y-115633419D01*
X194338095Y-117523810D02*
X194300000Y-117447619D01*
X194223810Y-117371429D01*
X194109524Y-117257143D01*
X194071429Y-117180952D01*
X194071429Y-117104762D01*
X194261905Y-117142857D02*
X194223810Y-117066667D01*
X194147619Y-116990476D01*
X193995238Y-116952381D01*
X193728571Y-116952381D01*
X193576190Y-116990476D01*
X193500000Y-117066667D01*
X193461905Y-117142857D01*
X193461905Y-117295238D01*
X193500000Y-117371429D01*
X193576190Y-117447619D01*
X193728571Y-117485714D01*
X193995238Y-117485714D01*
X194147619Y-117447619D01*
X194223810Y-117371429D01*
X194261905Y-117295238D01*
X194261905Y-117142857D01*
X194261905Y-118247619D02*
X194261905Y-117790476D01*
X194261905Y-118019047D02*
X193461905Y-118019047D01*
X193576190Y-117942857D01*
X193652381Y-117866666D01*
X193690476Y-117790476D01*
X193503505Y-96132667D02*
X193122552Y-95866000D01*
X193503505Y-95675524D02*
X192703505Y-95675524D01*
X192703505Y-95980286D01*
X192741600Y-96056477D01*
X192779695Y-96094572D01*
X192855886Y-96132667D01*
X192970171Y-96132667D01*
X193046362Y-96094572D01*
X193084457Y-96056477D01*
X193122552Y-95980286D01*
X193122552Y-95675524D01*
X192970171Y-96818381D02*
X193503505Y-96818381D01*
X192665410Y-96627905D02*
X193236838Y-96437429D01*
X193236838Y-96932667D01*
X193046305Y-103752667D02*
X192665352Y-103486000D01*
X193046305Y-103295524D02*
X192246305Y-103295524D01*
X192246305Y-103600286D01*
X192284400Y-103676477D01*
X192322495Y-103714572D01*
X192398686Y-103752667D01*
X192512971Y-103752667D01*
X192589162Y-103714572D01*
X192627257Y-103676477D01*
X192665352Y-103600286D01*
X192665352Y-103295524D01*
X192246305Y-104438381D02*
X192246305Y-104286000D01*
X192284400Y-104209810D01*
X192322495Y-104171715D01*
X192436781Y-104095524D01*
X192589162Y-104057429D01*
X192893924Y-104057429D01*
X192970114Y-104095524D01*
X193008210Y-104133619D01*
X193046305Y-104209810D01*
X193046305Y-104362191D01*
X193008210Y-104438381D01*
X192970114Y-104476477D01*
X192893924Y-104514572D01*
X192703448Y-104514572D01*
X192627257Y-104476477D01*
X192589162Y-104438381D01*
X192551067Y-104362191D01*
X192551067Y-104209810D01*
X192589162Y-104133619D01*
X192627257Y-104095524D01*
X192703448Y-104057429D01*
X211314467Y-105039334D02*
X210981133Y-104806000D01*
X211314467Y-104639334D02*
X210614467Y-104639334D01*
X210614467Y-104906000D01*
X210647800Y-104972667D01*
X210681133Y-105006000D01*
X210747800Y-105039334D01*
X210847800Y-105039334D01*
X210914467Y-105006000D01*
X210947800Y-104972667D01*
X210981133Y-104906000D01*
X210981133Y-104639334D01*
X210614467Y-105272667D02*
X210614467Y-105739334D01*
X211314467Y-105439334D01*
X211232705Y-96132667D02*
X210851752Y-95866000D01*
X211232705Y-95675524D02*
X210432705Y-95675524D01*
X210432705Y-95980286D01*
X210470800Y-96056477D01*
X210508895Y-96094572D01*
X210585086Y-96132667D01*
X210699371Y-96132667D01*
X210775562Y-96094572D01*
X210813657Y-96056477D01*
X210851752Y-95980286D01*
X210851752Y-95675524D01*
X210432705Y-96856477D02*
X210432705Y-96475524D01*
X210813657Y-96437429D01*
X210775562Y-96475524D01*
X210737467Y-96551715D01*
X210737467Y-96742191D01*
X210775562Y-96818381D01*
X210813657Y-96856477D01*
X210889848Y-96894572D01*
X211080324Y-96894572D01*
X211156514Y-96856477D01*
X211194610Y-96818381D01*
X211232705Y-96742191D01*
X211232705Y-96551715D01*
X211194610Y-96475524D01*
X211156514Y-96437429D01*
X216058733Y-103536714D02*
X216096828Y-103574810D01*
X216211114Y-103612905D01*
X216287304Y-103612905D01*
X216401590Y-103574810D01*
X216477781Y-103498619D01*
X216515876Y-103422429D01*
X216553971Y-103270048D01*
X216553971Y-103155762D01*
X216515876Y-103003381D01*
X216477781Y-102927190D01*
X216401590Y-102851000D01*
X216287304Y-102812905D01*
X216211114Y-102812905D01*
X216096828Y-102851000D01*
X216058733Y-102889095D01*
X215296828Y-103612905D02*
X215753971Y-103612905D01*
X215525400Y-103612905D02*
X215525400Y-102812905D01*
X215601590Y-102927190D01*
X215677781Y-103003381D01*
X215753971Y-103041476D01*
X197770714Y-104997267D02*
X197808810Y-104959172D01*
X197846905Y-104844886D01*
X197846905Y-104768696D01*
X197808810Y-104654410D01*
X197732619Y-104578219D01*
X197656429Y-104540124D01*
X197504048Y-104502029D01*
X197389762Y-104502029D01*
X197237381Y-104540124D01*
X197161190Y-104578219D01*
X197085000Y-104654410D01*
X197046905Y-104768696D01*
X197046905Y-104844886D01*
X197085000Y-104959172D01*
X197123095Y-104997267D01*
X197123095Y-105302029D02*
X197085000Y-105340124D01*
X197046905Y-105416315D01*
X197046905Y-105606791D01*
X197085000Y-105682981D01*
X197123095Y-105721077D01*
X197199286Y-105759172D01*
X197275476Y-105759172D01*
X197389762Y-105721077D01*
X197846905Y-105263934D01*
X197846905Y-105759172D01*
X207920400Y-116469334D02*
X207953733Y-116436000D01*
X207987067Y-116336000D01*
X207987067Y-116269334D01*
X207953733Y-116169334D01*
X207887067Y-116102667D01*
X207820400Y-116069334D01*
X207687067Y-116036000D01*
X207587067Y-116036000D01*
X207453733Y-116069334D01*
X207387067Y-116102667D01*
X207320400Y-116169334D01*
X207287067Y-116269334D01*
X207287067Y-116336000D01*
X207320400Y-116436000D01*
X207353733Y-116469334D01*
X207287067Y-116702667D02*
X207287067Y-117136000D01*
X207553733Y-116902667D01*
X207553733Y-117002667D01*
X207587067Y-117069334D01*
X207620400Y-117102667D01*
X207687067Y-117136000D01*
X207853733Y-117136000D01*
X207920400Y-117102667D01*
X207953733Y-117069334D01*
X207987067Y-117002667D01*
X207987067Y-116802667D01*
X207953733Y-116736000D01*
X207920400Y-116702667D01*
X198481914Y-114877867D02*
X198520010Y-114839772D01*
X198558105Y-114725486D01*
X198558105Y-114649296D01*
X198520010Y-114535010D01*
X198443819Y-114458819D01*
X198367629Y-114420724D01*
X198215248Y-114382629D01*
X198100962Y-114382629D01*
X197948581Y-114420724D01*
X197872390Y-114458819D01*
X197796200Y-114535010D01*
X197758105Y-114649296D01*
X197758105Y-114725486D01*
X197796200Y-114839772D01*
X197834295Y-114877867D01*
X198024771Y-115563581D02*
X198558105Y-115563581D01*
X197720010Y-115373105D02*
X198291438Y-115182629D01*
X198291438Y-115677867D01*
X215159400Y-119898334D02*
X215192733Y-119865000D01*
X215226067Y-119765000D01*
X215226067Y-119698334D01*
X215192733Y-119598334D01*
X215126067Y-119531667D01*
X215059400Y-119498334D01*
X214926067Y-119465000D01*
X214826067Y-119465000D01*
X214692733Y-119498334D01*
X214626067Y-119531667D01*
X214559400Y-119598334D01*
X214526067Y-119698334D01*
X214526067Y-119765000D01*
X214559400Y-119865000D01*
X214592733Y-119898334D01*
X214526067Y-120531667D02*
X214526067Y-120198334D01*
X214859400Y-120165000D01*
X214826067Y-120198334D01*
X214792733Y-120265000D01*
X214792733Y-120431667D01*
X214826067Y-120498334D01*
X214859400Y-120531667D01*
X214926067Y-120565000D01*
X215092733Y-120565000D01*
X215159400Y-120531667D01*
X215192733Y-120498334D01*
X215226067Y-120431667D01*
X215226067Y-120265000D01*
X215192733Y-120198334D01*
X215159400Y-120165000D01*
X198481914Y-118687867D02*
X198520010Y-118649772D01*
X198558105Y-118535486D01*
X198558105Y-118459296D01*
X198520010Y-118345010D01*
X198443819Y-118268819D01*
X198367629Y-118230724D01*
X198215248Y-118192629D01*
X198100962Y-118192629D01*
X197948581Y-118230724D01*
X197872390Y-118268819D01*
X197796200Y-118345010D01*
X197758105Y-118459296D01*
X197758105Y-118535486D01*
X197796200Y-118649772D01*
X197834295Y-118687867D01*
X197758105Y-119373581D02*
X197758105Y-119221200D01*
X197796200Y-119145010D01*
X197834295Y-119106915D01*
X197948581Y-119030724D01*
X198100962Y-118992629D01*
X198405724Y-118992629D01*
X198481914Y-119030724D01*
X198520010Y-119068819D01*
X198558105Y-119145010D01*
X198558105Y-119297391D01*
X198520010Y-119373581D01*
X198481914Y-119411677D01*
X198405724Y-119449772D01*
X198215248Y-119449772D01*
X198139057Y-119411677D01*
X198100962Y-119373581D01*
X198062867Y-119297391D01*
X198062867Y-119145010D01*
X198100962Y-119068819D01*
X198139057Y-119030724D01*
X198215248Y-118992629D01*
X217049333Y-112477514D02*
X217087428Y-112515610D01*
X217201714Y-112553705D01*
X217277904Y-112553705D01*
X217392190Y-112515610D01*
X217468381Y-112439419D01*
X217506476Y-112363229D01*
X217544571Y-112210848D01*
X217544571Y-112096562D01*
X217506476Y-111944181D01*
X217468381Y-111867990D01*
X217392190Y-111791800D01*
X217277904Y-111753705D01*
X217201714Y-111753705D01*
X217087428Y-111791800D01*
X217049333Y-111829895D01*
X216592190Y-112096562D02*
X216668381Y-112058467D01*
X216706476Y-112020371D01*
X216744571Y-111944181D01*
X216744571Y-111906086D01*
X216706476Y-111829895D01*
X216668381Y-111791800D01*
X216592190Y-111753705D01*
X216439809Y-111753705D01*
X216363619Y-111791800D01*
X216325523Y-111829895D01*
X216287428Y-111906086D01*
X216287428Y-111944181D01*
X216325523Y-112020371D01*
X216363619Y-112058467D01*
X216439809Y-112096562D01*
X216592190Y-112096562D01*
X216668381Y-112134657D01*
X216706476Y-112172752D01*
X216744571Y-112248943D01*
X216744571Y-112401324D01*
X216706476Y-112477514D01*
X216668381Y-112515610D01*
X216592190Y-112553705D01*
X216439809Y-112553705D01*
X216363619Y-112515610D01*
X216325523Y-112477514D01*
X216287428Y-112401324D01*
X216287428Y-112248943D01*
X216325523Y-112172752D01*
X216363619Y-112134657D01*
X216439809Y-112096562D01*
X213620333Y-114039605D02*
X213887000Y-113658652D01*
X214077476Y-114039605D02*
X214077476Y-113239605D01*
X213772714Y-113239605D01*
X213696523Y-113277700D01*
X213658428Y-113315795D01*
X213620333Y-113391986D01*
X213620333Y-113506271D01*
X213658428Y-113582462D01*
X213696523Y-113620557D01*
X213772714Y-113658652D01*
X214077476Y-113658652D01*
X212858428Y-114039605D02*
X213315571Y-114039605D01*
X213087000Y-114039605D02*
X213087000Y-113239605D01*
X213163190Y-113353890D01*
X213239381Y-113430081D01*
X213315571Y-113468176D01*
X213747333Y-112375905D02*
X214014000Y-111994952D01*
X214204476Y-112375905D02*
X214204476Y-111575905D01*
X213899714Y-111575905D01*
X213823523Y-111614000D01*
X213785428Y-111652095D01*
X213747333Y-111728286D01*
X213747333Y-111842571D01*
X213785428Y-111918762D01*
X213823523Y-111956857D01*
X213899714Y-111994952D01*
X214204476Y-111994952D01*
X213442571Y-111652095D02*
X213404476Y-111614000D01*
X213328285Y-111575905D01*
X213137809Y-111575905D01*
X213061619Y-111614000D01*
X213023523Y-111652095D01*
X212985428Y-111728286D01*
X212985428Y-111804476D01*
X213023523Y-111918762D01*
X213480666Y-112375905D01*
X212985428Y-112375905D01*
X214432866Y-117016667D02*
X214666200Y-116683333D01*
X214832866Y-117016667D02*
X214832866Y-116316667D01*
X214566200Y-116316667D01*
X214499533Y-116350000D01*
X214466200Y-116383333D01*
X214432866Y-116450000D01*
X214432866Y-116550000D01*
X214466200Y-116616667D01*
X214499533Y-116650000D01*
X214566200Y-116683333D01*
X214832866Y-116683333D01*
X214199533Y-116316667D02*
X213766200Y-116316667D01*
X213999533Y-116583333D01*
X213899533Y-116583333D01*
X213832866Y-116616667D01*
X213799533Y-116650000D01*
X213766200Y-116716667D01*
X213766200Y-116883333D01*
X213799533Y-116950000D01*
X213832866Y-116983333D01*
X213899533Y-117016667D01*
X214099533Y-117016667D01*
X214166200Y-116983333D01*
X214199533Y-116950000D01*
X214432866Y-118616667D02*
X214666200Y-118283333D01*
X214832866Y-118616667D02*
X214832866Y-117916667D01*
X214566200Y-117916667D01*
X214499533Y-117950000D01*
X214466200Y-117983333D01*
X214432866Y-118050000D01*
X214432866Y-118150000D01*
X214466200Y-118216667D01*
X214499533Y-118250000D01*
X214566200Y-118283333D01*
X214832866Y-118283333D01*
X214032866Y-118216667D02*
X214099533Y-118183333D01*
X214132866Y-118150000D01*
X214166200Y-118083333D01*
X214166200Y-118050000D01*
X214132866Y-117983333D01*
X214099533Y-117950000D01*
X214032866Y-117916667D01*
X213899533Y-117916667D01*
X213832866Y-117950000D01*
X213799533Y-117983333D01*
X213766200Y-118050000D01*
X213766200Y-118083333D01*
X213799533Y-118150000D01*
X213832866Y-118183333D01*
X213899533Y-118216667D01*
X214032866Y-118216667D01*
X214099533Y-118250000D01*
X214132866Y-118283333D01*
X214166200Y-118350000D01*
X214166200Y-118483333D01*
X214132866Y-118550000D01*
X214099533Y-118583333D01*
X214032866Y-118616667D01*
X213899533Y-118616667D01*
X213832866Y-118583333D01*
X213799533Y-118550000D01*
X213766200Y-118483333D01*
X213766200Y-118350000D01*
X213799533Y-118283333D01*
X213832866Y-118250000D01*
X213899533Y-118216667D01*
X210066667Y-122057334D02*
X209733333Y-121824000D01*
X210066667Y-121657334D02*
X209366667Y-121657334D01*
X209366667Y-121924000D01*
X209400000Y-121990667D01*
X209433333Y-122024000D01*
X209500000Y-122057334D01*
X209600000Y-122057334D01*
X209666667Y-122024000D01*
X209700000Y-121990667D01*
X209733333Y-121924000D01*
X209733333Y-121657334D01*
X210066667Y-122390667D02*
X210066667Y-122524000D01*
X210033333Y-122590667D01*
X210000000Y-122624000D01*
X209900000Y-122690667D01*
X209766667Y-122724000D01*
X209500000Y-122724000D01*
X209433333Y-122690667D01*
X209400000Y-122657334D01*
X209366667Y-122590667D01*
X209366667Y-122457334D01*
X209400000Y-122390667D01*
X209433333Y-122357334D01*
X209500000Y-122324000D01*
X209666667Y-122324000D01*
X209733333Y-122357334D01*
X209766667Y-122390667D01*
X209800000Y-122457334D01*
X209800000Y-122590667D01*
X209766667Y-122657334D01*
X209733333Y-122690667D01*
X209666667Y-122724000D01*
D10*
X210926190Y-121877972D02*
X210688095Y-121711305D01*
X210926190Y-121592258D02*
X210426190Y-121592258D01*
X210426190Y-121782734D01*
X210450000Y-121830353D01*
X210473810Y-121854162D01*
X210521429Y-121877972D01*
X210592857Y-121877972D01*
X210640476Y-121854162D01*
X210664286Y-121830353D01*
X210688095Y-121782734D01*
X210688095Y-121592258D01*
X210926190Y-122354162D02*
X210926190Y-122068448D01*
X210926190Y-122211305D02*
X210426190Y-122211305D01*
X210497619Y-122163686D01*
X210545238Y-122116067D01*
X210569048Y-122068448D01*
X210426190Y-122663686D02*
X210426190Y-122711305D01*
X210450000Y-122758924D01*
X210473810Y-122782733D01*
X210521429Y-122806543D01*
X210616667Y-122830352D01*
X210735714Y-122830352D01*
X210830952Y-122806543D01*
X210878571Y-122782733D01*
X210902381Y-122758924D01*
X210926190Y-122711305D01*
X210926190Y-122663686D01*
X210902381Y-122616067D01*
X210878571Y-122592257D01*
X210830952Y-122568448D01*
X210735714Y-122544638D01*
X210616667Y-122544638D01*
X210521429Y-122568448D01*
X210473810Y-122592257D01*
X210450000Y-122616067D01*
X210426190Y-122663686D01*
D15*
X192694286Y-125141905D02*
X192960953Y-124760952D01*
X193151429Y-125141905D02*
X193151429Y-124341905D01*
X192846667Y-124341905D01*
X192770476Y-124380000D01*
X192732381Y-124418095D01*
X192694286Y-124494286D01*
X192694286Y-124608571D01*
X192732381Y-124684762D01*
X192770476Y-124722857D01*
X192846667Y-124760952D01*
X193151429Y-124760952D01*
X191932381Y-125141905D02*
X192389524Y-125141905D01*
X192160953Y-125141905D02*
X192160953Y-124341905D01*
X192237143Y-124456190D01*
X192313334Y-124532381D01*
X192389524Y-124570476D01*
X191170476Y-125141905D02*
X191627619Y-125141905D01*
X191399048Y-125141905D02*
X191399048Y-124341905D01*
X191475238Y-124456190D01*
X191551429Y-124532381D01*
X191627619Y-124570476D01*
X193808295Y-99441010D02*
X193770200Y-99364819D01*
X193694010Y-99288629D01*
X193579724Y-99174343D01*
X193541629Y-99098152D01*
X193541629Y-99021962D01*
X193732105Y-99060057D02*
X193694010Y-98983867D01*
X193617819Y-98907676D01*
X193465438Y-98869581D01*
X193198771Y-98869581D01*
X193046390Y-98907676D01*
X192970200Y-98983867D01*
X192932105Y-99060057D01*
X192932105Y-99212438D01*
X192970200Y-99288629D01*
X193046390Y-99364819D01*
X193198771Y-99402914D01*
X193465438Y-99402914D01*
X193617819Y-99364819D01*
X193694010Y-99288629D01*
X193732105Y-99212438D01*
X193732105Y-99060057D01*
X193008295Y-99707676D02*
X192970200Y-99745771D01*
X192932105Y-99821962D01*
X192932105Y-100012438D01*
X192970200Y-100088628D01*
X193008295Y-100126724D01*
X193084486Y-100164819D01*
X193160676Y-100164819D01*
X193274962Y-100126724D01*
X193732105Y-99669581D01*
X193732105Y-100164819D01*
X193909895Y-108635810D02*
X193871800Y-108559619D01*
X193795610Y-108483429D01*
X193681324Y-108369143D01*
X193643229Y-108292952D01*
X193643229Y-108216762D01*
X193833705Y-108254857D02*
X193795610Y-108178667D01*
X193719419Y-108102476D01*
X193567038Y-108064381D01*
X193300371Y-108064381D01*
X193147990Y-108102476D01*
X193071800Y-108178667D01*
X193033705Y-108254857D01*
X193033705Y-108407238D01*
X193071800Y-108483429D01*
X193147990Y-108559619D01*
X193300371Y-108597714D01*
X193567038Y-108597714D01*
X193719419Y-108559619D01*
X193795610Y-108483429D01*
X193833705Y-108407238D01*
X193833705Y-108254857D01*
X193300371Y-109283428D02*
X193833705Y-109283428D01*
X192995610Y-109092952D02*
X193567038Y-108902476D01*
X193567038Y-109397714D01*
X211613695Y-99466410D02*
X211575600Y-99390219D01*
X211499410Y-99314029D01*
X211385124Y-99199743D01*
X211347029Y-99123552D01*
X211347029Y-99047362D01*
X211537505Y-99085457D02*
X211499410Y-99009267D01*
X211423219Y-98933076D01*
X211270838Y-98894981D01*
X211004171Y-98894981D01*
X210851790Y-98933076D01*
X210775600Y-99009267D01*
X210737505Y-99085457D01*
X210737505Y-99237838D01*
X210775600Y-99314029D01*
X210851790Y-99390219D01*
X211004171Y-99428314D01*
X211270838Y-99428314D01*
X211423219Y-99390219D01*
X211499410Y-99314029D01*
X211537505Y-99237838D01*
X211537505Y-99085457D01*
X210737505Y-99694981D02*
X210737505Y-100190219D01*
X211042267Y-99923552D01*
X211042267Y-100037838D01*
X211080362Y-100114028D01*
X211118457Y-100152124D01*
X211194648Y-100190219D01*
X211385124Y-100190219D01*
X211461314Y-100152124D01*
X211499410Y-100114028D01*
X211537505Y-100037838D01*
X211537505Y-99809266D01*
X211499410Y-99733076D01*
X211461314Y-99694981D01*
X211613695Y-108280210D02*
X211575600Y-108204019D01*
X211499410Y-108127829D01*
X211385124Y-108013543D01*
X211347029Y-107937352D01*
X211347029Y-107861162D01*
X211537505Y-107899257D02*
X211499410Y-107823067D01*
X211423219Y-107746876D01*
X211270838Y-107708781D01*
X211004171Y-107708781D01*
X210851790Y-107746876D01*
X210775600Y-107823067D01*
X210737505Y-107899257D01*
X210737505Y-108051638D01*
X210775600Y-108127829D01*
X210851790Y-108204019D01*
X211004171Y-108242114D01*
X211270838Y-108242114D01*
X211423219Y-108204019D01*
X211499410Y-108127829D01*
X211537505Y-108051638D01*
X211537505Y-107899257D01*
X210737505Y-108965924D02*
X210737505Y-108584971D01*
X211118457Y-108546876D01*
X211080362Y-108584971D01*
X211042267Y-108661162D01*
X211042267Y-108851638D01*
X211080362Y-108927828D01*
X211118457Y-108965924D01*
X211194648Y-109004019D01*
X211385124Y-109004019D01*
X211461314Y-108965924D01*
X211499410Y-108927828D01*
X211537505Y-108851638D01*
X211537505Y-108661162D01*
X211499410Y-108584971D01*
X211461314Y-108546876D01*
X210172790Y-119818895D02*
X210248981Y-119780800D01*
X210325171Y-119704610D01*
X210439457Y-119590324D01*
X210515648Y-119552229D01*
X210591838Y-119552229D01*
X210553743Y-119742705D02*
X210629933Y-119704610D01*
X210706124Y-119628419D01*
X210744219Y-119476038D01*
X210744219Y-119209371D01*
X210706124Y-119056990D01*
X210629933Y-118980800D01*
X210553743Y-118942705D01*
X210401362Y-118942705D01*
X210325171Y-118980800D01*
X210248981Y-119056990D01*
X210210886Y-119209371D01*
X210210886Y-119476038D01*
X210248981Y-119628419D01*
X210325171Y-119704610D01*
X210401362Y-119742705D01*
X210553743Y-119742705D01*
X209525172Y-118942705D02*
X209677553Y-118942705D01*
X209753743Y-118980800D01*
X209791838Y-119018895D01*
X209868029Y-119133181D01*
X209906124Y-119285562D01*
X209906124Y-119590324D01*
X209868029Y-119666514D01*
X209829934Y-119704610D01*
X209753743Y-119742705D01*
X209601362Y-119742705D01*
X209525172Y-119704610D01*
X209487076Y-119666514D01*
X209448981Y-119590324D01*
X209448981Y-119399848D01*
X209487076Y-119323657D01*
X209525172Y-119285562D01*
X209601362Y-119247467D01*
X209753743Y-119247467D01*
X209829934Y-119285562D01*
X209868029Y-119323657D01*
X209906124Y-119399848D01*
X201879124Y-96945505D02*
X201879124Y-97593124D01*
X201841029Y-97669314D01*
X201802933Y-97707410D01*
X201726743Y-97745505D01*
X201574362Y-97745505D01*
X201498171Y-97707410D01*
X201460076Y-97669314D01*
X201421981Y-97593124D01*
X201421981Y-96945505D01*
X200621981Y-97745505D02*
X201079124Y-97745505D01*
X200850553Y-97745505D02*
X200850553Y-96945505D01*
X200926743Y-97059790D01*
X201002934Y-97135981D01*
X201079124Y-97174076D01*
X202285524Y-120846905D02*
X202285524Y-121494524D01*
X202247429Y-121570714D01*
X202209333Y-121608810D01*
X202133143Y-121646905D01*
X201980762Y-121646905D01*
X201904571Y-121608810D01*
X201866476Y-121570714D01*
X201828381Y-121494524D01*
X201828381Y-120846905D01*
X201066476Y-120846905D02*
X201447429Y-120846905D01*
X201485524Y-121227857D01*
X201447429Y-121189762D01*
X201371238Y-121151667D01*
X201180762Y-121151667D01*
X201104572Y-121189762D01*
X201066476Y-121227857D01*
X201028381Y-121304048D01*
X201028381Y-121494524D01*
X201066476Y-121570714D01*
X201104572Y-121608810D01*
X201180762Y-121646905D01*
X201371238Y-121646905D01*
X201447429Y-121608810D01*
X201485524Y-121570714D01*
X199171767Y-111531467D02*
X199738433Y-111531467D01*
X199805100Y-111564800D01*
X199838433Y-111598133D01*
X199871767Y-111664800D01*
X199871767Y-111798133D01*
X199838433Y-111864800D01*
X199805100Y-111898133D01*
X199738433Y-111931467D01*
X199171767Y-111931467D01*
X199171767Y-112198133D02*
X199171767Y-112631466D01*
X199438433Y-112398133D01*
X199438433Y-112498133D01*
X199471767Y-112564800D01*
X199505100Y-112598133D01*
X199571767Y-112631466D01*
X199738433Y-112631466D01*
X199805100Y-112598133D01*
X199838433Y-112564800D01*
X199871767Y-112498133D01*
X199871767Y-112298133D01*
X199838433Y-112231466D01*
X199805100Y-112198133D01*
X207515667Y-111480667D02*
X208082333Y-111480667D01*
X208149000Y-111514000D01*
X208182333Y-111547333D01*
X208215667Y-111614000D01*
X208215667Y-111747333D01*
X208182333Y-111814000D01*
X208149000Y-111847333D01*
X208082333Y-111880667D01*
X207515667Y-111880667D01*
X207749000Y-112514000D02*
X208215667Y-112514000D01*
X207482333Y-112347333D02*
X207982333Y-112180666D01*
X207982333Y-112614000D01*
X193060476Y-126531905D02*
X193060476Y-125731905D01*
X192870000Y-125731905D01*
X192755714Y-125770000D01*
X192679523Y-125846190D01*
X192641428Y-125922381D01*
X192603333Y-126074762D01*
X192603333Y-126189048D01*
X192641428Y-126341429D01*
X192679523Y-126417619D01*
X192755714Y-126493810D01*
X192870000Y-126531905D01*
X193060476Y-126531905D01*
X191841428Y-126531905D02*
X192298571Y-126531905D01*
X192070000Y-126531905D02*
X192070000Y-125731905D01*
X192146190Y-125846190D01*
X192222381Y-125922381D01*
X192298571Y-125960476D01*
X195195238Y-116097619D02*
X195290476Y-116050000D01*
X195385714Y-115954762D01*
X195528571Y-115811905D01*
X195623810Y-115764286D01*
X195719048Y-115764286D01*
X195671429Y-116002381D02*
X195766667Y-115954762D01*
X195861905Y-115859524D01*
X195909524Y-115669048D01*
X195909524Y-115335714D01*
X195861905Y-115145238D01*
X195766667Y-115050000D01*
X195671429Y-115002381D01*
X195480952Y-115002381D01*
X195385714Y-115050000D01*
X195290476Y-115145238D01*
X195242857Y-115335714D01*
X195242857Y-115669048D01*
X195290476Y-115859524D01*
X195385714Y-115954762D01*
X195480952Y-116002381D01*
X195671429Y-116002381D01*
X194909524Y-115002381D02*
X194242857Y-115002381D01*
X194671429Y-116002381D01*
X192761905Y-117235714D02*
X192380952Y-116969047D01*
X192761905Y-116778571D02*
X191961905Y-116778571D01*
X191961905Y-117083333D01*
X192000000Y-117159524D01*
X192038095Y-117197619D01*
X192114286Y-117235714D01*
X192228571Y-117235714D01*
X192304762Y-117197619D01*
X192342857Y-117159524D01*
X192380952Y-117083333D01*
X192380952Y-116778571D01*
X192761905Y-117997619D02*
X192761905Y-117540476D01*
X192761905Y-117769047D02*
X191961905Y-117769047D01*
X192076190Y-117692857D01*
X192152381Y-117616666D01*
X192190476Y-117540476D01*
X192038095Y-118302381D02*
X192000000Y-118340476D01*
X191961905Y-118416667D01*
X191961905Y-118607143D01*
X192000000Y-118683333D01*
X192038095Y-118721429D01*
X192114286Y-118759524D01*
X192190476Y-118759524D01*
X192304762Y-118721429D01*
X192761905Y-118264286D01*
X192761905Y-118759524D01*
M02*
