G04 #@! TF.FileFunction,Copper,L1,Top,Signal*
%FSLAX46Y46*%
G04 Gerber Fmt 4.6, Leading zero omitted, Abs format (unit mm)*
G04 Created by KiCad (PCBNEW 4.0.2+dfsg1-stable) date Fri 12 May 2017 22:14:46 AEST*
%MOMM*%
G01*
G04 APERTURE LIST*
%ADD10C,0.100000*%
%ADD11C,0.600000*%
%ADD12R,2.032000X1.727200*%
%ADD13O,2.032000X1.727200*%
%ADD14R,2.032000X2.032000*%
%ADD15O,2.032000X2.032000*%
%ADD16R,1.500000X1.500000*%
%ADD17R,1.000000X1.000000*%
%ADD18R,1.700000X1.700000*%
%ADD19O,1.700000X1.700000*%
%ADD20C,0.508000*%
%ADD21C,0.203200*%
%ADD22C,0.304800*%
%ADD23C,0.254000*%
G04 APERTURE END LIST*
D10*
D11*
X203174600Y-118567200D03*
X204774800Y-116814600D03*
X200507600Y-118440200D03*
X198399400Y-126263400D03*
X192074800Y-125349000D03*
X212013800Y-100660200D03*
X207949800Y-97409000D03*
X192735200Y-111810800D03*
X190373000Y-116001800D03*
X192709800Y-116230400D03*
X192455800Y-120726200D03*
X195148200Y-122834400D03*
X197408800Y-113258600D03*
X204597000Y-104394000D03*
X202717400Y-107213400D03*
X214096600Y-111201200D03*
X214299800Y-113639600D03*
X214630000Y-115316000D03*
X213207600Y-124536200D03*
X214985600Y-124510800D03*
X200787000Y-114046000D03*
X193167000Y-109474000D03*
X202692000Y-103886000D03*
X203327000Y-98806000D03*
X203581000Y-100711000D03*
X206756000Y-107289600D03*
X211074000Y-95504000D03*
X200914000Y-123088400D03*
X204266800Y-113385600D03*
X202819000Y-109347000D03*
D12*
X190754000Y-105156000D03*
D13*
X190754000Y-107696000D03*
X190754000Y-110236000D03*
D14*
X217424000Y-122936000D03*
D15*
X217424000Y-125476000D03*
D12*
X216990000Y-96266000D03*
D13*
X216990000Y-98806000D03*
X216990000Y-101346000D03*
D12*
X217170000Y-105156000D03*
D13*
X217170000Y-107696000D03*
X217170000Y-110236000D03*
D12*
X190754000Y-96266000D03*
D13*
X190754000Y-98806000D03*
X190754000Y-101346000D03*
D11*
X194691000Y-112522000D03*
D16*
X190119000Y-123825000D03*
X190119000Y-121825000D03*
X190119000Y-119825000D03*
X190119000Y-117825000D03*
X190119000Y-125825000D03*
D17*
X211248000Y-122936000D03*
X213948000Y-122936000D03*
X212598000Y-122936000D03*
D18*
X200672700Y-95631000D03*
D19*
X203212700Y-95631000D03*
X205752700Y-95631000D03*
X208292700Y-95631000D03*
D11*
X215011000Y-121539000D03*
X215646000Y-121539000D03*
X202565000Y-114046000D03*
X198577790Y-111140190D03*
X212410000Y-99502000D03*
X207391000Y-99568000D03*
X207401744Y-110098256D03*
X207479900Y-113030000D03*
X212344000Y-108458000D03*
X203835000Y-111760000D03*
X209268800Y-122301000D03*
X208812199Y-121844399D03*
X192024000Y-117856000D03*
X197612000Y-115951000D03*
X212090000Y-101981000D03*
X209931000Y-115443000D03*
X216662000Y-112141000D03*
X217297000Y-112141000D03*
X210947000Y-110871000D03*
X197485000Y-105410000D03*
X196215000Y-117983000D03*
X206502000Y-97282000D03*
X204837882Y-121475622D03*
X197231000Y-120650000D03*
X212344000Y-114808000D03*
X206583138Y-120328650D03*
X212979000Y-115570000D03*
X206502000Y-121239589D03*
X191770000Y-123825000D03*
X200533000Y-116268500D03*
X200596500Y-115255611D03*
X206679800Y-114803229D03*
X205475256Y-110246744D03*
X191389000Y-113792000D03*
X205740000Y-121239589D03*
D20*
X212852000Y-121539000D02*
X212598000Y-121793000D01*
X212598000Y-121793000D02*
X212598000Y-122936000D01*
X215011000Y-121539000D02*
X212852000Y-121539000D01*
X215011000Y-121539000D02*
X215646000Y-121539000D01*
D21*
X212445600Y-122936000D02*
X214096600Y-122936000D01*
D20*
X217170000Y-110413800D02*
X218313000Y-111556800D01*
X217170000Y-110236000D02*
X217170000Y-110413800D01*
X217170000Y-110236000D02*
X217170000Y-110286800D01*
D21*
X198577790Y-111140190D02*
X199659190Y-111140190D01*
X199659190Y-111140190D02*
X202565000Y-114046000D01*
X207391000Y-99568000D02*
X212344000Y-99568000D01*
X212344000Y-99568000D02*
X212410000Y-99502000D01*
X207391000Y-113030000D02*
X207391000Y-110109000D01*
X207391000Y-110109000D02*
X207401744Y-110098256D01*
X206444078Y-108458000D02*
X205994000Y-108458000D01*
X205941170Y-108458000D02*
X205994000Y-108458000D01*
X204851000Y-108458000D02*
X205994000Y-108458000D01*
X203835000Y-109474000D02*
X204851000Y-108458000D01*
X203835000Y-111760000D02*
X203835000Y-109474000D01*
X206444078Y-108458000D02*
X212344000Y-108458000D01*
D20*
X209268800Y-122301000D02*
X208812199Y-121844399D01*
X209903800Y-122936000D02*
X209268800Y-122301000D01*
X211248000Y-122936000D02*
X209903800Y-122936000D01*
X217424000Y-122936000D02*
X213948000Y-122936000D01*
D22*
X209931000Y-115443000D02*
X206121000Y-115443000D01*
X206121000Y-115443000D02*
X205867000Y-115189000D01*
X205867000Y-115189000D02*
X202825106Y-115189000D01*
X202825106Y-115189000D02*
X200920106Y-113284000D01*
X200920106Y-113284000D02*
X199771000Y-113284000D01*
X199771000Y-113284000D02*
X197612000Y-115443000D01*
X197612000Y-115443000D02*
X197612000Y-115951000D01*
X216662000Y-112141000D02*
X214757000Y-112141000D01*
X214757000Y-112141000D02*
X213233000Y-112141000D01*
X214757000Y-110236000D02*
X214757000Y-112141000D01*
X213233000Y-112141000D02*
X209931000Y-115443000D01*
X214757000Y-102870000D02*
X213868000Y-101981000D01*
X213868000Y-101981000D02*
X212090000Y-101981000D01*
X214757000Y-110236000D02*
X214757000Y-102870000D01*
X192024000Y-117856000D02*
X190150000Y-117856000D01*
X190150000Y-117856000D02*
X190119000Y-117825000D01*
X217297000Y-112141000D02*
X216662000Y-112141000D01*
D23*
X196215000Y-117983000D02*
X196215000Y-109601000D01*
D21*
X199517000Y-109601000D02*
X196215000Y-109601000D01*
D23*
X196215000Y-109601000D02*
X196215000Y-106680000D01*
D21*
X204597000Y-112014000D02*
X204089000Y-112522000D01*
X210947000Y-110871000D02*
X209620255Y-109544255D01*
X209620255Y-109544255D02*
X205357823Y-109544255D01*
X202057000Y-109601000D02*
X199517000Y-109601000D01*
X205357823Y-109544255D02*
X204597000Y-110305078D01*
X204597000Y-110305078D02*
X204597000Y-112014000D01*
X204089000Y-112522000D02*
X203327000Y-112522000D01*
X203327000Y-112522000D02*
X202819000Y-112014000D01*
X202819000Y-112014000D02*
X202819000Y-110363000D01*
X202819000Y-110363000D02*
X202057000Y-109601000D01*
D23*
X196215000Y-106680000D02*
X197485000Y-105410000D01*
D21*
X206502000Y-97282000D02*
X204851000Y-97282000D01*
X204851000Y-97282000D02*
X203200000Y-95631000D01*
X204837882Y-121475622D02*
X204837882Y-121051358D01*
X204837882Y-121051358D02*
X204436524Y-120650000D01*
X204436524Y-120650000D02*
X204275217Y-120650000D01*
X204275217Y-120650000D02*
X204158530Y-120650000D01*
X204158530Y-120650000D02*
X197231000Y-120650000D01*
X212344000Y-114808000D02*
X206823350Y-120328650D01*
X206823350Y-120328650D02*
X206583138Y-120328650D01*
X212979000Y-115570000D02*
X207309411Y-121239589D01*
X207309411Y-121239589D02*
X206502000Y-121239589D01*
X191770000Y-123825000D02*
X190119000Y-123825000D01*
X200533000Y-116268500D02*
X200108736Y-116268500D01*
X200108736Y-116268500D02*
X194552236Y-121825000D01*
X194552236Y-121825000D02*
X191072200Y-121825000D01*
X191072200Y-121825000D02*
X190119000Y-121825000D01*
X190119000Y-119825000D02*
X196049328Y-119825000D01*
X196049328Y-119825000D02*
X196049328Y-119802783D01*
X196049328Y-119802783D02*
X200596500Y-115255611D01*
X205475256Y-110246744D02*
X205740000Y-110511488D01*
X205740000Y-110511488D02*
X205740000Y-113863429D01*
X205740000Y-113863429D02*
X206679800Y-114803229D01*
X194335890Y-119469390D02*
X193929000Y-119062500D01*
X193929000Y-119062500D02*
X193929000Y-114427000D01*
X195871610Y-119469390D02*
X194335890Y-119469390D01*
X196413703Y-118935500D02*
X196405500Y-118935500D01*
X196405500Y-118935500D02*
X195871610Y-119469390D01*
X199834500Y-115514703D02*
X196413703Y-118935500D01*
X204304675Y-119380000D02*
X204304675Y-118143864D01*
X204304675Y-118143864D02*
X200862421Y-114701610D01*
X200862421Y-114701610D02*
X200330579Y-114701610D01*
X200330579Y-114701610D02*
X199834500Y-115197689D01*
X199834500Y-115197689D02*
X199834500Y-115514703D01*
X193929000Y-114427000D02*
X193294000Y-113792000D01*
X193294000Y-113792000D02*
X191389000Y-113792000D01*
X205740000Y-121239589D02*
X205740000Y-120815325D01*
X205740000Y-120815325D02*
X204304675Y-119380000D01*
D23*
G36*
X218493200Y-121490514D02*
X218440000Y-121479741D01*
X216408000Y-121479741D01*
X216377847Y-121485415D01*
X216377927Y-121394075D01*
X216266752Y-121125010D01*
X216061073Y-120918972D01*
X215792203Y-120807327D01*
X215501075Y-120807073D01*
X215389439Y-120853200D01*
X215267677Y-120853200D01*
X215157203Y-120807327D01*
X214866075Y-120807073D01*
X214754439Y-120853200D01*
X212852000Y-120853200D01*
X212589556Y-120905403D01*
X212523707Y-120949402D01*
X212367066Y-121054066D01*
X212113066Y-121308066D01*
X211964403Y-121530555D01*
X211930803Y-121699474D01*
X211912200Y-121793000D01*
X211912200Y-122028992D01*
X211748000Y-121995741D01*
X210748000Y-121995741D01*
X210587985Y-122025850D01*
X210441020Y-122120419D01*
X210352345Y-122250200D01*
X210187868Y-122250200D01*
X209935232Y-121997564D01*
X209889552Y-121887010D01*
X209683873Y-121680972D01*
X209572318Y-121634650D01*
X209478631Y-121540963D01*
X209432951Y-121430409D01*
X209227272Y-121224371D01*
X208958402Y-121112726D01*
X208667274Y-121112472D01*
X208398209Y-121223647D01*
X208192171Y-121429326D01*
X208080526Y-121698196D01*
X208080272Y-121989324D01*
X208191447Y-122258389D01*
X208397126Y-122464427D01*
X208508681Y-122510749D01*
X208602368Y-122604436D01*
X208648048Y-122714990D01*
X208853727Y-122921028D01*
X208965282Y-122967350D01*
X209418866Y-123420934D01*
X209641355Y-123569597D01*
X209903800Y-123621801D01*
X209903805Y-123621800D01*
X210354442Y-123621800D01*
X210432419Y-123742980D01*
X210576715Y-123841573D01*
X210748000Y-123876259D01*
X211748000Y-123876259D01*
X211908015Y-123846150D01*
X211921095Y-123837733D01*
X211926715Y-123841573D01*
X212098000Y-123876259D01*
X213098000Y-123876259D01*
X213258015Y-123846150D01*
X213271095Y-123837733D01*
X213276715Y-123841573D01*
X213448000Y-123876259D01*
X214448000Y-123876259D01*
X214608015Y-123846150D01*
X214754980Y-123751581D01*
X214843655Y-123621800D01*
X215967741Y-123621800D01*
X215967741Y-123952000D01*
X215997850Y-124112015D01*
X216092419Y-124258980D01*
X216236715Y-124357573D01*
X216250236Y-124360311D01*
X216017615Y-124611182D01*
X215818025Y-125093056D01*
X215937164Y-125349000D01*
X217297000Y-125349000D01*
X217297000Y-125329000D01*
X217551000Y-125329000D01*
X217551000Y-125349000D01*
X217571000Y-125349000D01*
X217571000Y-125603000D01*
X217551000Y-125603000D01*
X217551000Y-125623000D01*
X217297000Y-125623000D01*
X217297000Y-125603000D01*
X215937164Y-125603000D01*
X215818025Y-125858944D01*
X216017615Y-126340818D01*
X216158912Y-126493200D01*
X191504000Y-126493200D01*
X191504000Y-126110750D01*
X191345250Y-125952000D01*
X190246000Y-125952000D01*
X190246000Y-125972000D01*
X189992000Y-125972000D01*
X189992000Y-125952000D01*
X189972000Y-125952000D01*
X189972000Y-125698000D01*
X189992000Y-125698000D01*
X189992000Y-125678000D01*
X190246000Y-125678000D01*
X190246000Y-125698000D01*
X191345250Y-125698000D01*
X191504000Y-125539250D01*
X191504000Y-124948691D01*
X191407327Y-124715302D01*
X191302147Y-124610121D01*
X191309259Y-124575000D01*
X191309259Y-124399280D01*
X191354927Y-124445028D01*
X191623797Y-124556673D01*
X191914925Y-124556927D01*
X192183990Y-124445752D01*
X192390028Y-124240073D01*
X192501673Y-123971203D01*
X192501927Y-123680075D01*
X192390752Y-123411010D01*
X192185073Y-123204972D01*
X191916203Y-123093327D01*
X191625075Y-123093073D01*
X191356010Y-123204248D01*
X191309259Y-123250918D01*
X191309259Y-123075000D01*
X191279150Y-122914985D01*
X191221025Y-122824656D01*
X191274573Y-122746285D01*
X191309259Y-122575000D01*
X191309259Y-122358400D01*
X194552236Y-122358400D01*
X194756359Y-122317797D01*
X194929407Y-122202171D01*
X196499215Y-120632363D01*
X196499073Y-120794925D01*
X196610248Y-121063990D01*
X196815927Y-121270028D01*
X197084797Y-121381673D01*
X197375925Y-121381927D01*
X197644990Y-121270752D01*
X197732494Y-121183400D01*
X204166842Y-121183400D01*
X204106209Y-121329419D01*
X204105955Y-121620547D01*
X204217130Y-121889612D01*
X204422809Y-122095650D01*
X204691679Y-122207295D01*
X204982807Y-122207549D01*
X205251872Y-122096374D01*
X205440831Y-121907745D01*
X205593797Y-121971262D01*
X205884925Y-121971516D01*
X206121250Y-121873869D01*
X206355797Y-121971262D01*
X206646925Y-121971516D01*
X206915990Y-121860341D01*
X207003494Y-121772989D01*
X207309411Y-121772989D01*
X207513534Y-121732386D01*
X207686582Y-121616760D01*
X213001522Y-116301820D01*
X213123925Y-116301927D01*
X213392990Y-116190752D01*
X213599028Y-115985073D01*
X213710673Y-115716203D01*
X213710927Y-115425075D01*
X213599752Y-115156010D01*
X213394073Y-114949972D01*
X213125203Y-114838327D01*
X213075774Y-114838284D01*
X213075927Y-114663075D01*
X212964752Y-114394010D01*
X212759073Y-114187972D01*
X212490203Y-114076327D01*
X212199075Y-114076073D01*
X212071327Y-114128857D01*
X213474984Y-112725200D01*
X216211161Y-112725200D01*
X216246927Y-112761028D01*
X216515797Y-112872673D01*
X216806925Y-112872927D01*
X216979593Y-112801582D01*
X217150797Y-112872673D01*
X217441925Y-112872927D01*
X217710990Y-112761752D01*
X217917028Y-112556073D01*
X218028673Y-112287203D01*
X218028927Y-111996075D01*
X217917752Y-111727010D01*
X217813581Y-111622657D01*
X218084320Y-111527954D01*
X218493200Y-111162635D01*
X218493200Y-121490514D01*
X218493200Y-121490514D01*
G37*
X218493200Y-121490514D02*
X218440000Y-121479741D01*
X216408000Y-121479741D01*
X216377847Y-121485415D01*
X216377927Y-121394075D01*
X216266752Y-121125010D01*
X216061073Y-120918972D01*
X215792203Y-120807327D01*
X215501075Y-120807073D01*
X215389439Y-120853200D01*
X215267677Y-120853200D01*
X215157203Y-120807327D01*
X214866075Y-120807073D01*
X214754439Y-120853200D01*
X212852000Y-120853200D01*
X212589556Y-120905403D01*
X212523707Y-120949402D01*
X212367066Y-121054066D01*
X212113066Y-121308066D01*
X211964403Y-121530555D01*
X211930803Y-121699474D01*
X211912200Y-121793000D01*
X211912200Y-122028992D01*
X211748000Y-121995741D01*
X210748000Y-121995741D01*
X210587985Y-122025850D01*
X210441020Y-122120419D01*
X210352345Y-122250200D01*
X210187868Y-122250200D01*
X209935232Y-121997564D01*
X209889552Y-121887010D01*
X209683873Y-121680972D01*
X209572318Y-121634650D01*
X209478631Y-121540963D01*
X209432951Y-121430409D01*
X209227272Y-121224371D01*
X208958402Y-121112726D01*
X208667274Y-121112472D01*
X208398209Y-121223647D01*
X208192171Y-121429326D01*
X208080526Y-121698196D01*
X208080272Y-121989324D01*
X208191447Y-122258389D01*
X208397126Y-122464427D01*
X208508681Y-122510749D01*
X208602368Y-122604436D01*
X208648048Y-122714990D01*
X208853727Y-122921028D01*
X208965282Y-122967350D01*
X209418866Y-123420934D01*
X209641355Y-123569597D01*
X209903800Y-123621801D01*
X209903805Y-123621800D01*
X210354442Y-123621800D01*
X210432419Y-123742980D01*
X210576715Y-123841573D01*
X210748000Y-123876259D01*
X211748000Y-123876259D01*
X211908015Y-123846150D01*
X211921095Y-123837733D01*
X211926715Y-123841573D01*
X212098000Y-123876259D01*
X213098000Y-123876259D01*
X213258015Y-123846150D01*
X213271095Y-123837733D01*
X213276715Y-123841573D01*
X213448000Y-123876259D01*
X214448000Y-123876259D01*
X214608015Y-123846150D01*
X214754980Y-123751581D01*
X214843655Y-123621800D01*
X215967741Y-123621800D01*
X215967741Y-123952000D01*
X215997850Y-124112015D01*
X216092419Y-124258980D01*
X216236715Y-124357573D01*
X216250236Y-124360311D01*
X216017615Y-124611182D01*
X215818025Y-125093056D01*
X215937164Y-125349000D01*
X217297000Y-125349000D01*
X217297000Y-125329000D01*
X217551000Y-125329000D01*
X217551000Y-125349000D01*
X217571000Y-125349000D01*
X217571000Y-125603000D01*
X217551000Y-125603000D01*
X217551000Y-125623000D01*
X217297000Y-125623000D01*
X217297000Y-125603000D01*
X215937164Y-125603000D01*
X215818025Y-125858944D01*
X216017615Y-126340818D01*
X216158912Y-126493200D01*
X191504000Y-126493200D01*
X191504000Y-126110750D01*
X191345250Y-125952000D01*
X190246000Y-125952000D01*
X190246000Y-125972000D01*
X189992000Y-125972000D01*
X189992000Y-125952000D01*
X189972000Y-125952000D01*
X189972000Y-125698000D01*
X189992000Y-125698000D01*
X189992000Y-125678000D01*
X190246000Y-125678000D01*
X190246000Y-125698000D01*
X191345250Y-125698000D01*
X191504000Y-125539250D01*
X191504000Y-124948691D01*
X191407327Y-124715302D01*
X191302147Y-124610121D01*
X191309259Y-124575000D01*
X191309259Y-124399280D01*
X191354927Y-124445028D01*
X191623797Y-124556673D01*
X191914925Y-124556927D01*
X192183990Y-124445752D01*
X192390028Y-124240073D01*
X192501673Y-123971203D01*
X192501927Y-123680075D01*
X192390752Y-123411010D01*
X192185073Y-123204972D01*
X191916203Y-123093327D01*
X191625075Y-123093073D01*
X191356010Y-123204248D01*
X191309259Y-123250918D01*
X191309259Y-123075000D01*
X191279150Y-122914985D01*
X191221025Y-122824656D01*
X191274573Y-122746285D01*
X191309259Y-122575000D01*
X191309259Y-122358400D01*
X194552236Y-122358400D01*
X194756359Y-122317797D01*
X194929407Y-122202171D01*
X196499215Y-120632363D01*
X196499073Y-120794925D01*
X196610248Y-121063990D01*
X196815927Y-121270028D01*
X197084797Y-121381673D01*
X197375925Y-121381927D01*
X197644990Y-121270752D01*
X197732494Y-121183400D01*
X204166842Y-121183400D01*
X204106209Y-121329419D01*
X204105955Y-121620547D01*
X204217130Y-121889612D01*
X204422809Y-122095650D01*
X204691679Y-122207295D01*
X204982807Y-122207549D01*
X205251872Y-122096374D01*
X205440831Y-121907745D01*
X205593797Y-121971262D01*
X205884925Y-121971516D01*
X206121250Y-121873869D01*
X206355797Y-121971262D01*
X206646925Y-121971516D01*
X206915990Y-121860341D01*
X207003494Y-121772989D01*
X207309411Y-121772989D01*
X207513534Y-121732386D01*
X207686582Y-121616760D01*
X213001522Y-116301820D01*
X213123925Y-116301927D01*
X213392990Y-116190752D01*
X213599028Y-115985073D01*
X213710673Y-115716203D01*
X213710927Y-115425075D01*
X213599752Y-115156010D01*
X213394073Y-114949972D01*
X213125203Y-114838327D01*
X213075774Y-114838284D01*
X213075927Y-114663075D01*
X212964752Y-114394010D01*
X212759073Y-114187972D01*
X212490203Y-114076327D01*
X212199075Y-114076073D01*
X212071327Y-114128857D01*
X213474984Y-112725200D01*
X216211161Y-112725200D01*
X216246927Y-112761028D01*
X216515797Y-112872673D01*
X216806925Y-112872927D01*
X216979593Y-112801582D01*
X217150797Y-112872673D01*
X217441925Y-112872927D01*
X217710990Y-112761752D01*
X217917028Y-112556073D01*
X218028673Y-112287203D01*
X218028927Y-111996075D01*
X217917752Y-111727010D01*
X217813581Y-111622657D01*
X218084320Y-111527954D01*
X218493200Y-111162635D01*
X218493200Y-121490514D01*
G36*
X194331294Y-121291600D02*
X191309259Y-121291600D01*
X191309259Y-121075000D01*
X191279150Y-120914985D01*
X191221025Y-120824656D01*
X191274573Y-120746285D01*
X191309259Y-120575000D01*
X191309259Y-120358400D01*
X195264494Y-120358400D01*
X194331294Y-121291600D01*
X194331294Y-121291600D01*
G37*
X194331294Y-121291600D02*
X191309259Y-121291600D01*
X191309259Y-121075000D01*
X191279150Y-120914985D01*
X191221025Y-120824656D01*
X191274573Y-120746285D01*
X191309259Y-120575000D01*
X191309259Y-120358400D01*
X195264494Y-120358400D01*
X194331294Y-121291600D01*
G36*
X202825106Y-115773200D02*
X205625016Y-115773200D01*
X205707908Y-115856092D01*
X205897436Y-115982730D01*
X206121000Y-116027200D01*
X209480161Y-116027200D01*
X209515927Y-116063028D01*
X209784797Y-116174673D01*
X210075925Y-116174927D01*
X210326101Y-116071557D01*
X206779749Y-119617909D01*
X206729341Y-119596977D01*
X206438213Y-119596723D01*
X206169148Y-119707898D01*
X205963110Y-119913577D01*
X205854399Y-120175382D01*
X204838075Y-119159058D01*
X204838075Y-118143864D01*
X204809897Y-118002203D01*
X204797472Y-117939740D01*
X204681846Y-117766693D01*
X202654396Y-115739243D01*
X202825106Y-115773200D01*
X202825106Y-115773200D01*
G37*
X202825106Y-115773200D02*
X205625016Y-115773200D01*
X205707908Y-115856092D01*
X205897436Y-115982730D01*
X206121000Y-116027200D01*
X209480161Y-116027200D01*
X209515927Y-116063028D01*
X209784797Y-116174673D01*
X210075925Y-116174927D01*
X210326101Y-116071557D01*
X206779749Y-119617909D01*
X206729341Y-119596977D01*
X206438213Y-119596723D01*
X206169148Y-119707898D01*
X205963110Y-119913577D01*
X205854399Y-120175382D01*
X204838075Y-119159058D01*
X204838075Y-118143864D01*
X204809897Y-118002203D01*
X204797472Y-117939740D01*
X204681846Y-117766693D01*
X202654396Y-115739243D01*
X202825106Y-115773200D01*
G36*
X203771275Y-118364806D02*
X203771275Y-119380000D01*
X203811878Y-119584123D01*
X203927504Y-119757171D01*
X204286933Y-120116600D01*
X197732550Y-120116600D01*
X197646073Y-120029972D01*
X197377203Y-119918327D01*
X197213394Y-119918184D01*
X200206338Y-116925240D01*
X200386797Y-117000173D01*
X200677925Y-117000427D01*
X200946990Y-116889252D01*
X201153028Y-116683573D01*
X201264673Y-116414703D01*
X201264927Y-116123575D01*
X201153752Y-115854510D01*
X201093172Y-115793825D01*
X201146780Y-115740311D01*
X203771275Y-118364806D01*
X203771275Y-118364806D01*
G37*
X203771275Y-118364806D02*
X203771275Y-119380000D01*
X203811878Y-119584123D01*
X203927504Y-119757171D01*
X204286933Y-120116600D01*
X197732550Y-120116600D01*
X197646073Y-120029972D01*
X197377203Y-119918327D01*
X197213394Y-119918184D01*
X200206338Y-116925240D01*
X200386797Y-117000173D01*
X200677925Y-117000427D01*
X200946990Y-116889252D01*
X201153028Y-116683573D01*
X201264673Y-116414703D01*
X201264927Y-116123575D01*
X201153752Y-115854510D01*
X201093172Y-115793825D01*
X201146780Y-115740311D01*
X203771275Y-118364806D01*
G36*
X199187700Y-95345250D02*
X199346450Y-95504000D01*
X200545700Y-95504000D01*
X200545700Y-95484000D01*
X200799700Y-95484000D01*
X200799700Y-95504000D01*
X200819700Y-95504000D01*
X200819700Y-95758000D01*
X200799700Y-95758000D01*
X200799700Y-96957250D01*
X200958450Y-97116000D01*
X201649010Y-97116000D01*
X201882399Y-97019327D01*
X202061027Y-96840698D01*
X202157700Y-96607309D01*
X202157700Y-96340040D01*
X202306331Y-96562481D01*
X202722176Y-96840341D01*
X203212700Y-96937912D01*
X203663000Y-96848342D01*
X204473827Y-97659168D01*
X204473829Y-97659171D01*
X204646877Y-97774797D01*
X204851000Y-97815401D01*
X204851005Y-97815400D01*
X206000450Y-97815400D01*
X206086927Y-97902028D01*
X206355797Y-98013673D01*
X206646925Y-98013927D01*
X206915990Y-97902752D01*
X207122028Y-97697073D01*
X207233673Y-97428203D01*
X207233927Y-97137075D01*
X207122752Y-96868010D01*
X206917073Y-96661972D01*
X206663066Y-96556499D01*
X206936929Y-96146636D01*
X207022700Y-95715435D01*
X207108471Y-96146636D01*
X207386331Y-96562481D01*
X207802176Y-96840341D01*
X208292700Y-96937912D01*
X208783224Y-96840341D01*
X209199069Y-96562481D01*
X209476929Y-96146636D01*
X209574500Y-95656112D01*
X209574500Y-95605888D01*
X209476929Y-95115364D01*
X209226652Y-94740800D01*
X218493200Y-94740800D01*
X218493200Y-100760481D01*
X218340732Y-100443964D01*
X217904320Y-100054046D01*
X217697867Y-99981830D01*
X218086750Y-99721986D01*
X218367558Y-99301728D01*
X218466164Y-98806000D01*
X218367558Y-98310272D01*
X218086750Y-97890014D01*
X217666492Y-97609206D01*
X217468680Y-97569859D01*
X218006000Y-97569859D01*
X218166015Y-97539750D01*
X218312980Y-97445181D01*
X218411573Y-97300885D01*
X218446259Y-97129600D01*
X218446259Y-95402400D01*
X218416150Y-95242385D01*
X218321581Y-95095420D01*
X218177285Y-94996827D01*
X218006000Y-94962141D01*
X215974000Y-94962141D01*
X215813985Y-94992250D01*
X215667020Y-95086819D01*
X215568427Y-95231115D01*
X215533741Y-95402400D01*
X215533741Y-97129600D01*
X215563850Y-97289615D01*
X215658419Y-97436580D01*
X215802715Y-97535173D01*
X215974000Y-97569859D01*
X216511320Y-97569859D01*
X216313508Y-97609206D01*
X215893250Y-97890014D01*
X215612442Y-98310272D01*
X215513836Y-98806000D01*
X215612442Y-99301728D01*
X215893250Y-99721986D01*
X216282133Y-99981830D01*
X216075680Y-100054046D01*
X215639268Y-100443964D01*
X215385291Y-100971209D01*
X215382642Y-100986974D01*
X215503783Y-101219000D01*
X216863000Y-101219000D01*
X216863000Y-101199000D01*
X217117000Y-101199000D01*
X217117000Y-101219000D01*
X217137000Y-101219000D01*
X217137000Y-101473000D01*
X217117000Y-101473000D01*
X217117000Y-102686924D01*
X217351913Y-102831184D01*
X217904320Y-102637954D01*
X218340732Y-102248036D01*
X218493200Y-101931519D01*
X218493200Y-103979694D01*
X218357285Y-103886827D01*
X218186000Y-103852141D01*
X216154000Y-103852141D01*
X215993985Y-103882250D01*
X215847020Y-103976819D01*
X215748427Y-104121115D01*
X215713741Y-104292400D01*
X215713741Y-106019600D01*
X215743850Y-106179615D01*
X215838419Y-106326580D01*
X215982715Y-106425173D01*
X216154000Y-106459859D01*
X216691320Y-106459859D01*
X216493508Y-106499206D01*
X216073250Y-106780014D01*
X215792442Y-107200272D01*
X215693836Y-107696000D01*
X215792442Y-108191728D01*
X216073250Y-108611986D01*
X216462133Y-108871830D01*
X216255680Y-108944046D01*
X215819268Y-109333964D01*
X215565291Y-109861209D01*
X215562642Y-109876974D01*
X215683783Y-110109000D01*
X217043000Y-110109000D01*
X217043000Y-110089000D01*
X217297000Y-110089000D01*
X217297000Y-110109000D01*
X217317000Y-110109000D01*
X217317000Y-110363000D01*
X217297000Y-110363000D01*
X217297000Y-110383000D01*
X217043000Y-110383000D01*
X217043000Y-110363000D01*
X215683783Y-110363000D01*
X215562642Y-110595026D01*
X215565291Y-110610791D01*
X215819268Y-111138036D01*
X216247559Y-111520698D01*
X216211394Y-111556800D01*
X215341200Y-111556800D01*
X215341200Y-102870000D01*
X215296730Y-102646436D01*
X215170092Y-102456908D01*
X214418210Y-101705026D01*
X215382642Y-101705026D01*
X215385291Y-101720791D01*
X215639268Y-102248036D01*
X216075680Y-102637954D01*
X216628087Y-102831184D01*
X216863000Y-102686924D01*
X216863000Y-101473000D01*
X215503783Y-101473000D01*
X215382642Y-101705026D01*
X214418210Y-101705026D01*
X214281092Y-101567908D01*
X214278127Y-101565927D01*
X214091564Y-101441270D01*
X213868000Y-101396800D01*
X212540839Y-101396800D01*
X212505073Y-101360972D01*
X212236203Y-101249327D01*
X211945075Y-101249073D01*
X211676010Y-101360248D01*
X211469972Y-101565927D01*
X211358327Y-101834797D01*
X211358073Y-102125925D01*
X211469248Y-102394990D01*
X211674927Y-102601028D01*
X211943797Y-102712673D01*
X212234925Y-102712927D01*
X212503990Y-102601752D01*
X212540606Y-102565200D01*
X213626016Y-102565200D01*
X214172800Y-103111984D01*
X214172800Y-111556800D01*
X213233000Y-111556800D01*
X213009436Y-111601270D01*
X212901201Y-111673590D01*
X212819908Y-111727908D01*
X209836699Y-114711117D01*
X209786075Y-114711073D01*
X209517010Y-114822248D01*
X209480394Y-114858800D01*
X207411552Y-114858800D01*
X207411727Y-114658304D01*
X207300552Y-114389239D01*
X207094873Y-114183201D01*
X206826003Y-114071556D01*
X206702361Y-114071448D01*
X206273400Y-113642487D01*
X206273400Y-110511493D01*
X206273401Y-110511488D01*
X206232797Y-110307365D01*
X206207037Y-110268813D01*
X206207183Y-110101819D01*
X206197199Y-110077655D01*
X206669961Y-110077655D01*
X206669817Y-110243181D01*
X206780992Y-110512246D01*
X206857600Y-110588988D01*
X206857600Y-112620399D01*
X206748227Y-112883797D01*
X206747973Y-113174925D01*
X206859148Y-113443990D01*
X207064827Y-113650028D01*
X207333697Y-113761673D01*
X207624825Y-113761927D01*
X207893890Y-113650752D01*
X208099928Y-113445073D01*
X208211573Y-113176203D01*
X208211827Y-112885075D01*
X208100652Y-112616010D01*
X207924400Y-112439450D01*
X207924400Y-110610531D01*
X208021772Y-110513329D01*
X208133417Y-110244459D01*
X208133563Y-110077655D01*
X209399313Y-110077655D01*
X210215180Y-110893522D01*
X210215073Y-111015925D01*
X210326248Y-111284990D01*
X210531927Y-111491028D01*
X210800797Y-111602673D01*
X211091925Y-111602927D01*
X211360990Y-111491752D01*
X211567028Y-111286073D01*
X211678673Y-111017203D01*
X211678927Y-110726075D01*
X211567752Y-110457010D01*
X211362073Y-110250972D01*
X211093203Y-110139327D01*
X210969561Y-110139219D01*
X209997426Y-109167084D01*
X209824378Y-109051458D01*
X209620255Y-109010855D01*
X205357823Y-109010855D01*
X205153700Y-109051458D01*
X204980652Y-109167084D01*
X204368400Y-109779336D01*
X204368400Y-109694942D01*
X205071942Y-108991400D01*
X211842450Y-108991400D01*
X211928927Y-109078028D01*
X212197797Y-109189673D01*
X212488925Y-109189927D01*
X212757990Y-109078752D01*
X212964028Y-108873073D01*
X213075673Y-108604203D01*
X213075927Y-108313075D01*
X212964752Y-108044010D01*
X212759073Y-107837972D01*
X212490203Y-107726327D01*
X212199075Y-107726073D01*
X211930010Y-107837248D01*
X211842506Y-107924600D01*
X204851000Y-107924600D01*
X204646877Y-107965203D01*
X204473829Y-108080829D01*
X203457829Y-109096829D01*
X203342203Y-109269877D01*
X203301600Y-109474000D01*
X203301600Y-110143616D01*
X203196171Y-109985829D01*
X202434171Y-109223829D01*
X202261123Y-109108203D01*
X202057000Y-109067600D01*
X196773800Y-109067600D01*
X196773800Y-106911462D01*
X197543410Y-106141852D01*
X197629925Y-106141927D01*
X197898990Y-106030752D01*
X198105028Y-105825073D01*
X198216673Y-105556203D01*
X198216927Y-105265075D01*
X198105752Y-104996010D01*
X197900073Y-104789972D01*
X197631203Y-104678327D01*
X197340075Y-104678073D01*
X197071010Y-104789248D01*
X196864972Y-104994927D01*
X196753327Y-105263797D01*
X196753250Y-105351488D01*
X195819869Y-106284869D01*
X195698736Y-106466156D01*
X195656200Y-106680000D01*
X195656200Y-117506806D01*
X195594972Y-117567927D01*
X195483327Y-117836797D01*
X195483073Y-118127925D01*
X195594248Y-118396990D01*
X195799927Y-118603028D01*
X195929731Y-118656928D01*
X195650668Y-118935990D01*
X194556832Y-118935990D01*
X194462400Y-118841558D01*
X194462400Y-114427005D01*
X194462401Y-114427000D01*
X194421797Y-114222877D01*
X194411237Y-114207073D01*
X194306171Y-114049829D01*
X194306168Y-114049827D01*
X193671171Y-113414829D01*
X193498123Y-113299203D01*
X193294000Y-113258600D01*
X191890550Y-113258600D01*
X191804073Y-113171972D01*
X191535203Y-113060327D01*
X191244075Y-113060073D01*
X190975010Y-113171248D01*
X190768972Y-113376927D01*
X190657327Y-113645797D01*
X190657073Y-113936925D01*
X190768248Y-114205990D01*
X190973927Y-114412028D01*
X191242797Y-114523673D01*
X191533925Y-114523927D01*
X191802990Y-114412752D01*
X191890494Y-114325400D01*
X193073058Y-114325400D01*
X193395600Y-114647941D01*
X193395600Y-119062500D01*
X193436203Y-119266623D01*
X193452892Y-119291600D01*
X191309259Y-119291600D01*
X191309259Y-119075000D01*
X191279150Y-118914985D01*
X191221025Y-118824656D01*
X191274573Y-118746285D01*
X191309259Y-118575000D01*
X191309259Y-118440200D01*
X191573161Y-118440200D01*
X191608927Y-118476028D01*
X191877797Y-118587673D01*
X192168925Y-118587927D01*
X192437990Y-118476752D01*
X192644028Y-118271073D01*
X192755673Y-118002203D01*
X192755927Y-117711075D01*
X192644752Y-117442010D01*
X192439073Y-117235972D01*
X192170203Y-117124327D01*
X191879075Y-117124073D01*
X191610010Y-117235248D01*
X191573394Y-117271800D01*
X191309259Y-117271800D01*
X191309259Y-117075000D01*
X191279150Y-116914985D01*
X191184581Y-116768020D01*
X191040285Y-116669427D01*
X190869000Y-116634741D01*
X189506800Y-116634741D01*
X189506800Y-111230538D01*
X189839680Y-111527954D01*
X190392087Y-111721184D01*
X190627000Y-111576924D01*
X190627000Y-110363000D01*
X190881000Y-110363000D01*
X190881000Y-111576924D01*
X191115913Y-111721184D01*
X191668320Y-111527954D01*
X192104732Y-111138036D01*
X192358709Y-110610791D01*
X192361358Y-110595026D01*
X192240217Y-110363000D01*
X190881000Y-110363000D01*
X190627000Y-110363000D01*
X190607000Y-110363000D01*
X190607000Y-110109000D01*
X190627000Y-110109000D01*
X190627000Y-110089000D01*
X190881000Y-110089000D01*
X190881000Y-110109000D01*
X192240217Y-110109000D01*
X192361358Y-109876974D01*
X192358709Y-109861209D01*
X192104732Y-109333964D01*
X191668320Y-108944046D01*
X191461867Y-108871830D01*
X191850750Y-108611986D01*
X192131558Y-108191728D01*
X192230164Y-107696000D01*
X192131558Y-107200272D01*
X191850750Y-106780014D01*
X191430492Y-106499206D01*
X191232680Y-106459859D01*
X191770000Y-106459859D01*
X191930015Y-106429750D01*
X192076980Y-106335181D01*
X192175573Y-106190885D01*
X192210259Y-106019600D01*
X192210259Y-104292400D01*
X192180150Y-104132385D01*
X192085581Y-103985420D01*
X191941285Y-103886827D01*
X191770000Y-103852141D01*
X189738000Y-103852141D01*
X189577985Y-103882250D01*
X189506800Y-103928056D01*
X189506800Y-102340538D01*
X189839680Y-102637954D01*
X190392087Y-102831184D01*
X190627000Y-102686924D01*
X190627000Y-101473000D01*
X190881000Y-101473000D01*
X190881000Y-102686924D01*
X191115913Y-102831184D01*
X191668320Y-102637954D01*
X192104732Y-102248036D01*
X192358709Y-101720791D01*
X192361358Y-101705026D01*
X192240217Y-101473000D01*
X190881000Y-101473000D01*
X190627000Y-101473000D01*
X190607000Y-101473000D01*
X190607000Y-101219000D01*
X190627000Y-101219000D01*
X190627000Y-101199000D01*
X190881000Y-101199000D01*
X190881000Y-101219000D01*
X192240217Y-101219000D01*
X192361358Y-100986974D01*
X192358709Y-100971209D01*
X192104732Y-100443964D01*
X191668320Y-100054046D01*
X191461867Y-99981830D01*
X191850750Y-99721986D01*
X191856804Y-99712925D01*
X206659073Y-99712925D01*
X206770248Y-99981990D01*
X206975927Y-100188028D01*
X207244797Y-100299673D01*
X207535925Y-100299927D01*
X207804990Y-100188752D01*
X207892494Y-100101400D01*
X211974335Y-100101400D01*
X211994927Y-100122028D01*
X212263797Y-100233673D01*
X212554925Y-100233927D01*
X212823990Y-100122752D01*
X213030028Y-99917073D01*
X213141673Y-99648203D01*
X213141927Y-99357075D01*
X213030752Y-99088010D01*
X212825073Y-98881972D01*
X212556203Y-98770327D01*
X212265075Y-98770073D01*
X211996010Y-98881248D01*
X211842390Y-99034600D01*
X207892550Y-99034600D01*
X207806073Y-98947972D01*
X207537203Y-98836327D01*
X207246075Y-98836073D01*
X206977010Y-98947248D01*
X206770972Y-99152927D01*
X206659327Y-99421797D01*
X206659073Y-99712925D01*
X191856804Y-99712925D01*
X192131558Y-99301728D01*
X192230164Y-98806000D01*
X192131558Y-98310272D01*
X191850750Y-97890014D01*
X191430492Y-97609206D01*
X191232680Y-97569859D01*
X191770000Y-97569859D01*
X191930015Y-97539750D01*
X192076980Y-97445181D01*
X192175573Y-97300885D01*
X192210259Y-97129600D01*
X192210259Y-95916750D01*
X199187700Y-95916750D01*
X199187700Y-96607309D01*
X199284373Y-96840698D01*
X199463001Y-97019327D01*
X199696390Y-97116000D01*
X200386950Y-97116000D01*
X200545700Y-96957250D01*
X200545700Y-95758000D01*
X199346450Y-95758000D01*
X199187700Y-95916750D01*
X192210259Y-95916750D01*
X192210259Y-95402400D01*
X192180150Y-95242385D01*
X192085581Y-95095420D01*
X191941285Y-94996827D01*
X191770000Y-94962141D01*
X189738000Y-94962141D01*
X189577985Y-94992250D01*
X189506800Y-95038056D01*
X189506800Y-94740800D01*
X199187700Y-94740800D01*
X199187700Y-95345250D01*
X199187700Y-95345250D01*
G37*
X199187700Y-95345250D02*
X199346450Y-95504000D01*
X200545700Y-95504000D01*
X200545700Y-95484000D01*
X200799700Y-95484000D01*
X200799700Y-95504000D01*
X200819700Y-95504000D01*
X200819700Y-95758000D01*
X200799700Y-95758000D01*
X200799700Y-96957250D01*
X200958450Y-97116000D01*
X201649010Y-97116000D01*
X201882399Y-97019327D01*
X202061027Y-96840698D01*
X202157700Y-96607309D01*
X202157700Y-96340040D01*
X202306331Y-96562481D01*
X202722176Y-96840341D01*
X203212700Y-96937912D01*
X203663000Y-96848342D01*
X204473827Y-97659168D01*
X204473829Y-97659171D01*
X204646877Y-97774797D01*
X204851000Y-97815401D01*
X204851005Y-97815400D01*
X206000450Y-97815400D01*
X206086927Y-97902028D01*
X206355797Y-98013673D01*
X206646925Y-98013927D01*
X206915990Y-97902752D01*
X207122028Y-97697073D01*
X207233673Y-97428203D01*
X207233927Y-97137075D01*
X207122752Y-96868010D01*
X206917073Y-96661972D01*
X206663066Y-96556499D01*
X206936929Y-96146636D01*
X207022700Y-95715435D01*
X207108471Y-96146636D01*
X207386331Y-96562481D01*
X207802176Y-96840341D01*
X208292700Y-96937912D01*
X208783224Y-96840341D01*
X209199069Y-96562481D01*
X209476929Y-96146636D01*
X209574500Y-95656112D01*
X209574500Y-95605888D01*
X209476929Y-95115364D01*
X209226652Y-94740800D01*
X218493200Y-94740800D01*
X218493200Y-100760481D01*
X218340732Y-100443964D01*
X217904320Y-100054046D01*
X217697867Y-99981830D01*
X218086750Y-99721986D01*
X218367558Y-99301728D01*
X218466164Y-98806000D01*
X218367558Y-98310272D01*
X218086750Y-97890014D01*
X217666492Y-97609206D01*
X217468680Y-97569859D01*
X218006000Y-97569859D01*
X218166015Y-97539750D01*
X218312980Y-97445181D01*
X218411573Y-97300885D01*
X218446259Y-97129600D01*
X218446259Y-95402400D01*
X218416150Y-95242385D01*
X218321581Y-95095420D01*
X218177285Y-94996827D01*
X218006000Y-94962141D01*
X215974000Y-94962141D01*
X215813985Y-94992250D01*
X215667020Y-95086819D01*
X215568427Y-95231115D01*
X215533741Y-95402400D01*
X215533741Y-97129600D01*
X215563850Y-97289615D01*
X215658419Y-97436580D01*
X215802715Y-97535173D01*
X215974000Y-97569859D01*
X216511320Y-97569859D01*
X216313508Y-97609206D01*
X215893250Y-97890014D01*
X215612442Y-98310272D01*
X215513836Y-98806000D01*
X215612442Y-99301728D01*
X215893250Y-99721986D01*
X216282133Y-99981830D01*
X216075680Y-100054046D01*
X215639268Y-100443964D01*
X215385291Y-100971209D01*
X215382642Y-100986974D01*
X215503783Y-101219000D01*
X216863000Y-101219000D01*
X216863000Y-101199000D01*
X217117000Y-101199000D01*
X217117000Y-101219000D01*
X217137000Y-101219000D01*
X217137000Y-101473000D01*
X217117000Y-101473000D01*
X217117000Y-102686924D01*
X217351913Y-102831184D01*
X217904320Y-102637954D01*
X218340732Y-102248036D01*
X218493200Y-101931519D01*
X218493200Y-103979694D01*
X218357285Y-103886827D01*
X218186000Y-103852141D01*
X216154000Y-103852141D01*
X215993985Y-103882250D01*
X215847020Y-103976819D01*
X215748427Y-104121115D01*
X215713741Y-104292400D01*
X215713741Y-106019600D01*
X215743850Y-106179615D01*
X215838419Y-106326580D01*
X215982715Y-106425173D01*
X216154000Y-106459859D01*
X216691320Y-106459859D01*
X216493508Y-106499206D01*
X216073250Y-106780014D01*
X215792442Y-107200272D01*
X215693836Y-107696000D01*
X215792442Y-108191728D01*
X216073250Y-108611986D01*
X216462133Y-108871830D01*
X216255680Y-108944046D01*
X215819268Y-109333964D01*
X215565291Y-109861209D01*
X215562642Y-109876974D01*
X215683783Y-110109000D01*
X217043000Y-110109000D01*
X217043000Y-110089000D01*
X217297000Y-110089000D01*
X217297000Y-110109000D01*
X217317000Y-110109000D01*
X217317000Y-110363000D01*
X217297000Y-110363000D01*
X217297000Y-110383000D01*
X217043000Y-110383000D01*
X217043000Y-110363000D01*
X215683783Y-110363000D01*
X215562642Y-110595026D01*
X215565291Y-110610791D01*
X215819268Y-111138036D01*
X216247559Y-111520698D01*
X216211394Y-111556800D01*
X215341200Y-111556800D01*
X215341200Y-102870000D01*
X215296730Y-102646436D01*
X215170092Y-102456908D01*
X214418210Y-101705026D01*
X215382642Y-101705026D01*
X215385291Y-101720791D01*
X215639268Y-102248036D01*
X216075680Y-102637954D01*
X216628087Y-102831184D01*
X216863000Y-102686924D01*
X216863000Y-101473000D01*
X215503783Y-101473000D01*
X215382642Y-101705026D01*
X214418210Y-101705026D01*
X214281092Y-101567908D01*
X214278127Y-101565927D01*
X214091564Y-101441270D01*
X213868000Y-101396800D01*
X212540839Y-101396800D01*
X212505073Y-101360972D01*
X212236203Y-101249327D01*
X211945075Y-101249073D01*
X211676010Y-101360248D01*
X211469972Y-101565927D01*
X211358327Y-101834797D01*
X211358073Y-102125925D01*
X211469248Y-102394990D01*
X211674927Y-102601028D01*
X211943797Y-102712673D01*
X212234925Y-102712927D01*
X212503990Y-102601752D01*
X212540606Y-102565200D01*
X213626016Y-102565200D01*
X214172800Y-103111984D01*
X214172800Y-111556800D01*
X213233000Y-111556800D01*
X213009436Y-111601270D01*
X212901201Y-111673590D01*
X212819908Y-111727908D01*
X209836699Y-114711117D01*
X209786075Y-114711073D01*
X209517010Y-114822248D01*
X209480394Y-114858800D01*
X207411552Y-114858800D01*
X207411727Y-114658304D01*
X207300552Y-114389239D01*
X207094873Y-114183201D01*
X206826003Y-114071556D01*
X206702361Y-114071448D01*
X206273400Y-113642487D01*
X206273400Y-110511493D01*
X206273401Y-110511488D01*
X206232797Y-110307365D01*
X206207037Y-110268813D01*
X206207183Y-110101819D01*
X206197199Y-110077655D01*
X206669961Y-110077655D01*
X206669817Y-110243181D01*
X206780992Y-110512246D01*
X206857600Y-110588988D01*
X206857600Y-112620399D01*
X206748227Y-112883797D01*
X206747973Y-113174925D01*
X206859148Y-113443990D01*
X207064827Y-113650028D01*
X207333697Y-113761673D01*
X207624825Y-113761927D01*
X207893890Y-113650752D01*
X208099928Y-113445073D01*
X208211573Y-113176203D01*
X208211827Y-112885075D01*
X208100652Y-112616010D01*
X207924400Y-112439450D01*
X207924400Y-110610531D01*
X208021772Y-110513329D01*
X208133417Y-110244459D01*
X208133563Y-110077655D01*
X209399313Y-110077655D01*
X210215180Y-110893522D01*
X210215073Y-111015925D01*
X210326248Y-111284990D01*
X210531927Y-111491028D01*
X210800797Y-111602673D01*
X211091925Y-111602927D01*
X211360990Y-111491752D01*
X211567028Y-111286073D01*
X211678673Y-111017203D01*
X211678927Y-110726075D01*
X211567752Y-110457010D01*
X211362073Y-110250972D01*
X211093203Y-110139327D01*
X210969561Y-110139219D01*
X209997426Y-109167084D01*
X209824378Y-109051458D01*
X209620255Y-109010855D01*
X205357823Y-109010855D01*
X205153700Y-109051458D01*
X204980652Y-109167084D01*
X204368400Y-109779336D01*
X204368400Y-109694942D01*
X205071942Y-108991400D01*
X211842450Y-108991400D01*
X211928927Y-109078028D01*
X212197797Y-109189673D01*
X212488925Y-109189927D01*
X212757990Y-109078752D01*
X212964028Y-108873073D01*
X213075673Y-108604203D01*
X213075927Y-108313075D01*
X212964752Y-108044010D01*
X212759073Y-107837972D01*
X212490203Y-107726327D01*
X212199075Y-107726073D01*
X211930010Y-107837248D01*
X211842506Y-107924600D01*
X204851000Y-107924600D01*
X204646877Y-107965203D01*
X204473829Y-108080829D01*
X203457829Y-109096829D01*
X203342203Y-109269877D01*
X203301600Y-109474000D01*
X203301600Y-110143616D01*
X203196171Y-109985829D01*
X202434171Y-109223829D01*
X202261123Y-109108203D01*
X202057000Y-109067600D01*
X196773800Y-109067600D01*
X196773800Y-106911462D01*
X197543410Y-106141852D01*
X197629925Y-106141927D01*
X197898990Y-106030752D01*
X198105028Y-105825073D01*
X198216673Y-105556203D01*
X198216927Y-105265075D01*
X198105752Y-104996010D01*
X197900073Y-104789972D01*
X197631203Y-104678327D01*
X197340075Y-104678073D01*
X197071010Y-104789248D01*
X196864972Y-104994927D01*
X196753327Y-105263797D01*
X196753250Y-105351488D01*
X195819869Y-106284869D01*
X195698736Y-106466156D01*
X195656200Y-106680000D01*
X195656200Y-117506806D01*
X195594972Y-117567927D01*
X195483327Y-117836797D01*
X195483073Y-118127925D01*
X195594248Y-118396990D01*
X195799927Y-118603028D01*
X195929731Y-118656928D01*
X195650668Y-118935990D01*
X194556832Y-118935990D01*
X194462400Y-118841558D01*
X194462400Y-114427005D01*
X194462401Y-114427000D01*
X194421797Y-114222877D01*
X194411237Y-114207073D01*
X194306171Y-114049829D01*
X194306168Y-114049827D01*
X193671171Y-113414829D01*
X193498123Y-113299203D01*
X193294000Y-113258600D01*
X191890550Y-113258600D01*
X191804073Y-113171972D01*
X191535203Y-113060327D01*
X191244075Y-113060073D01*
X190975010Y-113171248D01*
X190768972Y-113376927D01*
X190657327Y-113645797D01*
X190657073Y-113936925D01*
X190768248Y-114205990D01*
X190973927Y-114412028D01*
X191242797Y-114523673D01*
X191533925Y-114523927D01*
X191802990Y-114412752D01*
X191890494Y-114325400D01*
X193073058Y-114325400D01*
X193395600Y-114647941D01*
X193395600Y-119062500D01*
X193436203Y-119266623D01*
X193452892Y-119291600D01*
X191309259Y-119291600D01*
X191309259Y-119075000D01*
X191279150Y-118914985D01*
X191221025Y-118824656D01*
X191274573Y-118746285D01*
X191309259Y-118575000D01*
X191309259Y-118440200D01*
X191573161Y-118440200D01*
X191608927Y-118476028D01*
X191877797Y-118587673D01*
X192168925Y-118587927D01*
X192437990Y-118476752D01*
X192644028Y-118271073D01*
X192755673Y-118002203D01*
X192755927Y-117711075D01*
X192644752Y-117442010D01*
X192439073Y-117235972D01*
X192170203Y-117124327D01*
X191879075Y-117124073D01*
X191610010Y-117235248D01*
X191573394Y-117271800D01*
X191309259Y-117271800D01*
X191309259Y-117075000D01*
X191279150Y-116914985D01*
X191184581Y-116768020D01*
X191040285Y-116669427D01*
X190869000Y-116634741D01*
X189506800Y-116634741D01*
X189506800Y-111230538D01*
X189839680Y-111527954D01*
X190392087Y-111721184D01*
X190627000Y-111576924D01*
X190627000Y-110363000D01*
X190881000Y-110363000D01*
X190881000Y-111576924D01*
X191115913Y-111721184D01*
X191668320Y-111527954D01*
X192104732Y-111138036D01*
X192358709Y-110610791D01*
X192361358Y-110595026D01*
X192240217Y-110363000D01*
X190881000Y-110363000D01*
X190627000Y-110363000D01*
X190607000Y-110363000D01*
X190607000Y-110109000D01*
X190627000Y-110109000D01*
X190627000Y-110089000D01*
X190881000Y-110089000D01*
X190881000Y-110109000D01*
X192240217Y-110109000D01*
X192361358Y-109876974D01*
X192358709Y-109861209D01*
X192104732Y-109333964D01*
X191668320Y-108944046D01*
X191461867Y-108871830D01*
X191850750Y-108611986D01*
X192131558Y-108191728D01*
X192230164Y-107696000D01*
X192131558Y-107200272D01*
X191850750Y-106780014D01*
X191430492Y-106499206D01*
X191232680Y-106459859D01*
X191770000Y-106459859D01*
X191930015Y-106429750D01*
X192076980Y-106335181D01*
X192175573Y-106190885D01*
X192210259Y-106019600D01*
X192210259Y-104292400D01*
X192180150Y-104132385D01*
X192085581Y-103985420D01*
X191941285Y-103886827D01*
X191770000Y-103852141D01*
X189738000Y-103852141D01*
X189577985Y-103882250D01*
X189506800Y-103928056D01*
X189506800Y-102340538D01*
X189839680Y-102637954D01*
X190392087Y-102831184D01*
X190627000Y-102686924D01*
X190627000Y-101473000D01*
X190881000Y-101473000D01*
X190881000Y-102686924D01*
X191115913Y-102831184D01*
X191668320Y-102637954D01*
X192104732Y-102248036D01*
X192358709Y-101720791D01*
X192361358Y-101705026D01*
X192240217Y-101473000D01*
X190881000Y-101473000D01*
X190627000Y-101473000D01*
X190607000Y-101473000D01*
X190607000Y-101219000D01*
X190627000Y-101219000D01*
X190627000Y-101199000D01*
X190881000Y-101199000D01*
X190881000Y-101219000D01*
X192240217Y-101219000D01*
X192361358Y-100986974D01*
X192358709Y-100971209D01*
X192104732Y-100443964D01*
X191668320Y-100054046D01*
X191461867Y-99981830D01*
X191850750Y-99721986D01*
X191856804Y-99712925D01*
X206659073Y-99712925D01*
X206770248Y-99981990D01*
X206975927Y-100188028D01*
X207244797Y-100299673D01*
X207535925Y-100299927D01*
X207804990Y-100188752D01*
X207892494Y-100101400D01*
X211974335Y-100101400D01*
X211994927Y-100122028D01*
X212263797Y-100233673D01*
X212554925Y-100233927D01*
X212823990Y-100122752D01*
X213030028Y-99917073D01*
X213141673Y-99648203D01*
X213141927Y-99357075D01*
X213030752Y-99088010D01*
X212825073Y-98881972D01*
X212556203Y-98770327D01*
X212265075Y-98770073D01*
X211996010Y-98881248D01*
X211842390Y-99034600D01*
X207892550Y-99034600D01*
X207806073Y-98947972D01*
X207537203Y-98836327D01*
X207246075Y-98836073D01*
X206977010Y-98947248D01*
X206770972Y-99152927D01*
X206659327Y-99421797D01*
X206659073Y-99712925D01*
X191856804Y-99712925D01*
X192131558Y-99301728D01*
X192230164Y-98806000D01*
X192131558Y-98310272D01*
X191850750Y-97890014D01*
X191430492Y-97609206D01*
X191232680Y-97569859D01*
X191770000Y-97569859D01*
X191930015Y-97539750D01*
X192076980Y-97445181D01*
X192175573Y-97300885D01*
X192210259Y-97129600D01*
X192210259Y-95916750D01*
X199187700Y-95916750D01*
X199187700Y-96607309D01*
X199284373Y-96840698D01*
X199463001Y-97019327D01*
X199696390Y-97116000D01*
X200386950Y-97116000D01*
X200545700Y-96957250D01*
X200545700Y-95758000D01*
X199346450Y-95758000D01*
X199187700Y-95916750D01*
X192210259Y-95916750D01*
X192210259Y-95402400D01*
X192180150Y-95242385D01*
X192085581Y-95095420D01*
X191941285Y-94996827D01*
X191770000Y-94962141D01*
X189738000Y-94962141D01*
X189577985Y-94992250D01*
X189506800Y-95038056D01*
X189506800Y-94740800D01*
X199187700Y-94740800D01*
X199187700Y-95345250D01*
G36*
X202285600Y-110583942D02*
X202285600Y-112014000D01*
X202326203Y-112218123D01*
X202441829Y-112391171D01*
X202949827Y-112899168D01*
X202949829Y-112899171D01*
X203053563Y-112968484D01*
X203122876Y-113014797D01*
X203327000Y-113055400D01*
X204089000Y-113055400D01*
X204293123Y-113014797D01*
X204466171Y-112899171D01*
X204466172Y-112899170D01*
X204974168Y-112391173D01*
X204974171Y-112391171D01*
X205066629Y-112252797D01*
X205089797Y-112218124D01*
X205130400Y-112014000D01*
X205130400Y-110895929D01*
X205206600Y-110927570D01*
X205206600Y-113863429D01*
X205247203Y-114067552D01*
X205362829Y-114240600D01*
X205727029Y-114604800D01*
X203067090Y-114604800D01*
X203054081Y-114591791D01*
X203185028Y-114461073D01*
X203296673Y-114192203D01*
X203296927Y-113901075D01*
X203185752Y-113632010D01*
X202980073Y-113425972D01*
X202711203Y-113314327D01*
X202587561Y-113314219D01*
X200036361Y-110763019D01*
X199863313Y-110647393D01*
X199659190Y-110606790D01*
X199079340Y-110606790D01*
X198992863Y-110520162D01*
X198723993Y-110408517D01*
X198432865Y-110408263D01*
X198163800Y-110519438D01*
X197957762Y-110725117D01*
X197846117Y-110993987D01*
X197845863Y-111285115D01*
X197957038Y-111554180D01*
X198162717Y-111760218D01*
X198431587Y-111871863D01*
X198722715Y-111872117D01*
X198991780Y-111760942D01*
X199079284Y-111673590D01*
X199438248Y-111673590D01*
X200464458Y-112699800D01*
X199771000Y-112699800D01*
X199547436Y-112744270D01*
X199357908Y-112870908D01*
X197198908Y-115029908D01*
X197072270Y-115219436D01*
X197027800Y-115443000D01*
X197027800Y-115500161D01*
X196991972Y-115535927D01*
X196880327Y-115804797D01*
X196880073Y-116095925D01*
X196991248Y-116364990D01*
X197196927Y-116571028D01*
X197465797Y-116682673D01*
X197756925Y-116682927D01*
X198021081Y-116573780D01*
X196891333Y-117703528D01*
X196835752Y-117569010D01*
X196773800Y-117506950D01*
X196773800Y-110134400D01*
X201836058Y-110134400D01*
X202285600Y-110583942D01*
X202285600Y-110583942D01*
G37*
X202285600Y-110583942D02*
X202285600Y-112014000D01*
X202326203Y-112218123D01*
X202441829Y-112391171D01*
X202949827Y-112899168D01*
X202949829Y-112899171D01*
X203053563Y-112968484D01*
X203122876Y-113014797D01*
X203327000Y-113055400D01*
X204089000Y-113055400D01*
X204293123Y-113014797D01*
X204466171Y-112899171D01*
X204466172Y-112899170D01*
X204974168Y-112391173D01*
X204974171Y-112391171D01*
X205066629Y-112252797D01*
X205089797Y-112218124D01*
X205130400Y-112014000D01*
X205130400Y-110895929D01*
X205206600Y-110927570D01*
X205206600Y-113863429D01*
X205247203Y-114067552D01*
X205362829Y-114240600D01*
X205727029Y-114604800D01*
X203067090Y-114604800D01*
X203054081Y-114591791D01*
X203185028Y-114461073D01*
X203296673Y-114192203D01*
X203296927Y-113901075D01*
X203185752Y-113632010D01*
X202980073Y-113425972D01*
X202711203Y-113314327D01*
X202587561Y-113314219D01*
X200036361Y-110763019D01*
X199863313Y-110647393D01*
X199659190Y-110606790D01*
X199079340Y-110606790D01*
X198992863Y-110520162D01*
X198723993Y-110408517D01*
X198432865Y-110408263D01*
X198163800Y-110519438D01*
X197957762Y-110725117D01*
X197846117Y-110993987D01*
X197845863Y-111285115D01*
X197957038Y-111554180D01*
X198162717Y-111760218D01*
X198431587Y-111871863D01*
X198722715Y-111872117D01*
X198991780Y-111760942D01*
X199079284Y-111673590D01*
X199438248Y-111673590D01*
X200464458Y-112699800D01*
X199771000Y-112699800D01*
X199547436Y-112744270D01*
X199357908Y-112870908D01*
X197198908Y-115029908D01*
X197072270Y-115219436D01*
X197027800Y-115443000D01*
X197027800Y-115500161D01*
X196991972Y-115535927D01*
X196880327Y-115804797D01*
X196880073Y-116095925D01*
X196991248Y-116364990D01*
X197196927Y-116571028D01*
X197465797Y-116682673D01*
X197756925Y-116682927D01*
X198021081Y-116573780D01*
X196891333Y-117703528D01*
X196835752Y-117569010D01*
X196773800Y-117506950D01*
X196773800Y-110134400D01*
X201836058Y-110134400D01*
X202285600Y-110583942D01*
G36*
X201006864Y-114196942D02*
X200862421Y-114168210D01*
X200330584Y-114168210D01*
X200330579Y-114168209D01*
X200126456Y-114208813D01*
X199953408Y-114324439D01*
X199457329Y-114820518D01*
X199341703Y-114993566D01*
X199301100Y-115197689D01*
X199301100Y-115293762D01*
X198234328Y-116360533D01*
X198343673Y-116097203D01*
X198343927Y-115806075D01*
X198265330Y-115615854D01*
X200012984Y-113868200D01*
X200678122Y-113868200D01*
X201006864Y-114196942D01*
X201006864Y-114196942D01*
G37*
X201006864Y-114196942D02*
X200862421Y-114168210D01*
X200330584Y-114168210D01*
X200330579Y-114168209D01*
X200126456Y-114208813D01*
X199953408Y-114324439D01*
X199457329Y-114820518D01*
X199341703Y-114993566D01*
X199301100Y-115197689D01*
X199301100Y-115293762D01*
X198234328Y-116360533D01*
X198343673Y-116097203D01*
X198343927Y-115806075D01*
X198265330Y-115615854D01*
X200012984Y-113868200D01*
X200678122Y-113868200D01*
X201006864Y-114196942D01*
M02*
