G04 #@! TF.FileFunction,Soldermask,Bot*
%FSLAX46Y46*%
G04 Gerber Fmt 4.6, Leading zero omitted, Abs format (unit mm)*
G04 Created by KiCad (PCBNEW 4.0.2+dfsg1-stable) date Fri 12 May 2017 22:14:46 AEST*
%MOMM*%
G01*
G04 APERTURE LIST*
%ADD10C,0.100000*%
%ADD11R,1.200000X1.900000*%
%ADD12R,2.432000X2.127200*%
%ADD13O,2.432000X2.127200*%
%ADD14R,2.432000X2.432000*%
%ADD15O,2.432000X2.432000*%
%ADD16R,1.600000X1.300000*%
%ADD17R,1.600000X1.150000*%
%ADD18R,1.150000X1.600000*%
%ADD19R,1.400000X1.650000*%
%ADD20R,1.200000X1.150000*%
%ADD21R,1.300000X1.600000*%
%ADD22R,1.900000X1.200000*%
%ADD23R,1.100000X1.050000*%
%ADD24R,1.800000X2.200000*%
%ADD25R,2.350000X1.000000*%
%ADD26R,1.050000X1.960000*%
%ADD27R,0.650000X1.100000*%
%ADD28R,1.100000X0.650000*%
%ADD29R,2.125000X2.125000*%
%ADD30R,2.100000X2.100000*%
%ADD31O,2.100000X2.100000*%
%ADD32R,1.300000X0.700000*%
%ADD33R,1.797000X1.197560*%
%ADD34R,2.300000X2.300000*%
%ADD35R,2.200000X2.300000*%
%ADD36R,0.800000X1.750000*%
%ADD37R,2.500000X2.000000*%
G04 APERTURE END LIST*
D10*
D11*
X196149000Y-120553000D03*
X194249000Y-120553000D03*
X195199000Y-117953000D03*
D12*
X190754000Y-105156000D03*
D13*
X190754000Y-107696000D03*
X190754000Y-110236000D03*
D14*
X217424000Y-122936000D03*
D15*
X217424000Y-125476000D03*
D12*
X216990000Y-96266000D03*
D13*
X216990000Y-98806000D03*
X216990000Y-101346000D03*
D12*
X217170000Y-105156000D03*
D13*
X217170000Y-107696000D03*
X217170000Y-110236000D03*
D12*
X190754000Y-96266000D03*
D13*
X190754000Y-98806000D03*
X190754000Y-101346000D03*
D16*
X196680000Y-96266000D03*
X194480000Y-96266000D03*
X196215000Y-103886000D03*
X194015000Y-103886000D03*
X214460000Y-105156000D03*
X212260000Y-105156000D03*
X214460000Y-96266000D03*
X212260000Y-96266000D03*
D17*
X214310000Y-103251000D03*
X212410000Y-103251000D03*
D18*
X197485000Y-108646000D03*
X197485000Y-106746000D03*
X208788000Y-115636000D03*
X208788000Y-117536000D03*
X199390000Y-114051000D03*
X199390000Y-115951000D03*
D19*
X217940231Y-120015000D03*
X215940231Y-120015000D03*
D18*
X199390000Y-119756000D03*
X199390000Y-117856000D03*
D20*
X217666000Y-113411000D03*
X216166000Y-113411000D03*
D16*
X209720000Y-113665000D03*
X211920000Y-113665000D03*
X209720000Y-112014000D03*
X211920000Y-112014000D03*
X213063000Y-118237000D03*
X210863000Y-118237000D03*
X210863000Y-116840000D03*
X213063000Y-116840000D03*
D21*
X209804000Y-123741000D03*
X209804000Y-125941000D03*
X211328000Y-123741000D03*
X211328000Y-125941000D03*
D16*
X196390000Y-124770000D03*
X194190000Y-124770000D03*
D11*
X194630000Y-98141000D03*
X196530000Y-98141000D03*
X195580000Y-100741000D03*
X193680000Y-105791000D03*
X195580000Y-105791000D03*
X194630000Y-108391000D03*
X212410000Y-98141000D03*
X214310000Y-98141000D03*
X213360000Y-100741000D03*
X212410000Y-107061000D03*
X214310000Y-107061000D03*
X213360000Y-109661000D03*
D22*
X213390000Y-119827000D03*
X213390000Y-121727000D03*
X210790000Y-120777000D03*
D23*
X213172000Y-123112000D03*
X215072000Y-123112000D03*
X215072000Y-126062000D03*
X213172000Y-126062000D03*
D24*
X190119000Y-125730000D03*
X190119000Y-113730000D03*
D25*
X199770000Y-110236000D03*
X199770000Y-108966000D03*
X199770000Y-107696000D03*
X199770000Y-106426000D03*
X199770000Y-105156000D03*
X199770000Y-103886000D03*
X199770000Y-102616000D03*
X199770000Y-101346000D03*
X199770000Y-100076000D03*
X199770000Y-98806000D03*
X209170000Y-98806000D03*
X209170000Y-100076000D03*
X209170000Y-101346000D03*
X209170000Y-102616000D03*
X209170000Y-103886000D03*
X209170000Y-105156000D03*
X209170000Y-106426000D03*
X209170000Y-107696000D03*
X209170000Y-108966000D03*
X209170000Y-110236000D03*
D26*
X217866000Y-117886511D03*
X216916000Y-117886511D03*
X215966000Y-117886511D03*
X215966000Y-115286511D03*
X217866000Y-115186511D03*
D27*
X202312500Y-115228500D03*
X202812500Y-115228500D03*
X203312500Y-115228500D03*
X203812500Y-115228500D03*
X204312500Y-115228500D03*
X204812500Y-115228500D03*
X205312500Y-115228500D03*
X205812500Y-115228500D03*
D28*
X206462500Y-115878500D03*
X206462500Y-116378500D03*
X206462500Y-116878500D03*
X206462500Y-117378500D03*
X206462500Y-117878500D03*
X206462500Y-118378500D03*
X206462500Y-118878500D03*
X206462500Y-119378500D03*
D27*
X205812500Y-120028500D03*
X205312500Y-120028500D03*
X204812500Y-120028500D03*
X204312500Y-120028500D03*
X203812500Y-120028500D03*
X203312500Y-120028500D03*
X202812500Y-120028500D03*
X202312500Y-120028500D03*
D28*
X201662500Y-119378500D03*
X201662500Y-118878500D03*
X201662500Y-118378500D03*
X201662500Y-117878500D03*
X201662500Y-117378500D03*
X201662500Y-116878500D03*
X201662500Y-116378500D03*
X201662500Y-115878500D03*
D29*
X204925000Y-118491000D03*
X203200000Y-118491000D03*
X204925000Y-116766000D03*
X203200000Y-116766000D03*
D30*
X200672700Y-95631000D03*
D31*
X203212700Y-95631000D03*
X205752700Y-95631000D03*
X208292700Y-95631000D03*
D32*
X202576000Y-112395000D03*
X200776000Y-112395000D03*
X200776000Y-111745000D03*
X202576000Y-111745000D03*
X200776000Y-113045000D03*
X202576000Y-113045000D03*
X206640000Y-112395000D03*
X204840000Y-112395000D03*
X204840000Y-111745000D03*
X206640000Y-111745000D03*
X204840000Y-113045000D03*
X206640000Y-113045000D03*
D33*
X194190980Y-126190000D03*
X196289020Y-126190000D03*
D34*
X205200100Y-125564900D03*
X202800100Y-125564900D03*
D35*
X207800100Y-125564900D03*
X200200100Y-125564900D03*
D36*
X202700100Y-122889900D03*
X205300100Y-122889900D03*
X203350100Y-122889900D03*
X204650100Y-122889900D03*
X204000100Y-122889900D03*
D37*
X200900100Y-123014900D03*
X207100100Y-123014900D03*
M02*
