G04 #@! TF.FileFunction,Legend,Bot*
%FSLAX46Y46*%
G04 Gerber Fmt 4.6, Leading zero omitted, Abs format (unit mm)*
G04 Created by KiCad (PCBNEW 4.0.2+dfsg1-stable) date Fri 12 May 2017 22:14:46 AEST*
%MOMM*%
G01*
G04 APERTURE LIST*
%ADD10C,0.100000*%
%ADD11C,0.304800*%
%ADD12C,0.300000*%
%ADD13C,0.152400*%
%ADD14C,0.200000*%
%ADD15C,0.150000*%
%ADD16C,0.120000*%
G04 APERTURE END LIST*
D10*
X196884943Y-114063429D02*
X196884943Y-113463429D01*
X196684943Y-113892000D01*
X196484943Y-113463429D01*
X196484943Y-114063429D01*
X195856372Y-114006286D02*
X195884943Y-114034857D01*
X195970657Y-114063429D01*
X196027800Y-114063429D01*
X196113515Y-114034857D01*
X196170657Y-113977714D01*
X196199229Y-113920571D01*
X196227800Y-113806286D01*
X196227800Y-113720571D01*
X196199229Y-113606286D01*
X196170657Y-113549143D01*
X196113515Y-113492000D01*
X196027800Y-113463429D01*
X195970657Y-113463429D01*
X195884943Y-113492000D01*
X195856372Y-113520571D01*
X195513515Y-114063429D02*
X195570657Y-114034857D01*
X195599229Y-114006286D01*
X195627800Y-113949143D01*
X195627800Y-113777714D01*
X195599229Y-113720571D01*
X195570657Y-113692000D01*
X195513515Y-113663429D01*
X195427800Y-113663429D01*
X195370657Y-113692000D01*
X195342086Y-113720571D01*
X195313515Y-113777714D01*
X195313515Y-113949143D01*
X195342086Y-114006286D01*
X195370657Y-114034857D01*
X195427800Y-114063429D01*
X195513515Y-114063429D01*
X194799229Y-114034857D02*
X194856372Y-114063429D01*
X194970658Y-114063429D01*
X195027800Y-114034857D01*
X195056372Y-114006286D01*
X195084943Y-113949143D01*
X195084943Y-113777714D01*
X195056372Y-113720571D01*
X195027800Y-113692000D01*
X194970658Y-113663429D01*
X194856372Y-113663429D01*
X194799229Y-113692000D01*
X194542086Y-114063429D02*
X194542086Y-113463429D01*
X194284943Y-114063429D02*
X194284943Y-113749143D01*
X194313514Y-113692000D01*
X194370657Y-113663429D01*
X194456372Y-113663429D01*
X194513514Y-113692000D01*
X194542086Y-113720571D01*
X193999229Y-114063429D02*
X193999229Y-113663429D01*
X193999229Y-113777714D02*
X193970657Y-113720571D01*
X193942086Y-113692000D01*
X193884943Y-113663429D01*
X193827800Y-113663429D01*
X193370657Y-114063429D02*
X193370657Y-113749143D01*
X193399228Y-113692000D01*
X193456371Y-113663429D01*
X193570657Y-113663429D01*
X193627800Y-113692000D01*
X193370657Y-114034857D02*
X193427800Y-114063429D01*
X193570657Y-114063429D01*
X193627800Y-114034857D01*
X193656371Y-113977714D01*
X193656371Y-113920571D01*
X193627800Y-113863429D01*
X193570657Y-113834857D01*
X193427800Y-113834857D01*
X193370657Y-113806286D01*
X193084943Y-113663429D02*
X193084943Y-114063429D01*
X193084943Y-113720571D02*
X193056371Y-113692000D01*
X192999229Y-113663429D01*
X192913514Y-113663429D01*
X192856371Y-113692000D01*
X192827800Y-113749143D01*
X192827800Y-114063429D01*
X192313514Y-114034857D02*
X192370657Y-114063429D01*
X192484943Y-114063429D01*
X192542086Y-114034857D01*
X192570657Y-113977714D01*
X192570657Y-113749143D01*
X192542086Y-113692000D01*
X192484943Y-113663429D01*
X192370657Y-113663429D01*
X192313514Y-113692000D01*
X192284943Y-113749143D01*
X192284943Y-113806286D01*
X192570657Y-113863429D01*
X195818143Y-122318429D02*
X195818143Y-121718429D01*
X195818143Y-122004143D02*
X195475286Y-122004143D01*
X195475286Y-122318429D02*
X195475286Y-121718429D01*
X194989572Y-122004143D02*
X194903858Y-122032714D01*
X194875286Y-122061286D01*
X194846715Y-122118429D01*
X194846715Y-122204143D01*
X194875286Y-122261286D01*
X194903858Y-122289857D01*
X194961000Y-122318429D01*
X195189572Y-122318429D01*
X195189572Y-121718429D01*
X194989572Y-121718429D01*
X194932429Y-121747000D01*
X194903858Y-121775571D01*
X194875286Y-121832714D01*
X194875286Y-121889857D01*
X194903858Y-121947000D01*
X194932429Y-121975571D01*
X194989572Y-122004143D01*
X195189572Y-122004143D01*
X194503858Y-122318429D02*
X194561000Y-122289857D01*
X194589572Y-122261286D01*
X194618143Y-122204143D01*
X194618143Y-122032714D01*
X194589572Y-121975571D01*
X194561000Y-121947000D01*
X194503858Y-121918429D01*
X194418143Y-121918429D01*
X194361000Y-121947000D01*
X194332429Y-121975571D01*
X194303858Y-122032714D01*
X194303858Y-122204143D01*
X194332429Y-122261286D01*
X194361000Y-122289857D01*
X194418143Y-122318429D01*
X194503858Y-122318429D01*
X194103858Y-121918429D02*
X193989572Y-122318429D01*
X193875286Y-122032714D01*
X193761001Y-122318429D01*
X193646715Y-121918429D01*
X193418144Y-122318429D02*
X193418144Y-121918429D01*
X193418144Y-121975571D02*
X193389572Y-121947000D01*
X193332430Y-121918429D01*
X193246715Y-121918429D01*
X193189572Y-121947000D01*
X193161001Y-122004143D01*
X193161001Y-122318429D01*
X193161001Y-122004143D02*
X193132430Y-121947000D01*
X193075287Y-121918429D01*
X192989572Y-121918429D01*
X192932430Y-121947000D01*
X192903858Y-122004143D01*
X192903858Y-122318429D01*
X192361001Y-122318429D02*
X192361001Y-122004143D01*
X192389572Y-121947000D01*
X192446715Y-121918429D01*
X192561001Y-121918429D01*
X192618144Y-121947000D01*
X192361001Y-122289857D02*
X192418144Y-122318429D01*
X192561001Y-122318429D01*
X192618144Y-122289857D01*
X192646715Y-122232714D01*
X192646715Y-122175571D01*
X192618144Y-122118429D01*
X192561001Y-122089857D01*
X192418144Y-122089857D01*
X192361001Y-122061286D01*
X192075287Y-121918429D02*
X192075287Y-122318429D01*
X192075287Y-121975571D02*
X192046715Y-121947000D01*
X191989573Y-121918429D01*
X191903858Y-121918429D01*
X191846715Y-121947000D01*
X191818144Y-122004143D01*
X191818144Y-122318429D01*
D11*
X198299902Y-110185200D02*
G75*
G03X198299902Y-110185200I-154502J0D01*
G01*
D12*
X206061484Y-121412000D02*
G75*
G03X206061484Y-121412000I-143684J0D01*
G01*
D13*
X202387200Y-114503200D02*
G75*
G03X202387200Y-114503200I-76200J0D01*
G01*
D14*
X196659286Y-111053619D02*
X196611667Y-111006000D01*
X196516429Y-110958381D01*
X196278333Y-110958381D01*
X196183095Y-111006000D01*
X196135476Y-111053619D01*
X196087857Y-111148857D01*
X196087857Y-111244095D01*
X196135476Y-111386952D01*
X196706905Y-111958381D01*
X196087857Y-111958381D01*
X195468810Y-110958381D02*
X195373571Y-110958381D01*
X195278333Y-111006000D01*
X195230714Y-111053619D01*
X195183095Y-111148857D01*
X195135476Y-111339333D01*
X195135476Y-111577429D01*
X195183095Y-111767905D01*
X195230714Y-111863143D01*
X195278333Y-111910762D01*
X195373571Y-111958381D01*
X195468810Y-111958381D01*
X195564048Y-111910762D01*
X195611667Y-111863143D01*
X195659286Y-111767905D01*
X195706905Y-111577429D01*
X195706905Y-111339333D01*
X195659286Y-111148857D01*
X195611667Y-111053619D01*
X195564048Y-111006000D01*
X195468810Y-110958381D01*
X194183095Y-111958381D02*
X194754524Y-111958381D01*
X194468810Y-111958381D02*
X194468810Y-110958381D01*
X194564048Y-111101238D01*
X194659286Y-111196476D01*
X194754524Y-111244095D01*
X193849762Y-110958381D02*
X193183095Y-110958381D01*
X193611667Y-111958381D01*
D15*
X199458105Y-122108981D02*
X199458105Y-122918505D01*
X199410486Y-123013743D01*
X199362867Y-123061362D01*
X199267629Y-123108981D01*
X199077152Y-123108981D01*
X198981914Y-123061362D01*
X198934295Y-123013743D01*
X198886676Y-122918505D01*
X198886676Y-122108981D01*
X198458105Y-123061362D02*
X198315248Y-123108981D01*
X198077152Y-123108981D01*
X197981914Y-123061362D01*
X197934295Y-123013743D01*
X197886676Y-122918505D01*
X197886676Y-122823267D01*
X197934295Y-122728029D01*
X197981914Y-122680410D01*
X198077152Y-122632790D01*
X198267629Y-122585171D01*
X198362867Y-122537552D01*
X198410486Y-122489933D01*
X198458105Y-122394695D01*
X198458105Y-122299457D01*
X198410486Y-122204219D01*
X198362867Y-122156600D01*
X198267629Y-122108981D01*
X198029533Y-122108981D01*
X197886676Y-122156600D01*
X197124771Y-122585171D02*
X196981914Y-122632790D01*
X196934295Y-122680410D01*
X196886676Y-122775648D01*
X196886676Y-122918505D01*
X196934295Y-123013743D01*
X196981914Y-123061362D01*
X197077152Y-123108981D01*
X197458105Y-123108981D01*
X197458105Y-122108981D01*
X197124771Y-122108981D01*
X197029533Y-122156600D01*
X196981914Y-122204219D01*
X196934295Y-122299457D01*
X196934295Y-122394695D01*
X196981914Y-122489933D01*
X197029533Y-122537552D01*
X197124771Y-122585171D01*
X197458105Y-122585171D01*
D16*
X193619000Y-118493000D02*
X194549000Y-118493000D01*
X196779000Y-118493000D02*
X195849000Y-118493000D01*
X196779000Y-118493000D02*
X196779000Y-120653000D01*
X193619000Y-118493000D02*
X193619000Y-119953000D01*
D15*
X195080000Y-96941000D02*
X196080000Y-96941000D01*
X196080000Y-95591000D02*
X195080000Y-95591000D01*
X194615000Y-104561000D02*
X195615000Y-104561000D01*
X195615000Y-103211000D02*
X194615000Y-103211000D01*
X212860000Y-105831000D02*
X213860000Y-105831000D01*
X213860000Y-104481000D02*
X212860000Y-104481000D01*
X212860000Y-96941000D02*
X213860000Y-96941000D01*
X213860000Y-95591000D02*
X212860000Y-95591000D01*
D16*
X213710000Y-102651000D02*
X213010000Y-102651000D01*
X213010000Y-103851000D02*
X213710000Y-103851000D01*
X198085000Y-108046000D02*
X198085000Y-107346000D01*
X196885000Y-107346000D02*
X196885000Y-108046000D01*
X208188000Y-116236000D02*
X208188000Y-116936000D01*
X209388000Y-116936000D02*
X209388000Y-116236000D01*
X198790000Y-114651000D02*
X198790000Y-115351000D01*
X199990000Y-115351000D02*
X199990000Y-114651000D01*
X216440231Y-119165000D02*
X217440231Y-119165000D01*
X217440231Y-120865000D02*
X216440231Y-120865000D01*
X199990000Y-119156000D02*
X199990000Y-118456000D01*
X198790000Y-118456000D02*
X198790000Y-119156000D01*
X217266000Y-112811000D02*
X216566000Y-112811000D01*
X216566000Y-114011000D02*
X217266000Y-114011000D01*
X211320000Y-112985000D02*
X210320000Y-112985000D01*
X210320000Y-114345000D02*
X211320000Y-114345000D01*
X211320000Y-111334000D02*
X210320000Y-111334000D01*
X210320000Y-112694000D02*
X211320000Y-112694000D01*
X211463000Y-118917000D02*
X212463000Y-118917000D01*
X212463000Y-117557000D02*
X211463000Y-117557000D01*
X212463000Y-116160000D02*
X211463000Y-116160000D01*
X211463000Y-117520000D02*
X212463000Y-117520000D01*
X210484000Y-125341000D02*
X210484000Y-124341000D01*
X209124000Y-124341000D02*
X209124000Y-125341000D01*
X212008000Y-125341000D02*
X212008000Y-124341000D01*
X210648000Y-124341000D02*
X210648000Y-125341000D01*
X194790000Y-125450000D02*
X195790000Y-125450000D01*
X195790000Y-124090000D02*
X194790000Y-124090000D01*
X197160000Y-100201000D02*
X196230000Y-100201000D01*
X194000000Y-100201000D02*
X194930000Y-100201000D01*
X194000000Y-100201000D02*
X194000000Y-98041000D01*
X197160000Y-100201000D02*
X197160000Y-98741000D01*
X196210000Y-107851000D02*
X195280000Y-107851000D01*
X193050000Y-107851000D02*
X193980000Y-107851000D01*
X193050000Y-107851000D02*
X193050000Y-105691000D01*
X196210000Y-107851000D02*
X196210000Y-106391000D01*
X214940000Y-100201000D02*
X214010000Y-100201000D01*
X211780000Y-100201000D02*
X212710000Y-100201000D01*
X211780000Y-100201000D02*
X211780000Y-98041000D01*
X214940000Y-100201000D02*
X214940000Y-98741000D01*
X214940000Y-109121000D02*
X214010000Y-109121000D01*
X211780000Y-109121000D02*
X212710000Y-109121000D01*
X211780000Y-109121000D02*
X211780000Y-106961000D01*
X214940000Y-109121000D02*
X214940000Y-107661000D01*
X211330000Y-122357000D02*
X211330000Y-121427000D01*
X211330000Y-119197000D02*
X211330000Y-120127000D01*
X211330000Y-119197000D02*
X213490000Y-119197000D01*
X211330000Y-122357000D02*
X212790000Y-122357000D01*
D14*
X213722000Y-124587000D02*
X213122000Y-124587000D01*
X214522000Y-124587000D02*
X214022000Y-125087000D01*
X215122000Y-124587000D02*
X214522000Y-124587000D01*
X213122000Y-123787000D02*
X213122000Y-125387000D01*
X215122000Y-123787000D02*
X215122000Y-125387000D01*
D15*
X190119000Y-124130000D02*
X190119000Y-124630000D01*
X190119000Y-115330000D02*
X190119000Y-114830000D01*
X190119000Y-124130000D02*
X190119000Y-123530000D01*
X190119000Y-123530000D02*
X189519000Y-119730000D01*
X190119000Y-115430000D02*
X190119000Y-119730000D01*
X191019000Y-116230000D02*
X191019000Y-123230000D01*
X189219000Y-123230000D02*
X189219000Y-116230000D01*
X191019000Y-123230000D02*
G75*
G02X189219000Y-123230000I-900000J0D01*
G01*
X189219000Y-116230000D02*
G75*
G02X191019000Y-116230000I900000J0D01*
G01*
X200595000Y-111096000D02*
X200595000Y-110761000D01*
X208345000Y-111096000D02*
X208345000Y-110761000D01*
X208345000Y-97946000D02*
X208345000Y-98281000D01*
X200595000Y-97946000D02*
X200595000Y-98281000D01*
X200595000Y-111096000D02*
X208345000Y-111096000D01*
X200595000Y-97946000D02*
X208345000Y-97946000D01*
X200595000Y-110761000D02*
X198795000Y-110761000D01*
X218716000Y-116836511D02*
G75*
G03X218716000Y-116836511I-100000J0D01*
G01*
X218366000Y-116286511D02*
X218366000Y-116786511D01*
X215466000Y-116286511D02*
X218366000Y-116286511D01*
X215466000Y-116786511D02*
X215466000Y-116286511D01*
X218366000Y-116786511D02*
X215466000Y-116786511D01*
X201437500Y-120253500D02*
X201962500Y-120253500D01*
X206687500Y-115003500D02*
X206162500Y-115003500D01*
X206687500Y-120253500D02*
X206162500Y-120253500D01*
X201437500Y-115003500D02*
X201437500Y-115528500D01*
X206687500Y-115003500D02*
X206687500Y-115528500D01*
X206687500Y-120253500D02*
X206687500Y-119728500D01*
X201437500Y-120253500D02*
X201437500Y-119728500D01*
X200935042Y-113563400D02*
G75*
G03X200935042Y-113563400I-71842J0D01*
G01*
X204999042Y-113563400D02*
G75*
G03X204999042Y-113563400I-71842J0D01*
G01*
X196340000Y-126740000D02*
X194440000Y-126740000D01*
X196340000Y-125640000D02*
X194440000Y-125640000D01*
X195440000Y-126190000D02*
X194990000Y-126190000D01*
X195490000Y-125940000D02*
X195490000Y-126440000D01*
X195490000Y-126190000D02*
X195240000Y-125940000D01*
X195240000Y-125940000D02*
X195240000Y-126440000D01*
X195240000Y-126440000D02*
X195490000Y-126190000D01*
D14*
X205873231Y-121627900D02*
G75*
G03X205873231Y-121627900I-95131J0D01*
G01*
D15*
X208700100Y-127014900D02*
X199300100Y-127014900D01*
X193401895Y-119176810D02*
X193363800Y-119100619D01*
X193287610Y-119024429D01*
X193173324Y-118910143D01*
X193135229Y-118833952D01*
X193135229Y-118757762D01*
X193325705Y-118795857D02*
X193287610Y-118719667D01*
X193211419Y-118643476D01*
X193059038Y-118605381D01*
X192792371Y-118605381D01*
X192639990Y-118643476D01*
X192563800Y-118719667D01*
X192525705Y-118795857D01*
X192525705Y-118948238D01*
X192563800Y-119024429D01*
X192639990Y-119100619D01*
X192792371Y-119138714D01*
X193059038Y-119138714D01*
X193211419Y-119100619D01*
X193287610Y-119024429D01*
X193325705Y-118948238D01*
X193325705Y-118795857D01*
X193325705Y-119900619D02*
X193325705Y-119443476D01*
X193325705Y-119672047D02*
X192525705Y-119672047D01*
X192639990Y-119595857D01*
X192716181Y-119519666D01*
X192754276Y-119443476D01*
X193503505Y-96132667D02*
X193122552Y-95866000D01*
X193503505Y-95675524D02*
X192703505Y-95675524D01*
X192703505Y-95980286D01*
X192741600Y-96056477D01*
X192779695Y-96094572D01*
X192855886Y-96132667D01*
X192970171Y-96132667D01*
X193046362Y-96094572D01*
X193084457Y-96056477D01*
X193122552Y-95980286D01*
X193122552Y-95675524D01*
X192970171Y-96818381D02*
X193503505Y-96818381D01*
X192665410Y-96627905D02*
X193236838Y-96437429D01*
X193236838Y-96932667D01*
X193046305Y-103752667D02*
X192665352Y-103486000D01*
X193046305Y-103295524D02*
X192246305Y-103295524D01*
X192246305Y-103600286D01*
X192284400Y-103676477D01*
X192322495Y-103714572D01*
X192398686Y-103752667D01*
X192512971Y-103752667D01*
X192589162Y-103714572D01*
X192627257Y-103676477D01*
X192665352Y-103600286D01*
X192665352Y-103295524D01*
X192246305Y-104438381D02*
X192246305Y-104286000D01*
X192284400Y-104209810D01*
X192322495Y-104171715D01*
X192436781Y-104095524D01*
X192589162Y-104057429D01*
X192893924Y-104057429D01*
X192970114Y-104095524D01*
X193008210Y-104133619D01*
X193046305Y-104209810D01*
X193046305Y-104362191D01*
X193008210Y-104438381D01*
X192970114Y-104476477D01*
X192893924Y-104514572D01*
X192703448Y-104514572D01*
X192627257Y-104476477D01*
X192589162Y-104438381D01*
X192551067Y-104362191D01*
X192551067Y-104209810D01*
X192589162Y-104133619D01*
X192627257Y-104095524D01*
X192703448Y-104057429D01*
X211314467Y-105039334D02*
X210981133Y-104806000D01*
X211314467Y-104639334D02*
X210614467Y-104639334D01*
X210614467Y-104906000D01*
X210647800Y-104972667D01*
X210681133Y-105006000D01*
X210747800Y-105039334D01*
X210847800Y-105039334D01*
X210914467Y-105006000D01*
X210947800Y-104972667D01*
X210981133Y-104906000D01*
X210981133Y-104639334D01*
X210614467Y-105272667D02*
X210614467Y-105739334D01*
X211314467Y-105439334D01*
X211232705Y-96132667D02*
X210851752Y-95866000D01*
X211232705Y-95675524D02*
X210432705Y-95675524D01*
X210432705Y-95980286D01*
X210470800Y-96056477D01*
X210508895Y-96094572D01*
X210585086Y-96132667D01*
X210699371Y-96132667D01*
X210775562Y-96094572D01*
X210813657Y-96056477D01*
X210851752Y-95980286D01*
X210851752Y-95675524D01*
X210432705Y-96856477D02*
X210432705Y-96475524D01*
X210813657Y-96437429D01*
X210775562Y-96475524D01*
X210737467Y-96551715D01*
X210737467Y-96742191D01*
X210775562Y-96818381D01*
X210813657Y-96856477D01*
X210889848Y-96894572D01*
X211080324Y-96894572D01*
X211156514Y-96856477D01*
X211194610Y-96818381D01*
X211232705Y-96742191D01*
X211232705Y-96551715D01*
X211194610Y-96475524D01*
X211156514Y-96437429D01*
X216058733Y-103536714D02*
X216096828Y-103574810D01*
X216211114Y-103612905D01*
X216287304Y-103612905D01*
X216401590Y-103574810D01*
X216477781Y-103498619D01*
X216515876Y-103422429D01*
X216553971Y-103270048D01*
X216553971Y-103155762D01*
X216515876Y-103003381D01*
X216477781Y-102927190D01*
X216401590Y-102851000D01*
X216287304Y-102812905D01*
X216211114Y-102812905D01*
X216096828Y-102851000D01*
X216058733Y-102889095D01*
X215296828Y-103612905D02*
X215753971Y-103612905D01*
X215525400Y-103612905D02*
X215525400Y-102812905D01*
X215601590Y-102927190D01*
X215677781Y-103003381D01*
X215753971Y-103041476D01*
X197770714Y-104997267D02*
X197808810Y-104959172D01*
X197846905Y-104844886D01*
X197846905Y-104768696D01*
X197808810Y-104654410D01*
X197732619Y-104578219D01*
X197656429Y-104540124D01*
X197504048Y-104502029D01*
X197389762Y-104502029D01*
X197237381Y-104540124D01*
X197161190Y-104578219D01*
X197085000Y-104654410D01*
X197046905Y-104768696D01*
X197046905Y-104844886D01*
X197085000Y-104959172D01*
X197123095Y-104997267D01*
X197123095Y-105302029D02*
X197085000Y-105340124D01*
X197046905Y-105416315D01*
X197046905Y-105606791D01*
X197085000Y-105682981D01*
X197123095Y-105721077D01*
X197199286Y-105759172D01*
X197275476Y-105759172D01*
X197389762Y-105721077D01*
X197846905Y-105263934D01*
X197846905Y-105759172D01*
X207920400Y-116469334D02*
X207953733Y-116436000D01*
X207987067Y-116336000D01*
X207987067Y-116269334D01*
X207953733Y-116169334D01*
X207887067Y-116102667D01*
X207820400Y-116069334D01*
X207687067Y-116036000D01*
X207587067Y-116036000D01*
X207453733Y-116069334D01*
X207387067Y-116102667D01*
X207320400Y-116169334D01*
X207287067Y-116269334D01*
X207287067Y-116336000D01*
X207320400Y-116436000D01*
X207353733Y-116469334D01*
X207287067Y-116702667D02*
X207287067Y-117136000D01*
X207553733Y-116902667D01*
X207553733Y-117002667D01*
X207587067Y-117069334D01*
X207620400Y-117102667D01*
X207687067Y-117136000D01*
X207853733Y-117136000D01*
X207920400Y-117102667D01*
X207953733Y-117069334D01*
X207987067Y-117002667D01*
X207987067Y-116802667D01*
X207953733Y-116736000D01*
X207920400Y-116702667D01*
X198481914Y-114877867D02*
X198520010Y-114839772D01*
X198558105Y-114725486D01*
X198558105Y-114649296D01*
X198520010Y-114535010D01*
X198443819Y-114458819D01*
X198367629Y-114420724D01*
X198215248Y-114382629D01*
X198100962Y-114382629D01*
X197948581Y-114420724D01*
X197872390Y-114458819D01*
X197796200Y-114535010D01*
X197758105Y-114649296D01*
X197758105Y-114725486D01*
X197796200Y-114839772D01*
X197834295Y-114877867D01*
X198024771Y-115563581D02*
X198558105Y-115563581D01*
X197720010Y-115373105D02*
X198291438Y-115182629D01*
X198291438Y-115677867D01*
X215159400Y-119898334D02*
X215192733Y-119865000D01*
X215226067Y-119765000D01*
X215226067Y-119698334D01*
X215192733Y-119598334D01*
X215126067Y-119531667D01*
X215059400Y-119498334D01*
X214926067Y-119465000D01*
X214826067Y-119465000D01*
X214692733Y-119498334D01*
X214626067Y-119531667D01*
X214559400Y-119598334D01*
X214526067Y-119698334D01*
X214526067Y-119765000D01*
X214559400Y-119865000D01*
X214592733Y-119898334D01*
X214526067Y-120531667D02*
X214526067Y-120198334D01*
X214859400Y-120165000D01*
X214826067Y-120198334D01*
X214792733Y-120265000D01*
X214792733Y-120431667D01*
X214826067Y-120498334D01*
X214859400Y-120531667D01*
X214926067Y-120565000D01*
X215092733Y-120565000D01*
X215159400Y-120531667D01*
X215192733Y-120498334D01*
X215226067Y-120431667D01*
X215226067Y-120265000D01*
X215192733Y-120198334D01*
X215159400Y-120165000D01*
X198481914Y-118687867D02*
X198520010Y-118649772D01*
X198558105Y-118535486D01*
X198558105Y-118459296D01*
X198520010Y-118345010D01*
X198443819Y-118268819D01*
X198367629Y-118230724D01*
X198215248Y-118192629D01*
X198100962Y-118192629D01*
X197948581Y-118230724D01*
X197872390Y-118268819D01*
X197796200Y-118345010D01*
X197758105Y-118459296D01*
X197758105Y-118535486D01*
X197796200Y-118649772D01*
X197834295Y-118687867D01*
X197758105Y-119373581D02*
X197758105Y-119221200D01*
X197796200Y-119145010D01*
X197834295Y-119106915D01*
X197948581Y-119030724D01*
X198100962Y-118992629D01*
X198405724Y-118992629D01*
X198481914Y-119030724D01*
X198520010Y-119068819D01*
X198558105Y-119145010D01*
X198558105Y-119297391D01*
X198520010Y-119373581D01*
X198481914Y-119411677D01*
X198405724Y-119449772D01*
X198215248Y-119449772D01*
X198139057Y-119411677D01*
X198100962Y-119373581D01*
X198062867Y-119297391D01*
X198062867Y-119145010D01*
X198100962Y-119068819D01*
X198139057Y-119030724D01*
X198215248Y-118992629D01*
X217049333Y-112477514D02*
X217087428Y-112515610D01*
X217201714Y-112553705D01*
X217277904Y-112553705D01*
X217392190Y-112515610D01*
X217468381Y-112439419D01*
X217506476Y-112363229D01*
X217544571Y-112210848D01*
X217544571Y-112096562D01*
X217506476Y-111944181D01*
X217468381Y-111867990D01*
X217392190Y-111791800D01*
X217277904Y-111753705D01*
X217201714Y-111753705D01*
X217087428Y-111791800D01*
X217049333Y-111829895D01*
X216592190Y-112096562D02*
X216668381Y-112058467D01*
X216706476Y-112020371D01*
X216744571Y-111944181D01*
X216744571Y-111906086D01*
X216706476Y-111829895D01*
X216668381Y-111791800D01*
X216592190Y-111753705D01*
X216439809Y-111753705D01*
X216363619Y-111791800D01*
X216325523Y-111829895D01*
X216287428Y-111906086D01*
X216287428Y-111944181D01*
X216325523Y-112020371D01*
X216363619Y-112058467D01*
X216439809Y-112096562D01*
X216592190Y-112096562D01*
X216668381Y-112134657D01*
X216706476Y-112172752D01*
X216744571Y-112248943D01*
X216744571Y-112401324D01*
X216706476Y-112477514D01*
X216668381Y-112515610D01*
X216592190Y-112553705D01*
X216439809Y-112553705D01*
X216363619Y-112515610D01*
X216325523Y-112477514D01*
X216287428Y-112401324D01*
X216287428Y-112248943D01*
X216325523Y-112172752D01*
X216363619Y-112134657D01*
X216439809Y-112096562D01*
X213620333Y-114039605D02*
X213887000Y-113658652D01*
X214077476Y-114039605D02*
X214077476Y-113239605D01*
X213772714Y-113239605D01*
X213696523Y-113277700D01*
X213658428Y-113315795D01*
X213620333Y-113391986D01*
X213620333Y-113506271D01*
X213658428Y-113582462D01*
X213696523Y-113620557D01*
X213772714Y-113658652D01*
X214077476Y-113658652D01*
X212858428Y-114039605D02*
X213315571Y-114039605D01*
X213087000Y-114039605D02*
X213087000Y-113239605D01*
X213163190Y-113353890D01*
X213239381Y-113430081D01*
X213315571Y-113468176D01*
X213747333Y-112375905D02*
X214014000Y-111994952D01*
X214204476Y-112375905D02*
X214204476Y-111575905D01*
X213899714Y-111575905D01*
X213823523Y-111614000D01*
X213785428Y-111652095D01*
X213747333Y-111728286D01*
X213747333Y-111842571D01*
X213785428Y-111918762D01*
X213823523Y-111956857D01*
X213899714Y-111994952D01*
X214204476Y-111994952D01*
X213442571Y-111652095D02*
X213404476Y-111614000D01*
X213328285Y-111575905D01*
X213137809Y-111575905D01*
X213061619Y-111614000D01*
X213023523Y-111652095D01*
X212985428Y-111728286D01*
X212985428Y-111804476D01*
X213023523Y-111918762D01*
X213480666Y-112375905D01*
X212985428Y-112375905D01*
X214695866Y-118553667D02*
X214929200Y-118220333D01*
X215095866Y-118553667D02*
X215095866Y-117853667D01*
X214829200Y-117853667D01*
X214762533Y-117887000D01*
X214729200Y-117920333D01*
X214695866Y-117987000D01*
X214695866Y-118087000D01*
X214729200Y-118153667D01*
X214762533Y-118187000D01*
X214829200Y-118220333D01*
X215095866Y-118220333D01*
X214462533Y-117853667D02*
X214029200Y-117853667D01*
X214262533Y-118120333D01*
X214162533Y-118120333D01*
X214095866Y-118153667D01*
X214062533Y-118187000D01*
X214029200Y-118253667D01*
X214029200Y-118420333D01*
X214062533Y-118487000D01*
X214095866Y-118520333D01*
X214162533Y-118553667D01*
X214362533Y-118553667D01*
X214429200Y-118520333D01*
X214462533Y-118487000D01*
X214695866Y-117156667D02*
X214929200Y-116823333D01*
X215095866Y-117156667D02*
X215095866Y-116456667D01*
X214829200Y-116456667D01*
X214762533Y-116490000D01*
X214729200Y-116523333D01*
X214695866Y-116590000D01*
X214695866Y-116690000D01*
X214729200Y-116756667D01*
X214762533Y-116790000D01*
X214829200Y-116823333D01*
X215095866Y-116823333D01*
X214295866Y-116756667D02*
X214362533Y-116723333D01*
X214395866Y-116690000D01*
X214429200Y-116623333D01*
X214429200Y-116590000D01*
X214395866Y-116523333D01*
X214362533Y-116490000D01*
X214295866Y-116456667D01*
X214162533Y-116456667D01*
X214095866Y-116490000D01*
X214062533Y-116523333D01*
X214029200Y-116590000D01*
X214029200Y-116623333D01*
X214062533Y-116690000D01*
X214095866Y-116723333D01*
X214162533Y-116756667D01*
X214295866Y-116756667D01*
X214362533Y-116790000D01*
X214395866Y-116823333D01*
X214429200Y-116890000D01*
X214429200Y-117023333D01*
X214395866Y-117090000D01*
X214362533Y-117123333D01*
X214295866Y-117156667D01*
X214162533Y-117156667D01*
X214095866Y-117123333D01*
X214062533Y-117090000D01*
X214029200Y-117023333D01*
X214029200Y-116890000D01*
X214062533Y-116823333D01*
X214095866Y-116790000D01*
X214162533Y-116756667D01*
X210095267Y-122057334D02*
X209761933Y-121824000D01*
X210095267Y-121657334D02*
X209395267Y-121657334D01*
X209395267Y-121924000D01*
X209428600Y-121990667D01*
X209461933Y-122024000D01*
X209528600Y-122057334D01*
X209628600Y-122057334D01*
X209695267Y-122024000D01*
X209728600Y-121990667D01*
X209761933Y-121924000D01*
X209761933Y-121657334D01*
X210095267Y-122390667D02*
X210095267Y-122524000D01*
X210061933Y-122590667D01*
X210028600Y-122624000D01*
X209928600Y-122690667D01*
X209795267Y-122724000D01*
X209528600Y-122724000D01*
X209461933Y-122690667D01*
X209428600Y-122657334D01*
X209395267Y-122590667D01*
X209395267Y-122457334D01*
X209428600Y-122390667D01*
X209461933Y-122357334D01*
X209528600Y-122324000D01*
X209695267Y-122324000D01*
X209761933Y-122357334D01*
X209795267Y-122390667D01*
X209828600Y-122457334D01*
X209828600Y-122590667D01*
X209795267Y-122657334D01*
X209761933Y-122690667D01*
X209695267Y-122724000D01*
D10*
X211122390Y-121877972D02*
X210884295Y-121711305D01*
X211122390Y-121592258D02*
X210622390Y-121592258D01*
X210622390Y-121782734D01*
X210646200Y-121830353D01*
X210670010Y-121854162D01*
X210717629Y-121877972D01*
X210789057Y-121877972D01*
X210836676Y-121854162D01*
X210860486Y-121830353D01*
X210884295Y-121782734D01*
X210884295Y-121592258D01*
X211122390Y-122354162D02*
X211122390Y-122068448D01*
X211122390Y-122211305D02*
X210622390Y-122211305D01*
X210693819Y-122163686D01*
X210741438Y-122116067D01*
X210765248Y-122068448D01*
X210622390Y-122663686D02*
X210622390Y-122711305D01*
X210646200Y-122758924D01*
X210670010Y-122782733D01*
X210717629Y-122806543D01*
X210812867Y-122830352D01*
X210931914Y-122830352D01*
X211027152Y-122806543D01*
X211074771Y-122782733D01*
X211098581Y-122758924D01*
X211122390Y-122711305D01*
X211122390Y-122663686D01*
X211098581Y-122616067D01*
X211074771Y-122592257D01*
X211027152Y-122568448D01*
X210931914Y-122544638D01*
X210812867Y-122544638D01*
X210717629Y-122568448D01*
X210670010Y-122592257D01*
X210646200Y-122616067D01*
X210622390Y-122663686D01*
D15*
X192694286Y-125141905D02*
X192960953Y-124760952D01*
X193151429Y-125141905D02*
X193151429Y-124341905D01*
X192846667Y-124341905D01*
X192770476Y-124380000D01*
X192732381Y-124418095D01*
X192694286Y-124494286D01*
X192694286Y-124608571D01*
X192732381Y-124684762D01*
X192770476Y-124722857D01*
X192846667Y-124760952D01*
X193151429Y-124760952D01*
X191932381Y-125141905D02*
X192389524Y-125141905D01*
X192160953Y-125141905D02*
X192160953Y-124341905D01*
X192237143Y-124456190D01*
X192313334Y-124532381D01*
X192389524Y-124570476D01*
X191170476Y-125141905D02*
X191627619Y-125141905D01*
X191399048Y-125141905D02*
X191399048Y-124341905D01*
X191475238Y-124456190D01*
X191551429Y-124532381D01*
X191627619Y-124570476D01*
X193808295Y-99441010D02*
X193770200Y-99364819D01*
X193694010Y-99288629D01*
X193579724Y-99174343D01*
X193541629Y-99098152D01*
X193541629Y-99021962D01*
X193732105Y-99060057D02*
X193694010Y-98983867D01*
X193617819Y-98907676D01*
X193465438Y-98869581D01*
X193198771Y-98869581D01*
X193046390Y-98907676D01*
X192970200Y-98983867D01*
X192932105Y-99060057D01*
X192932105Y-99212438D01*
X192970200Y-99288629D01*
X193046390Y-99364819D01*
X193198771Y-99402914D01*
X193465438Y-99402914D01*
X193617819Y-99364819D01*
X193694010Y-99288629D01*
X193732105Y-99212438D01*
X193732105Y-99060057D01*
X193008295Y-99707676D02*
X192970200Y-99745771D01*
X192932105Y-99821962D01*
X192932105Y-100012438D01*
X192970200Y-100088628D01*
X193008295Y-100126724D01*
X193084486Y-100164819D01*
X193160676Y-100164819D01*
X193274962Y-100126724D01*
X193732105Y-99669581D01*
X193732105Y-100164819D01*
X193909895Y-108635810D02*
X193871800Y-108559619D01*
X193795610Y-108483429D01*
X193681324Y-108369143D01*
X193643229Y-108292952D01*
X193643229Y-108216762D01*
X193833705Y-108254857D02*
X193795610Y-108178667D01*
X193719419Y-108102476D01*
X193567038Y-108064381D01*
X193300371Y-108064381D01*
X193147990Y-108102476D01*
X193071800Y-108178667D01*
X193033705Y-108254857D01*
X193033705Y-108407238D01*
X193071800Y-108483429D01*
X193147990Y-108559619D01*
X193300371Y-108597714D01*
X193567038Y-108597714D01*
X193719419Y-108559619D01*
X193795610Y-108483429D01*
X193833705Y-108407238D01*
X193833705Y-108254857D01*
X193300371Y-109283428D02*
X193833705Y-109283428D01*
X192995610Y-109092952D02*
X193567038Y-108902476D01*
X193567038Y-109397714D01*
X211613695Y-99466410D02*
X211575600Y-99390219D01*
X211499410Y-99314029D01*
X211385124Y-99199743D01*
X211347029Y-99123552D01*
X211347029Y-99047362D01*
X211537505Y-99085457D02*
X211499410Y-99009267D01*
X211423219Y-98933076D01*
X211270838Y-98894981D01*
X211004171Y-98894981D01*
X210851790Y-98933076D01*
X210775600Y-99009267D01*
X210737505Y-99085457D01*
X210737505Y-99237838D01*
X210775600Y-99314029D01*
X210851790Y-99390219D01*
X211004171Y-99428314D01*
X211270838Y-99428314D01*
X211423219Y-99390219D01*
X211499410Y-99314029D01*
X211537505Y-99237838D01*
X211537505Y-99085457D01*
X210737505Y-99694981D02*
X210737505Y-100190219D01*
X211042267Y-99923552D01*
X211042267Y-100037838D01*
X211080362Y-100114028D01*
X211118457Y-100152124D01*
X211194648Y-100190219D01*
X211385124Y-100190219D01*
X211461314Y-100152124D01*
X211499410Y-100114028D01*
X211537505Y-100037838D01*
X211537505Y-99809266D01*
X211499410Y-99733076D01*
X211461314Y-99694981D01*
X211613695Y-108280210D02*
X211575600Y-108204019D01*
X211499410Y-108127829D01*
X211385124Y-108013543D01*
X211347029Y-107937352D01*
X211347029Y-107861162D01*
X211537505Y-107899257D02*
X211499410Y-107823067D01*
X211423219Y-107746876D01*
X211270838Y-107708781D01*
X211004171Y-107708781D01*
X210851790Y-107746876D01*
X210775600Y-107823067D01*
X210737505Y-107899257D01*
X210737505Y-108051638D01*
X210775600Y-108127829D01*
X210851790Y-108204019D01*
X211004171Y-108242114D01*
X211270838Y-108242114D01*
X211423219Y-108204019D01*
X211499410Y-108127829D01*
X211537505Y-108051638D01*
X211537505Y-107899257D01*
X210737505Y-108965924D02*
X210737505Y-108584971D01*
X211118457Y-108546876D01*
X211080362Y-108584971D01*
X211042267Y-108661162D01*
X211042267Y-108851638D01*
X211080362Y-108927828D01*
X211118457Y-108965924D01*
X211194648Y-109004019D01*
X211385124Y-109004019D01*
X211461314Y-108965924D01*
X211499410Y-108927828D01*
X211537505Y-108851638D01*
X211537505Y-108661162D01*
X211499410Y-108584971D01*
X211461314Y-108546876D01*
X210362790Y-119995895D02*
X210438981Y-119957800D01*
X210515171Y-119881610D01*
X210629457Y-119767324D01*
X210705648Y-119729229D01*
X210781838Y-119729229D01*
X210743743Y-119919705D02*
X210819933Y-119881610D01*
X210896124Y-119805419D01*
X210934219Y-119653038D01*
X210934219Y-119386371D01*
X210896124Y-119233990D01*
X210819933Y-119157800D01*
X210743743Y-119119705D01*
X210591362Y-119119705D01*
X210515171Y-119157800D01*
X210438981Y-119233990D01*
X210400886Y-119386371D01*
X210400886Y-119653038D01*
X210438981Y-119805419D01*
X210515171Y-119881610D01*
X210591362Y-119919705D01*
X210743743Y-119919705D01*
X209715172Y-119119705D02*
X209867553Y-119119705D01*
X209943743Y-119157800D01*
X209981838Y-119195895D01*
X210058029Y-119310181D01*
X210096124Y-119462562D01*
X210096124Y-119767324D01*
X210058029Y-119843514D01*
X210019934Y-119881610D01*
X209943743Y-119919705D01*
X209791362Y-119919705D01*
X209715172Y-119881610D01*
X209677076Y-119843514D01*
X209638981Y-119767324D01*
X209638981Y-119576848D01*
X209677076Y-119500657D01*
X209715172Y-119462562D01*
X209791362Y-119424467D01*
X209943743Y-119424467D01*
X210019934Y-119462562D01*
X210058029Y-119500657D01*
X210096124Y-119576848D01*
X201879124Y-96945505D02*
X201879124Y-97593124D01*
X201841029Y-97669314D01*
X201802933Y-97707410D01*
X201726743Y-97745505D01*
X201574362Y-97745505D01*
X201498171Y-97707410D01*
X201460076Y-97669314D01*
X201421981Y-97593124D01*
X201421981Y-96945505D01*
X200621981Y-97745505D02*
X201079124Y-97745505D01*
X200850553Y-97745505D02*
X200850553Y-96945505D01*
X200926743Y-97059790D01*
X201002934Y-97135981D01*
X201079124Y-97174076D01*
X214395105Y-114376276D02*
X215042724Y-114376276D01*
X215118914Y-114414371D01*
X215157010Y-114452467D01*
X215195105Y-114528657D01*
X215195105Y-114681038D01*
X215157010Y-114757229D01*
X215118914Y-114795324D01*
X215042724Y-114833419D01*
X214395105Y-114833419D01*
X214471295Y-115176276D02*
X214433200Y-115214371D01*
X214395105Y-115290562D01*
X214395105Y-115481038D01*
X214433200Y-115557228D01*
X214471295Y-115595324D01*
X214547486Y-115633419D01*
X214623676Y-115633419D01*
X214737962Y-115595324D01*
X215195105Y-115138181D01*
X215195105Y-115633419D01*
X202285524Y-120846905D02*
X202285524Y-121494524D01*
X202247429Y-121570714D01*
X202209333Y-121608810D01*
X202133143Y-121646905D01*
X201980762Y-121646905D01*
X201904571Y-121608810D01*
X201866476Y-121570714D01*
X201828381Y-121494524D01*
X201828381Y-120846905D01*
X201066476Y-120846905D02*
X201447429Y-120846905D01*
X201485524Y-121227857D01*
X201447429Y-121189762D01*
X201371238Y-121151667D01*
X201180762Y-121151667D01*
X201104572Y-121189762D01*
X201066476Y-121227857D01*
X201028381Y-121304048D01*
X201028381Y-121494524D01*
X201066476Y-121570714D01*
X201104572Y-121608810D01*
X201180762Y-121646905D01*
X201371238Y-121646905D01*
X201447429Y-121608810D01*
X201485524Y-121570714D01*
X199171767Y-111531467D02*
X199738433Y-111531467D01*
X199805100Y-111564800D01*
X199838433Y-111598133D01*
X199871767Y-111664800D01*
X199871767Y-111798133D01*
X199838433Y-111864800D01*
X199805100Y-111898133D01*
X199738433Y-111931467D01*
X199171767Y-111931467D01*
X199171767Y-112198133D02*
X199171767Y-112631466D01*
X199438433Y-112398133D01*
X199438433Y-112498133D01*
X199471767Y-112564800D01*
X199505100Y-112598133D01*
X199571767Y-112631466D01*
X199738433Y-112631466D01*
X199805100Y-112598133D01*
X199838433Y-112564800D01*
X199871767Y-112498133D01*
X199871767Y-112298133D01*
X199838433Y-112231466D01*
X199805100Y-112198133D01*
X207515667Y-111480667D02*
X208082333Y-111480667D01*
X208149000Y-111514000D01*
X208182333Y-111547333D01*
X208215667Y-111614000D01*
X208215667Y-111747333D01*
X208182333Y-111814000D01*
X208149000Y-111847333D01*
X208082333Y-111880667D01*
X207515667Y-111880667D01*
X207749000Y-112514000D02*
X208215667Y-112514000D01*
X207482333Y-112347333D02*
X207982333Y-112180666D01*
X207982333Y-112614000D01*
X193060476Y-126531905D02*
X193060476Y-125731905D01*
X192870000Y-125731905D01*
X192755714Y-125770000D01*
X192679523Y-125846190D01*
X192641428Y-125922381D01*
X192603333Y-126074762D01*
X192603333Y-126189048D01*
X192641428Y-126341429D01*
X192679523Y-126417619D01*
X192755714Y-126493810D01*
X192870000Y-126531905D01*
X193060476Y-126531905D01*
X191841428Y-126531905D02*
X192298571Y-126531905D01*
X192070000Y-126531905D02*
X192070000Y-125731905D01*
X192146190Y-125846190D01*
X192222381Y-125922381D01*
X192298571Y-125960476D01*
M02*
