M48
;DRILL file {KiCad 4.0.2+dfsg1-stable} date Fri 12 May 2017 22:13:00 AEST
;FORMAT={2:4/ absolute / inch / keep zeros}
FMAT,2
INCH,TZ
T1C0.012
T2C0.039
T3C0.040
%
G90
G05
M72
T1
X074950Y-045670
X075350Y-044800
X075500Y-048750
X075600Y-046400
X075620Y-049350
X075770Y-047530
X075870Y-045760
X075880Y-044020
X076050Y-043100
X076650Y-044300
X076830Y-048360
X077250Y-046450
X077650Y-047500
X077720Y-044590
X077750Y-041500
X077800Y-045650
X078110Y-049710
X078180Y-043756
X078940Y-046630
X078950Y-045775
X078975Y-045376
X079050Y-044900
X079100Y-048460
X079750Y-044900
X079800Y-040900
X079810Y-042210
X079850Y-043050
X079990Y-046680
X080050Y-038900
X080150Y-039650
X080250Y-044000
X080420Y-044640
X080550Y-041100
X080620Y-045990
X080645Y-047825
X080896Y-043404
X081000Y-047732
X081300Y-038300
X081300Y-047732
X081332Y-047373
X081370Y-045198
X081400Y-042240
X081650Y-039200
X081654Y-043346
X081685Y-044500
X081870Y-038350
X082210Y-047970
X082389Y-048150
X082650Y-045450
X083050Y-043650
X083100Y-037600
X083470Y-039630
X083500Y-040150
X083600Y-042700
X083600Y-045200
X083626Y-039174
X083850Y-045500
X083940Y-049030
X084290Y-043780
X084370Y-044740
X084500Y-045400
X084640Y-049020
X084650Y-047850
X084900Y-047850
X085300Y-044150
X085550Y-044150
T2
X079005Y-037650
X080005Y-037650
X081005Y-037650
X082005Y-037650
T3
X075100Y-037900
X075100Y-038900
X075100Y-039900
X075100Y-041400
X075100Y-042400
X075100Y-043400
X085429Y-037900
X085429Y-038900
X085429Y-039900
X085500Y-041400
X085500Y-042400
X085500Y-043400
X085600Y-048400
X085600Y-049400
T0
M30
