G04 #@! TF.FileFunction,Soldermask,Top*
%FSLAX46Y46*%
G04 Gerber Fmt 4.6, Leading zero omitted, Abs format (unit mm)*
G04 Created by KiCad (PCBNEW 4.0.2+dfsg1-stable) date Sat 12 Nov 2016 15:30:04 AEDT*
%MOMM*%
G01*
G04 APERTURE LIST*
%ADD10C,0.100000*%
%ADD11R,2.432000X2.127200*%
%ADD12O,2.432000X2.127200*%
%ADD13R,2.432000X2.432000*%
%ADD14O,2.432000X2.432000*%
%ADD15R,1.150000X1.600000*%
%ADD16R,1.600000X1.150000*%
%ADD17R,1.300000X1.600000*%
%ADD18R,0.950000X1.900000*%
%ADD19R,1.900000X0.950000*%
%ADD20R,1.100000X0.700000*%
%ADD21R,2.300000X2.300000*%
%ADD22R,2.200000X2.300000*%
%ADD23R,0.800000X1.750000*%
%ADD24R,2.500000X2.000000*%
%ADD25C,1.400000*%
G04 APERTURE END LIST*
D10*
D11*
X190750000Y-108450000D03*
D12*
X190750000Y-110990000D03*
X190750000Y-113530000D03*
D13*
X190754000Y-122682000D03*
D14*
X190754000Y-125222000D03*
D15*
X196596000Y-114239000D03*
X196596000Y-116139000D03*
D16*
X202626000Y-104394000D03*
X200726000Y-104394000D03*
X205298000Y-120650000D03*
X207198000Y-120650000D03*
D15*
X212471000Y-113853000D03*
X212471000Y-111953000D03*
D11*
X190600000Y-97300000D03*
D12*
X190600000Y-99840000D03*
X190600000Y-102380000D03*
D11*
X217400000Y-97300000D03*
D12*
X217400000Y-99840000D03*
X217400000Y-102380000D03*
D17*
X211074000Y-122893000D03*
X211074000Y-120693000D03*
D18*
X208597000Y-106822000D03*
X207797000Y-106822000D03*
X206997000Y-106822000D03*
X206197000Y-106822000D03*
X205397000Y-106822000D03*
X204597000Y-106822000D03*
X203797000Y-106822000D03*
X202997000Y-106822000D03*
X202197000Y-106822000D03*
X201397000Y-106822000D03*
X200597000Y-106822000D03*
D19*
X198897000Y-108522000D03*
X198897000Y-109322000D03*
X198897000Y-110122000D03*
X198897000Y-110922000D03*
X198897000Y-111722000D03*
X198897000Y-112522000D03*
X198897000Y-113322000D03*
X198897000Y-114122000D03*
X198897000Y-114922000D03*
X198897000Y-115722000D03*
X198897000Y-116522000D03*
D18*
X200597000Y-118222000D03*
X201397000Y-118222000D03*
X202197000Y-118222000D03*
X202997000Y-118222000D03*
X203797000Y-118222000D03*
X204597000Y-118222000D03*
X205397000Y-118222000D03*
X206197000Y-118222000D03*
X206997000Y-118222000D03*
X207797000Y-118222000D03*
X208597000Y-118222000D03*
D19*
X210297000Y-116522000D03*
X210297000Y-115722000D03*
X210297000Y-114922000D03*
X210297000Y-114122000D03*
X210297000Y-113322000D03*
X210297000Y-112522000D03*
X210297000Y-111722000D03*
X210297000Y-110922000D03*
X210297000Y-110122000D03*
X210297000Y-109322000D03*
X210297000Y-108522000D03*
D20*
X203416000Y-98298000D03*
X205016000Y-98298000D03*
X205016000Y-97648000D03*
X203416000Y-97648000D03*
X205016000Y-98948000D03*
X203416000Y-98948000D03*
X203416000Y-100838000D03*
X205016000Y-100838000D03*
X205016000Y-100188000D03*
X203416000Y-100188000D03*
X205016000Y-101488000D03*
X203416000Y-101488000D03*
D11*
X217400000Y-108450000D03*
D12*
X217400000Y-110990000D03*
X217400000Y-113530000D03*
D21*
X202800000Y-125550000D03*
X205200000Y-125550000D03*
D22*
X200200000Y-125550000D03*
X207800000Y-125550000D03*
D23*
X205300000Y-122875000D03*
X202700000Y-122875000D03*
X204650000Y-122875000D03*
X203350000Y-122875000D03*
X204000000Y-122875000D03*
D24*
X207100000Y-123000000D03*
X200900000Y-123000000D03*
D25*
X195834000Y-111760000D03*
X195834000Y-110490000D03*
X195834000Y-109220000D03*
X195834000Y-107950000D03*
X195834000Y-106680000D03*
X197104000Y-111760000D03*
X197104000Y-110490000D03*
X197104000Y-109220000D03*
X197104000Y-107950000D03*
X197104000Y-106680000D03*
M02*
