G04 #@! TF.FileFunction,Soldermask,Bot*
%FSLAX46Y46*%
G04 Gerber Fmt 4.6, Leading zero omitted, Abs format (unit mm)*
G04 Created by KiCad (PCBNEW 4.0.2+dfsg1-stable) date Sat 12 Nov 2016 15:30:04 AEDT*
%MOMM*%
G01*
G04 APERTURE LIST*
%ADD10C,0.100000*%
%ADD11R,1.460000X1.050000*%
%ADD12R,1.150000X1.600000*%
%ADD13R,1.200100X1.200100*%
%ADD14R,2.432000X2.127200*%
%ADD15O,2.432000X2.127200*%
%ADD16R,2.350000X1.000000*%
%ADD17R,2.432000X2.432000*%
%ADD18O,2.432000X2.432000*%
%ADD19R,1.300000X1.600000*%
%ADD20R,2.400000X2.400000*%
%ADD21R,8.020000X8.020000*%
%ADD22R,1.650000X1.400000*%
%ADD23R,1.150000X1.200000*%
G04 APERTURE END LIST*
D10*
D11*
X192448000Y-119695000D03*
X192448000Y-118745000D03*
X192448000Y-117795000D03*
X194648000Y-117795000D03*
X194648000Y-119695000D03*
D12*
X196977000Y-121473000D03*
X196977000Y-119573000D03*
D13*
X194929760Y-108270000D03*
X194929760Y-110170000D03*
X192930780Y-109220000D03*
X197038000Y-116316760D03*
X195138000Y-116316760D03*
X196088000Y-114317780D03*
D14*
X190750000Y-108450000D03*
D15*
X190750000Y-110990000D03*
X190750000Y-113530000D03*
D16*
X208600000Y-114235000D03*
X208600000Y-115505000D03*
X208600000Y-116775000D03*
X208600000Y-118045000D03*
X208600000Y-119315000D03*
X208600000Y-120585000D03*
X208600000Y-121855000D03*
X208600000Y-123125000D03*
X208600000Y-124395000D03*
X208600000Y-125665000D03*
X199200000Y-125665000D03*
X199200000Y-124395000D03*
X199200000Y-123125000D03*
X199200000Y-121855000D03*
X199200000Y-120585000D03*
X199200000Y-119315000D03*
X199200000Y-118045000D03*
X199200000Y-116775000D03*
X199200000Y-115505000D03*
X199200000Y-114235000D03*
D13*
X213121240Y-98486000D03*
X213121240Y-96586000D03*
X215120220Y-97536000D03*
D17*
X190754000Y-122682000D03*
D18*
X190754000Y-125222000D03*
D12*
X210820000Y-119949000D03*
X210820000Y-118049000D03*
D14*
X190600000Y-97300000D03*
D15*
X190600000Y-99840000D03*
X190600000Y-102380000D03*
D14*
X217400000Y-97300000D03*
D15*
X217400000Y-99840000D03*
X217400000Y-102380000D03*
D13*
X194802760Y-96586000D03*
X194802760Y-98486000D03*
X192803780Y-97536000D03*
D19*
X214400000Y-118026000D03*
X214400000Y-120226000D03*
X212600000Y-118050000D03*
X212600000Y-120250000D03*
X193040000Y-100246000D03*
X193040000Y-102446000D03*
X214884000Y-100246000D03*
X214884000Y-102446000D03*
X193167000Y-112184000D03*
X193167000Y-114384000D03*
D20*
X217551000Y-117983000D03*
X217551000Y-120523000D03*
X217551000Y-123063000D03*
X217551000Y-125603000D03*
D14*
X217400000Y-108450000D03*
D15*
X217400000Y-110990000D03*
X217400000Y-113530000D03*
D13*
X212867240Y-110424000D03*
X212867240Y-108524000D03*
X214866220Y-109474000D03*
D19*
X214630000Y-112184000D03*
X214630000Y-114384000D03*
D21*
X204000000Y-104000000D03*
D22*
X190373000Y-119618000D03*
X190373000Y-117618000D03*
D23*
X194564000Y-121170000D03*
X194564000Y-122670000D03*
M02*
