M48
;DRILL file {KiCad 4.0.2+dfsg1-stable} date Sat 12 Nov 2016 15:31:41 AEDT
;FORMAT={2:4/ absolute / inch / keep zeros}
FMAT,2
INCH,TZ
T1C0.012
T2C0.040
T3C0.073
%
G90
G05
M72
T1
X075276Y-041634
X076084Y-042210
X076300Y-042000
X076358Y-045531
X076600Y-041800
X076707Y-044307
X077100Y-044000
X077559Y-042047
X077598Y-049488
X077650Y-038050
X077650Y-046250
X077736Y-038681
X078189Y-041142
X078300Y-042400
X078878Y-043248
X078917Y-044075
X079075Y-045709
X079075Y-046063
X079114Y-042736
X079200Y-045182
X079213Y-038248
X079213Y-040000
X079365Y-045518
X079605Y-044400
X079665Y-047717
X080571Y-043327
X080600Y-045462
X080713Y-040303
X080815Y-045941
X080826Y-047500
X081200Y-044550
X081240Y-038980
X081362Y-040232
X081772Y-043425
X081793Y-044543
X082205Y-044472
X082550Y-047000
X082598Y-040827
X082650Y-037950
X082776Y-038673
X082831Y-039839
X083524Y-049339
X083701Y-047343
X083890Y-039921
X084000Y-045250
X084050Y-045800
X084154Y-042008
X084409Y-047343
X085689Y-046457
T2
X075039Y-038307
X075039Y-039307
X075039Y-040307
X075098Y-042697
X075098Y-043697
X075098Y-044697
X075100Y-048300
X075100Y-049300
X085591Y-038307
X085591Y-039307
X085591Y-040307
X085591Y-042697
X085591Y-043697
X085591Y-044697
T3
X076994Y-040945
X083636Y-040945
T0
M30
