G04 #@! TF.FileFunction,Legend,Top*
%FSLAX46Y46*%
G04 Gerber Fmt 4.6, Leading zero omitted, Abs format (unit mm)*
G04 Created by KiCad (PCBNEW 4.0.2+dfsg1-stable) date Sat 12 Nov 2016 15:30:03 AEDT*
%MOMM*%
G01*
G04 APERTURE LIST*
%ADD10C,0.100000*%
%ADD11C,0.200000*%
%ADD12C,0.125000*%
%ADD13C,0.150000*%
%ADD14C,0.300000*%
%ADD15C,0.500000*%
%ADD16C,0.010000*%
G04 APERTURE END LIST*
D10*
D11*
X195328572Y-124692857D02*
X194928572Y-124121429D01*
X194642857Y-124692857D02*
X194642857Y-123492857D01*
X195100000Y-123492857D01*
X195214286Y-123550000D01*
X195271429Y-123607143D01*
X195328572Y-123721429D01*
X195328572Y-123892857D01*
X195271429Y-124007143D01*
X195214286Y-124064286D01*
X195100000Y-124121429D01*
X194642857Y-124121429D01*
X196300000Y-124635714D02*
X196185714Y-124692857D01*
X195957143Y-124692857D01*
X195842857Y-124635714D01*
X195785714Y-124521429D01*
X195785714Y-124064286D01*
X195842857Y-123950000D01*
X195957143Y-123892857D01*
X196185714Y-123892857D01*
X196300000Y-123950000D01*
X196357143Y-124064286D01*
X196357143Y-124178571D01*
X195785714Y-124292857D01*
X196757143Y-123892857D02*
X197042857Y-124692857D01*
X197328571Y-123892857D01*
X198014286Y-123492857D02*
X198128571Y-123492857D01*
X198242857Y-123550000D01*
X198300000Y-123607143D01*
X198357143Y-123721429D01*
X198414286Y-123950000D01*
X198414286Y-124235714D01*
X198357143Y-124464286D01*
X198300000Y-124578571D01*
X198242857Y-124635714D01*
X198128571Y-124692857D01*
X198014286Y-124692857D01*
X197900000Y-124635714D01*
X197842857Y-124578571D01*
X197785714Y-124464286D01*
X197728571Y-124235714D01*
X197728571Y-123950000D01*
X197785714Y-123721429D01*
X197842857Y-123607143D01*
X197900000Y-123550000D01*
X198014286Y-123492857D01*
X194754714Y-125404619D02*
X194802333Y-125357000D01*
X194897571Y-125309381D01*
X195135667Y-125309381D01*
X195230905Y-125357000D01*
X195278524Y-125404619D01*
X195326143Y-125499857D01*
X195326143Y-125595095D01*
X195278524Y-125737952D01*
X194707095Y-126309381D01*
X195326143Y-126309381D01*
X195945190Y-125309381D02*
X196040429Y-125309381D01*
X196135667Y-125357000D01*
X196183286Y-125404619D01*
X196230905Y-125499857D01*
X196278524Y-125690333D01*
X196278524Y-125928429D01*
X196230905Y-126118905D01*
X196183286Y-126214143D01*
X196135667Y-126261762D01*
X196040429Y-126309381D01*
X195945190Y-126309381D01*
X195849952Y-126261762D01*
X195802333Y-126214143D01*
X195754714Y-126118905D01*
X195707095Y-125928429D01*
X195707095Y-125690333D01*
X195754714Y-125499857D01*
X195802333Y-125404619D01*
X195849952Y-125357000D01*
X195945190Y-125309381D01*
X197230905Y-126309381D02*
X196659476Y-126309381D01*
X196945190Y-126309381D02*
X196945190Y-125309381D01*
X196849952Y-125452238D01*
X196754714Y-125547476D01*
X196659476Y-125595095D01*
X197564238Y-125309381D02*
X198230905Y-125309381D01*
X197802333Y-126309381D01*
X198501000Y-117729000D02*
X198501000Y-121412000D01*
X193167000Y-117729000D02*
X198501000Y-117729000D01*
X193167000Y-121412000D02*
X193167000Y-117729000D01*
X193167000Y-121412000D02*
X198374000Y-121412000D01*
X193519715Y-118036857D02*
X194205429Y-118036857D01*
X193862572Y-119236857D02*
X193862572Y-118036857D01*
X194605429Y-119236857D02*
X194605429Y-118436857D01*
X194605429Y-118036857D02*
X194548286Y-118094000D01*
X194605429Y-118151143D01*
X194662572Y-118094000D01*
X194605429Y-118036857D01*
X194605429Y-118151143D01*
X195176858Y-119236857D02*
X195176858Y-118436857D01*
X195176858Y-118551143D02*
X195234001Y-118494000D01*
X195348287Y-118436857D01*
X195519715Y-118436857D01*
X195634001Y-118494000D01*
X195691144Y-118608286D01*
X195691144Y-119236857D01*
X195691144Y-118608286D02*
X195748287Y-118494000D01*
X195862573Y-118436857D01*
X196034001Y-118436857D01*
X196148287Y-118494000D01*
X196205430Y-118608286D01*
X196205430Y-119236857D01*
X197234001Y-119179714D02*
X197119715Y-119236857D01*
X196891144Y-119236857D01*
X196776858Y-119179714D01*
X196719715Y-119065429D01*
X196719715Y-118608286D01*
X196776858Y-118494000D01*
X196891144Y-118436857D01*
X197119715Y-118436857D01*
X197234001Y-118494000D01*
X197291144Y-118608286D01*
X197291144Y-118722571D01*
X196719715Y-118836857D01*
X197805429Y-119236857D02*
X197805429Y-118436857D01*
X197805429Y-118665429D02*
X197862572Y-118551143D01*
X197919715Y-118494000D01*
X198034001Y-118436857D01*
X198148286Y-118436857D01*
X193634000Y-121116857D02*
X193634000Y-119916857D01*
X194319715Y-121116857D01*
X194319715Y-119916857D01*
X195405429Y-121116857D02*
X195405429Y-120488286D01*
X195348286Y-120374000D01*
X195234000Y-120316857D01*
X195005429Y-120316857D01*
X194891143Y-120374000D01*
X195405429Y-121059714D02*
X195291143Y-121116857D01*
X195005429Y-121116857D01*
X194891143Y-121059714D01*
X194834000Y-120945429D01*
X194834000Y-120831143D01*
X194891143Y-120716857D01*
X195005429Y-120659714D01*
X195291143Y-120659714D01*
X195405429Y-120602571D01*
X195976857Y-121116857D02*
X195976857Y-120316857D01*
X195976857Y-120431143D02*
X196034000Y-120374000D01*
X196148286Y-120316857D01*
X196319714Y-120316857D01*
X196434000Y-120374000D01*
X196491143Y-120488286D01*
X196491143Y-121116857D01*
X196491143Y-120488286D02*
X196548286Y-120374000D01*
X196662572Y-120316857D01*
X196834000Y-120316857D01*
X196948286Y-120374000D01*
X197005429Y-120488286D01*
X197005429Y-121116857D01*
X198034000Y-121059714D02*
X197919714Y-121116857D01*
X197691143Y-121116857D01*
X197576857Y-121059714D01*
X197519714Y-120945429D01*
X197519714Y-120488286D01*
X197576857Y-120374000D01*
X197691143Y-120316857D01*
X197919714Y-120316857D01*
X198034000Y-120374000D01*
X198091143Y-120488286D01*
X198091143Y-120602571D01*
X197519714Y-120716857D01*
X193566000Y-125014000D02*
X193566000Y-124633000D01*
X193185000Y-125395000D02*
X193947000Y-125395000D01*
X192931000Y-125014000D02*
X194201000Y-125014000D01*
X193439000Y-125776000D02*
X193693000Y-125776000D01*
X194328000Y-122474000D02*
X194582000Y-122474000D01*
X194582000Y-122855000D02*
X194328000Y-122855000D01*
X192804000Y-122220000D02*
X192804000Y-123109000D01*
X194328000Y-123109000D02*
X194328000Y-122220000D01*
X192804000Y-123109000D02*
X194328000Y-123109000D01*
D12*
X194645524Y-122128714D02*
X195026476Y-122128714D01*
X194836000Y-122319190D02*
X194836000Y-121938238D01*
D11*
X194328000Y-122220000D02*
X192804000Y-122220000D01*
X194582000Y-122474000D02*
X194582000Y-122855000D01*
D13*
X201588095Y-119852381D02*
X201588095Y-120661905D01*
X201635714Y-120757143D01*
X201683333Y-120804762D01*
X201778571Y-120852381D01*
X201969048Y-120852381D01*
X202064286Y-120804762D01*
X202111905Y-120757143D01*
X202159524Y-120661905D01*
X202159524Y-119852381D01*
X202588095Y-120804762D02*
X202730952Y-120852381D01*
X202969048Y-120852381D01*
X203064286Y-120804762D01*
X203111905Y-120757143D01*
X203159524Y-120661905D01*
X203159524Y-120566667D01*
X203111905Y-120471429D01*
X203064286Y-120423810D01*
X202969048Y-120376190D01*
X202778571Y-120328571D01*
X202683333Y-120280952D01*
X202635714Y-120233333D01*
X202588095Y-120138095D01*
X202588095Y-120042857D01*
X202635714Y-119947619D01*
X202683333Y-119900000D01*
X202778571Y-119852381D01*
X203016667Y-119852381D01*
X203159524Y-119900000D01*
X203921429Y-120328571D02*
X204064286Y-120376190D01*
X204111905Y-120423810D01*
X204159524Y-120519048D01*
X204159524Y-120661905D01*
X204111905Y-120757143D01*
X204064286Y-120804762D01*
X203969048Y-120852381D01*
X203588095Y-120852381D01*
X203588095Y-119852381D01*
X203921429Y-119852381D01*
X204016667Y-119900000D01*
X204064286Y-119947619D01*
X204111905Y-120042857D01*
X204111905Y-120138095D01*
X204064286Y-120233333D01*
X204016667Y-120280952D01*
X203921429Y-120328571D01*
X203588095Y-120328571D01*
X190015905Y-120324571D02*
X190158762Y-120372190D01*
X190206381Y-120419810D01*
X190254000Y-120515048D01*
X190254000Y-120657905D01*
X190206381Y-120753143D01*
X190158762Y-120800762D01*
X190063524Y-120848381D01*
X189682571Y-120848381D01*
X189682571Y-119848381D01*
X190015905Y-119848381D01*
X190111143Y-119896000D01*
X190158762Y-119943619D01*
X190206381Y-120038857D01*
X190206381Y-120134095D01*
X190158762Y-120229333D01*
X190111143Y-120276952D01*
X190015905Y-120324571D01*
X189682571Y-120324571D01*
X190634952Y-120562667D02*
X191111143Y-120562667D01*
X190539714Y-120848381D02*
X190873047Y-119848381D01*
X191206381Y-120848381D01*
X191396857Y-119848381D02*
X191968286Y-119848381D01*
X191682571Y-120848381D02*
X191682571Y-119848381D01*
D11*
X212833286Y-125799905D02*
X213023762Y-126599905D01*
X213176143Y-126028476D01*
X213328524Y-126599905D01*
X213519000Y-125799905D01*
X213823762Y-126599905D02*
X213823762Y-125799905D01*
X214585667Y-126599905D02*
X214204714Y-126599905D01*
X214204714Y-125799905D01*
X214852333Y-126599905D02*
X214852333Y-125799905D01*
X215042809Y-125799905D01*
X215157095Y-125838000D01*
X215233286Y-125914190D01*
X215271381Y-125990381D01*
X215309476Y-126142762D01*
X215309476Y-126257048D01*
X215271381Y-126409429D01*
X215233286Y-126485619D01*
X215157095Y-126561810D01*
X215042809Y-126599905D01*
X214852333Y-126599905D01*
X216223762Y-126561810D02*
X216338048Y-126599905D01*
X216528524Y-126599905D01*
X216604714Y-126561810D01*
X216642810Y-126523714D01*
X216680905Y-126447524D01*
X216680905Y-126371333D01*
X216642810Y-126295143D01*
X216604714Y-126257048D01*
X216528524Y-126218952D01*
X216376143Y-126180857D01*
X216299952Y-126142762D01*
X216261857Y-126104667D01*
X216223762Y-126028476D01*
X216223762Y-125952286D01*
X216261857Y-125876095D01*
X216299952Y-125838000D01*
X216376143Y-125799905D01*
X216566619Y-125799905D01*
X216680905Y-125838000D01*
X217023762Y-126599905D02*
X217023762Y-125799905D01*
X217328524Y-125799905D01*
X217404715Y-125838000D01*
X217442810Y-125876095D01*
X217480905Y-125952286D01*
X217480905Y-126066571D01*
X217442810Y-126142762D01*
X217404715Y-126180857D01*
X217328524Y-126218952D01*
X217023762Y-126218952D01*
X217976143Y-126218952D02*
X217976143Y-126599905D01*
X217709476Y-125799905D02*
X217976143Y-126218952D01*
X218242810Y-125799905D01*
X213536679Y-111452185D02*
X213219179Y-111452185D01*
X214298679Y-113801685D02*
X215060679Y-113801685D01*
X214044679Y-113420685D02*
X215314679Y-113420685D01*
X214552679Y-114182685D02*
X214806679Y-114182685D01*
X214679679Y-113420685D02*
X214679679Y-113039685D01*
X214997179Y-111579185D02*
X214679679Y-111579185D01*
X214108179Y-111769685D02*
X213790679Y-111769685D01*
X215187679Y-111134685D02*
X215314679Y-111261685D01*
X215314679Y-111261685D02*
X214997179Y-111579185D01*
X213790679Y-111769685D02*
X213536679Y-111452185D01*
X214489179Y-111388685D02*
X214108179Y-111769685D01*
X214235179Y-111134685D02*
X214679679Y-111579185D01*
X214552679Y-110499685D02*
X215187679Y-111134685D01*
X214743179Y-110690185D02*
X215124179Y-110309185D01*
X214235179Y-111134685D02*
X214235179Y-110817185D01*
D12*
X214108203Y-110090899D02*
X214489155Y-110090899D01*
X214298679Y-110281375D02*
X214298679Y-109900423D01*
D11*
X214552679Y-110499685D02*
X214235179Y-110817185D01*
X215124179Y-111071185D02*
X215505179Y-110690185D01*
D12*
X215251203Y-107995399D02*
X215632155Y-107995399D01*
X215441679Y-108185875D02*
X215441679Y-107804923D01*
D11*
X215187679Y-108340685D02*
X215187679Y-108721685D01*
X214933679Y-108340685D02*
X215187679Y-108340685D01*
X214933679Y-108975685D02*
X214933679Y-108086685D01*
X213409679Y-108975685D02*
X214933679Y-108975685D01*
X213409679Y-108086685D02*
X213409679Y-108975685D01*
X215187679Y-108721685D02*
X214933679Y-108721685D01*
X214933679Y-108086685D02*
X213409679Y-108086685D01*
D12*
X194677203Y-107995399D02*
X195058155Y-107995399D01*
X194867679Y-108185875D02*
X194867679Y-107804923D01*
D11*
X194296179Y-111071185D02*
X194677179Y-110690185D01*
X194613679Y-108721685D02*
X194359679Y-108721685D01*
X194613679Y-108340685D02*
X194613679Y-108721685D01*
X194359679Y-111134685D02*
X194486679Y-111261685D01*
X194359679Y-108340685D02*
X194613679Y-108340685D01*
X194359679Y-108975685D02*
X194359679Y-108086685D01*
X194359679Y-108086685D02*
X192835679Y-108086685D01*
X192835679Y-108086685D02*
X192835679Y-108975685D01*
X193915179Y-110690185D02*
X194296179Y-110309185D01*
X192835679Y-108975685D02*
X194359679Y-108975685D01*
D12*
X193280203Y-110090899D02*
X193661155Y-110090899D01*
X193470679Y-110281375D02*
X193470679Y-109900423D01*
D11*
X193407179Y-111134685D02*
X193851679Y-111579185D01*
X194169179Y-111579185D02*
X193851679Y-111579185D01*
X193724679Y-110499685D02*
X193407179Y-110817185D01*
X193407179Y-111134685D02*
X193407179Y-110817185D01*
X193724679Y-110499685D02*
X194359679Y-111134685D01*
X194486679Y-111261685D02*
X194169179Y-111579185D01*
X193216679Y-113293685D02*
X193216679Y-112912685D01*
X192835679Y-113674685D02*
X193597679Y-113674685D01*
X193089679Y-114055685D02*
X193343679Y-114055685D01*
X192708679Y-111452185D02*
X192391179Y-111452185D01*
X193280179Y-111769685D02*
X192962679Y-111769685D01*
X192581679Y-113293685D02*
X193851679Y-113293685D01*
X192962679Y-111769685D02*
X192708679Y-111452185D01*
X193661179Y-111388685D02*
X193280179Y-111769685D01*
D12*
X198691524Y-99222714D02*
X199072476Y-99222714D01*
X195389524Y-99222714D02*
X195770476Y-99222714D01*
X195580000Y-99413190D02*
X195580000Y-99032238D01*
D14*
X195199000Y-99822000D02*
X196088000Y-99822000D01*
X198296679Y-99196685D02*
X196088000Y-99187000D01*
D12*
X196582251Y-100057875D02*
X196582251Y-99557875D01*
X196701298Y-99557875D01*
X196772727Y-99581685D01*
X196820346Y-99629304D01*
X196844155Y-99676923D01*
X196867965Y-99772161D01*
X196867965Y-99843590D01*
X196844155Y-99938828D01*
X196820346Y-99986447D01*
X196772727Y-100034066D01*
X196701298Y-100057875D01*
X196582251Y-100057875D01*
X197082251Y-99795971D02*
X197248917Y-99795971D01*
X197320346Y-100057875D02*
X197082251Y-100057875D01*
X197082251Y-99557875D01*
X197320346Y-99557875D01*
X197463203Y-99557875D02*
X197629870Y-100057875D01*
X197796536Y-99557875D01*
D14*
X198296679Y-100466685D02*
X198296679Y-99196685D01*
X196088000Y-100457000D02*
X198296679Y-100466685D01*
X196088000Y-99196685D02*
X196088000Y-100466685D01*
X199058679Y-99831685D02*
X198296679Y-99831685D01*
X199058679Y-99831685D02*
X199058679Y-102109312D01*
X199238284Y-102108000D02*
G75*
G03X199238284Y-102108000I-179605J0D01*
G01*
X199390000Y-98425000D02*
X200914000Y-98425000D01*
X200152000Y-97282000D02*
X200152000Y-98425000D01*
X200152000Y-99060000D02*
X200152000Y-102108000D01*
D12*
X200469524Y-97825714D02*
X200850476Y-97825714D01*
X200660000Y-98016190D02*
X200660000Y-97635238D01*
D14*
X199771000Y-99060000D02*
X200533000Y-99060000D01*
D12*
X200469524Y-99486399D02*
X200850476Y-99486399D01*
D14*
X194054678Y-102108000D02*
X200152000Y-102108000D01*
X200152000Y-97282000D02*
X195072000Y-97282000D01*
D11*
X193407179Y-100085685D02*
X193026179Y-100466685D01*
X192708679Y-100466685D02*
X192454679Y-100149185D01*
X193026179Y-100466685D02*
X192708679Y-100466685D01*
X193153179Y-99831685D02*
X193597679Y-100276185D01*
X194105679Y-96783685D02*
X192581679Y-96783685D01*
X192581679Y-97672685D02*
X194105679Y-97672685D01*
X194105679Y-97672685D02*
X194105679Y-96783685D01*
X192581679Y-96783685D02*
X192581679Y-97672685D01*
D12*
X193026203Y-98787899D02*
X193407155Y-98787899D01*
X193216679Y-98978375D02*
X193216679Y-98597423D01*
D11*
X193153179Y-99831685D02*
X193153179Y-99514185D01*
X193470679Y-99196685D02*
X194105679Y-99831685D01*
X193470679Y-99196685D02*
X193153179Y-99514185D01*
X193661179Y-99387185D02*
X194042179Y-99006185D01*
X194042179Y-99768185D02*
X194423179Y-99387185D01*
X194105679Y-99831685D02*
X194232679Y-99958685D01*
X194232679Y-99958685D02*
X193915179Y-100276185D01*
X193915179Y-100276185D02*
X193597679Y-100276185D01*
X194359679Y-97418685D02*
X194105679Y-97418685D01*
D12*
X194423203Y-96692399D02*
X194804155Y-96692399D01*
X194613679Y-96882875D02*
X194613679Y-96501923D01*
D11*
X194359679Y-97037685D02*
X194359679Y-97418685D01*
X194105679Y-97037685D02*
X194359679Y-97037685D01*
X192327679Y-102117685D02*
X193597679Y-102117685D01*
X192962679Y-102117685D02*
X192962679Y-101736685D01*
X192835679Y-102879685D02*
X193089679Y-102879685D01*
X192581679Y-102498685D02*
X193343679Y-102498685D01*
X192454679Y-100149185D02*
X192137179Y-100149185D01*
D12*
X206946524Y-97825714D02*
X207327476Y-97825714D01*
X207137000Y-98016190D02*
X207137000Y-97635238D01*
X206946524Y-99476714D02*
X207327476Y-99476714D01*
D14*
X207391000Y-99060000D02*
X208153000Y-99060000D01*
X207010000Y-98425000D02*
X208534000Y-98425000D01*
X208840605Y-102108000D02*
G75*
G03X208840605Y-102108000I-179605J0D01*
G01*
D12*
X208597524Y-99349714D02*
X208978476Y-99349714D01*
X211899524Y-99349714D02*
X212280476Y-99349714D01*
X212090000Y-99540190D02*
X212090000Y-99159238D01*
D14*
X208661000Y-99949000D02*
X208661000Y-102108000D01*
X209423000Y-99949000D02*
X208661000Y-99949000D01*
X211582000Y-99949000D02*
X212598000Y-99949000D01*
D12*
X209867572Y-100175190D02*
X209867572Y-99675190D01*
X209986619Y-99675190D01*
X210058048Y-99699000D01*
X210105667Y-99746619D01*
X210129476Y-99794238D01*
X210153286Y-99889476D01*
X210153286Y-99960905D01*
X210129476Y-100056143D01*
X210105667Y-100103762D01*
X210058048Y-100151381D01*
X209986619Y-100175190D01*
X209867572Y-100175190D01*
X210367572Y-99913286D02*
X210534238Y-99913286D01*
X210605667Y-100175190D02*
X210367572Y-100175190D01*
X210367572Y-99675190D01*
X210605667Y-99675190D01*
X210748524Y-99675190D02*
X210915191Y-100175190D01*
X211081857Y-99675190D01*
D14*
X211582000Y-99314000D02*
X209423000Y-99314000D01*
X211582000Y-100584000D02*
X211582000Y-99314000D01*
X209423000Y-100584000D02*
X211582000Y-100584000D01*
X209423000Y-99314000D02*
X209423000Y-100584000D01*
X207772000Y-102108000D02*
X213487000Y-102108000D01*
X207772000Y-99060000D02*
X207772000Y-102108000D01*
X207772000Y-97282000D02*
X207772000Y-98425000D01*
X212725000Y-97282000D02*
X207772000Y-97282000D01*
D12*
X214058524Y-98778214D02*
X214439476Y-98778214D01*
X214249000Y-98968690D02*
X214249000Y-98587738D01*
D11*
X213487000Y-100139500D02*
X213169500Y-100139500D01*
X213741000Y-100457000D02*
X213487000Y-100139500D01*
X214058500Y-100457000D02*
X213741000Y-100457000D01*
X214439500Y-100076000D02*
X214058500Y-100457000D01*
X214185500Y-99822000D02*
X214185500Y-99504500D01*
X214947500Y-100266500D02*
X214630000Y-100266500D01*
X214503000Y-99187000D02*
X214185500Y-99504500D01*
X215074500Y-99758500D02*
X215455500Y-99377500D01*
X214693500Y-99377500D02*
X215074500Y-98996500D01*
X215265000Y-99949000D02*
X214947500Y-100266500D01*
X214185500Y-99822000D02*
X214630000Y-100266500D01*
X215138000Y-99822000D02*
X215265000Y-99949000D01*
X214503000Y-99187000D02*
X215138000Y-99822000D01*
D12*
X215201524Y-96682714D02*
X215582476Y-96682714D01*
X215392000Y-96873190D02*
X215392000Y-96492238D01*
D11*
X215138000Y-97409000D02*
X214884000Y-97409000D01*
X215138000Y-97028000D02*
X215138000Y-97409000D01*
X214884000Y-97028000D02*
X215138000Y-97028000D01*
X214884000Y-96774000D02*
X213360000Y-96774000D01*
X213360000Y-96774000D02*
X213360000Y-97663000D01*
X213360000Y-97663000D02*
X214884000Y-97663000D01*
X214884000Y-97663000D02*
X214884000Y-96774000D01*
X214757000Y-102235000D02*
X214757000Y-101854000D01*
X214630000Y-102997000D02*
X214884000Y-102997000D01*
X214376000Y-102616000D02*
X215138000Y-102616000D01*
X214122000Y-102235000D02*
X215392000Y-102235000D01*
D13*
X189480000Y-109720000D02*
X189480000Y-114800000D01*
X189480000Y-114800000D02*
X192020000Y-114800000D01*
X192020000Y-114800000D02*
X192020000Y-109720000D01*
X192300000Y-106900000D02*
X192300000Y-108450000D01*
X192020000Y-109720000D02*
X189480000Y-109720000D01*
X189200000Y-108450000D02*
X189200000Y-106900000D01*
X189200000Y-106900000D02*
X192300000Y-106900000D01*
X192024000Y-123952000D02*
X192024000Y-126492000D01*
X192304000Y-121132000D02*
X192304000Y-122682000D01*
X192024000Y-123952000D02*
X189484000Y-123952000D01*
X189204000Y-122682000D02*
X189204000Y-121132000D01*
X189204000Y-121132000D02*
X192304000Y-121132000D01*
X189484000Y-123952000D02*
X189484000Y-126492000D01*
X189484000Y-126492000D02*
X192024000Y-126492000D01*
X197196000Y-114839000D02*
X197196000Y-115539000D01*
X195996000Y-115539000D02*
X195996000Y-114839000D01*
X202026000Y-104994000D02*
X201326000Y-104994000D01*
X201326000Y-103794000D02*
X202026000Y-103794000D01*
X205898000Y-120050000D02*
X206598000Y-120050000D01*
X206598000Y-121250000D02*
X205898000Y-121250000D01*
X211871000Y-113253000D02*
X211871000Y-112553000D01*
X213071000Y-112553000D02*
X213071000Y-113253000D01*
X189330000Y-98570000D02*
X189330000Y-103650000D01*
X189330000Y-103650000D02*
X191870000Y-103650000D01*
X191870000Y-103650000D02*
X191870000Y-98570000D01*
X192150000Y-95750000D02*
X192150000Y-97300000D01*
X191870000Y-98570000D02*
X189330000Y-98570000D01*
X189050000Y-97300000D02*
X189050000Y-95750000D01*
X189050000Y-95750000D02*
X192150000Y-95750000D01*
X216130000Y-98570000D02*
X216130000Y-103650000D01*
X216130000Y-103650000D02*
X218670000Y-103650000D01*
X218670000Y-103650000D02*
X218670000Y-98570000D01*
X218950000Y-95750000D02*
X218950000Y-97300000D01*
X218670000Y-98570000D02*
X216130000Y-98570000D01*
X215850000Y-97300000D02*
X215850000Y-95750000D01*
X215850000Y-95750000D02*
X218950000Y-95750000D01*
X211749000Y-121293000D02*
X211749000Y-122293000D01*
X210399000Y-122293000D02*
X210399000Y-121293000D01*
X209772000Y-107347000D02*
X209097000Y-107347000D01*
X209772000Y-117697000D02*
X209097000Y-117697000D01*
X199422000Y-117697000D02*
X200097000Y-117697000D01*
X199422000Y-107347000D02*
X200097000Y-107347000D01*
X209772000Y-107347000D02*
X209772000Y-108022000D01*
X199422000Y-107347000D02*
X199422000Y-108022000D01*
X199422000Y-117697000D02*
X199422000Y-117022000D01*
X209772000Y-117697000D02*
X209772000Y-117022000D01*
X209097000Y-107347000D02*
X209097000Y-106072000D01*
X205100642Y-99466400D02*
G75*
G03X205100642Y-99466400I-71842J0D01*
G01*
X205100642Y-102006400D02*
G75*
G03X205100642Y-102006400I-71842J0D01*
G01*
X216130000Y-109720000D02*
X216130000Y-114800000D01*
X216130000Y-114800000D02*
X218670000Y-114800000D01*
X218670000Y-114800000D02*
X218670000Y-109720000D01*
X218950000Y-106900000D02*
X218950000Y-108450000D01*
X218670000Y-109720000D02*
X216130000Y-109720000D01*
X215850000Y-108450000D02*
X215850000Y-106900000D01*
X215850000Y-106900000D02*
X218950000Y-106900000D01*
D15*
X202190131Y-121405000D02*
G75*
G03X202190131Y-121405000I-95131J0D01*
G01*
D13*
X199300000Y-127000000D02*
X208700000Y-127000000D01*
X217187780Y-121688860D02*
X217548460Y-123159520D01*
X217548460Y-123159520D02*
X217827860Y-122097800D01*
X217827860Y-122097800D02*
X218137740Y-123169680D01*
X218137740Y-123169680D02*
X218478100Y-121719340D01*
X215767920Y-122379740D02*
X216557860Y-122369580D01*
X216557860Y-122369580D02*
X216568020Y-122379740D01*
X216568020Y-122379740D02*
X216568020Y-122369580D01*
X216608660Y-121658380D02*
X216608660Y-123200160D01*
X215719660Y-121648220D02*
X215719660Y-123217940D01*
X215719660Y-123217940D02*
X215729820Y-123207780D01*
X215168480Y-121749820D02*
X214817960Y-121668540D01*
X214817960Y-121668540D02*
X214497920Y-121658380D01*
X214497920Y-121658380D02*
X214259160Y-121859040D01*
X214259160Y-121859040D02*
X214228680Y-122128280D01*
X214228680Y-122128280D02*
X214469980Y-122369580D01*
X214469980Y-122369580D02*
X214858600Y-122499120D01*
X214858600Y-122499120D02*
X215038940Y-122659140D01*
X215038940Y-122659140D02*
X215079580Y-122958860D01*
X215079580Y-122958860D02*
X214848440Y-123179840D01*
X214848440Y-123179840D02*
X214528400Y-123207780D01*
X214528400Y-123207780D02*
X214177880Y-123098560D01*
X213139020Y-121648220D02*
X212890100Y-121668540D01*
X212890100Y-121668540D02*
X212648800Y-121909840D01*
X212648800Y-121909840D02*
X212559900Y-122400060D01*
X212559900Y-122400060D02*
X212587840Y-122748040D01*
X212587840Y-122748040D02*
X212788500Y-123068080D01*
X212788500Y-123068080D02*
X213039960Y-123190000D01*
X213039960Y-123190000D02*
X213349840Y-123118880D01*
X213349840Y-123118880D02*
X213568280Y-122938540D01*
X213568280Y-122938540D02*
X213639400Y-122478800D01*
X213639400Y-122478800D02*
X213588600Y-122069860D01*
X213588600Y-122069860D02*
X213479380Y-121787920D01*
X213479380Y-121787920D02*
X213118700Y-121658380D01*
X213738460Y-119928640D02*
X213479380Y-120489980D01*
X213479380Y-120489980D02*
X214017860Y-121008140D01*
X214017860Y-121008140D02*
X214538560Y-120738900D01*
X214538560Y-120738900D02*
X214817960Y-120898920D01*
X216258140Y-120878600D02*
X216588340Y-120688100D01*
X216588340Y-120688100D02*
X217027760Y-121018300D01*
X217027760Y-121018300D02*
X217500200Y-120528080D01*
X217500200Y-120528080D02*
X217218260Y-120048020D01*
X217218260Y-120048020D02*
X217408760Y-119578120D01*
X217408760Y-119578120D02*
X218018360Y-119390160D01*
X218018360Y-119390160D02*
X218018360Y-118709440D01*
X218018360Y-118709440D02*
X217459560Y-118569740D01*
X217459560Y-118569740D02*
X217258900Y-117998240D01*
X217258900Y-117998240D02*
X217528140Y-117528340D01*
X217528140Y-117528340D02*
X217058240Y-117017800D01*
X217058240Y-117017800D02*
X216540080Y-117279420D01*
X216540080Y-117279420D02*
X216070180Y-117078760D01*
X216070180Y-117078760D02*
X215900000Y-116537740D01*
X215900000Y-116537740D02*
X215209120Y-116519960D01*
X215209120Y-116519960D02*
X214998300Y-117068600D01*
X214998300Y-117068600D02*
X214579200Y-117238780D01*
X214579200Y-117238780D02*
X214028020Y-116969540D01*
X214028020Y-116969540D02*
X213509860Y-117497860D01*
X213509860Y-117497860D02*
X213758780Y-118038880D01*
X213758780Y-118038880D02*
X213588600Y-118518940D01*
X213588600Y-118518940D02*
X213039960Y-118618000D01*
X213039960Y-118618000D02*
X213029800Y-119319040D01*
X213029800Y-119319040D02*
X213588600Y-119519700D01*
X213588600Y-119519700D02*
X213728300Y-119918480D01*
X215869520Y-119898160D02*
X216169240Y-119748300D01*
X216169240Y-119748300D02*
X216369900Y-119550180D01*
X216369900Y-119550180D02*
X216519760Y-119148860D01*
X216519760Y-119148860D02*
X216519760Y-118750080D01*
X216519760Y-118750080D02*
X216369900Y-118399560D01*
X216369900Y-118399560D02*
X215917780Y-118049040D01*
X215917780Y-118049040D02*
X215468200Y-117998240D01*
X215468200Y-117998240D02*
X215069420Y-118099840D01*
X215069420Y-118099840D02*
X214668100Y-118447820D01*
X214668100Y-118447820D02*
X214518240Y-118899940D01*
X214518240Y-118899940D02*
X214569040Y-119397780D01*
X214569040Y-119397780D02*
X214817960Y-119700040D01*
X214817960Y-119700040D02*
X215168480Y-119898160D01*
X215168480Y-119898160D02*
X214817960Y-120898920D01*
X215869520Y-119898160D02*
X216268300Y-120898920D01*
D15*
X198183500Y-106680000D02*
G75*
G03X198183500Y-106680000I-63500J0D01*
G01*
D16*
G36*
X213758717Y-123568672D02*
X213930320Y-123666300D01*
X213930736Y-123666552D01*
X214107846Y-123763436D01*
X214285815Y-123845106D01*
X214361040Y-123872946D01*
X214495436Y-123947260D01*
X214658383Y-124081398D01*
X214824583Y-124249032D01*
X214968736Y-124423830D01*
X215065545Y-124579462D01*
X215083750Y-124625134D01*
X215075790Y-124763520D01*
X214982391Y-124940773D01*
X214808255Y-125148887D01*
X214731143Y-125225588D01*
X214604352Y-125327491D01*
X214454448Y-125421474D01*
X214312717Y-125490645D01*
X214210444Y-125518110D01*
X214193200Y-125516045D01*
X214130317Y-125523317D01*
X214004325Y-125551713D01*
X213849171Y-125592320D01*
X213698805Y-125636221D01*
X213587174Y-125674502D01*
X213582455Y-125676424D01*
X213497604Y-125670328D01*
X213468197Y-125627273D01*
X213416791Y-125571364D01*
X213309841Y-125572301D01*
X213283841Y-125577590D01*
X213165794Y-125587009D01*
X213131400Y-125553238D01*
X213100461Y-125519270D01*
X213080210Y-125527040D01*
X213008904Y-125521645D01*
X212933085Y-125458882D01*
X212889324Y-125374306D01*
X212889192Y-125341330D01*
X212861271Y-125282783D01*
X212826600Y-125272800D01*
X212767327Y-125233960D01*
X212764933Y-125201489D01*
X212745365Y-125122234D01*
X212678819Y-125005084D01*
X212649755Y-124964736D01*
X212562351Y-124822457D01*
X212538475Y-124682585D01*
X212543750Y-124615860D01*
X212736918Y-124615860D01*
X212762521Y-124833262D01*
X212824371Y-125025593D01*
X212981923Y-125261254D01*
X213213967Y-125443574D01*
X213399495Y-125526444D01*
X213580990Y-125552267D01*
X213808812Y-125537535D01*
X214038765Y-125487833D01*
X214196250Y-125425771D01*
X214383985Y-125285045D01*
X214476352Y-125171200D01*
X214706200Y-125171200D01*
X214731600Y-125196600D01*
X214757000Y-125171200D01*
X214731600Y-125145800D01*
X214706200Y-125171200D01*
X214476352Y-125171200D01*
X214544701Y-125086959D01*
X214657721Y-124864168D01*
X214702368Y-124649328D01*
X214702189Y-124626731D01*
X214690895Y-124560409D01*
X214673625Y-124571093D01*
X214626881Y-124590646D01*
X214553926Y-124551220D01*
X214485515Y-124477963D01*
X214452403Y-124396022D01*
X214452200Y-124390036D01*
X214469366Y-124352472D01*
X214531977Y-124385921D01*
X214566500Y-124414026D01*
X214680800Y-124510800D01*
X214579768Y-124391794D01*
X214478439Y-124289963D01*
X214393952Y-124227414D01*
X214339220Y-124207192D01*
X214336346Y-124247536D01*
X214362758Y-124324015D01*
X214395506Y-124546353D01*
X214341268Y-124776296D01*
X214208032Y-124985363D01*
X214164858Y-125029579D01*
X213971343Y-125157835D01*
X213772608Y-125198879D01*
X213581067Y-125165556D01*
X213409134Y-125070712D01*
X213269223Y-124927192D01*
X213173748Y-124747842D01*
X213135123Y-124545509D01*
X213165763Y-124333036D01*
X213165782Y-124333000D01*
X213664800Y-124333000D01*
X213680354Y-124372984D01*
X213738001Y-124383800D01*
X213822164Y-124363073D01*
X213842600Y-124333000D01*
X213801671Y-124287436D01*
X213769398Y-124282200D01*
X213682908Y-124313160D01*
X213664800Y-124333000D01*
X213165782Y-124333000D01*
X213278081Y-124123271D01*
X213282952Y-124117015D01*
X213381035Y-123992323D01*
X213243517Y-124018667D01*
X213165501Y-124043309D01*
X213168896Y-124066029D01*
X213169816Y-124066345D01*
X213210464Y-124109007D01*
X213178729Y-124158382D01*
X213100003Y-124180600D01*
X213051123Y-124153107D01*
X213060050Y-124121950D01*
X213066107Y-124087244D01*
X213036820Y-124100061D01*
X212998914Y-124159426D01*
X213004994Y-124181561D01*
X212987226Y-124235122D01*
X212916922Y-124287968D01*
X212838708Y-124324543D01*
X212833006Y-124305405D01*
X212852000Y-124275422D01*
X212862974Y-124249583D01*
X212819913Y-124290707D01*
X212755983Y-124424106D01*
X212736918Y-124615860D01*
X212543750Y-124615860D01*
X212545855Y-124589237D01*
X212552166Y-124444206D01*
X212521897Y-124384802D01*
X212508633Y-124382184D01*
X212489159Y-124358372D01*
X212534499Y-124313084D01*
X212606502Y-124240469D01*
X212624774Y-124200399D01*
X212657618Y-124140313D01*
X212740245Y-124035560D01*
X212807506Y-123960064D01*
X212956452Y-123826483D01*
X213067710Y-123786915D01*
X213082250Y-123789350D01*
X213172343Y-123778123D01*
X213202893Y-123742746D01*
X213266338Y-123670535D01*
X213362212Y-123611548D01*
X213466507Y-123577356D01*
X213525651Y-123603914D01*
X213540660Y-123624688D01*
X213577855Y-123667211D01*
X213587764Y-123614140D01*
X213587822Y-123609100D01*
X213602376Y-123542570D01*
X213654372Y-123528262D01*
X213758717Y-123568672D01*
X213758717Y-123568672D01*
G37*
X213758717Y-123568672D02*
X213930320Y-123666300D01*
X213930736Y-123666552D01*
X214107846Y-123763436D01*
X214285815Y-123845106D01*
X214361040Y-123872946D01*
X214495436Y-123947260D01*
X214658383Y-124081398D01*
X214824583Y-124249032D01*
X214968736Y-124423830D01*
X215065545Y-124579462D01*
X215083750Y-124625134D01*
X215075790Y-124763520D01*
X214982391Y-124940773D01*
X214808255Y-125148887D01*
X214731143Y-125225588D01*
X214604352Y-125327491D01*
X214454448Y-125421474D01*
X214312717Y-125490645D01*
X214210444Y-125518110D01*
X214193200Y-125516045D01*
X214130317Y-125523317D01*
X214004325Y-125551713D01*
X213849171Y-125592320D01*
X213698805Y-125636221D01*
X213587174Y-125674502D01*
X213582455Y-125676424D01*
X213497604Y-125670328D01*
X213468197Y-125627273D01*
X213416791Y-125571364D01*
X213309841Y-125572301D01*
X213283841Y-125577590D01*
X213165794Y-125587009D01*
X213131400Y-125553238D01*
X213100461Y-125519270D01*
X213080210Y-125527040D01*
X213008904Y-125521645D01*
X212933085Y-125458882D01*
X212889324Y-125374306D01*
X212889192Y-125341330D01*
X212861271Y-125282783D01*
X212826600Y-125272800D01*
X212767327Y-125233960D01*
X212764933Y-125201489D01*
X212745365Y-125122234D01*
X212678819Y-125005084D01*
X212649755Y-124964736D01*
X212562351Y-124822457D01*
X212538475Y-124682585D01*
X212543750Y-124615860D01*
X212736918Y-124615860D01*
X212762521Y-124833262D01*
X212824371Y-125025593D01*
X212981923Y-125261254D01*
X213213967Y-125443574D01*
X213399495Y-125526444D01*
X213580990Y-125552267D01*
X213808812Y-125537535D01*
X214038765Y-125487833D01*
X214196250Y-125425771D01*
X214383985Y-125285045D01*
X214476352Y-125171200D01*
X214706200Y-125171200D01*
X214731600Y-125196600D01*
X214757000Y-125171200D01*
X214731600Y-125145800D01*
X214706200Y-125171200D01*
X214476352Y-125171200D01*
X214544701Y-125086959D01*
X214657721Y-124864168D01*
X214702368Y-124649328D01*
X214702189Y-124626731D01*
X214690895Y-124560409D01*
X214673625Y-124571093D01*
X214626881Y-124590646D01*
X214553926Y-124551220D01*
X214485515Y-124477963D01*
X214452403Y-124396022D01*
X214452200Y-124390036D01*
X214469366Y-124352472D01*
X214531977Y-124385921D01*
X214566500Y-124414026D01*
X214680800Y-124510800D01*
X214579768Y-124391794D01*
X214478439Y-124289963D01*
X214393952Y-124227414D01*
X214339220Y-124207192D01*
X214336346Y-124247536D01*
X214362758Y-124324015D01*
X214395506Y-124546353D01*
X214341268Y-124776296D01*
X214208032Y-124985363D01*
X214164858Y-125029579D01*
X213971343Y-125157835D01*
X213772608Y-125198879D01*
X213581067Y-125165556D01*
X213409134Y-125070712D01*
X213269223Y-124927192D01*
X213173748Y-124747842D01*
X213135123Y-124545509D01*
X213165763Y-124333036D01*
X213165782Y-124333000D01*
X213664800Y-124333000D01*
X213680354Y-124372984D01*
X213738001Y-124383800D01*
X213822164Y-124363073D01*
X213842600Y-124333000D01*
X213801671Y-124287436D01*
X213769398Y-124282200D01*
X213682908Y-124313160D01*
X213664800Y-124333000D01*
X213165782Y-124333000D01*
X213278081Y-124123271D01*
X213282952Y-124117015D01*
X213381035Y-123992323D01*
X213243517Y-124018667D01*
X213165501Y-124043309D01*
X213168896Y-124066029D01*
X213169816Y-124066345D01*
X213210464Y-124109007D01*
X213178729Y-124158382D01*
X213100003Y-124180600D01*
X213051123Y-124153107D01*
X213060050Y-124121950D01*
X213066107Y-124087244D01*
X213036820Y-124100061D01*
X212998914Y-124159426D01*
X213004994Y-124181561D01*
X212987226Y-124235122D01*
X212916922Y-124287968D01*
X212838708Y-124324543D01*
X212833006Y-124305405D01*
X212852000Y-124275422D01*
X212862974Y-124249583D01*
X212819913Y-124290707D01*
X212755983Y-124424106D01*
X212736918Y-124615860D01*
X212543750Y-124615860D01*
X212545855Y-124589237D01*
X212552166Y-124444206D01*
X212521897Y-124384802D01*
X212508633Y-124382184D01*
X212489159Y-124358372D01*
X212534499Y-124313084D01*
X212606502Y-124240469D01*
X212624774Y-124200399D01*
X212657618Y-124140313D01*
X212740245Y-124035560D01*
X212807506Y-123960064D01*
X212956452Y-123826483D01*
X213067710Y-123786915D01*
X213082250Y-123789350D01*
X213172343Y-123778123D01*
X213202893Y-123742746D01*
X213266338Y-123670535D01*
X213362212Y-123611548D01*
X213466507Y-123577356D01*
X213525651Y-123603914D01*
X213540660Y-123624688D01*
X213577855Y-123667211D01*
X213587764Y-123614140D01*
X213587822Y-123609100D01*
X213602376Y-123542570D01*
X213654372Y-123528262D01*
X213758717Y-123568672D01*
G36*
X217437201Y-123543182D02*
X217453410Y-123609100D01*
X217466420Y-123657239D01*
X217483043Y-123634500D01*
X217549668Y-123575737D01*
X217663915Y-123603416D01*
X217768061Y-123672600D01*
X217882763Y-123744316D01*
X217977336Y-123774199D01*
X217977428Y-123774200D01*
X218052298Y-123809543D01*
X218161589Y-123897112D01*
X218276986Y-124009215D01*
X218370175Y-124118161D01*
X218412841Y-124196259D01*
X218413225Y-124200399D01*
X218450482Y-124264167D01*
X218503500Y-124313084D01*
X218551192Y-124365257D01*
X218535641Y-124382184D01*
X218500561Y-124429948D01*
X218494219Y-124559391D01*
X218496413Y-124590581D01*
X218484559Y-124787832D01*
X218410230Y-124937645D01*
X218333822Y-125063251D01*
X218292631Y-125172725D01*
X218292215Y-125175363D01*
X218249034Y-125256950D01*
X218206557Y-125275109D01*
X218150347Y-125312374D01*
X218148807Y-125341330D01*
X218124015Y-125440653D01*
X218021652Y-125521628D01*
X217865708Y-125568641D01*
X217790555Y-125574494D01*
X217652059Y-125591036D01*
X217570986Y-125629137D01*
X217563688Y-125641100D01*
X217544843Y-125682468D01*
X217508078Y-125694085D01*
X217427401Y-125674240D01*
X217280233Y-125622457D01*
X217107950Y-125570049D01*
X216942535Y-125534367D01*
X216924633Y-125531861D01*
X216618947Y-125442656D01*
X216340458Y-125256314D01*
X216303229Y-125222000D01*
X216256561Y-125171200D01*
X216281000Y-125171200D01*
X216306400Y-125196600D01*
X216331800Y-125171200D01*
X216306400Y-125145800D01*
X216281000Y-125171200D01*
X216256561Y-125171200D01*
X216099423Y-125000152D01*
X215980017Y-124806642D01*
X215948654Y-124647740D01*
X215953472Y-124619836D01*
X215972712Y-124581752D01*
X216359210Y-124581752D01*
X216359250Y-124757861D01*
X216452163Y-125013535D01*
X216618546Y-125247685D01*
X216749565Y-125365951D01*
X216884129Y-125437227D01*
X217066082Y-125498688D01*
X217261128Y-125542753D01*
X217434970Y-125561842D01*
X217553312Y-125548374D01*
X217560360Y-125545158D01*
X217677302Y-125506827D01*
X217726814Y-125501400D01*
X217826746Y-125462915D01*
X217955850Y-125364019D01*
X218088024Y-125229551D01*
X218197166Y-125084348D01*
X218232921Y-125019799D01*
X218284955Y-124842215D01*
X218298733Y-124636673D01*
X218276485Y-124439383D01*
X218220445Y-124286560D01*
X218184984Y-124242116D01*
X218120044Y-124184609D01*
X218123754Y-124199028D01*
X218163382Y-124252416D01*
X218208987Y-124318933D01*
X218184312Y-124320195D01*
X218121077Y-124287968D01*
X218044427Y-124227456D01*
X218033005Y-124181561D01*
X218023529Y-124119591D01*
X218001179Y-124100061D01*
X217965551Y-124093220D01*
X217977949Y-124121950D01*
X217973562Y-124172650D01*
X217937996Y-124180600D01*
X217856528Y-124156456D01*
X217827658Y-124106646D01*
X217868183Y-124066345D01*
X217874037Y-124043616D01*
X217799552Y-124019637D01*
X217667104Y-123994261D01*
X217786852Y-124170719D01*
X217885450Y-124393696D01*
X217898123Y-124622303D01*
X217834938Y-124836698D01*
X217705961Y-125017034D01*
X217521261Y-125143466D01*
X217290904Y-125196151D01*
X217266442Y-125196600D01*
X217110501Y-125182519D01*
X216989533Y-125125846D01*
X216870256Y-125020469D01*
X216733420Y-124832046D01*
X216657084Y-124617089D01*
X216648968Y-124407528D01*
X216672555Y-124333000D01*
X217195400Y-124333000D01*
X217238075Y-124373875D01*
X217299998Y-124383800D01*
X217370240Y-124364244D01*
X217373200Y-124333000D01*
X217299698Y-124286257D01*
X217268601Y-124282200D01*
X217202945Y-124310603D01*
X217195400Y-124333000D01*
X216672555Y-124333000D01*
X216690419Y-124276557D01*
X216730231Y-124195560D01*
X216711136Y-124188695D01*
X216633514Y-124237716D01*
X216447518Y-124401013D01*
X216359210Y-124581752D01*
X215972712Y-124581752D01*
X216014610Y-124498819D01*
X216134037Y-124343832D01*
X216288210Y-124178344D01*
X216453589Y-124025827D01*
X216606631Y-123909750D01*
X216721587Y-123854048D01*
X216856856Y-123806181D01*
X217025545Y-123722859D01*
X217115485Y-123669766D01*
X217283340Y-123569625D01*
X217385529Y-123528337D01*
X217437201Y-123543182D01*
X217437201Y-123543182D01*
G37*
X217437201Y-123543182D02*
X217453410Y-123609100D01*
X217466420Y-123657239D01*
X217483043Y-123634500D01*
X217549668Y-123575737D01*
X217663915Y-123603416D01*
X217768061Y-123672600D01*
X217882763Y-123744316D01*
X217977336Y-123774199D01*
X217977428Y-123774200D01*
X218052298Y-123809543D01*
X218161589Y-123897112D01*
X218276986Y-124009215D01*
X218370175Y-124118161D01*
X218412841Y-124196259D01*
X218413225Y-124200399D01*
X218450482Y-124264167D01*
X218503500Y-124313084D01*
X218551192Y-124365257D01*
X218535641Y-124382184D01*
X218500561Y-124429948D01*
X218494219Y-124559391D01*
X218496413Y-124590581D01*
X218484559Y-124787832D01*
X218410230Y-124937645D01*
X218333822Y-125063251D01*
X218292631Y-125172725D01*
X218292215Y-125175363D01*
X218249034Y-125256950D01*
X218206557Y-125275109D01*
X218150347Y-125312374D01*
X218148807Y-125341330D01*
X218124015Y-125440653D01*
X218021652Y-125521628D01*
X217865708Y-125568641D01*
X217790555Y-125574494D01*
X217652059Y-125591036D01*
X217570986Y-125629137D01*
X217563688Y-125641100D01*
X217544843Y-125682468D01*
X217508078Y-125694085D01*
X217427401Y-125674240D01*
X217280233Y-125622457D01*
X217107950Y-125570049D01*
X216942535Y-125534367D01*
X216924633Y-125531861D01*
X216618947Y-125442656D01*
X216340458Y-125256314D01*
X216303229Y-125222000D01*
X216256561Y-125171200D01*
X216281000Y-125171200D01*
X216306400Y-125196600D01*
X216331800Y-125171200D01*
X216306400Y-125145800D01*
X216281000Y-125171200D01*
X216256561Y-125171200D01*
X216099423Y-125000152D01*
X215980017Y-124806642D01*
X215948654Y-124647740D01*
X215953472Y-124619836D01*
X215972712Y-124581752D01*
X216359210Y-124581752D01*
X216359250Y-124757861D01*
X216452163Y-125013535D01*
X216618546Y-125247685D01*
X216749565Y-125365951D01*
X216884129Y-125437227D01*
X217066082Y-125498688D01*
X217261128Y-125542753D01*
X217434970Y-125561842D01*
X217553312Y-125548374D01*
X217560360Y-125545158D01*
X217677302Y-125506827D01*
X217726814Y-125501400D01*
X217826746Y-125462915D01*
X217955850Y-125364019D01*
X218088024Y-125229551D01*
X218197166Y-125084348D01*
X218232921Y-125019799D01*
X218284955Y-124842215D01*
X218298733Y-124636673D01*
X218276485Y-124439383D01*
X218220445Y-124286560D01*
X218184984Y-124242116D01*
X218120044Y-124184609D01*
X218123754Y-124199028D01*
X218163382Y-124252416D01*
X218208987Y-124318933D01*
X218184312Y-124320195D01*
X218121077Y-124287968D01*
X218044427Y-124227456D01*
X218033005Y-124181561D01*
X218023529Y-124119591D01*
X218001179Y-124100061D01*
X217965551Y-124093220D01*
X217977949Y-124121950D01*
X217973562Y-124172650D01*
X217937996Y-124180600D01*
X217856528Y-124156456D01*
X217827658Y-124106646D01*
X217868183Y-124066345D01*
X217874037Y-124043616D01*
X217799552Y-124019637D01*
X217667104Y-123994261D01*
X217786852Y-124170719D01*
X217885450Y-124393696D01*
X217898123Y-124622303D01*
X217834938Y-124836698D01*
X217705961Y-125017034D01*
X217521261Y-125143466D01*
X217290904Y-125196151D01*
X217266442Y-125196600D01*
X217110501Y-125182519D01*
X216989533Y-125125846D01*
X216870256Y-125020469D01*
X216733420Y-124832046D01*
X216657084Y-124617089D01*
X216648968Y-124407528D01*
X216672555Y-124333000D01*
X217195400Y-124333000D01*
X217238075Y-124373875D01*
X217299998Y-124383800D01*
X217370240Y-124364244D01*
X217373200Y-124333000D01*
X217299698Y-124286257D01*
X217268601Y-124282200D01*
X217202945Y-124310603D01*
X217195400Y-124333000D01*
X216672555Y-124333000D01*
X216690419Y-124276557D01*
X216730231Y-124195560D01*
X216711136Y-124188695D01*
X216633514Y-124237716D01*
X216447518Y-124401013D01*
X216359210Y-124581752D01*
X215972712Y-124581752D01*
X216014610Y-124498819D01*
X216134037Y-124343832D01*
X216288210Y-124178344D01*
X216453589Y-124025827D01*
X216606631Y-123909750D01*
X216721587Y-123854048D01*
X216856856Y-123806181D01*
X217025545Y-123722859D01*
X217115485Y-123669766D01*
X217283340Y-123569625D01*
X217385529Y-123528337D01*
X217437201Y-123543182D01*
G36*
X214147400Y-125628400D02*
X214122000Y-125653800D01*
X214096600Y-125628400D01*
X214122000Y-125603000D01*
X214147400Y-125628400D01*
X214147400Y-125628400D01*
G37*
X214147400Y-125628400D02*
X214122000Y-125653800D01*
X214096600Y-125628400D01*
X214122000Y-125603000D01*
X214147400Y-125628400D01*
G36*
X216941400Y-125628400D02*
X216916000Y-125653800D01*
X216890600Y-125628400D01*
X216916000Y-125603000D01*
X216941400Y-125628400D01*
X216941400Y-125628400D01*
G37*
X216941400Y-125628400D02*
X216916000Y-125653800D01*
X216890600Y-125628400D01*
X216916000Y-125603000D01*
X216941400Y-125628400D01*
G36*
X212979000Y-125171200D02*
X212953600Y-125196600D01*
X212928200Y-125171200D01*
X212953600Y-125145800D01*
X212979000Y-125171200D01*
X212979000Y-125171200D01*
G37*
X212979000Y-125171200D02*
X212953600Y-125196600D01*
X212928200Y-125171200D01*
X212953600Y-125145800D01*
X212979000Y-125171200D01*
G36*
X212826600Y-124409200D02*
X212801200Y-124434600D01*
X212775800Y-124409200D01*
X212801200Y-124383800D01*
X212826600Y-124409200D01*
X212826600Y-124409200D01*
G37*
X212826600Y-124409200D02*
X212801200Y-124434600D01*
X212775800Y-124409200D01*
X212801200Y-124383800D01*
X212826600Y-124409200D01*
G36*
X214452200Y-124307600D02*
X214426800Y-124333000D01*
X214401400Y-124307600D01*
X214426800Y-124282200D01*
X214452200Y-124307600D01*
X214452200Y-124307600D01*
G37*
X214452200Y-124307600D02*
X214426800Y-124333000D01*
X214401400Y-124307600D01*
X214426800Y-124282200D01*
X214452200Y-124307600D01*
G36*
X218109800Y-125171200D02*
X218084400Y-125196600D01*
X218059000Y-125171200D01*
X218084400Y-125145800D01*
X218109800Y-125171200D01*
X218109800Y-125171200D01*
G37*
X218109800Y-125171200D02*
X218084400Y-125196600D01*
X218059000Y-125171200D01*
X218084400Y-125145800D01*
X218109800Y-125171200D01*
G36*
X216603294Y-124358400D02*
X216558191Y-124446003D01*
X216491448Y-124532841D01*
X216426401Y-124594232D01*
X216386388Y-124605494D01*
X216382600Y-124591811D01*
X216413777Y-124524219D01*
X216490692Y-124421338D01*
X216509828Y-124399332D01*
X216588157Y-124318382D01*
X216613482Y-124314364D01*
X216603294Y-124358400D01*
X216603294Y-124358400D01*
G37*
X216603294Y-124358400D02*
X216558191Y-124446003D01*
X216491448Y-124532841D01*
X216426401Y-124594232D01*
X216386388Y-124605494D01*
X216382600Y-124591811D01*
X216413777Y-124524219D01*
X216490692Y-124421338D01*
X216509828Y-124399332D01*
X216588157Y-124318382D01*
X216613482Y-124314364D01*
X216603294Y-124358400D01*
G36*
X218262200Y-124409200D02*
X218236800Y-124434600D01*
X218211400Y-124409200D01*
X218236800Y-124383800D01*
X218262200Y-124409200D01*
X218262200Y-124409200D01*
G37*
X218262200Y-124409200D02*
X218236800Y-124434600D01*
X218211400Y-124409200D01*
X218236800Y-124383800D01*
X218262200Y-124409200D01*
D13*
X190063524Y-116181143D02*
X190015905Y-116228762D01*
X189873048Y-116276381D01*
X189777810Y-116276381D01*
X189634952Y-116228762D01*
X189539714Y-116133524D01*
X189492095Y-116038286D01*
X189444476Y-115847810D01*
X189444476Y-115704952D01*
X189492095Y-115514476D01*
X189539714Y-115419238D01*
X189634952Y-115324000D01*
X189777810Y-115276381D01*
X189873048Y-115276381D01*
X190015905Y-115324000D01*
X190063524Y-115371619D01*
X190492095Y-116276381D02*
X190492095Y-115276381D01*
X190492095Y-115752571D02*
X191063524Y-115752571D01*
X191063524Y-116276381D02*
X191063524Y-115276381D01*
X191492095Y-115371619D02*
X191539714Y-115324000D01*
X191634952Y-115276381D01*
X191873048Y-115276381D01*
X191968286Y-115324000D01*
X192015905Y-115371619D01*
X192063524Y-115466857D01*
X192063524Y-115562095D01*
X192015905Y-115704952D01*
X191444476Y-116276381D01*
X192063524Y-116276381D01*
X195429143Y-115355666D02*
X195476762Y-115403285D01*
X195524381Y-115546142D01*
X195524381Y-115641380D01*
X195476762Y-115784238D01*
X195381524Y-115879476D01*
X195286286Y-115927095D01*
X195095810Y-115974714D01*
X194952952Y-115974714D01*
X194762476Y-115927095D01*
X194667238Y-115879476D01*
X194572000Y-115784238D01*
X194524381Y-115641380D01*
X194524381Y-115546142D01*
X194572000Y-115403285D01*
X194619619Y-115355666D01*
X194524381Y-115022333D02*
X194524381Y-114403285D01*
X194905333Y-114736619D01*
X194905333Y-114593761D01*
X194952952Y-114498523D01*
X195000571Y-114450904D01*
X195095810Y-114403285D01*
X195333905Y-114403285D01*
X195429143Y-114450904D01*
X195476762Y-114498523D01*
X195524381Y-114593761D01*
X195524381Y-114879476D01*
X195476762Y-114974714D01*
X195429143Y-115022333D01*
X204430334Y-104751143D02*
X204382715Y-104798762D01*
X204239858Y-104846381D01*
X204144620Y-104846381D01*
X204001762Y-104798762D01*
X203906524Y-104703524D01*
X203858905Y-104608286D01*
X203811286Y-104417810D01*
X203811286Y-104274952D01*
X203858905Y-104084476D01*
X203906524Y-103989238D01*
X204001762Y-103894000D01*
X204144620Y-103846381D01*
X204239858Y-103846381D01*
X204382715Y-103894000D01*
X204430334Y-103941619D01*
X205287477Y-104179714D02*
X205287477Y-104846381D01*
X205049381Y-103798762D02*
X204811286Y-104513048D01*
X205430334Y-104513048D01*
X208875334Y-121007143D02*
X208827715Y-121054762D01*
X208684858Y-121102381D01*
X208589620Y-121102381D01*
X208446762Y-121054762D01*
X208351524Y-120959524D01*
X208303905Y-120864286D01*
X208256286Y-120673810D01*
X208256286Y-120530952D01*
X208303905Y-120340476D01*
X208351524Y-120245238D01*
X208446762Y-120150000D01*
X208589620Y-120102381D01*
X208684858Y-120102381D01*
X208827715Y-120150000D01*
X208875334Y-120197619D01*
X209732477Y-120102381D02*
X209542000Y-120102381D01*
X209446762Y-120150000D01*
X209399143Y-120197619D01*
X209303905Y-120340476D01*
X209256286Y-120530952D01*
X209256286Y-120911905D01*
X209303905Y-121007143D01*
X209351524Y-121054762D01*
X209446762Y-121102381D01*
X209637239Y-121102381D01*
X209732477Y-121054762D01*
X209780096Y-121007143D01*
X209827715Y-120911905D01*
X209827715Y-120673810D01*
X209780096Y-120578571D01*
X209732477Y-120530952D01*
X209637239Y-120483333D01*
X209446762Y-120483333D01*
X209351524Y-120530952D01*
X209303905Y-120578571D01*
X209256286Y-120673810D01*
X212828143Y-116117666D02*
X212875762Y-116165285D01*
X212923381Y-116308142D01*
X212923381Y-116403380D01*
X212875762Y-116546238D01*
X212780524Y-116641476D01*
X212685286Y-116689095D01*
X212494810Y-116736714D01*
X212351952Y-116736714D01*
X212161476Y-116689095D01*
X212066238Y-116641476D01*
X211971000Y-116546238D01*
X211923381Y-116403380D01*
X211923381Y-116308142D01*
X211971000Y-116165285D01*
X212018619Y-116117666D01*
X211923381Y-115784333D02*
X211923381Y-115117666D01*
X212923381Y-115546238D01*
X190063524Y-104901143D02*
X190015905Y-104948762D01*
X189873048Y-104996381D01*
X189777810Y-104996381D01*
X189634952Y-104948762D01*
X189539714Y-104853524D01*
X189492095Y-104758286D01*
X189444476Y-104567810D01*
X189444476Y-104424952D01*
X189492095Y-104234476D01*
X189539714Y-104139238D01*
X189634952Y-104044000D01*
X189777810Y-103996381D01*
X189873048Y-103996381D01*
X190015905Y-104044000D01*
X190063524Y-104091619D01*
X190492095Y-104996381D02*
X190492095Y-103996381D01*
X190492095Y-104472571D02*
X191063524Y-104472571D01*
X191063524Y-104996381D02*
X191063524Y-103996381D01*
X192063524Y-104996381D02*
X191492095Y-104996381D01*
X191777809Y-104996381D02*
X191777809Y-103996381D01*
X191682571Y-104139238D01*
X191587333Y-104234476D01*
X191492095Y-104282095D01*
X216709524Y-105023143D02*
X216661905Y-105070762D01*
X216519048Y-105118381D01*
X216423810Y-105118381D01*
X216280952Y-105070762D01*
X216185714Y-104975524D01*
X216138095Y-104880286D01*
X216090476Y-104689810D01*
X216090476Y-104546952D01*
X216138095Y-104356476D01*
X216185714Y-104261238D01*
X216280952Y-104166000D01*
X216423810Y-104118381D01*
X216519048Y-104118381D01*
X216661905Y-104166000D01*
X216709524Y-104213619D01*
X217138095Y-105118381D02*
X217138095Y-104118381D01*
X217138095Y-104594571D02*
X217709524Y-104594571D01*
X217709524Y-105118381D02*
X217709524Y-104118381D01*
X218090476Y-104118381D02*
X218709524Y-104118381D01*
X218376190Y-104499333D01*
X218519048Y-104499333D01*
X218614286Y-104546952D01*
X218661905Y-104594571D01*
X218709524Y-104689810D01*
X218709524Y-104927905D01*
X218661905Y-105023143D01*
X218614286Y-105070762D01*
X218519048Y-105118381D01*
X218233333Y-105118381D01*
X218138095Y-105070762D01*
X218090476Y-105023143D01*
X211526381Y-125091666D02*
X211050190Y-125425000D01*
X211526381Y-125663095D02*
X210526381Y-125663095D01*
X210526381Y-125282142D01*
X210574000Y-125186904D01*
X210621619Y-125139285D01*
X210716857Y-125091666D01*
X210859714Y-125091666D01*
X210954952Y-125139285D01*
X211002571Y-125186904D01*
X211050190Y-125282142D01*
X211050190Y-125663095D01*
X210526381Y-124758333D02*
X210526381Y-124139285D01*
X210907333Y-124472619D01*
X210907333Y-124329761D01*
X210954952Y-124234523D01*
X211002571Y-124186904D01*
X211097810Y-124139285D01*
X211335905Y-124139285D01*
X211431143Y-124186904D01*
X211478762Y-124234523D01*
X211526381Y-124329761D01*
X211526381Y-124615476D01*
X211478762Y-124710714D01*
X211431143Y-124758333D01*
X209550095Y-105878381D02*
X209550095Y-106687905D01*
X209597714Y-106783143D01*
X209645333Y-106830762D01*
X209740571Y-106878381D01*
X209931048Y-106878381D01*
X210026286Y-106830762D01*
X210073905Y-106783143D01*
X210121524Y-106687905D01*
X210121524Y-105878381D01*
X211073905Y-105878381D02*
X210597714Y-105878381D01*
X210550095Y-106354571D01*
X210597714Y-106306952D01*
X210692952Y-106259333D01*
X210931048Y-106259333D01*
X211026286Y-106306952D01*
X211073905Y-106354571D01*
X211121524Y-106449810D01*
X211121524Y-106687905D01*
X211073905Y-106783143D01*
X211026286Y-106830762D01*
X210931048Y-106878381D01*
X210692952Y-106878381D01*
X210597714Y-106830762D01*
X210550095Y-106783143D01*
X203454095Y-95972381D02*
X203454095Y-96781905D01*
X203501714Y-96877143D01*
X203549333Y-96924762D01*
X203644571Y-96972381D01*
X203835048Y-96972381D01*
X203930286Y-96924762D01*
X203977905Y-96877143D01*
X204025524Y-96781905D01*
X204025524Y-95972381D01*
X204406476Y-95972381D02*
X205025524Y-95972381D01*
X204692190Y-96353333D01*
X204835048Y-96353333D01*
X204930286Y-96400952D01*
X204977905Y-96448571D01*
X205025524Y-96543810D01*
X205025524Y-96781905D01*
X204977905Y-96877143D01*
X204930286Y-96924762D01*
X204835048Y-96972381D01*
X204549333Y-96972381D01*
X204454095Y-96924762D01*
X204406476Y-96877143D01*
X203454095Y-102322381D02*
X203454095Y-103131905D01*
X203501714Y-103227143D01*
X203549333Y-103274762D01*
X203644571Y-103322381D01*
X203835048Y-103322381D01*
X203930286Y-103274762D01*
X203977905Y-103227143D01*
X204025524Y-103131905D01*
X204025524Y-102322381D01*
X204930286Y-102655714D02*
X204930286Y-103322381D01*
X204692190Y-102274762D02*
X204454095Y-102989048D01*
X205073143Y-102989048D01*
X216734524Y-116054143D02*
X216686905Y-116101762D01*
X216544048Y-116149381D01*
X216448810Y-116149381D01*
X216305952Y-116101762D01*
X216210714Y-116006524D01*
X216163095Y-115911286D01*
X216115476Y-115720810D01*
X216115476Y-115577952D01*
X216163095Y-115387476D01*
X216210714Y-115292238D01*
X216305952Y-115197000D01*
X216448810Y-115149381D01*
X216544048Y-115149381D01*
X216686905Y-115197000D01*
X216734524Y-115244619D01*
X217163095Y-116149381D02*
X217163095Y-115149381D01*
X217163095Y-115625571D02*
X217734524Y-115625571D01*
X217734524Y-116149381D02*
X217734524Y-115149381D01*
X218639286Y-115482714D02*
X218639286Y-116149381D01*
X218401190Y-115101762D02*
X218163095Y-115816048D01*
X218782143Y-115816048D01*
D10*
X195202334Y-113219667D02*
X195202334Y-112519667D01*
X195469000Y-112519667D01*
X195535667Y-112553000D01*
X195569000Y-112586333D01*
X195602334Y-112653000D01*
X195602334Y-112753000D01*
X195569000Y-112819667D01*
X195535667Y-112853000D01*
X195469000Y-112886333D01*
X195202334Y-112886333D01*
X196002334Y-113219667D02*
X195935667Y-113186333D01*
X195902334Y-113153000D01*
X195869000Y-113086333D01*
X195869000Y-112886333D01*
X195902334Y-112819667D01*
X195935667Y-112786333D01*
X196002334Y-112753000D01*
X196102334Y-112753000D01*
X196169000Y-112786333D01*
X196202334Y-112819667D01*
X196235667Y-112886333D01*
X196235667Y-113086333D01*
X196202334Y-113153000D01*
X196169000Y-113186333D01*
X196102334Y-113219667D01*
X196002334Y-113219667D01*
X196535667Y-113219667D02*
X196535667Y-112753000D01*
X196535667Y-112886333D02*
X196569000Y-112819667D01*
X196602333Y-112786333D01*
X196669000Y-112753000D01*
X196735667Y-112753000D01*
X196869000Y-112753000D02*
X197135666Y-112753000D01*
X196969000Y-112519667D02*
X196969000Y-113119667D01*
X197002333Y-113186333D01*
X197069000Y-113219667D01*
X197135666Y-113219667D01*
X197769000Y-113153000D02*
X197735666Y-113186333D01*
X197635666Y-113219667D01*
X197569000Y-113219667D01*
X197469000Y-113186333D01*
X197402333Y-113119667D01*
X197369000Y-113053000D01*
X197335666Y-112919667D01*
X197335666Y-112819667D01*
X197369000Y-112686333D01*
X197402333Y-112619667D01*
X197469000Y-112553000D01*
X197569000Y-112519667D01*
X197635666Y-112519667D01*
X197735666Y-112553000D01*
X197769000Y-112586333D01*
M02*
