G04 #@! TF.FileFunction,Copper,L1,Top,Signal*
%FSLAX46Y46*%
G04 Gerber Fmt 4.6, Leading zero omitted, Abs format (unit mm)*
G04 Created by KiCad (PCBNEW 4.0.2+dfsg1-stable) date Sat 12 Nov 2016 15:30:03 AEDT*
%MOMM*%
G01*
G04 APERTURE LIST*
%ADD10C,0.100000*%
%ADD11C,0.600000*%
%ADD12R,2.032000X1.727200*%
%ADD13O,2.032000X1.727200*%
%ADD14R,2.032000X2.032000*%
%ADD15O,2.032000X2.032000*%
%ADD16R,0.750000X1.200000*%
%ADD17R,1.200000X0.750000*%
%ADD18R,0.900000X1.200000*%
%ADD19R,0.550000X1.500000*%
%ADD20R,1.500000X0.550000*%
%ADD21R,0.700000X0.300000*%
%ADD22C,3.000000*%
%ADD23R,1.900000X1.900000*%
%ADD24R,1.800000X1.900000*%
%ADD25R,0.400000X1.350000*%
%ADD26R,2.100000X1.600000*%
%ADD27C,1.000000*%
%ADD28C,0.203200*%
%ADD29C,0.304800*%
%ADD30C,0.254000*%
G04 APERTURE END LIST*
D10*
D11*
X198600000Y-104500000D03*
X200950000Y-108550000D03*
X206350000Y-99010000D03*
X210390000Y-101190000D03*
X206660000Y-102190000D03*
X208800000Y-112960000D03*
X205010000Y-102370000D03*
X205270000Y-116690000D03*
X205298000Y-120650000D03*
X197000000Y-106800000D03*
X210250000Y-98230000D03*
X191200000Y-105750000D03*
X209800000Y-103700000D03*
X201200000Y-97150000D03*
X197450000Y-98250000D03*
X197100000Y-125700000D03*
X202350000Y-121200000D03*
X217650000Y-118000000D03*
X201200000Y-101600000D03*
X213750000Y-106700000D03*
X212150000Y-125320000D03*
X193950000Y-115650000D03*
X204650000Y-110050000D03*
D12*
X190750000Y-108450000D03*
D13*
X190750000Y-110990000D03*
X190750000Y-113530000D03*
D14*
X190754000Y-122682000D03*
D15*
X190754000Y-125222000D03*
D16*
X196596000Y-114239000D03*
X196596000Y-116139000D03*
D17*
X202626000Y-104394000D03*
X200726000Y-104394000D03*
X205298000Y-120650000D03*
X207198000Y-120650000D03*
D16*
X212471000Y-113853000D03*
X212471000Y-111953000D03*
D12*
X190600000Y-97300000D03*
D13*
X190600000Y-99840000D03*
X190600000Y-102380000D03*
D12*
X217400000Y-97300000D03*
D13*
X217400000Y-99840000D03*
X217400000Y-102380000D03*
D18*
X211074000Y-122893000D03*
X211074000Y-120693000D03*
D19*
X208597000Y-106822000D03*
X207797000Y-106822000D03*
X206997000Y-106822000D03*
X206197000Y-106822000D03*
X205397000Y-106822000D03*
X204597000Y-106822000D03*
X203797000Y-106822000D03*
X202997000Y-106822000D03*
X202197000Y-106822000D03*
X201397000Y-106822000D03*
X200597000Y-106822000D03*
D20*
X198897000Y-108522000D03*
X198897000Y-109322000D03*
X198897000Y-110122000D03*
X198897000Y-110922000D03*
X198897000Y-111722000D03*
X198897000Y-112522000D03*
X198897000Y-113322000D03*
X198897000Y-114122000D03*
X198897000Y-114922000D03*
X198897000Y-115722000D03*
X198897000Y-116522000D03*
D19*
X200597000Y-118222000D03*
X201397000Y-118222000D03*
X202197000Y-118222000D03*
X202997000Y-118222000D03*
X203797000Y-118222000D03*
X204597000Y-118222000D03*
X205397000Y-118222000D03*
X206197000Y-118222000D03*
X206997000Y-118222000D03*
X207797000Y-118222000D03*
X208597000Y-118222000D03*
D20*
X210297000Y-116522000D03*
X210297000Y-115722000D03*
X210297000Y-114922000D03*
X210297000Y-114122000D03*
X210297000Y-113322000D03*
X210297000Y-112522000D03*
X210297000Y-111722000D03*
X210297000Y-110922000D03*
X210297000Y-110122000D03*
X210297000Y-109322000D03*
X210297000Y-108522000D03*
D21*
X203416000Y-98298000D03*
X205016000Y-98298000D03*
X205016000Y-97648000D03*
X203416000Y-97648000D03*
X205016000Y-98948000D03*
X203416000Y-98948000D03*
X203416000Y-100838000D03*
X205016000Y-100838000D03*
X205016000Y-100188000D03*
X203416000Y-100188000D03*
X205016000Y-101488000D03*
X203416000Y-101488000D03*
D11*
X207700000Y-110300000D03*
D12*
X217400000Y-108450000D03*
D13*
X217400000Y-110990000D03*
X217400000Y-113530000D03*
D22*
X195565000Y-104000000D03*
X212435000Y-104000000D03*
D23*
X202800000Y-125550000D03*
X205200000Y-125550000D03*
D24*
X200200000Y-125550000D03*
X207800000Y-125550000D03*
D25*
X205300000Y-122875000D03*
X202700000Y-122875000D03*
X204650000Y-122875000D03*
X203350000Y-122875000D03*
X204000000Y-122875000D03*
D26*
X207100000Y-123000000D03*
X200900000Y-123000000D03*
D27*
X195834000Y-111760000D03*
X195834000Y-110490000D03*
X195834000Y-109220000D03*
X195834000Y-107950000D03*
X195834000Y-106680000D03*
X197104000Y-111760000D03*
X197104000Y-110490000D03*
X197104000Y-109220000D03*
X197104000Y-107950000D03*
X197104000Y-106680000D03*
D11*
X202197000Y-112776000D03*
X195834000Y-111760000D03*
X213487000Y-116332000D03*
X213360000Y-114935000D03*
X194564000Y-106172000D03*
X198882000Y-107696000D03*
X193252696Y-107214294D03*
X200350000Y-109850000D03*
X200450000Y-111950000D03*
X194835816Y-112539816D03*
X201588024Y-115616638D03*
X204724000Y-115473190D03*
X197231000Y-117475000D03*
X206248000Y-113157000D03*
X207755165Y-113140165D03*
X197231000Y-96647000D03*
X209931000Y-96393000D03*
X193802000Y-106680000D03*
X213080000Y-101400000D03*
X200850000Y-117000000D03*
X214400000Y-120250000D03*
X200850000Y-116100000D03*
X212600000Y-120250000D03*
X209677000Y-119380000D03*
X201168000Y-114762629D03*
D28*
X203416000Y-100188000D02*
X202612000Y-100188000D01*
X202612000Y-100188000D02*
X201200000Y-101600000D01*
D29*
X211590000Y-113560200D02*
X211590000Y-113860000D01*
X211784200Y-113860000D02*
X211590000Y-113860000D01*
X211590000Y-113860000D02*
X211590000Y-115030000D01*
X212471000Y-113853000D02*
X211791200Y-113853000D01*
X211791200Y-113853000D02*
X211784200Y-113860000D01*
X210297000Y-113322000D02*
X211351800Y-113322000D01*
X211351800Y-113322000D02*
X211590000Y-113560200D01*
D28*
X211074000Y-122893000D02*
X213143908Y-122893000D01*
X213143908Y-122893000D02*
X214954001Y-121082907D01*
X214954001Y-121082907D02*
X214954001Y-113608001D01*
X214954001Y-113608001D02*
X213299000Y-111953000D01*
X213299000Y-111953000D02*
X212471000Y-111953000D01*
D29*
X208690200Y-111970000D02*
X208070000Y-111970000D01*
X208070000Y-111970000D02*
X206997000Y-113043000D01*
X210297000Y-112522000D02*
X209242200Y-112522000D01*
X209242200Y-112522000D02*
X208690200Y-111970000D01*
X206997000Y-116078000D02*
X206997000Y-113043000D01*
D30*
X197485000Y-115951000D02*
X197297000Y-116139000D01*
X197297000Y-116139000D02*
X196596000Y-116139000D01*
X197485000Y-114530000D02*
X197485000Y-115951000D01*
X198897000Y-114122000D02*
X197893000Y-114122000D01*
X197893000Y-114122000D02*
X197485000Y-114530000D01*
D29*
X202197000Y-111252000D02*
X202197000Y-112776000D01*
X202197000Y-112776000D02*
X202197000Y-113423000D01*
X202197000Y-108204000D02*
X202197000Y-111252000D01*
X202197000Y-106822000D02*
X202197000Y-108204000D01*
X212435000Y-104000000D02*
X212435000Y-104810358D01*
X212435000Y-104810358D02*
X209041358Y-108204000D01*
X209041358Y-108204000D02*
X202197000Y-108204000D01*
X202197000Y-113423000D02*
X201498000Y-114122000D01*
X203454000Y-116078000D02*
X201498000Y-114122000D01*
X201498000Y-114122000D02*
X198897000Y-114122000D01*
X206997000Y-116078000D02*
X206997000Y-117167200D01*
X206997000Y-116078000D02*
X203454000Y-116078000D01*
X206997000Y-117167200D02*
X206997000Y-118222000D01*
D30*
X202197000Y-106822000D02*
X202197000Y-105640000D01*
X200951000Y-104394000D02*
X200726000Y-104394000D01*
X202197000Y-105640000D02*
X200951000Y-104394000D01*
X212471000Y-111953000D02*
X212471000Y-112141000D01*
X212471000Y-112141000D02*
X212090000Y-112522000D01*
X210297000Y-112522000D02*
X212090000Y-112522000D01*
X206997000Y-118222000D02*
X206997000Y-120449000D01*
X206997000Y-120449000D02*
X207198000Y-120650000D01*
D28*
X210297000Y-116522000D02*
X213297000Y-116522000D01*
X213297000Y-116522000D02*
X213487000Y-116332000D01*
X213360000Y-114935000D02*
X212573000Y-115722000D01*
X212573000Y-115722000D02*
X210297000Y-115722000D01*
X201397000Y-106822000D02*
X201397000Y-105868800D01*
X201397000Y-105868800D02*
X201192200Y-105664000D01*
X201192200Y-105664000D02*
X196850000Y-105664000D01*
X196850000Y-105664000D02*
X196333999Y-106180001D01*
X196333999Y-106180001D02*
X195834000Y-106680000D01*
X200597000Y-106822000D02*
X198232000Y-106822000D01*
X198232000Y-106822000D02*
X197104000Y-107950000D01*
X194564000Y-106172000D02*
X194564000Y-106680000D01*
X194564000Y-106680000D02*
X195834000Y-107950000D01*
X198897000Y-108522000D02*
X198897000Y-107711000D01*
X198897000Y-107711000D02*
X198882000Y-107696000D01*
X198897000Y-109322000D02*
X197206000Y-109322000D01*
X197206000Y-109322000D02*
X197104000Y-109220000D01*
X198897000Y-110122000D02*
X200078000Y-110122000D01*
X200078000Y-110122000D02*
X200350000Y-109850000D01*
X195834000Y-109220000D02*
X195126894Y-109220000D01*
X195126894Y-109220000D02*
X193252696Y-107345802D01*
X193252696Y-107345802D02*
X193252696Y-107214294D01*
X198897000Y-110922000D02*
X197536000Y-110922000D01*
X197536000Y-110922000D02*
X197104000Y-110490000D01*
X198897000Y-111722000D02*
X200222000Y-111722000D01*
X200222000Y-111722000D02*
X200450000Y-111950000D01*
X194835816Y-112539816D02*
X194835816Y-111488184D01*
X194835816Y-111488184D02*
X195834000Y-110490000D01*
X198897000Y-112522000D02*
X197866000Y-112522000D01*
X197866000Y-112522000D02*
X197104000Y-111760000D01*
X197231000Y-117475000D02*
X199426202Y-117475000D01*
X199426202Y-117475000D02*
X199901001Y-117000201D01*
X199901001Y-117000201D02*
X199901001Y-115947999D01*
X199901001Y-115947999D02*
X200532361Y-115316639D01*
X200532361Y-115316639D02*
X201288025Y-115316639D01*
X201288025Y-115316639D02*
X201588024Y-115616638D01*
X204851000Y-114554000D02*
X204724000Y-114681000D01*
X204724000Y-114681000D02*
X204724000Y-115473190D01*
X205486000Y-113919000D02*
X204851000Y-114554000D01*
X206248000Y-113157000D02*
X205486000Y-113919000D01*
X208597000Y-118222000D02*
X208597000Y-113982000D01*
X208597000Y-113982000D02*
X207755165Y-113140165D01*
X203416000Y-98948000D02*
X199532000Y-98948000D01*
X199532000Y-98948000D02*
X197231000Y-96647000D01*
X205016000Y-97648000D02*
X208676000Y-97648000D01*
X208676000Y-97648000D02*
X209931000Y-96393000D01*
X203416000Y-101488000D02*
X203969200Y-101488000D01*
X203969200Y-101488000D02*
X204020001Y-101437199D01*
X204020001Y-101437199D02*
X204020001Y-99753001D01*
X204020001Y-99753001D02*
X203962000Y-99695000D01*
X203962000Y-99695000D02*
X197231000Y-99695000D01*
X197231000Y-99695000D02*
X193802000Y-103124000D01*
X193802000Y-103124000D02*
X193802000Y-106680000D01*
X193802000Y-106426000D02*
X193802000Y-106680000D01*
X205016000Y-100188000D02*
X211868000Y-100188000D01*
X211868000Y-100188000D02*
X213080000Y-101400000D01*
X204597000Y-118222000D02*
X204572000Y-118222000D01*
X204572000Y-118222000D02*
X204326001Y-117976001D01*
X204326001Y-117976001D02*
X204326001Y-117268799D01*
X204326001Y-117268799D02*
X204257202Y-117200000D01*
X204257202Y-117200000D02*
X201050000Y-117200000D01*
X201050000Y-117200000D02*
X200850000Y-117000000D01*
X205161797Y-121945999D02*
X212704001Y-121945999D01*
X212704001Y-121945999D02*
X214400000Y-120250000D01*
X204443999Y-121228201D02*
X205161797Y-121945999D01*
X204443999Y-119328201D02*
X204443999Y-121228201D01*
X204597000Y-118222000D02*
X204597000Y-119175200D01*
X204597000Y-119175200D02*
X204443999Y-119328201D01*
X205075201Y-117217999D02*
X204778109Y-117217999D01*
X204778109Y-117217999D02*
X204404500Y-116844390D01*
X204404500Y-116844390D02*
X201594390Y-116844390D01*
X201594390Y-116844390D02*
X200850000Y-116100000D01*
X205126001Y-117500000D02*
X205126001Y-117268799D01*
X205126001Y-117268799D02*
X205075201Y-117217999D01*
X205126001Y-117650000D02*
X205126001Y-117500000D01*
X205126001Y-117826001D02*
X205126001Y-117650000D01*
X205397000Y-118222000D02*
X205397000Y-118097000D01*
X205397000Y-118097000D02*
X205126001Y-117826001D01*
X205397000Y-118222000D02*
X205397000Y-119175200D01*
X206343999Y-121507999D02*
X206383001Y-121547001D01*
X206383001Y-121547001D02*
X212402999Y-121547001D01*
X205397000Y-119175200D02*
X206343999Y-120122199D01*
X206343999Y-120122199D02*
X206343999Y-121507999D01*
X212402999Y-121547001D02*
X212600000Y-121350000D01*
X212600000Y-121350000D02*
X212600000Y-120250000D01*
X211074000Y-120693000D02*
X209931000Y-120693000D01*
X209931000Y-120693000D02*
X209085000Y-120693000D01*
X209677000Y-119380000D02*
X209976999Y-119679999D01*
X209976999Y-119679999D02*
X209976999Y-120647001D01*
X209976999Y-120647001D02*
X209931000Y-120693000D01*
X209085000Y-120693000D02*
X207797000Y-119405000D01*
X207797000Y-119405000D02*
X207797000Y-118222000D01*
X204470000Y-105410000D02*
X204597000Y-105537000D01*
X203416000Y-98298000D02*
X203969200Y-98298000D01*
X203969200Y-98298000D02*
X204375611Y-98704411D01*
X204375611Y-98704411D02*
X204375611Y-105315611D01*
X204375611Y-105315611D02*
X204470000Y-105410000D01*
X204597000Y-105537000D02*
X204597000Y-106822000D01*
X205016000Y-98298000D02*
X208128000Y-98298000D01*
X208128000Y-98298000D02*
X209662390Y-99832390D01*
X209624001Y-102245999D02*
X206197000Y-105673000D01*
X206197000Y-105673000D02*
X206197000Y-105868800D01*
X209662390Y-99832390D02*
X212332312Y-99832390D01*
X212332312Y-99832390D02*
X213634001Y-101134079D01*
X213634001Y-101134079D02*
X213634001Y-101665921D01*
X213634001Y-101665921D02*
X213053923Y-102245999D01*
X213053923Y-102245999D02*
X209624001Y-102245999D01*
X206197000Y-105868800D02*
X206197000Y-106822000D01*
X203416000Y-100838000D02*
X202552000Y-100838000D01*
X202552000Y-100838000D02*
X202300000Y-101090000D01*
X202300000Y-101090000D02*
X202300000Y-102224000D01*
X203797000Y-105868800D02*
X203797000Y-106822000D01*
X202300000Y-102224000D02*
X203797000Y-103721000D01*
X203797000Y-103721000D02*
X203797000Y-105868800D01*
X205016000Y-100838000D02*
X205740000Y-100838000D01*
X205740000Y-100838000D02*
X205994000Y-101092000D01*
X205994000Y-101092000D02*
X205994000Y-105271800D01*
X205994000Y-105271800D02*
X205397000Y-105868800D01*
X205397000Y-105868800D02*
X205397000Y-106822000D01*
X198897000Y-114922000D02*
X201008629Y-114922000D01*
X201008629Y-114922000D02*
X201168000Y-114762629D01*
X202997000Y-118222000D02*
X202997000Y-119175200D01*
X203350000Y-121996800D02*
X203350000Y-122875000D01*
X202997000Y-119175200D02*
X203350000Y-119528200D01*
X203350000Y-119528200D02*
X203350000Y-121996800D01*
X203797000Y-118222000D02*
X203797000Y-119175200D01*
X203797000Y-119175200D02*
X204000000Y-119378200D01*
X204000000Y-119378200D02*
X204000000Y-121996800D01*
X204000000Y-121996800D02*
X204000000Y-122875000D01*
G36*
X196654013Y-96260741D02*
X196550118Y-96510946D01*
X196549882Y-96781865D01*
X196653339Y-97032252D01*
X196844741Y-97223987D01*
X197094946Y-97327882D01*
X197229499Y-97327999D01*
X199113901Y-99212400D01*
X197231000Y-99212400D01*
X197046317Y-99249136D01*
X196889750Y-99353750D01*
X193460750Y-102782750D01*
X193356136Y-102939317D01*
X193319400Y-103124000D01*
X193319400Y-106199518D01*
X193225013Y-106293741D01*
X193125587Y-106533183D01*
X193117831Y-106533176D01*
X192867444Y-106636633D01*
X192675709Y-106828035D01*
X192571814Y-107078240D01*
X192571578Y-107349159D01*
X192675035Y-107599546D01*
X192866437Y-107791281D01*
X193116642Y-107895176D01*
X193119573Y-107895179D01*
X194785644Y-109561250D01*
X194942211Y-109665864D01*
X195075978Y-109692472D01*
X195086689Y-109718395D01*
X195223077Y-109855021D01*
X195087560Y-109990302D01*
X194953153Y-110313989D01*
X194952847Y-110664473D01*
X194959917Y-110681584D01*
X194494566Y-111146934D01*
X194389952Y-111303501D01*
X194353216Y-111488184D01*
X194353216Y-112059334D01*
X194258829Y-112153557D01*
X194154934Y-112403762D01*
X194154698Y-112674681D01*
X194258155Y-112925068D01*
X194449557Y-113116803D01*
X194699762Y-113220698D01*
X194970681Y-113220934D01*
X195221068Y-113117477D01*
X195412803Y-112926075D01*
X195516698Y-112675870D01*
X195516780Y-112582212D01*
X195657989Y-112640847D01*
X196008473Y-112641153D01*
X196332395Y-112507311D01*
X196469021Y-112370923D01*
X196604302Y-112506440D01*
X196927989Y-112640847D01*
X197278473Y-112641153D01*
X197295583Y-112634083D01*
X197524750Y-112863250D01*
X197554932Y-112883417D01*
X197537400Y-112925743D01*
X197537400Y-113032100D01*
X197689800Y-113184500D01*
X198142240Y-113184500D01*
X198147000Y-113185464D01*
X199647000Y-113185464D01*
X199652123Y-113184500D01*
X200104200Y-113184500D01*
X200256600Y-113032100D01*
X200256600Y-112925743D01*
X200163794Y-112701689D01*
X200035464Y-112573359D01*
X200035464Y-112498661D01*
X200063741Y-112526987D01*
X200313946Y-112630882D01*
X200584865Y-112631118D01*
X200835252Y-112527661D01*
X201026987Y-112336259D01*
X201130882Y-112086054D01*
X201131118Y-111815135D01*
X201027661Y-111564748D01*
X200836259Y-111373013D01*
X200586054Y-111269118D01*
X200370457Y-111268930D01*
X200222000Y-111239400D01*
X200026878Y-111239400D01*
X200035464Y-111197000D01*
X200035464Y-110647000D01*
X200027486Y-110604600D01*
X200078000Y-110604600D01*
X200262683Y-110567864D01*
X200317895Y-110530973D01*
X200484865Y-110531118D01*
X200735252Y-110427661D01*
X200926987Y-110236259D01*
X201030882Y-109986054D01*
X201031118Y-109715135D01*
X200927661Y-109464748D01*
X200736259Y-109273013D01*
X200486054Y-109169118D01*
X200215135Y-109168882D01*
X200035464Y-109243120D01*
X200035464Y-109047000D01*
X200011080Y-108917412D01*
X200035464Y-108797000D01*
X200035464Y-108247000D01*
X200008897Y-108105810D01*
X199925454Y-107976135D01*
X199798134Y-107889141D01*
X199647000Y-107858536D01*
X199551886Y-107858536D01*
X199562882Y-107832054D01*
X199563118Y-107561135D01*
X199459661Y-107310748D01*
X199453524Y-107304600D01*
X199933536Y-107304600D01*
X199933536Y-107572000D01*
X199960103Y-107713190D01*
X200043546Y-107842865D01*
X200170866Y-107929859D01*
X200322000Y-107960464D01*
X200872000Y-107960464D01*
X201001588Y-107936080D01*
X201122000Y-107960464D01*
X201663600Y-107960464D01*
X201663600Y-112346230D01*
X201620013Y-112389741D01*
X201516118Y-112639946D01*
X201515882Y-112910865D01*
X201619339Y-113161252D01*
X201661836Y-113203822D01*
X201277058Y-113588600D01*
X200233300Y-113588600D01*
X200104200Y-113459500D01*
X199651760Y-113459500D01*
X199647000Y-113458536D01*
X198147000Y-113458536D01*
X198141877Y-113459500D01*
X197689800Y-113459500D01*
X197580600Y-113568700D01*
X197580600Y-113517743D01*
X197487794Y-113293689D01*
X197316311Y-113122206D01*
X197092257Y-113029400D01*
X196900800Y-113029400D01*
X196748400Y-113181800D01*
X196748400Y-114086600D01*
X196768400Y-114086600D01*
X196768400Y-114391400D01*
X196748400Y-114391400D01*
X196748400Y-114411400D01*
X196443600Y-114411400D01*
X196443600Y-114391400D01*
X195763800Y-114391400D01*
X195611400Y-114543800D01*
X195611400Y-114960257D01*
X195704206Y-115184311D01*
X195875689Y-115355794D01*
X195882989Y-115358818D01*
X195863141Y-115387866D01*
X195832536Y-115539000D01*
X195832536Y-116739000D01*
X195859103Y-116880190D01*
X195942546Y-117009865D01*
X196069866Y-117096859D01*
X196221000Y-117127464D01*
X196637934Y-117127464D01*
X196550118Y-117338946D01*
X196549882Y-117609865D01*
X196653339Y-117860252D01*
X196844741Y-118051987D01*
X197094946Y-118155882D01*
X197365865Y-118156118D01*
X197616252Y-118052661D01*
X197711478Y-117957600D01*
X199426202Y-117957600D01*
X199610885Y-117920864D01*
X199767452Y-117816250D01*
X199933536Y-117650166D01*
X199933536Y-118972000D01*
X199960103Y-119113190D01*
X200043546Y-119242865D01*
X200170866Y-119329859D01*
X200322000Y-119360464D01*
X200872000Y-119360464D01*
X201001588Y-119336080D01*
X201122000Y-119360464D01*
X201672000Y-119360464D01*
X201801588Y-119336080D01*
X201922000Y-119360464D01*
X202472000Y-119360464D01*
X202548392Y-119346090D01*
X202551136Y-119359883D01*
X202655750Y-119516450D01*
X202867400Y-119728099D01*
X202867400Y-121811536D01*
X202500000Y-121811536D01*
X202435734Y-121823629D01*
X202295311Y-121683206D01*
X202071257Y-121590400D01*
X201204800Y-121590400D01*
X201052400Y-121742800D01*
X201052400Y-122847600D01*
X201072400Y-122847600D01*
X201072400Y-123152400D01*
X201052400Y-123152400D01*
X201052400Y-123172400D01*
X200747600Y-123172400D01*
X200747600Y-123152400D01*
X199392800Y-123152400D01*
X199240400Y-123304800D01*
X199240400Y-123921257D01*
X199269040Y-123990400D01*
X199178743Y-123990400D01*
X198954689Y-124083206D01*
X198783206Y-124254689D01*
X198690400Y-124478743D01*
X198690400Y-125245200D01*
X198842800Y-125397600D01*
X200047600Y-125397600D01*
X200047600Y-125377600D01*
X200352400Y-125377600D01*
X200352400Y-125397600D01*
X202647600Y-125397600D01*
X202647600Y-124142800D01*
X202520486Y-124015686D01*
X202552473Y-123938464D01*
X202900000Y-123938464D01*
X203029588Y-123914080D01*
X203150000Y-123938464D01*
X203550000Y-123938464D01*
X203679588Y-123914080D01*
X203800000Y-123938464D01*
X204200000Y-123938464D01*
X204329588Y-123914080D01*
X204450000Y-123938464D01*
X204626359Y-123938464D01*
X204678295Y-123990400D01*
X204128743Y-123990400D01*
X204000000Y-124043727D01*
X203871257Y-123990400D01*
X203104800Y-123990400D01*
X202952400Y-124142800D01*
X202952400Y-125397600D01*
X205047600Y-125397600D01*
X205047600Y-124159600D01*
X205064400Y-124142800D01*
X205352400Y-124142800D01*
X205352400Y-125397600D01*
X207647600Y-125397600D01*
X207647600Y-125377600D01*
X207952400Y-125377600D01*
X207952400Y-125397600D01*
X209157200Y-125397600D01*
X209309600Y-125245200D01*
X209309600Y-124478743D01*
X209216794Y-124254689D01*
X209045311Y-124083206D01*
X208821257Y-123990400D01*
X208730960Y-123990400D01*
X208759600Y-123921257D01*
X208759600Y-123304800D01*
X208607200Y-123152400D01*
X207252400Y-123152400D01*
X207252400Y-123172400D01*
X206947600Y-123172400D01*
X206947600Y-123152400D01*
X206082200Y-123152400D01*
X205957200Y-123027400D01*
X205400000Y-123027400D01*
X205400000Y-124007200D01*
X205444000Y-124051200D01*
X205352400Y-124142800D01*
X205064400Y-124142800D01*
X205200000Y-124007200D01*
X205200000Y-123712636D01*
X205207859Y-123701134D01*
X205238464Y-123550000D01*
X205238464Y-122702600D01*
X205400000Y-122702600D01*
X205400000Y-122722600D01*
X205467800Y-122722600D01*
X205592800Y-122847600D01*
X206947600Y-122847600D01*
X206947600Y-122827600D01*
X207252400Y-122827600D01*
X207252400Y-122847600D01*
X208607200Y-122847600D01*
X208759600Y-122695200D01*
X208759600Y-122428599D01*
X210235536Y-122428599D01*
X210235536Y-123493000D01*
X210262103Y-123634190D01*
X210345546Y-123763865D01*
X210472866Y-123850859D01*
X210624000Y-123881464D01*
X211524000Y-123881464D01*
X211665190Y-123854897D01*
X211794865Y-123771454D01*
X211881859Y-123644134D01*
X211912464Y-123493000D01*
X211912464Y-123375600D01*
X213143908Y-123375600D01*
X213328591Y-123338864D01*
X213485158Y-123234250D01*
X215295251Y-121424157D01*
X215399865Y-121267590D01*
X215436601Y-121082907D01*
X215436601Y-113909746D01*
X215824185Y-113909746D01*
X216055757Y-114395925D01*
X216477856Y-114786109D01*
X217017141Y-114985062D01*
X217247600Y-114850800D01*
X217247600Y-113682400D01*
X215935622Y-113682400D01*
X215824185Y-113909746D01*
X215436601Y-113909746D01*
X215436601Y-113608001D01*
X215399865Y-113423318D01*
X215295251Y-113266751D01*
X213640250Y-111611750D01*
X213483683Y-111507136D01*
X213299000Y-111470400D01*
X213234464Y-111470400D01*
X213234464Y-111353000D01*
X213207897Y-111211810D01*
X213124454Y-111082135D01*
X212997134Y-110995141D01*
X212846000Y-110964536D01*
X212096000Y-110964536D01*
X211954810Y-110991103D01*
X211825135Y-111074546D01*
X211738141Y-111201866D01*
X211707536Y-111353000D01*
X211707536Y-112014000D01*
X211432021Y-112014000D01*
X211435464Y-111997000D01*
X211435464Y-111447000D01*
X211411080Y-111317412D01*
X211435464Y-111197000D01*
X211435464Y-110647000D01*
X211411080Y-110517412D01*
X211435464Y-110397000D01*
X211435464Y-109847000D01*
X211411080Y-109717412D01*
X211435464Y-109597000D01*
X211435464Y-109047000D01*
X211411080Y-108917412D01*
X211435464Y-108797000D01*
X211435464Y-108247000D01*
X211408897Y-108105810D01*
X211325454Y-107976135D01*
X211198134Y-107889141D01*
X211047000Y-107858536D01*
X210141164Y-107858536D01*
X212118974Y-105880725D01*
X212807513Y-105881326D01*
X213499109Y-105595564D01*
X214028704Y-105066892D01*
X214315673Y-104375796D01*
X214316326Y-103627487D01*
X214030564Y-102935891D01*
X213854727Y-102759746D01*
X215824185Y-102759746D01*
X216055757Y-103245925D01*
X216477856Y-103636109D01*
X217017141Y-103835062D01*
X217247600Y-103700800D01*
X217247600Y-102532400D01*
X215935622Y-102532400D01*
X215824185Y-102759746D01*
X213854727Y-102759746D01*
X213538977Y-102443445D01*
X213975251Y-102007171D01*
X214079865Y-101850604D01*
X214116601Y-101665921D01*
X214116601Y-101134079D01*
X214079865Y-100949396D01*
X213975251Y-100792829D01*
X212673562Y-99491140D01*
X212516995Y-99386526D01*
X212332312Y-99349790D01*
X209862290Y-99349790D01*
X208643100Y-98130600D01*
X208676000Y-98130600D01*
X208860683Y-98093864D01*
X209017250Y-97989250D01*
X209932498Y-97074002D01*
X210065865Y-97074118D01*
X210316252Y-96970661D01*
X210507987Y-96779259D01*
X210611882Y-96529054D01*
X210612118Y-96258135D01*
X210569917Y-96156000D01*
X216116159Y-96156000D01*
X216113135Y-96157946D01*
X216026141Y-96285266D01*
X215995536Y-96436400D01*
X215995536Y-98163600D01*
X216022103Y-98304790D01*
X216105546Y-98434465D01*
X216232866Y-98521459D01*
X216384000Y-98552064D01*
X218416000Y-98552064D01*
X218544000Y-98527979D01*
X218544000Y-99085898D01*
X218459834Y-98959935D01*
X218056057Y-98690140D01*
X217579769Y-98595400D01*
X217220231Y-98595400D01*
X216743943Y-98690140D01*
X216340166Y-98959935D01*
X216070371Y-99363712D01*
X215975631Y-99840000D01*
X216070371Y-100316288D01*
X216340166Y-100720065D01*
X216743943Y-100989860D01*
X216807106Y-101002424D01*
X216477856Y-101123891D01*
X216055757Y-101514075D01*
X215824185Y-102000254D01*
X215935622Y-102227600D01*
X217247600Y-102227600D01*
X217247600Y-102207600D01*
X217552400Y-102207600D01*
X217552400Y-102227600D01*
X217572400Y-102227600D01*
X217572400Y-102532400D01*
X217552400Y-102532400D01*
X217552400Y-103700800D01*
X217782859Y-103835062D01*
X218322144Y-103636109D01*
X218544000Y-103431028D01*
X218544000Y-107223856D01*
X218416000Y-107197936D01*
X216384000Y-107197936D01*
X216242810Y-107224503D01*
X216113135Y-107307946D01*
X216026141Y-107435266D01*
X215995536Y-107586400D01*
X215995536Y-109313600D01*
X216022103Y-109454790D01*
X216105546Y-109584465D01*
X216232866Y-109671459D01*
X216384000Y-109702064D01*
X218416000Y-109702064D01*
X218544000Y-109677979D01*
X218544000Y-110235898D01*
X218459834Y-110109935D01*
X218056057Y-109840140D01*
X217579769Y-109745400D01*
X217220231Y-109745400D01*
X216743943Y-109840140D01*
X216340166Y-110109935D01*
X216070371Y-110513712D01*
X215975631Y-110990000D01*
X216070371Y-111466288D01*
X216340166Y-111870065D01*
X216743943Y-112139860D01*
X216807106Y-112152424D01*
X216477856Y-112273891D01*
X216055757Y-112664075D01*
X215824185Y-113150254D01*
X215935622Y-113377600D01*
X217247600Y-113377600D01*
X217247600Y-113357600D01*
X217552400Y-113357600D01*
X217552400Y-113377600D01*
X217572400Y-113377600D01*
X217572400Y-113682400D01*
X217552400Y-113682400D01*
X217552400Y-114850800D01*
X217782859Y-114985062D01*
X218322144Y-114786109D01*
X218544000Y-114581028D01*
X218544000Y-126544000D01*
X209309600Y-126544000D01*
X209309600Y-125854800D01*
X209157200Y-125702400D01*
X207952400Y-125702400D01*
X207952400Y-125722400D01*
X207647600Y-125722400D01*
X207647600Y-125702400D01*
X205352400Y-125702400D01*
X205352400Y-125722400D01*
X205047600Y-125722400D01*
X205047600Y-125702400D01*
X202952400Y-125702400D01*
X202952400Y-125722400D01*
X202647600Y-125722400D01*
X202647600Y-125702400D01*
X200352400Y-125702400D01*
X200352400Y-125722400D01*
X200047600Y-125722400D01*
X200047600Y-125702400D01*
X198842800Y-125702400D01*
X198690400Y-125854800D01*
X198690400Y-126544000D01*
X191684407Y-126544000D01*
X191729581Y-126522328D01*
X192152933Y-126050008D01*
X192328674Y-125625703D01*
X192219296Y-125374400D01*
X190906400Y-125374400D01*
X190906400Y-125394400D01*
X190601600Y-125394400D01*
X190601600Y-125374400D01*
X190581600Y-125374400D01*
X190581600Y-125069600D01*
X190601600Y-125069600D01*
X190601600Y-125049600D01*
X190906400Y-125049600D01*
X190906400Y-125069600D01*
X192219296Y-125069600D01*
X192328674Y-124818297D01*
X192152933Y-124393992D01*
X191861805Y-124069190D01*
X191911190Y-124059897D01*
X192040865Y-123976454D01*
X192127859Y-123849134D01*
X192158464Y-123698000D01*
X192158464Y-122078743D01*
X199240400Y-122078743D01*
X199240400Y-122695200D01*
X199392800Y-122847600D01*
X200747600Y-122847600D01*
X200747600Y-121742800D01*
X200595200Y-121590400D01*
X199728743Y-121590400D01*
X199504689Y-121683206D01*
X199333206Y-121854689D01*
X199240400Y-122078743D01*
X192158464Y-122078743D01*
X192158464Y-121666000D01*
X192131897Y-121524810D01*
X192048454Y-121395135D01*
X191921134Y-121308141D01*
X191770000Y-121277536D01*
X189738000Y-121277536D01*
X189596810Y-121304103D01*
X189467135Y-121387546D01*
X189456000Y-121403843D01*
X189456000Y-114442369D01*
X189827856Y-114786109D01*
X190367141Y-114985062D01*
X190597600Y-114850800D01*
X190597600Y-113682400D01*
X190902400Y-113682400D01*
X190902400Y-114850800D01*
X191132859Y-114985062D01*
X191672144Y-114786109D01*
X192094243Y-114395925D01*
X192325815Y-113909746D01*
X192214378Y-113682400D01*
X190902400Y-113682400D01*
X190597600Y-113682400D01*
X190577600Y-113682400D01*
X190577600Y-113517743D01*
X195611400Y-113517743D01*
X195611400Y-113934200D01*
X195763800Y-114086600D01*
X196443600Y-114086600D01*
X196443600Y-113181800D01*
X196291200Y-113029400D01*
X196099743Y-113029400D01*
X195875689Y-113122206D01*
X195704206Y-113293689D01*
X195611400Y-113517743D01*
X190577600Y-113517743D01*
X190577600Y-113377600D01*
X190597600Y-113377600D01*
X190597600Y-113357600D01*
X190902400Y-113357600D01*
X190902400Y-113377600D01*
X192214378Y-113377600D01*
X192325815Y-113150254D01*
X192094243Y-112664075D01*
X191672144Y-112273891D01*
X191342894Y-112152424D01*
X191406057Y-112139860D01*
X191809834Y-111870065D01*
X192079629Y-111466288D01*
X192174369Y-110990000D01*
X192079629Y-110513712D01*
X191809834Y-110109935D01*
X191406057Y-109840140D01*
X190929769Y-109745400D01*
X190570231Y-109745400D01*
X190093943Y-109840140D01*
X189690166Y-110109935D01*
X189456000Y-110460389D01*
X189456000Y-109584775D01*
X189582866Y-109671459D01*
X189734000Y-109702064D01*
X191766000Y-109702064D01*
X191907190Y-109675497D01*
X192036865Y-109592054D01*
X192123859Y-109464734D01*
X192154464Y-109313600D01*
X192154464Y-107586400D01*
X192127897Y-107445210D01*
X192044454Y-107315535D01*
X191917134Y-107228541D01*
X191766000Y-107197936D01*
X189734000Y-107197936D01*
X189592810Y-107224503D01*
X189463135Y-107307946D01*
X189456000Y-107318388D01*
X189456000Y-103431028D01*
X189677856Y-103636109D01*
X190217141Y-103835062D01*
X190447600Y-103700800D01*
X190447600Y-102532400D01*
X190752400Y-102532400D01*
X190752400Y-103700800D01*
X190982859Y-103835062D01*
X191522144Y-103636109D01*
X191944243Y-103245925D01*
X192175815Y-102759746D01*
X192064378Y-102532400D01*
X190752400Y-102532400D01*
X190447600Y-102532400D01*
X190427600Y-102532400D01*
X190427600Y-102227600D01*
X190447600Y-102227600D01*
X190447600Y-102207600D01*
X190752400Y-102207600D01*
X190752400Y-102227600D01*
X192064378Y-102227600D01*
X192175815Y-102000254D01*
X191944243Y-101514075D01*
X191522144Y-101123891D01*
X191192894Y-101002424D01*
X191256057Y-100989860D01*
X191659834Y-100720065D01*
X191929629Y-100316288D01*
X192024369Y-99840000D01*
X191929629Y-99363712D01*
X191659834Y-98959935D01*
X191256057Y-98690140D01*
X190779769Y-98595400D01*
X190420231Y-98595400D01*
X189943943Y-98690140D01*
X189540166Y-98959935D01*
X189456000Y-99085898D01*
X189456000Y-98526144D01*
X189584000Y-98552064D01*
X191616000Y-98552064D01*
X191757190Y-98525497D01*
X191886865Y-98442054D01*
X191973859Y-98314734D01*
X192004464Y-98163600D01*
X192004464Y-96436400D01*
X191977897Y-96295210D01*
X191894454Y-96165535D01*
X191880499Y-96156000D01*
X196758936Y-96156000D01*
X196654013Y-96260741D01*
X196654013Y-96260741D01*
G37*
X196654013Y-96260741D02*
X196550118Y-96510946D01*
X196549882Y-96781865D01*
X196653339Y-97032252D01*
X196844741Y-97223987D01*
X197094946Y-97327882D01*
X197229499Y-97327999D01*
X199113901Y-99212400D01*
X197231000Y-99212400D01*
X197046317Y-99249136D01*
X196889750Y-99353750D01*
X193460750Y-102782750D01*
X193356136Y-102939317D01*
X193319400Y-103124000D01*
X193319400Y-106199518D01*
X193225013Y-106293741D01*
X193125587Y-106533183D01*
X193117831Y-106533176D01*
X192867444Y-106636633D01*
X192675709Y-106828035D01*
X192571814Y-107078240D01*
X192571578Y-107349159D01*
X192675035Y-107599546D01*
X192866437Y-107791281D01*
X193116642Y-107895176D01*
X193119573Y-107895179D01*
X194785644Y-109561250D01*
X194942211Y-109665864D01*
X195075978Y-109692472D01*
X195086689Y-109718395D01*
X195223077Y-109855021D01*
X195087560Y-109990302D01*
X194953153Y-110313989D01*
X194952847Y-110664473D01*
X194959917Y-110681584D01*
X194494566Y-111146934D01*
X194389952Y-111303501D01*
X194353216Y-111488184D01*
X194353216Y-112059334D01*
X194258829Y-112153557D01*
X194154934Y-112403762D01*
X194154698Y-112674681D01*
X194258155Y-112925068D01*
X194449557Y-113116803D01*
X194699762Y-113220698D01*
X194970681Y-113220934D01*
X195221068Y-113117477D01*
X195412803Y-112926075D01*
X195516698Y-112675870D01*
X195516780Y-112582212D01*
X195657989Y-112640847D01*
X196008473Y-112641153D01*
X196332395Y-112507311D01*
X196469021Y-112370923D01*
X196604302Y-112506440D01*
X196927989Y-112640847D01*
X197278473Y-112641153D01*
X197295583Y-112634083D01*
X197524750Y-112863250D01*
X197554932Y-112883417D01*
X197537400Y-112925743D01*
X197537400Y-113032100D01*
X197689800Y-113184500D01*
X198142240Y-113184500D01*
X198147000Y-113185464D01*
X199647000Y-113185464D01*
X199652123Y-113184500D01*
X200104200Y-113184500D01*
X200256600Y-113032100D01*
X200256600Y-112925743D01*
X200163794Y-112701689D01*
X200035464Y-112573359D01*
X200035464Y-112498661D01*
X200063741Y-112526987D01*
X200313946Y-112630882D01*
X200584865Y-112631118D01*
X200835252Y-112527661D01*
X201026987Y-112336259D01*
X201130882Y-112086054D01*
X201131118Y-111815135D01*
X201027661Y-111564748D01*
X200836259Y-111373013D01*
X200586054Y-111269118D01*
X200370457Y-111268930D01*
X200222000Y-111239400D01*
X200026878Y-111239400D01*
X200035464Y-111197000D01*
X200035464Y-110647000D01*
X200027486Y-110604600D01*
X200078000Y-110604600D01*
X200262683Y-110567864D01*
X200317895Y-110530973D01*
X200484865Y-110531118D01*
X200735252Y-110427661D01*
X200926987Y-110236259D01*
X201030882Y-109986054D01*
X201031118Y-109715135D01*
X200927661Y-109464748D01*
X200736259Y-109273013D01*
X200486054Y-109169118D01*
X200215135Y-109168882D01*
X200035464Y-109243120D01*
X200035464Y-109047000D01*
X200011080Y-108917412D01*
X200035464Y-108797000D01*
X200035464Y-108247000D01*
X200008897Y-108105810D01*
X199925454Y-107976135D01*
X199798134Y-107889141D01*
X199647000Y-107858536D01*
X199551886Y-107858536D01*
X199562882Y-107832054D01*
X199563118Y-107561135D01*
X199459661Y-107310748D01*
X199453524Y-107304600D01*
X199933536Y-107304600D01*
X199933536Y-107572000D01*
X199960103Y-107713190D01*
X200043546Y-107842865D01*
X200170866Y-107929859D01*
X200322000Y-107960464D01*
X200872000Y-107960464D01*
X201001588Y-107936080D01*
X201122000Y-107960464D01*
X201663600Y-107960464D01*
X201663600Y-112346230D01*
X201620013Y-112389741D01*
X201516118Y-112639946D01*
X201515882Y-112910865D01*
X201619339Y-113161252D01*
X201661836Y-113203822D01*
X201277058Y-113588600D01*
X200233300Y-113588600D01*
X200104200Y-113459500D01*
X199651760Y-113459500D01*
X199647000Y-113458536D01*
X198147000Y-113458536D01*
X198141877Y-113459500D01*
X197689800Y-113459500D01*
X197580600Y-113568700D01*
X197580600Y-113517743D01*
X197487794Y-113293689D01*
X197316311Y-113122206D01*
X197092257Y-113029400D01*
X196900800Y-113029400D01*
X196748400Y-113181800D01*
X196748400Y-114086600D01*
X196768400Y-114086600D01*
X196768400Y-114391400D01*
X196748400Y-114391400D01*
X196748400Y-114411400D01*
X196443600Y-114411400D01*
X196443600Y-114391400D01*
X195763800Y-114391400D01*
X195611400Y-114543800D01*
X195611400Y-114960257D01*
X195704206Y-115184311D01*
X195875689Y-115355794D01*
X195882989Y-115358818D01*
X195863141Y-115387866D01*
X195832536Y-115539000D01*
X195832536Y-116739000D01*
X195859103Y-116880190D01*
X195942546Y-117009865D01*
X196069866Y-117096859D01*
X196221000Y-117127464D01*
X196637934Y-117127464D01*
X196550118Y-117338946D01*
X196549882Y-117609865D01*
X196653339Y-117860252D01*
X196844741Y-118051987D01*
X197094946Y-118155882D01*
X197365865Y-118156118D01*
X197616252Y-118052661D01*
X197711478Y-117957600D01*
X199426202Y-117957600D01*
X199610885Y-117920864D01*
X199767452Y-117816250D01*
X199933536Y-117650166D01*
X199933536Y-118972000D01*
X199960103Y-119113190D01*
X200043546Y-119242865D01*
X200170866Y-119329859D01*
X200322000Y-119360464D01*
X200872000Y-119360464D01*
X201001588Y-119336080D01*
X201122000Y-119360464D01*
X201672000Y-119360464D01*
X201801588Y-119336080D01*
X201922000Y-119360464D01*
X202472000Y-119360464D01*
X202548392Y-119346090D01*
X202551136Y-119359883D01*
X202655750Y-119516450D01*
X202867400Y-119728099D01*
X202867400Y-121811536D01*
X202500000Y-121811536D01*
X202435734Y-121823629D01*
X202295311Y-121683206D01*
X202071257Y-121590400D01*
X201204800Y-121590400D01*
X201052400Y-121742800D01*
X201052400Y-122847600D01*
X201072400Y-122847600D01*
X201072400Y-123152400D01*
X201052400Y-123152400D01*
X201052400Y-123172400D01*
X200747600Y-123172400D01*
X200747600Y-123152400D01*
X199392800Y-123152400D01*
X199240400Y-123304800D01*
X199240400Y-123921257D01*
X199269040Y-123990400D01*
X199178743Y-123990400D01*
X198954689Y-124083206D01*
X198783206Y-124254689D01*
X198690400Y-124478743D01*
X198690400Y-125245200D01*
X198842800Y-125397600D01*
X200047600Y-125397600D01*
X200047600Y-125377600D01*
X200352400Y-125377600D01*
X200352400Y-125397600D01*
X202647600Y-125397600D01*
X202647600Y-124142800D01*
X202520486Y-124015686D01*
X202552473Y-123938464D01*
X202900000Y-123938464D01*
X203029588Y-123914080D01*
X203150000Y-123938464D01*
X203550000Y-123938464D01*
X203679588Y-123914080D01*
X203800000Y-123938464D01*
X204200000Y-123938464D01*
X204329588Y-123914080D01*
X204450000Y-123938464D01*
X204626359Y-123938464D01*
X204678295Y-123990400D01*
X204128743Y-123990400D01*
X204000000Y-124043727D01*
X203871257Y-123990400D01*
X203104800Y-123990400D01*
X202952400Y-124142800D01*
X202952400Y-125397600D01*
X205047600Y-125397600D01*
X205047600Y-124159600D01*
X205064400Y-124142800D01*
X205352400Y-124142800D01*
X205352400Y-125397600D01*
X207647600Y-125397600D01*
X207647600Y-125377600D01*
X207952400Y-125377600D01*
X207952400Y-125397600D01*
X209157200Y-125397600D01*
X209309600Y-125245200D01*
X209309600Y-124478743D01*
X209216794Y-124254689D01*
X209045311Y-124083206D01*
X208821257Y-123990400D01*
X208730960Y-123990400D01*
X208759600Y-123921257D01*
X208759600Y-123304800D01*
X208607200Y-123152400D01*
X207252400Y-123152400D01*
X207252400Y-123172400D01*
X206947600Y-123172400D01*
X206947600Y-123152400D01*
X206082200Y-123152400D01*
X205957200Y-123027400D01*
X205400000Y-123027400D01*
X205400000Y-124007200D01*
X205444000Y-124051200D01*
X205352400Y-124142800D01*
X205064400Y-124142800D01*
X205200000Y-124007200D01*
X205200000Y-123712636D01*
X205207859Y-123701134D01*
X205238464Y-123550000D01*
X205238464Y-122702600D01*
X205400000Y-122702600D01*
X205400000Y-122722600D01*
X205467800Y-122722600D01*
X205592800Y-122847600D01*
X206947600Y-122847600D01*
X206947600Y-122827600D01*
X207252400Y-122827600D01*
X207252400Y-122847600D01*
X208607200Y-122847600D01*
X208759600Y-122695200D01*
X208759600Y-122428599D01*
X210235536Y-122428599D01*
X210235536Y-123493000D01*
X210262103Y-123634190D01*
X210345546Y-123763865D01*
X210472866Y-123850859D01*
X210624000Y-123881464D01*
X211524000Y-123881464D01*
X211665190Y-123854897D01*
X211794865Y-123771454D01*
X211881859Y-123644134D01*
X211912464Y-123493000D01*
X211912464Y-123375600D01*
X213143908Y-123375600D01*
X213328591Y-123338864D01*
X213485158Y-123234250D01*
X215295251Y-121424157D01*
X215399865Y-121267590D01*
X215436601Y-121082907D01*
X215436601Y-113909746D01*
X215824185Y-113909746D01*
X216055757Y-114395925D01*
X216477856Y-114786109D01*
X217017141Y-114985062D01*
X217247600Y-114850800D01*
X217247600Y-113682400D01*
X215935622Y-113682400D01*
X215824185Y-113909746D01*
X215436601Y-113909746D01*
X215436601Y-113608001D01*
X215399865Y-113423318D01*
X215295251Y-113266751D01*
X213640250Y-111611750D01*
X213483683Y-111507136D01*
X213299000Y-111470400D01*
X213234464Y-111470400D01*
X213234464Y-111353000D01*
X213207897Y-111211810D01*
X213124454Y-111082135D01*
X212997134Y-110995141D01*
X212846000Y-110964536D01*
X212096000Y-110964536D01*
X211954810Y-110991103D01*
X211825135Y-111074546D01*
X211738141Y-111201866D01*
X211707536Y-111353000D01*
X211707536Y-112014000D01*
X211432021Y-112014000D01*
X211435464Y-111997000D01*
X211435464Y-111447000D01*
X211411080Y-111317412D01*
X211435464Y-111197000D01*
X211435464Y-110647000D01*
X211411080Y-110517412D01*
X211435464Y-110397000D01*
X211435464Y-109847000D01*
X211411080Y-109717412D01*
X211435464Y-109597000D01*
X211435464Y-109047000D01*
X211411080Y-108917412D01*
X211435464Y-108797000D01*
X211435464Y-108247000D01*
X211408897Y-108105810D01*
X211325454Y-107976135D01*
X211198134Y-107889141D01*
X211047000Y-107858536D01*
X210141164Y-107858536D01*
X212118974Y-105880725D01*
X212807513Y-105881326D01*
X213499109Y-105595564D01*
X214028704Y-105066892D01*
X214315673Y-104375796D01*
X214316326Y-103627487D01*
X214030564Y-102935891D01*
X213854727Y-102759746D01*
X215824185Y-102759746D01*
X216055757Y-103245925D01*
X216477856Y-103636109D01*
X217017141Y-103835062D01*
X217247600Y-103700800D01*
X217247600Y-102532400D01*
X215935622Y-102532400D01*
X215824185Y-102759746D01*
X213854727Y-102759746D01*
X213538977Y-102443445D01*
X213975251Y-102007171D01*
X214079865Y-101850604D01*
X214116601Y-101665921D01*
X214116601Y-101134079D01*
X214079865Y-100949396D01*
X213975251Y-100792829D01*
X212673562Y-99491140D01*
X212516995Y-99386526D01*
X212332312Y-99349790D01*
X209862290Y-99349790D01*
X208643100Y-98130600D01*
X208676000Y-98130600D01*
X208860683Y-98093864D01*
X209017250Y-97989250D01*
X209932498Y-97074002D01*
X210065865Y-97074118D01*
X210316252Y-96970661D01*
X210507987Y-96779259D01*
X210611882Y-96529054D01*
X210612118Y-96258135D01*
X210569917Y-96156000D01*
X216116159Y-96156000D01*
X216113135Y-96157946D01*
X216026141Y-96285266D01*
X215995536Y-96436400D01*
X215995536Y-98163600D01*
X216022103Y-98304790D01*
X216105546Y-98434465D01*
X216232866Y-98521459D01*
X216384000Y-98552064D01*
X218416000Y-98552064D01*
X218544000Y-98527979D01*
X218544000Y-99085898D01*
X218459834Y-98959935D01*
X218056057Y-98690140D01*
X217579769Y-98595400D01*
X217220231Y-98595400D01*
X216743943Y-98690140D01*
X216340166Y-98959935D01*
X216070371Y-99363712D01*
X215975631Y-99840000D01*
X216070371Y-100316288D01*
X216340166Y-100720065D01*
X216743943Y-100989860D01*
X216807106Y-101002424D01*
X216477856Y-101123891D01*
X216055757Y-101514075D01*
X215824185Y-102000254D01*
X215935622Y-102227600D01*
X217247600Y-102227600D01*
X217247600Y-102207600D01*
X217552400Y-102207600D01*
X217552400Y-102227600D01*
X217572400Y-102227600D01*
X217572400Y-102532400D01*
X217552400Y-102532400D01*
X217552400Y-103700800D01*
X217782859Y-103835062D01*
X218322144Y-103636109D01*
X218544000Y-103431028D01*
X218544000Y-107223856D01*
X218416000Y-107197936D01*
X216384000Y-107197936D01*
X216242810Y-107224503D01*
X216113135Y-107307946D01*
X216026141Y-107435266D01*
X215995536Y-107586400D01*
X215995536Y-109313600D01*
X216022103Y-109454790D01*
X216105546Y-109584465D01*
X216232866Y-109671459D01*
X216384000Y-109702064D01*
X218416000Y-109702064D01*
X218544000Y-109677979D01*
X218544000Y-110235898D01*
X218459834Y-110109935D01*
X218056057Y-109840140D01*
X217579769Y-109745400D01*
X217220231Y-109745400D01*
X216743943Y-109840140D01*
X216340166Y-110109935D01*
X216070371Y-110513712D01*
X215975631Y-110990000D01*
X216070371Y-111466288D01*
X216340166Y-111870065D01*
X216743943Y-112139860D01*
X216807106Y-112152424D01*
X216477856Y-112273891D01*
X216055757Y-112664075D01*
X215824185Y-113150254D01*
X215935622Y-113377600D01*
X217247600Y-113377600D01*
X217247600Y-113357600D01*
X217552400Y-113357600D01*
X217552400Y-113377600D01*
X217572400Y-113377600D01*
X217572400Y-113682400D01*
X217552400Y-113682400D01*
X217552400Y-114850800D01*
X217782859Y-114985062D01*
X218322144Y-114786109D01*
X218544000Y-114581028D01*
X218544000Y-126544000D01*
X209309600Y-126544000D01*
X209309600Y-125854800D01*
X209157200Y-125702400D01*
X207952400Y-125702400D01*
X207952400Y-125722400D01*
X207647600Y-125722400D01*
X207647600Y-125702400D01*
X205352400Y-125702400D01*
X205352400Y-125722400D01*
X205047600Y-125722400D01*
X205047600Y-125702400D01*
X202952400Y-125702400D01*
X202952400Y-125722400D01*
X202647600Y-125722400D01*
X202647600Y-125702400D01*
X200352400Y-125702400D01*
X200352400Y-125722400D01*
X200047600Y-125722400D01*
X200047600Y-125702400D01*
X198842800Y-125702400D01*
X198690400Y-125854800D01*
X198690400Y-126544000D01*
X191684407Y-126544000D01*
X191729581Y-126522328D01*
X192152933Y-126050008D01*
X192328674Y-125625703D01*
X192219296Y-125374400D01*
X190906400Y-125374400D01*
X190906400Y-125394400D01*
X190601600Y-125394400D01*
X190601600Y-125374400D01*
X190581600Y-125374400D01*
X190581600Y-125069600D01*
X190601600Y-125069600D01*
X190601600Y-125049600D01*
X190906400Y-125049600D01*
X190906400Y-125069600D01*
X192219296Y-125069600D01*
X192328674Y-124818297D01*
X192152933Y-124393992D01*
X191861805Y-124069190D01*
X191911190Y-124059897D01*
X192040865Y-123976454D01*
X192127859Y-123849134D01*
X192158464Y-123698000D01*
X192158464Y-122078743D01*
X199240400Y-122078743D01*
X199240400Y-122695200D01*
X199392800Y-122847600D01*
X200747600Y-122847600D01*
X200747600Y-121742800D01*
X200595200Y-121590400D01*
X199728743Y-121590400D01*
X199504689Y-121683206D01*
X199333206Y-121854689D01*
X199240400Y-122078743D01*
X192158464Y-122078743D01*
X192158464Y-121666000D01*
X192131897Y-121524810D01*
X192048454Y-121395135D01*
X191921134Y-121308141D01*
X191770000Y-121277536D01*
X189738000Y-121277536D01*
X189596810Y-121304103D01*
X189467135Y-121387546D01*
X189456000Y-121403843D01*
X189456000Y-114442369D01*
X189827856Y-114786109D01*
X190367141Y-114985062D01*
X190597600Y-114850800D01*
X190597600Y-113682400D01*
X190902400Y-113682400D01*
X190902400Y-114850800D01*
X191132859Y-114985062D01*
X191672144Y-114786109D01*
X192094243Y-114395925D01*
X192325815Y-113909746D01*
X192214378Y-113682400D01*
X190902400Y-113682400D01*
X190597600Y-113682400D01*
X190577600Y-113682400D01*
X190577600Y-113517743D01*
X195611400Y-113517743D01*
X195611400Y-113934200D01*
X195763800Y-114086600D01*
X196443600Y-114086600D01*
X196443600Y-113181800D01*
X196291200Y-113029400D01*
X196099743Y-113029400D01*
X195875689Y-113122206D01*
X195704206Y-113293689D01*
X195611400Y-113517743D01*
X190577600Y-113517743D01*
X190577600Y-113377600D01*
X190597600Y-113377600D01*
X190597600Y-113357600D01*
X190902400Y-113357600D01*
X190902400Y-113377600D01*
X192214378Y-113377600D01*
X192325815Y-113150254D01*
X192094243Y-112664075D01*
X191672144Y-112273891D01*
X191342894Y-112152424D01*
X191406057Y-112139860D01*
X191809834Y-111870065D01*
X192079629Y-111466288D01*
X192174369Y-110990000D01*
X192079629Y-110513712D01*
X191809834Y-110109935D01*
X191406057Y-109840140D01*
X190929769Y-109745400D01*
X190570231Y-109745400D01*
X190093943Y-109840140D01*
X189690166Y-110109935D01*
X189456000Y-110460389D01*
X189456000Y-109584775D01*
X189582866Y-109671459D01*
X189734000Y-109702064D01*
X191766000Y-109702064D01*
X191907190Y-109675497D01*
X192036865Y-109592054D01*
X192123859Y-109464734D01*
X192154464Y-109313600D01*
X192154464Y-107586400D01*
X192127897Y-107445210D01*
X192044454Y-107315535D01*
X191917134Y-107228541D01*
X191766000Y-107197936D01*
X189734000Y-107197936D01*
X189592810Y-107224503D01*
X189463135Y-107307946D01*
X189456000Y-107318388D01*
X189456000Y-103431028D01*
X189677856Y-103636109D01*
X190217141Y-103835062D01*
X190447600Y-103700800D01*
X190447600Y-102532400D01*
X190752400Y-102532400D01*
X190752400Y-103700800D01*
X190982859Y-103835062D01*
X191522144Y-103636109D01*
X191944243Y-103245925D01*
X192175815Y-102759746D01*
X192064378Y-102532400D01*
X190752400Y-102532400D01*
X190447600Y-102532400D01*
X190427600Y-102532400D01*
X190427600Y-102227600D01*
X190447600Y-102227600D01*
X190447600Y-102207600D01*
X190752400Y-102207600D01*
X190752400Y-102227600D01*
X192064378Y-102227600D01*
X192175815Y-102000254D01*
X191944243Y-101514075D01*
X191522144Y-101123891D01*
X191192894Y-101002424D01*
X191256057Y-100989860D01*
X191659834Y-100720065D01*
X191929629Y-100316288D01*
X192024369Y-99840000D01*
X191929629Y-99363712D01*
X191659834Y-98959935D01*
X191256057Y-98690140D01*
X190779769Y-98595400D01*
X190420231Y-98595400D01*
X189943943Y-98690140D01*
X189540166Y-98959935D01*
X189456000Y-99085898D01*
X189456000Y-98526144D01*
X189584000Y-98552064D01*
X191616000Y-98552064D01*
X191757190Y-98525497D01*
X191886865Y-98442054D01*
X191973859Y-98314734D01*
X192004464Y-98163600D01*
X192004464Y-96436400D01*
X191977897Y-96295210D01*
X191894454Y-96165535D01*
X191880499Y-96156000D01*
X196758936Y-96156000D01*
X196654013Y-96260741D01*
G36*
X214471401Y-113807901D02*
X214471401Y-119569062D01*
X214265135Y-119568882D01*
X214014748Y-119672339D01*
X213823013Y-119863741D01*
X213719118Y-120113946D01*
X213719001Y-120248499D01*
X213082600Y-120884900D01*
X213082600Y-120730482D01*
X213176987Y-120636259D01*
X213280882Y-120386054D01*
X213281118Y-120115135D01*
X213177661Y-119864748D01*
X212986259Y-119673013D01*
X212736054Y-119569118D01*
X212465135Y-119568882D01*
X212214748Y-119672339D01*
X212023013Y-119863741D01*
X211919118Y-120113946D01*
X211918882Y-120384865D01*
X212022339Y-120635252D01*
X212117400Y-120730478D01*
X212117400Y-121064401D01*
X211912464Y-121064401D01*
X211912464Y-120093000D01*
X211885897Y-119951810D01*
X211802454Y-119822135D01*
X211675134Y-119735141D01*
X211524000Y-119704536D01*
X210624000Y-119704536D01*
X210482810Y-119731103D01*
X210459599Y-119746039D01*
X210459599Y-119680004D01*
X210459600Y-119679999D01*
X210422863Y-119495316D01*
X210362516Y-119405000D01*
X210357985Y-119398218D01*
X210358118Y-119245135D01*
X210254661Y-118994748D01*
X210063259Y-118803013D01*
X209813054Y-118699118D01*
X209542135Y-118698882D01*
X209291748Y-118802339D01*
X209260464Y-118833569D01*
X209260464Y-117472000D01*
X209233897Y-117330810D01*
X209150454Y-117201135D01*
X209079600Y-117152723D01*
X209079600Y-113991705D01*
X209158536Y-114070641D01*
X209158536Y-114397000D01*
X209182920Y-114526588D01*
X209158536Y-114647000D01*
X209158536Y-115197000D01*
X209182920Y-115326588D01*
X209158536Y-115447000D01*
X209158536Y-115997000D01*
X209182920Y-116126588D01*
X209158536Y-116247000D01*
X209158536Y-116797000D01*
X209185103Y-116938190D01*
X209268546Y-117067865D01*
X209395866Y-117154859D01*
X209547000Y-117185464D01*
X211047000Y-117185464D01*
X211188190Y-117158897D01*
X211317865Y-117075454D01*
X211366277Y-117004600D01*
X213297000Y-117004600D01*
X213319989Y-117000027D01*
X213350946Y-117012882D01*
X213621865Y-117013118D01*
X213872252Y-116909661D01*
X214063987Y-116718259D01*
X214167882Y-116468054D01*
X214168118Y-116197135D01*
X214064661Y-115946748D01*
X213873259Y-115755013D01*
X213623054Y-115651118D01*
X213352135Y-115650882D01*
X213308651Y-115668849D01*
X213361498Y-115616002D01*
X213494865Y-115616118D01*
X213745252Y-115512661D01*
X213936987Y-115321259D01*
X214040882Y-115071054D01*
X214041118Y-114800135D01*
X213937661Y-114549748D01*
X213746259Y-114358013D01*
X213496054Y-114254118D01*
X213455600Y-114254083D01*
X213455600Y-114157800D01*
X213303200Y-114005400D01*
X212623400Y-114005400D01*
X212623400Y-114910200D01*
X212662850Y-114949650D01*
X212373100Y-115239400D01*
X211426878Y-115239400D01*
X211435464Y-115197000D01*
X211435464Y-114647000D01*
X211411080Y-114517412D01*
X211435464Y-114397000D01*
X211435464Y-114070641D01*
X211500703Y-114005402D01*
X211638798Y-114005402D01*
X211486400Y-114157800D01*
X211486400Y-114574257D01*
X211579206Y-114798311D01*
X211750689Y-114969794D01*
X211974743Y-115062600D01*
X212166200Y-115062600D01*
X212318600Y-114910200D01*
X212318600Y-114005400D01*
X212298600Y-114005400D01*
X212298600Y-113700600D01*
X212318600Y-113700600D01*
X212318600Y-113680600D01*
X212623400Y-113680600D01*
X212623400Y-113700600D01*
X213303200Y-113700600D01*
X213455600Y-113548200D01*
X213455600Y-113131743D01*
X213362794Y-112907689D01*
X213191311Y-112736206D01*
X213184011Y-112733182D01*
X213203859Y-112704134D01*
X213231439Y-112567939D01*
X214471401Y-113807901D01*
X214471401Y-113807901D01*
G37*
X214471401Y-113807901D02*
X214471401Y-119569062D01*
X214265135Y-119568882D01*
X214014748Y-119672339D01*
X213823013Y-119863741D01*
X213719118Y-120113946D01*
X213719001Y-120248499D01*
X213082600Y-120884900D01*
X213082600Y-120730482D01*
X213176987Y-120636259D01*
X213280882Y-120386054D01*
X213281118Y-120115135D01*
X213177661Y-119864748D01*
X212986259Y-119673013D01*
X212736054Y-119569118D01*
X212465135Y-119568882D01*
X212214748Y-119672339D01*
X212023013Y-119863741D01*
X211919118Y-120113946D01*
X211918882Y-120384865D01*
X212022339Y-120635252D01*
X212117400Y-120730478D01*
X212117400Y-121064401D01*
X211912464Y-121064401D01*
X211912464Y-120093000D01*
X211885897Y-119951810D01*
X211802454Y-119822135D01*
X211675134Y-119735141D01*
X211524000Y-119704536D01*
X210624000Y-119704536D01*
X210482810Y-119731103D01*
X210459599Y-119746039D01*
X210459599Y-119680004D01*
X210459600Y-119679999D01*
X210422863Y-119495316D01*
X210362516Y-119405000D01*
X210357985Y-119398218D01*
X210358118Y-119245135D01*
X210254661Y-118994748D01*
X210063259Y-118803013D01*
X209813054Y-118699118D01*
X209542135Y-118698882D01*
X209291748Y-118802339D01*
X209260464Y-118833569D01*
X209260464Y-117472000D01*
X209233897Y-117330810D01*
X209150454Y-117201135D01*
X209079600Y-117152723D01*
X209079600Y-113991705D01*
X209158536Y-114070641D01*
X209158536Y-114397000D01*
X209182920Y-114526588D01*
X209158536Y-114647000D01*
X209158536Y-115197000D01*
X209182920Y-115326588D01*
X209158536Y-115447000D01*
X209158536Y-115997000D01*
X209182920Y-116126588D01*
X209158536Y-116247000D01*
X209158536Y-116797000D01*
X209185103Y-116938190D01*
X209268546Y-117067865D01*
X209395866Y-117154859D01*
X209547000Y-117185464D01*
X211047000Y-117185464D01*
X211188190Y-117158897D01*
X211317865Y-117075454D01*
X211366277Y-117004600D01*
X213297000Y-117004600D01*
X213319989Y-117000027D01*
X213350946Y-117012882D01*
X213621865Y-117013118D01*
X213872252Y-116909661D01*
X214063987Y-116718259D01*
X214167882Y-116468054D01*
X214168118Y-116197135D01*
X214064661Y-115946748D01*
X213873259Y-115755013D01*
X213623054Y-115651118D01*
X213352135Y-115650882D01*
X213308651Y-115668849D01*
X213361498Y-115616002D01*
X213494865Y-115616118D01*
X213745252Y-115512661D01*
X213936987Y-115321259D01*
X214040882Y-115071054D01*
X214041118Y-114800135D01*
X213937661Y-114549748D01*
X213746259Y-114358013D01*
X213496054Y-114254118D01*
X213455600Y-114254083D01*
X213455600Y-114157800D01*
X213303200Y-114005400D01*
X212623400Y-114005400D01*
X212623400Y-114910200D01*
X212662850Y-114949650D01*
X212373100Y-115239400D01*
X211426878Y-115239400D01*
X211435464Y-115197000D01*
X211435464Y-114647000D01*
X211411080Y-114517412D01*
X211435464Y-114397000D01*
X211435464Y-114070641D01*
X211500703Y-114005402D01*
X211638798Y-114005402D01*
X211486400Y-114157800D01*
X211486400Y-114574257D01*
X211579206Y-114798311D01*
X211750689Y-114969794D01*
X211974743Y-115062600D01*
X212166200Y-115062600D01*
X212318600Y-114910200D01*
X212318600Y-114005400D01*
X212298600Y-114005400D01*
X212298600Y-113700600D01*
X212318600Y-113700600D01*
X212318600Y-113680600D01*
X212623400Y-113680600D01*
X212623400Y-113700600D01*
X213303200Y-113700600D01*
X213455600Y-113548200D01*
X213455600Y-113131743D01*
X213362794Y-112907689D01*
X213191311Y-112736206D01*
X213184011Y-112733182D01*
X213203859Y-112704134D01*
X213231439Y-112567939D01*
X214471401Y-113807901D01*
G36*
X205450400Y-120497600D02*
X205470400Y-120497600D01*
X205470400Y-120802400D01*
X205450400Y-120802400D01*
X205450400Y-120822400D01*
X205145600Y-120822400D01*
X205145600Y-120802400D01*
X205125600Y-120802400D01*
X205125600Y-120497600D01*
X205145600Y-120497600D01*
X205145600Y-120477600D01*
X205450400Y-120477600D01*
X205450400Y-120497600D01*
X205450400Y-120497600D01*
G37*
X205450400Y-120497600D02*
X205470400Y-120497600D01*
X205470400Y-120802400D01*
X205450400Y-120802400D01*
X205450400Y-120822400D01*
X205145600Y-120822400D01*
X205145600Y-120802400D01*
X205125600Y-120802400D01*
X205125600Y-120497600D01*
X205145600Y-120497600D01*
X205145600Y-120477600D01*
X205450400Y-120477600D01*
X205450400Y-120497600D01*
G36*
X206463600Y-116885700D02*
X206334500Y-117014800D01*
X206334500Y-117467240D01*
X206333536Y-117472000D01*
X206333536Y-118394400D01*
X206060464Y-118394400D01*
X206060464Y-117472000D01*
X206059500Y-117466877D01*
X206059500Y-117014800D01*
X205907100Y-116862400D01*
X205800743Y-116862400D01*
X205576689Y-116955206D01*
X205522163Y-117009732D01*
X205467251Y-116927549D01*
X205416451Y-116876749D01*
X205259884Y-116772135D01*
X205075201Y-116735399D01*
X204978009Y-116735399D01*
X204854010Y-116611400D01*
X206463600Y-116611400D01*
X206463600Y-116885700D01*
X206463600Y-116885700D01*
G37*
X206463600Y-116885700D02*
X206334500Y-117014800D01*
X206334500Y-117467240D01*
X206333536Y-117472000D01*
X206333536Y-118394400D01*
X206060464Y-118394400D01*
X206060464Y-117472000D01*
X206059500Y-117466877D01*
X206059500Y-117014800D01*
X205907100Y-116862400D01*
X205800743Y-116862400D01*
X205576689Y-116955206D01*
X205522163Y-117009732D01*
X205467251Y-116927549D01*
X205416451Y-116876749D01*
X205259884Y-116772135D01*
X205075201Y-116735399D01*
X204978009Y-116735399D01*
X204854010Y-116611400D01*
X206463600Y-116611400D01*
X206463600Y-116885700D01*
G36*
X209158536Y-108797000D02*
X209182920Y-108926588D01*
X209158536Y-109047000D01*
X209158536Y-109597000D01*
X209182920Y-109726588D01*
X209158536Y-109847000D01*
X209158536Y-110397000D01*
X209182920Y-110526588D01*
X209158536Y-110647000D01*
X209158536Y-111197000D01*
X209182920Y-111326588D01*
X209158536Y-111447000D01*
X209158536Y-111683994D01*
X209067371Y-111592829D01*
X208894323Y-111477203D01*
X208690200Y-111436600D01*
X208070000Y-111436600D01*
X207865877Y-111477203D01*
X207692829Y-111592829D01*
X206669921Y-112615737D01*
X206634259Y-112580013D01*
X206384054Y-112476118D01*
X206113135Y-112475882D01*
X205862748Y-112579339D01*
X205671013Y-112770741D01*
X205567118Y-113020946D01*
X205567001Y-113155499D01*
X205144750Y-113577750D01*
X205144748Y-113577753D01*
X204509750Y-114212750D01*
X204382750Y-114339750D01*
X204278136Y-114496317D01*
X204241400Y-114681000D01*
X204241400Y-114992708D01*
X204147013Y-115086931D01*
X204043118Y-115337136D01*
X204042937Y-115544600D01*
X203674942Y-115544600D01*
X202252342Y-114122000D01*
X202574171Y-113800171D01*
X202689797Y-113627124D01*
X202730400Y-113423000D01*
X202730400Y-113205770D01*
X202773987Y-113162259D01*
X202877882Y-112912054D01*
X202878118Y-112641135D01*
X202774661Y-112390748D01*
X202730400Y-112346410D01*
X202730400Y-108737400D01*
X209041358Y-108737400D01*
X209158536Y-108714092D01*
X209158536Y-108797000D01*
X209158536Y-108797000D01*
G37*
X209158536Y-108797000D02*
X209182920Y-108926588D01*
X209158536Y-109047000D01*
X209158536Y-109597000D01*
X209182920Y-109726588D01*
X209158536Y-109847000D01*
X209158536Y-110397000D01*
X209182920Y-110526588D01*
X209158536Y-110647000D01*
X209158536Y-111197000D01*
X209182920Y-111326588D01*
X209158536Y-111447000D01*
X209158536Y-111683994D01*
X209067371Y-111592829D01*
X208894323Y-111477203D01*
X208690200Y-111436600D01*
X208070000Y-111436600D01*
X207865877Y-111477203D01*
X207692829Y-111592829D01*
X206669921Y-112615737D01*
X206634259Y-112580013D01*
X206384054Y-112476118D01*
X206113135Y-112475882D01*
X205862748Y-112579339D01*
X205671013Y-112770741D01*
X205567118Y-113020946D01*
X205567001Y-113155499D01*
X205144750Y-113577750D01*
X205144748Y-113577753D01*
X204509750Y-114212750D01*
X204382750Y-114339750D01*
X204278136Y-114496317D01*
X204241400Y-114681000D01*
X204241400Y-114992708D01*
X204147013Y-115086931D01*
X204043118Y-115337136D01*
X204042937Y-115544600D01*
X203674942Y-115544600D01*
X202252342Y-114122000D01*
X202574171Y-113800171D01*
X202689797Y-113627124D01*
X202730400Y-113423000D01*
X202730400Y-113205770D01*
X202773987Y-113162259D01*
X202877882Y-112912054D01*
X202878118Y-112641135D01*
X202774661Y-112390748D01*
X202730400Y-112346410D01*
X202730400Y-108737400D01*
X209041358Y-108737400D01*
X209158536Y-108714092D01*
X209158536Y-108797000D01*
G36*
X208865029Y-112899171D02*
X208937400Y-112947527D01*
X208937400Y-113032100D01*
X209089800Y-113184500D01*
X209542240Y-113184500D01*
X209547000Y-113185464D01*
X210469400Y-113185464D01*
X210469400Y-113458536D01*
X209547000Y-113458536D01*
X209541877Y-113459500D01*
X209089800Y-113459500D01*
X208937400Y-113611900D01*
X208937400Y-113639901D01*
X208436167Y-113138667D01*
X208436283Y-113005300D01*
X208332826Y-112754913D01*
X208186255Y-112608087D01*
X208290942Y-112503400D01*
X208469258Y-112503400D01*
X208865029Y-112899171D01*
X208865029Y-112899171D01*
G37*
X208865029Y-112899171D02*
X208937400Y-112947527D01*
X208937400Y-113032100D01*
X209089800Y-113184500D01*
X209542240Y-113184500D01*
X209547000Y-113185464D01*
X210469400Y-113185464D01*
X210469400Y-113458536D01*
X209547000Y-113458536D01*
X209541877Y-113459500D01*
X209089800Y-113459500D01*
X208937400Y-113611900D01*
X208937400Y-113639901D01*
X208436167Y-113138667D01*
X208436283Y-113005300D01*
X208332826Y-112754913D01*
X208186255Y-112608087D01*
X208290942Y-112503400D01*
X208469258Y-112503400D01*
X208865029Y-112899171D01*
G36*
X210841296Y-102933108D02*
X210554327Y-103624204D01*
X210553674Y-104372513D01*
X210839436Y-105064109D01*
X211132916Y-105358101D01*
X209260464Y-107230552D01*
X209260464Y-106072000D01*
X209233897Y-105930810D01*
X209150454Y-105801135D01*
X209023134Y-105714141D01*
X208872000Y-105683536D01*
X208322000Y-105683536D01*
X208192412Y-105707920D01*
X208072000Y-105683536D01*
X207522000Y-105683536D01*
X207392412Y-105707920D01*
X207272000Y-105683536D01*
X206868964Y-105683536D01*
X209823901Y-102728599D01*
X211046162Y-102728599D01*
X210841296Y-102933108D01*
X210841296Y-102933108D01*
G37*
X210841296Y-102933108D02*
X210554327Y-103624204D01*
X210553674Y-104372513D01*
X210839436Y-105064109D01*
X211132916Y-105358101D01*
X209260464Y-107230552D01*
X209260464Y-106072000D01*
X209233897Y-105930810D01*
X209150454Y-105801135D01*
X209023134Y-105714141D01*
X208872000Y-105683536D01*
X208322000Y-105683536D01*
X208192412Y-105707920D01*
X208072000Y-105683536D01*
X207522000Y-105683536D01*
X207392412Y-105707920D01*
X207272000Y-105683536D01*
X206868964Y-105683536D01*
X209823901Y-102728599D01*
X211046162Y-102728599D01*
X210841296Y-102933108D01*
G36*
X203537401Y-100299536D02*
X203263600Y-100299536D01*
X203263600Y-100263000D01*
X202608800Y-100263000D01*
X202507561Y-100364239D01*
X202367317Y-100392136D01*
X202210750Y-100496750D01*
X201958750Y-100748750D01*
X201854136Y-100905317D01*
X201817400Y-101090000D01*
X201817400Y-102224000D01*
X201854136Y-102408683D01*
X201958750Y-102565250D01*
X202866850Y-103473350D01*
X202778400Y-103561800D01*
X202778400Y-104241600D01*
X202798400Y-104241600D01*
X202798400Y-104546400D01*
X202778400Y-104546400D01*
X202778400Y-105226200D01*
X202930800Y-105378600D01*
X203314400Y-105378600D01*
X203314400Y-105462400D01*
X203286900Y-105462400D01*
X203134500Y-105614800D01*
X203134500Y-106067240D01*
X203133536Y-106072000D01*
X203133536Y-106994400D01*
X202860464Y-106994400D01*
X202860464Y-106072000D01*
X202859500Y-106066877D01*
X202859500Y-105614800D01*
X202707100Y-105462400D01*
X202669673Y-105462400D01*
X202666331Y-105445596D01*
X202556210Y-105280790D01*
X202473600Y-105198180D01*
X202473600Y-104546400D01*
X202453600Y-104546400D01*
X202453600Y-104241600D01*
X202473600Y-104241600D01*
X202473600Y-103561800D01*
X202321200Y-103409400D01*
X201904743Y-103409400D01*
X201680689Y-103502206D01*
X201509206Y-103673689D01*
X201506182Y-103680989D01*
X201477134Y-103661141D01*
X201326000Y-103630536D01*
X200126000Y-103630536D01*
X199984810Y-103657103D01*
X199855135Y-103740546D01*
X199768141Y-103867866D01*
X199737536Y-104019000D01*
X199737536Y-104769000D01*
X199764103Y-104910190D01*
X199847546Y-105039865D01*
X199974866Y-105126859D01*
X200126000Y-105157464D01*
X200996044Y-105157464D01*
X201019980Y-105181400D01*
X197043996Y-105181400D01*
X197158704Y-105066892D01*
X197445673Y-104375796D01*
X197446326Y-103627487D01*
X197160564Y-102935891D01*
X196631892Y-102406296D01*
X195940796Y-102119327D01*
X195489567Y-102118933D01*
X197430900Y-100177600D01*
X203537401Y-100177600D01*
X203537401Y-100299536D01*
X203537401Y-100299536D01*
G37*
X203537401Y-100299536D02*
X203263600Y-100299536D01*
X203263600Y-100263000D01*
X202608800Y-100263000D01*
X202507561Y-100364239D01*
X202367317Y-100392136D01*
X202210750Y-100496750D01*
X201958750Y-100748750D01*
X201854136Y-100905317D01*
X201817400Y-101090000D01*
X201817400Y-102224000D01*
X201854136Y-102408683D01*
X201958750Y-102565250D01*
X202866850Y-103473350D01*
X202778400Y-103561800D01*
X202778400Y-104241600D01*
X202798400Y-104241600D01*
X202798400Y-104546400D01*
X202778400Y-104546400D01*
X202778400Y-105226200D01*
X202930800Y-105378600D01*
X203314400Y-105378600D01*
X203314400Y-105462400D01*
X203286900Y-105462400D01*
X203134500Y-105614800D01*
X203134500Y-106067240D01*
X203133536Y-106072000D01*
X203133536Y-106994400D01*
X202860464Y-106994400D01*
X202860464Y-106072000D01*
X202859500Y-106066877D01*
X202859500Y-105614800D01*
X202707100Y-105462400D01*
X202669673Y-105462400D01*
X202666331Y-105445596D01*
X202556210Y-105280790D01*
X202473600Y-105198180D01*
X202473600Y-104546400D01*
X202453600Y-104546400D01*
X202453600Y-104241600D01*
X202473600Y-104241600D01*
X202473600Y-103561800D01*
X202321200Y-103409400D01*
X201904743Y-103409400D01*
X201680689Y-103502206D01*
X201509206Y-103673689D01*
X201506182Y-103680989D01*
X201477134Y-103661141D01*
X201326000Y-103630536D01*
X200126000Y-103630536D01*
X199984810Y-103657103D01*
X199855135Y-103740546D01*
X199768141Y-103867866D01*
X199737536Y-104019000D01*
X199737536Y-104769000D01*
X199764103Y-104910190D01*
X199847546Y-105039865D01*
X199974866Y-105126859D01*
X200126000Y-105157464D01*
X200996044Y-105157464D01*
X201019980Y-105181400D01*
X197043996Y-105181400D01*
X197158704Y-105066892D01*
X197445673Y-104375796D01*
X197446326Y-103627487D01*
X197160564Y-102935891D01*
X196631892Y-102406296D01*
X195940796Y-102119327D01*
X195489567Y-102118933D01*
X197430900Y-100177600D01*
X203537401Y-100177600D01*
X203537401Y-100299536D01*
G36*
X197333669Y-106665858D02*
X197319526Y-106680000D01*
X197333669Y-106694143D01*
X197118143Y-106909669D01*
X197104000Y-106895526D01*
X197089858Y-106909669D01*
X196874332Y-106694143D01*
X196888474Y-106680000D01*
X196874332Y-106665858D01*
X197089858Y-106450332D01*
X197104000Y-106464474D01*
X197118143Y-106450332D01*
X197333669Y-106665858D01*
X197333669Y-106665858D01*
G37*
X197333669Y-106665858D02*
X197319526Y-106680000D01*
X197333669Y-106694143D01*
X197118143Y-106909669D01*
X197104000Y-106895526D01*
X197089858Y-106909669D01*
X196874332Y-106694143D01*
X196888474Y-106680000D01*
X196874332Y-106665858D01*
X197089858Y-106450332D01*
X197104000Y-106464474D01*
X197118143Y-106450332D01*
X197333669Y-106665858D01*
G36*
X205168400Y-101413000D02*
X205188400Y-101413000D01*
X205188400Y-101563000D01*
X205168400Y-101563000D01*
X205168400Y-102095200D01*
X205320800Y-102247600D01*
X205487257Y-102247600D01*
X205511400Y-102237600D01*
X205511400Y-105071901D01*
X205074075Y-105509225D01*
X205042864Y-105352317D01*
X204938250Y-105195750D01*
X204858211Y-105115711D01*
X204858211Y-102100589D01*
X204863600Y-102095200D01*
X204863600Y-101563000D01*
X204858211Y-101563000D01*
X204858211Y-101413000D01*
X204863600Y-101413000D01*
X204863600Y-101376464D01*
X205168400Y-101376464D01*
X205168400Y-101413000D01*
X205168400Y-101413000D01*
G37*
X205168400Y-101413000D02*
X205188400Y-101413000D01*
X205188400Y-101563000D01*
X205168400Y-101563000D01*
X205168400Y-102095200D01*
X205320800Y-102247600D01*
X205487257Y-102247600D01*
X205511400Y-102237600D01*
X205511400Y-105071901D01*
X205074075Y-105509225D01*
X205042864Y-105352317D01*
X204938250Y-105195750D01*
X204858211Y-105115711D01*
X204858211Y-102100589D01*
X204863600Y-102095200D01*
X204863600Y-101563000D01*
X204858211Y-101563000D01*
X204858211Y-101413000D01*
X204863600Y-101413000D01*
X204863600Y-101376464D01*
X205168400Y-101376464D01*
X205168400Y-101413000D01*
G36*
X212398998Y-101401498D02*
X212398882Y-101534865D01*
X212493310Y-101763399D01*
X209624001Y-101763399D01*
X209439318Y-101800135D01*
X209282751Y-101904749D01*
X206476600Y-104710900D01*
X206476600Y-101092000D01*
X206439864Y-100907317D01*
X206335250Y-100750750D01*
X206255100Y-100670600D01*
X211668100Y-100670600D01*
X212398998Y-101401498D01*
X212398998Y-101401498D01*
G37*
X212398998Y-101401498D02*
X212398882Y-101534865D01*
X212493310Y-101763399D01*
X209624001Y-101763399D01*
X209439318Y-101800135D01*
X209282751Y-101904749D01*
X206476600Y-104710900D01*
X206476600Y-101092000D01*
X206439864Y-100907317D01*
X206335250Y-100750750D01*
X206255100Y-100670600D01*
X211668100Y-100670600D01*
X212398998Y-101401498D01*
G36*
X208852900Y-99705400D02*
X205554102Y-99705400D01*
X205530878Y-99689532D01*
X205711311Y-99614794D01*
X205882794Y-99443311D01*
X205975600Y-99219257D01*
X205975600Y-99175400D01*
X205823200Y-99023000D01*
X205168400Y-99023000D01*
X205168400Y-99098000D01*
X204863600Y-99098000D01*
X204863600Y-99023000D01*
X204858211Y-99023000D01*
X204858211Y-98873000D01*
X204863600Y-98873000D01*
X204863600Y-98836464D01*
X205168400Y-98836464D01*
X205168400Y-98873000D01*
X205823200Y-98873000D01*
X205915600Y-98780600D01*
X207928100Y-98780600D01*
X208852900Y-99705400D01*
X208852900Y-99705400D01*
G37*
X208852900Y-99705400D02*
X205554102Y-99705400D01*
X205530878Y-99689532D01*
X205711311Y-99614794D01*
X205882794Y-99443311D01*
X205975600Y-99219257D01*
X205975600Y-99175400D01*
X205823200Y-99023000D01*
X205168400Y-99023000D01*
X205168400Y-99098000D01*
X204863600Y-99098000D01*
X204863600Y-99023000D01*
X204858211Y-99023000D01*
X204858211Y-98873000D01*
X204863600Y-98873000D01*
X204863600Y-98836464D01*
X205168400Y-98836464D01*
X205168400Y-98873000D01*
X205823200Y-98873000D01*
X205915600Y-98780600D01*
X207928100Y-98780600D01*
X208852900Y-99705400D01*
G36*
X209250118Y-96256946D02*
X209250001Y-96391499D01*
X208476100Y-97165400D01*
X205554102Y-97165400D01*
X205517134Y-97140141D01*
X205366000Y-97109536D01*
X204666000Y-97109536D01*
X204524810Y-97136103D01*
X204395135Y-97219546D01*
X204342435Y-97296675D01*
X204282794Y-97152689D01*
X204111311Y-96981206D01*
X203887257Y-96888400D01*
X203720800Y-96888400D01*
X203568400Y-97040800D01*
X203568400Y-97573000D01*
X203588400Y-97573000D01*
X203588400Y-97723000D01*
X203568400Y-97723000D01*
X203568400Y-97759536D01*
X203263600Y-97759536D01*
X203263600Y-97723000D01*
X202608800Y-97723000D01*
X202456400Y-97875400D01*
X202456400Y-97919257D01*
X202549206Y-98143311D01*
X202677536Y-98271641D01*
X202677536Y-98448000D01*
X202680810Y-98465400D01*
X199731899Y-98465400D01*
X198643243Y-97376743D01*
X202456400Y-97376743D01*
X202456400Y-97420600D01*
X202608800Y-97573000D01*
X203263600Y-97573000D01*
X203263600Y-97040800D01*
X203111200Y-96888400D01*
X202944743Y-96888400D01*
X202720689Y-96981206D01*
X202549206Y-97152689D01*
X202456400Y-97376743D01*
X198643243Y-97376743D01*
X197912002Y-96645502D01*
X197912118Y-96512135D01*
X197808661Y-96261748D01*
X197703097Y-96156000D01*
X209292035Y-96156000D01*
X209250118Y-96256946D01*
X209250118Y-96256946D01*
G37*
X209250118Y-96256946D02*
X209250001Y-96391499D01*
X208476100Y-97165400D01*
X205554102Y-97165400D01*
X205517134Y-97140141D01*
X205366000Y-97109536D01*
X204666000Y-97109536D01*
X204524810Y-97136103D01*
X204395135Y-97219546D01*
X204342435Y-97296675D01*
X204282794Y-97152689D01*
X204111311Y-96981206D01*
X203887257Y-96888400D01*
X203720800Y-96888400D01*
X203568400Y-97040800D01*
X203568400Y-97573000D01*
X203588400Y-97573000D01*
X203588400Y-97723000D01*
X203568400Y-97723000D01*
X203568400Y-97759536D01*
X203263600Y-97759536D01*
X203263600Y-97723000D01*
X202608800Y-97723000D01*
X202456400Y-97875400D01*
X202456400Y-97919257D01*
X202549206Y-98143311D01*
X202677536Y-98271641D01*
X202677536Y-98448000D01*
X202680810Y-98465400D01*
X199731899Y-98465400D01*
X198643243Y-97376743D01*
X202456400Y-97376743D01*
X202456400Y-97420600D01*
X202608800Y-97573000D01*
X203263600Y-97573000D01*
X203263600Y-97040800D01*
X203111200Y-96888400D01*
X202944743Y-96888400D01*
X202720689Y-96981206D01*
X202549206Y-97152689D01*
X202456400Y-97376743D01*
X198643243Y-97376743D01*
X197912002Y-96645502D01*
X197912118Y-96512135D01*
X197808661Y-96261748D01*
X197703097Y-96156000D01*
X209292035Y-96156000D01*
X209250118Y-96256946D01*
M02*
