G04 #@! TF.FileFunction,Copper,L2,Bot,Signal*
%FSLAX46Y46*%
G04 Gerber Fmt 4.6, Leading zero omitted, Abs format (unit mm)*
G04 Created by KiCad (PCBNEW 4.0.2+dfsg1-stable) date Sat 12 Nov 2016 15:30:03 AEDT*
%MOMM*%
G01*
G04 APERTURE LIST*
%ADD10C,0.100000*%
%ADD11C,0.600000*%
%ADD12R,1.060000X0.650000*%
%ADD13R,0.750000X1.200000*%
%ADD14R,0.800100X0.800100*%
%ADD15R,2.032000X1.727200*%
%ADD16O,2.032000X1.727200*%
%ADD17R,1.950000X0.600000*%
%ADD18R,2.032000X2.032000*%
%ADD19O,2.032000X2.032000*%
%ADD20R,0.900000X1.200000*%
%ADD21R,2.000000X2.000000*%
%ADD22C,3.000000*%
%ADD23R,7.620000X7.620000*%
%ADD24R,1.250000X1.000000*%
%ADD25R,0.750000X0.800000*%
%ADD26C,0.508000*%
%ADD27C,0.203200*%
%ADD28C,0.381000*%
%ADD29C,0.304800*%
%ADD30C,0.254000*%
%ADD31C,0.152400*%
G04 APERTURE END LIST*
D10*
D11*
X198600000Y-104500000D03*
X200950000Y-108550000D03*
X206350000Y-99010000D03*
X210390000Y-101190000D03*
X206660000Y-102190000D03*
X208800000Y-112960000D03*
X205010000Y-102370000D03*
X205270000Y-116690000D03*
X205298000Y-120650000D03*
X197000000Y-106800000D03*
X210250000Y-98230000D03*
X191200000Y-105750000D03*
X209800000Y-103700000D03*
X201200000Y-97150000D03*
X197450000Y-98250000D03*
D12*
X192448000Y-119695000D03*
X192448000Y-118745000D03*
X192448000Y-117795000D03*
X194648000Y-117795000D03*
X194648000Y-119695000D03*
D11*
X197100000Y-125700000D03*
X202350000Y-121200000D03*
X217650000Y-118000000D03*
X201200000Y-101600000D03*
X213750000Y-106700000D03*
D13*
X196977000Y-121473000D03*
X196977000Y-119573000D03*
D11*
X212150000Y-125320000D03*
X193950000Y-115650000D03*
X204650000Y-110050000D03*
D14*
X194929760Y-108270000D03*
X194929760Y-110170000D03*
X192930780Y-109220000D03*
X197038000Y-116316760D03*
X195138000Y-116316760D03*
X196088000Y-114317780D03*
D15*
X190750000Y-108450000D03*
D16*
X190750000Y-110990000D03*
X190750000Y-113530000D03*
D17*
X208600000Y-114235000D03*
X208600000Y-115505000D03*
X208600000Y-116775000D03*
X208600000Y-118045000D03*
X208600000Y-119315000D03*
X208600000Y-120585000D03*
X208600000Y-121855000D03*
X208600000Y-123125000D03*
X208600000Y-124395000D03*
X208600000Y-125665000D03*
X199200000Y-125665000D03*
X199200000Y-124395000D03*
X199200000Y-123125000D03*
X199200000Y-121855000D03*
X199200000Y-120585000D03*
X199200000Y-119315000D03*
X199200000Y-118045000D03*
X199200000Y-116775000D03*
X199200000Y-115505000D03*
X199200000Y-114235000D03*
D14*
X213121240Y-98486000D03*
X213121240Y-96586000D03*
X215120220Y-97536000D03*
D18*
X190754000Y-122682000D03*
D19*
X190754000Y-125222000D03*
D13*
X210820000Y-119949000D03*
X210820000Y-118049000D03*
D15*
X190600000Y-97300000D03*
D16*
X190600000Y-99840000D03*
X190600000Y-102380000D03*
D15*
X217400000Y-97300000D03*
D16*
X217400000Y-99840000D03*
X217400000Y-102380000D03*
D14*
X194802760Y-96586000D03*
X194802760Y-98486000D03*
X192803780Y-97536000D03*
D20*
X214400000Y-118026000D03*
X214400000Y-120226000D03*
X212600000Y-118050000D03*
X212600000Y-120250000D03*
X193040000Y-100246000D03*
X193040000Y-102446000D03*
X214884000Y-100246000D03*
X214884000Y-102446000D03*
X193167000Y-112184000D03*
X193167000Y-114384000D03*
D21*
X217551000Y-117983000D03*
X217551000Y-120523000D03*
X217551000Y-123063000D03*
X217551000Y-125603000D03*
D11*
X207700000Y-110300000D03*
D15*
X217400000Y-108450000D03*
D16*
X217400000Y-110990000D03*
X217400000Y-113530000D03*
D14*
X212867240Y-110424000D03*
X212867240Y-108524000D03*
X214866220Y-109474000D03*
D20*
X214630000Y-112184000D03*
X214630000Y-114384000D03*
D22*
X195565000Y-104000000D03*
X212435000Y-104000000D03*
D23*
X204000000Y-104000000D03*
D24*
X190373000Y-119618000D03*
X190373000Y-117618000D03*
D25*
X194564000Y-121170000D03*
X194564000Y-122670000D03*
D11*
X202197000Y-112776000D03*
X195834000Y-111760000D03*
X213487000Y-116332000D03*
X213360000Y-114935000D03*
X194564000Y-106172000D03*
X198882000Y-107696000D03*
X193252696Y-107214294D03*
X200350000Y-109850000D03*
X200450000Y-111950000D03*
X194835816Y-112539816D03*
X201588024Y-115616638D03*
X204724000Y-115473190D03*
X197231000Y-117475000D03*
X206248000Y-113157000D03*
X207755165Y-113140165D03*
X197231000Y-96647000D03*
X209931000Y-96393000D03*
X193802000Y-106680000D03*
X213080000Y-101400000D03*
X200850000Y-117000000D03*
X214400000Y-120250000D03*
X200850000Y-116100000D03*
X212600000Y-120250000D03*
X209677000Y-119380000D03*
X201168000Y-114762629D03*
D26*
X192448000Y-119695000D02*
X190439000Y-119695000D01*
X190439000Y-119695000D02*
X190373000Y-119761000D01*
X190373000Y-119761000D02*
X190373000Y-122301000D01*
X190373000Y-122301000D02*
X190754000Y-122682000D01*
D27*
X217551000Y-125603000D02*
X216347800Y-125603000D01*
X216347800Y-125603000D02*
X215458800Y-126492000D01*
X215458800Y-126492000D02*
X196596000Y-126492000D01*
X196596000Y-126492000D02*
X195822000Y-125718000D01*
X195822000Y-125718000D02*
X195822000Y-121170000D01*
D28*
X195834000Y-119634000D02*
X195834000Y-121158000D01*
X195834000Y-121158000D02*
X195822000Y-121170000D01*
X195822000Y-121170000D02*
X194564000Y-121170000D01*
X202125599Y-111180599D02*
X202197000Y-111252000D01*
X202197000Y-111252000D02*
X202197000Y-112776000D01*
X195138000Y-116316760D02*
X195138000Y-113949177D01*
X195138000Y-113949177D02*
X196019087Y-113068090D01*
X201904910Y-113068090D02*
X202197000Y-112776000D01*
X196019087Y-113068090D02*
X201904910Y-113068090D01*
X195834000Y-111760000D02*
X196413401Y-111180599D01*
X196413401Y-111180599D02*
X202125599Y-111180599D01*
D29*
X199200000Y-119315000D02*
X197235000Y-119315000D01*
X197235000Y-119315000D02*
X196977000Y-119573000D01*
X199875000Y-119315000D02*
X199200000Y-119315000D01*
D28*
X195834000Y-119634000D02*
X195834000Y-117012760D01*
X196977000Y-119573000D02*
X195895000Y-119573000D01*
X195895000Y-119573000D02*
X195834000Y-119634000D01*
X195834000Y-117012760D02*
X195138000Y-116316760D01*
D30*
X194770000Y-119573000D02*
X194648000Y-119695000D01*
D26*
X194564000Y-121170000D02*
X194564000Y-119779000D01*
X194564000Y-119779000D02*
X194648000Y-119695000D01*
D27*
X212598000Y-118026000D02*
X214376000Y-118026000D01*
X210820000Y-118049000D02*
X212575000Y-118049000D01*
X212575000Y-118049000D02*
X212598000Y-118026000D01*
X208600000Y-118045000D02*
X210816000Y-118045000D01*
X210816000Y-118045000D02*
X210820000Y-118049000D01*
D30*
X214357000Y-118045000D02*
X214376000Y-118026000D01*
X206248000Y-117602000D02*
X206691000Y-118045000D01*
X206691000Y-118045000D02*
X208600000Y-118045000D01*
X206248000Y-114300000D02*
X206248000Y-117602000D01*
X205486000Y-113538000D02*
X206248000Y-114300000D01*
X196213730Y-113538000D02*
X205486000Y-113538000D01*
X196088000Y-114317780D02*
X196088000Y-113663730D01*
X196088000Y-113663730D02*
X196213730Y-113538000D01*
D27*
X194140000Y-100246000D02*
X194802760Y-99583240D01*
X194802760Y-99583240D02*
X194802760Y-98486000D01*
X193040000Y-100246000D02*
X194140000Y-100246000D01*
D26*
X193802000Y-97536000D02*
X193802000Y-97002598D01*
X193802000Y-97002598D02*
X193528951Y-96729549D01*
X194752000Y-98486000D02*
X193802000Y-97536000D01*
X194802760Y-98486000D02*
X194752000Y-98486000D01*
X193528951Y-96729549D02*
X191170451Y-96729549D01*
X191170451Y-96729549D02*
X190600000Y-97300000D01*
X192803780Y-97536000D02*
X192803780Y-97636220D01*
X192803780Y-97636220D02*
X190600000Y-99840000D01*
D31*
X194929760Y-111267240D02*
X194013000Y-112184000D01*
X194013000Y-112184000D02*
X193167000Y-112184000D01*
X194929760Y-110170000D02*
X194929760Y-111267240D01*
D26*
X193675000Y-108204000D02*
X190754000Y-108204000D01*
X193929000Y-108458000D02*
X193675000Y-108204000D01*
X193929000Y-109220000D02*
X193929000Y-108458000D01*
X194879000Y-110170000D02*
X193929000Y-109220000D01*
X194929760Y-110170000D02*
X194879000Y-110170000D01*
X190750000Y-110990000D02*
X191160780Y-110990000D01*
X191160780Y-110990000D02*
X192930780Y-109220000D01*
D27*
X214884000Y-98991458D02*
X214249000Y-98356458D01*
D26*
X213121240Y-96586000D02*
X214249000Y-96586000D01*
X214249000Y-96586000D02*
X216686000Y-96586000D01*
D27*
X214249000Y-98356458D02*
X214249000Y-96586000D01*
X214884000Y-100246000D02*
X214884000Y-98991458D01*
D26*
X216686000Y-96586000D02*
X217400000Y-97300000D01*
X215120220Y-97536000D02*
X215120220Y-97560220D01*
X215120220Y-97560220D02*
X217400000Y-99840000D01*
D27*
X215773000Y-122488200D02*
X215773000Y-117915798D01*
X215773000Y-117915798D02*
X215029201Y-117171999D01*
X215029201Y-117171999D02*
X214326999Y-117171999D01*
X214326999Y-117171999D02*
X213487000Y-116332000D01*
X217551000Y-123063000D02*
X216347800Y-123063000D01*
X216347800Y-123063000D02*
X215773000Y-122488200D01*
X216154000Y-116586000D02*
X214884000Y-116586000D01*
X214884000Y-116586000D02*
X213360000Y-115062000D01*
X213360000Y-115062000D02*
X213360000Y-114935000D01*
X216154000Y-120329200D02*
X216154000Y-116586000D01*
X217551000Y-120523000D02*
X216347800Y-120523000D01*
X216347800Y-120523000D02*
X216154000Y-120329200D01*
X198882000Y-107696000D02*
X197358000Y-106172000D01*
X197358000Y-106172000D02*
X194564000Y-106172000D01*
X199436001Y-107430079D02*
X199436001Y-108936001D01*
X199436001Y-108936001D02*
X200350000Y-109850000D01*
X193252696Y-107214294D02*
X192952697Y-106914295D01*
X192952697Y-106709381D02*
X194044079Y-105617999D01*
X192952697Y-106914295D02*
X192952697Y-106709381D01*
X194044079Y-105617999D02*
X194829921Y-105617999D01*
X194829921Y-105617999D02*
X195028313Y-105816391D01*
X197822313Y-105816391D02*
X199436001Y-107430079D01*
X195028313Y-105816391D02*
X197822313Y-105816391D01*
X199626184Y-112539816D02*
X199860184Y-112539816D01*
X199860184Y-112539816D02*
X200450000Y-111950000D01*
X199626184Y-112539816D02*
X194835816Y-112539816D01*
X204724000Y-115473190D02*
X201731472Y-115473190D01*
X201731472Y-115473190D02*
X201588024Y-115616638D01*
X197231000Y-117475000D02*
X197231000Y-116509760D01*
X197231000Y-116509760D02*
X197038000Y-116316760D01*
X207755165Y-113140165D02*
X206264835Y-113140165D01*
X206264835Y-113140165D02*
X206248000Y-113157000D01*
X197231000Y-96647000D02*
X195707000Y-96647000D01*
X195707000Y-96647000D02*
X194863760Y-96647000D01*
X193040000Y-102446000D02*
X193693200Y-102446000D01*
X193693200Y-102446000D02*
X195707000Y-100432200D01*
X195707000Y-100432200D02*
X195707000Y-96647000D01*
X194863760Y-96647000D02*
X194802760Y-96586000D01*
X209931000Y-96393000D02*
X212024000Y-98486000D01*
X212024000Y-98486000D02*
X213121240Y-98486000D01*
X213121240Y-98567240D02*
X213934000Y-99380000D01*
X213121240Y-98486000D02*
X213121240Y-98567240D01*
X213934000Y-101346000D02*
X213934000Y-99380000D01*
X214884000Y-102446000D02*
X214884000Y-102296000D01*
X214884000Y-102296000D02*
X213934000Y-101346000D01*
X193802000Y-106680000D02*
X193802000Y-107142240D01*
X193802000Y-107142240D02*
X194929760Y-108270000D01*
D31*
X195707000Y-110921066D02*
X195707000Y-108331000D01*
X195707000Y-108331000D02*
X195646000Y-108270000D01*
X193167000Y-114384000D02*
X193769400Y-114384000D01*
X193769400Y-114384000D02*
X194183000Y-113970400D01*
X195646000Y-108270000D02*
X194929760Y-108270000D01*
X194183000Y-113970400D02*
X194183000Y-112445066D01*
X194183000Y-112445066D02*
X195707000Y-110921066D01*
D27*
X212867240Y-110424000D02*
X212263990Y-110424000D01*
X212263990Y-110424000D02*
X210660000Y-108820010D01*
X210660000Y-108820010D02*
X210660000Y-103179078D01*
X213080000Y-101400000D02*
X212439078Y-101400000D01*
X212439078Y-101400000D02*
X210660000Y-103179078D01*
X213512390Y-111419298D02*
X213741000Y-111647908D01*
X212913000Y-110424000D02*
X213512390Y-111023390D01*
X213512390Y-111023390D02*
X213512390Y-111419298D01*
X212867240Y-110424000D02*
X212913000Y-110424000D01*
X213741000Y-114148200D02*
X213741000Y-111647908D01*
X214630000Y-114384000D02*
X213976800Y-114384000D01*
X213976800Y-114384000D02*
X213741000Y-114148200D01*
X200850000Y-117850000D02*
X200655000Y-118045000D01*
X200655000Y-118045000D02*
X199200000Y-118045000D01*
X200850000Y-117000000D02*
X200850000Y-117850000D01*
X200850000Y-116100000D02*
X199371800Y-116100000D01*
X199371800Y-116100000D02*
X199200000Y-116271800D01*
X199200000Y-116271800D02*
X199200000Y-116775000D01*
X208600000Y-119315000D02*
X209612000Y-119315000D01*
X209612000Y-119315000D02*
X209677000Y-119380000D01*
X205866990Y-119760990D02*
X206691000Y-120585000D01*
X206691000Y-120585000D02*
X208600000Y-120585000D01*
X201168000Y-114762629D02*
X204833361Y-114762629D01*
X205866990Y-115796258D02*
X205866990Y-119760990D01*
X204833361Y-114762629D02*
X205866990Y-115796258D01*
D26*
X212867240Y-108524000D02*
X213868000Y-108524000D01*
X213868000Y-108524000D02*
X217326000Y-108524000D01*
D27*
X213868000Y-111272000D02*
X213868000Y-108524000D01*
X214630000Y-112184000D02*
X214630000Y-112034000D01*
X214630000Y-112034000D02*
X213868000Y-111272000D01*
D26*
X217326000Y-108524000D02*
X217400000Y-108450000D01*
X214866220Y-109474000D02*
X214884000Y-109474000D01*
X214884000Y-109474000D02*
X214884000Y-110490000D01*
X214884000Y-110490000D02*
X215384000Y-110990000D01*
X215384000Y-110990000D02*
X217400000Y-110990000D01*
D27*
G36*
X194141246Y-110330272D02*
X194141246Y-110570050D01*
X194167813Y-110711240D01*
X194251256Y-110840915D01*
X194378576Y-110927909D01*
X194472560Y-110946941D01*
X194472560Y-111077861D01*
X193999281Y-111551141D01*
X193978897Y-111442810D01*
X193895454Y-111313135D01*
X193768134Y-111226141D01*
X193617000Y-111195536D01*
X192717000Y-111195536D01*
X192575810Y-111222103D01*
X192446135Y-111305546D01*
X192359141Y-111432866D01*
X192328536Y-111584000D01*
X192328536Y-112784000D01*
X192355103Y-112925190D01*
X192438546Y-113054865D01*
X192565866Y-113141859D01*
X192717000Y-113172464D01*
X193617000Y-113172464D01*
X193725800Y-113151992D01*
X193725800Y-113417568D01*
X193617000Y-113395536D01*
X192717000Y-113395536D01*
X192575810Y-113422103D01*
X192446135Y-113505546D01*
X192359141Y-113632866D01*
X192328536Y-113784000D01*
X192328536Y-114984000D01*
X192355103Y-115125190D01*
X192438546Y-115254865D01*
X192565866Y-115341859D01*
X192717000Y-115372464D01*
X193617000Y-115372464D01*
X193758190Y-115345897D01*
X193887865Y-115262454D01*
X193974859Y-115135134D01*
X194005464Y-114984000D01*
X194005464Y-114765571D01*
X194092689Y-114707289D01*
X194506289Y-114293689D01*
X194566500Y-114203578D01*
X194566500Y-115574285D01*
X194467085Y-115638256D01*
X194380091Y-115765576D01*
X194349486Y-115916710D01*
X194349486Y-116716810D01*
X194376053Y-116858000D01*
X194459496Y-116987675D01*
X194586816Y-117074669D01*
X194620727Y-117081536D01*
X194118000Y-117081536D01*
X193976810Y-117108103D01*
X193847135Y-117191546D01*
X193760141Y-117318866D01*
X193729536Y-117470000D01*
X193729536Y-118120000D01*
X193756103Y-118261190D01*
X193839546Y-118390865D01*
X193966866Y-118477859D01*
X194118000Y-118508464D01*
X195178000Y-118508464D01*
X195262500Y-118492564D01*
X195262500Y-118998647D01*
X195178000Y-118981536D01*
X194118000Y-118981536D01*
X193976810Y-119008103D01*
X193847135Y-119091546D01*
X193760141Y-119218866D01*
X193729536Y-119370000D01*
X193729536Y-120020000D01*
X193756103Y-120161190D01*
X193839546Y-120290865D01*
X193929000Y-120351986D01*
X193929000Y-120484555D01*
X193918135Y-120491546D01*
X193831141Y-120618866D01*
X193800536Y-120770000D01*
X193800536Y-121570000D01*
X193827103Y-121711190D01*
X193851940Y-121749788D01*
X193843689Y-121753206D01*
X193672206Y-121924689D01*
X193579400Y-122148743D01*
X193579400Y-122365200D01*
X193731800Y-122517600D01*
X194411600Y-122517600D01*
X194411600Y-122497600D01*
X194716400Y-122497600D01*
X194716400Y-122517600D01*
X194736400Y-122517600D01*
X194736400Y-122822400D01*
X194716400Y-122822400D01*
X194716400Y-123527200D01*
X194868800Y-123679600D01*
X195060257Y-123679600D01*
X195284311Y-123586794D01*
X195339400Y-123531705D01*
X195339400Y-125718000D01*
X195376136Y-125902683D01*
X195480750Y-126059250D01*
X195965500Y-126544000D01*
X191684407Y-126544000D01*
X191729581Y-126522328D01*
X192152933Y-126050008D01*
X192328674Y-125625703D01*
X192219296Y-125374400D01*
X190906400Y-125374400D01*
X190906400Y-125394400D01*
X190601600Y-125394400D01*
X190601600Y-125374400D01*
X190581600Y-125374400D01*
X190581600Y-125069600D01*
X190601600Y-125069600D01*
X190601600Y-125049600D01*
X190906400Y-125049600D01*
X190906400Y-125069600D01*
X192219296Y-125069600D01*
X192328674Y-124818297D01*
X192152933Y-124393992D01*
X191861805Y-124069190D01*
X191911190Y-124059897D01*
X192040865Y-123976454D01*
X192127859Y-123849134D01*
X192158464Y-123698000D01*
X192158464Y-122974800D01*
X193579400Y-122974800D01*
X193579400Y-123191257D01*
X193672206Y-123415311D01*
X193843689Y-123586794D01*
X194067743Y-123679600D01*
X194259200Y-123679600D01*
X194411600Y-123527200D01*
X194411600Y-122822400D01*
X193731800Y-122822400D01*
X193579400Y-122974800D01*
X192158464Y-122974800D01*
X192158464Y-121666000D01*
X192131897Y-121524810D01*
X192048454Y-121395135D01*
X191921134Y-121308141D01*
X191770000Y-121277536D01*
X191008000Y-121277536D01*
X191008000Y-120504582D01*
X191139190Y-120479897D01*
X191268865Y-120396454D01*
X191314271Y-120330000D01*
X191696822Y-120330000D01*
X191766866Y-120377859D01*
X191918000Y-120408464D01*
X192978000Y-120408464D01*
X193119190Y-120381897D01*
X193248865Y-120298454D01*
X193335859Y-120171134D01*
X193366464Y-120020000D01*
X193366464Y-119543641D01*
X193494794Y-119415311D01*
X193587600Y-119191257D01*
X193587600Y-119049800D01*
X193435200Y-118897400D01*
X192600400Y-118897400D01*
X192600400Y-118917400D01*
X192295600Y-118917400D01*
X192295600Y-118897400D01*
X191460800Y-118897400D01*
X191363301Y-118994899D01*
X191359897Y-118976810D01*
X191276454Y-118847135D01*
X191149134Y-118760141D01*
X190998000Y-118729536D01*
X189748000Y-118729536D01*
X189606810Y-118756103D01*
X189477135Y-118839546D01*
X189456000Y-118870478D01*
X189456000Y-118656876D01*
X189626743Y-118727600D01*
X190068200Y-118727600D01*
X190220600Y-118575200D01*
X190220600Y-117770400D01*
X190200600Y-117770400D01*
X190200600Y-117465600D01*
X190220600Y-117465600D01*
X190220600Y-116660800D01*
X190525400Y-116660800D01*
X190525400Y-117465600D01*
X190545400Y-117465600D01*
X190545400Y-117770400D01*
X190525400Y-117770400D01*
X190525400Y-118575200D01*
X190677800Y-118727600D01*
X191119257Y-118727600D01*
X191343311Y-118634794D01*
X191423153Y-118554953D01*
X191460800Y-118592600D01*
X192295600Y-118592600D01*
X192295600Y-118572600D01*
X192600400Y-118572600D01*
X192600400Y-118592600D01*
X193435200Y-118592600D01*
X193587600Y-118440200D01*
X193587600Y-118298743D01*
X193494794Y-118074689D01*
X193366464Y-117946359D01*
X193366464Y-117470000D01*
X193339897Y-117328810D01*
X193256454Y-117199135D01*
X193129134Y-117112141D01*
X192978000Y-117081536D01*
X191918000Y-117081536D01*
X191776810Y-117108103D01*
X191647135Y-117191546D01*
X191607600Y-117249407D01*
X191607600Y-116996743D01*
X191514794Y-116772689D01*
X191343311Y-116601206D01*
X191119257Y-116508400D01*
X190677800Y-116508400D01*
X190525400Y-116660800D01*
X190220600Y-116660800D01*
X190068200Y-116508400D01*
X189626743Y-116508400D01*
X189456000Y-116579124D01*
X189456000Y-114442369D01*
X189827856Y-114786109D01*
X190367141Y-114985062D01*
X190597600Y-114850800D01*
X190597600Y-113682400D01*
X190902400Y-113682400D01*
X190902400Y-114850800D01*
X191132859Y-114985062D01*
X191672144Y-114786109D01*
X192094243Y-114395925D01*
X192325815Y-113909746D01*
X192214378Y-113682400D01*
X190902400Y-113682400D01*
X190597600Y-113682400D01*
X190577600Y-113682400D01*
X190577600Y-113377600D01*
X190597600Y-113377600D01*
X190597600Y-113357600D01*
X190902400Y-113357600D01*
X190902400Y-113377600D01*
X192214378Y-113377600D01*
X192325815Y-113150254D01*
X192094243Y-112664075D01*
X191672144Y-112273891D01*
X191342894Y-112152424D01*
X191406057Y-112139860D01*
X191809834Y-111870065D01*
X192079629Y-111466288D01*
X192174369Y-110990000D01*
X192155196Y-110893610D01*
X193040292Y-110008514D01*
X193330830Y-110008514D01*
X193472020Y-109981947D01*
X193601695Y-109898504D01*
X193645446Y-109834472D01*
X194141246Y-110330272D01*
X194141246Y-110330272D01*
G37*
X194141246Y-110330272D02*
X194141246Y-110570050D01*
X194167813Y-110711240D01*
X194251256Y-110840915D01*
X194378576Y-110927909D01*
X194472560Y-110946941D01*
X194472560Y-111077861D01*
X193999281Y-111551141D01*
X193978897Y-111442810D01*
X193895454Y-111313135D01*
X193768134Y-111226141D01*
X193617000Y-111195536D01*
X192717000Y-111195536D01*
X192575810Y-111222103D01*
X192446135Y-111305546D01*
X192359141Y-111432866D01*
X192328536Y-111584000D01*
X192328536Y-112784000D01*
X192355103Y-112925190D01*
X192438546Y-113054865D01*
X192565866Y-113141859D01*
X192717000Y-113172464D01*
X193617000Y-113172464D01*
X193725800Y-113151992D01*
X193725800Y-113417568D01*
X193617000Y-113395536D01*
X192717000Y-113395536D01*
X192575810Y-113422103D01*
X192446135Y-113505546D01*
X192359141Y-113632866D01*
X192328536Y-113784000D01*
X192328536Y-114984000D01*
X192355103Y-115125190D01*
X192438546Y-115254865D01*
X192565866Y-115341859D01*
X192717000Y-115372464D01*
X193617000Y-115372464D01*
X193758190Y-115345897D01*
X193887865Y-115262454D01*
X193974859Y-115135134D01*
X194005464Y-114984000D01*
X194005464Y-114765571D01*
X194092689Y-114707289D01*
X194506289Y-114293689D01*
X194566500Y-114203578D01*
X194566500Y-115574285D01*
X194467085Y-115638256D01*
X194380091Y-115765576D01*
X194349486Y-115916710D01*
X194349486Y-116716810D01*
X194376053Y-116858000D01*
X194459496Y-116987675D01*
X194586816Y-117074669D01*
X194620727Y-117081536D01*
X194118000Y-117081536D01*
X193976810Y-117108103D01*
X193847135Y-117191546D01*
X193760141Y-117318866D01*
X193729536Y-117470000D01*
X193729536Y-118120000D01*
X193756103Y-118261190D01*
X193839546Y-118390865D01*
X193966866Y-118477859D01*
X194118000Y-118508464D01*
X195178000Y-118508464D01*
X195262500Y-118492564D01*
X195262500Y-118998647D01*
X195178000Y-118981536D01*
X194118000Y-118981536D01*
X193976810Y-119008103D01*
X193847135Y-119091546D01*
X193760141Y-119218866D01*
X193729536Y-119370000D01*
X193729536Y-120020000D01*
X193756103Y-120161190D01*
X193839546Y-120290865D01*
X193929000Y-120351986D01*
X193929000Y-120484555D01*
X193918135Y-120491546D01*
X193831141Y-120618866D01*
X193800536Y-120770000D01*
X193800536Y-121570000D01*
X193827103Y-121711190D01*
X193851940Y-121749788D01*
X193843689Y-121753206D01*
X193672206Y-121924689D01*
X193579400Y-122148743D01*
X193579400Y-122365200D01*
X193731800Y-122517600D01*
X194411600Y-122517600D01*
X194411600Y-122497600D01*
X194716400Y-122497600D01*
X194716400Y-122517600D01*
X194736400Y-122517600D01*
X194736400Y-122822400D01*
X194716400Y-122822400D01*
X194716400Y-123527200D01*
X194868800Y-123679600D01*
X195060257Y-123679600D01*
X195284311Y-123586794D01*
X195339400Y-123531705D01*
X195339400Y-125718000D01*
X195376136Y-125902683D01*
X195480750Y-126059250D01*
X195965500Y-126544000D01*
X191684407Y-126544000D01*
X191729581Y-126522328D01*
X192152933Y-126050008D01*
X192328674Y-125625703D01*
X192219296Y-125374400D01*
X190906400Y-125374400D01*
X190906400Y-125394400D01*
X190601600Y-125394400D01*
X190601600Y-125374400D01*
X190581600Y-125374400D01*
X190581600Y-125069600D01*
X190601600Y-125069600D01*
X190601600Y-125049600D01*
X190906400Y-125049600D01*
X190906400Y-125069600D01*
X192219296Y-125069600D01*
X192328674Y-124818297D01*
X192152933Y-124393992D01*
X191861805Y-124069190D01*
X191911190Y-124059897D01*
X192040865Y-123976454D01*
X192127859Y-123849134D01*
X192158464Y-123698000D01*
X192158464Y-122974800D01*
X193579400Y-122974800D01*
X193579400Y-123191257D01*
X193672206Y-123415311D01*
X193843689Y-123586794D01*
X194067743Y-123679600D01*
X194259200Y-123679600D01*
X194411600Y-123527200D01*
X194411600Y-122822400D01*
X193731800Y-122822400D01*
X193579400Y-122974800D01*
X192158464Y-122974800D01*
X192158464Y-121666000D01*
X192131897Y-121524810D01*
X192048454Y-121395135D01*
X191921134Y-121308141D01*
X191770000Y-121277536D01*
X191008000Y-121277536D01*
X191008000Y-120504582D01*
X191139190Y-120479897D01*
X191268865Y-120396454D01*
X191314271Y-120330000D01*
X191696822Y-120330000D01*
X191766866Y-120377859D01*
X191918000Y-120408464D01*
X192978000Y-120408464D01*
X193119190Y-120381897D01*
X193248865Y-120298454D01*
X193335859Y-120171134D01*
X193366464Y-120020000D01*
X193366464Y-119543641D01*
X193494794Y-119415311D01*
X193587600Y-119191257D01*
X193587600Y-119049800D01*
X193435200Y-118897400D01*
X192600400Y-118897400D01*
X192600400Y-118917400D01*
X192295600Y-118917400D01*
X192295600Y-118897400D01*
X191460800Y-118897400D01*
X191363301Y-118994899D01*
X191359897Y-118976810D01*
X191276454Y-118847135D01*
X191149134Y-118760141D01*
X190998000Y-118729536D01*
X189748000Y-118729536D01*
X189606810Y-118756103D01*
X189477135Y-118839546D01*
X189456000Y-118870478D01*
X189456000Y-118656876D01*
X189626743Y-118727600D01*
X190068200Y-118727600D01*
X190220600Y-118575200D01*
X190220600Y-117770400D01*
X190200600Y-117770400D01*
X190200600Y-117465600D01*
X190220600Y-117465600D01*
X190220600Y-116660800D01*
X190525400Y-116660800D01*
X190525400Y-117465600D01*
X190545400Y-117465600D01*
X190545400Y-117770400D01*
X190525400Y-117770400D01*
X190525400Y-118575200D01*
X190677800Y-118727600D01*
X191119257Y-118727600D01*
X191343311Y-118634794D01*
X191423153Y-118554953D01*
X191460800Y-118592600D01*
X192295600Y-118592600D01*
X192295600Y-118572600D01*
X192600400Y-118572600D01*
X192600400Y-118592600D01*
X193435200Y-118592600D01*
X193587600Y-118440200D01*
X193587600Y-118298743D01*
X193494794Y-118074689D01*
X193366464Y-117946359D01*
X193366464Y-117470000D01*
X193339897Y-117328810D01*
X193256454Y-117199135D01*
X193129134Y-117112141D01*
X192978000Y-117081536D01*
X191918000Y-117081536D01*
X191776810Y-117108103D01*
X191647135Y-117191546D01*
X191607600Y-117249407D01*
X191607600Y-116996743D01*
X191514794Y-116772689D01*
X191343311Y-116601206D01*
X191119257Y-116508400D01*
X190677800Y-116508400D01*
X190525400Y-116660800D01*
X190220600Y-116660800D01*
X190068200Y-116508400D01*
X189626743Y-116508400D01*
X189456000Y-116579124D01*
X189456000Y-114442369D01*
X189827856Y-114786109D01*
X190367141Y-114985062D01*
X190597600Y-114850800D01*
X190597600Y-113682400D01*
X190902400Y-113682400D01*
X190902400Y-114850800D01*
X191132859Y-114985062D01*
X191672144Y-114786109D01*
X192094243Y-114395925D01*
X192325815Y-113909746D01*
X192214378Y-113682400D01*
X190902400Y-113682400D01*
X190597600Y-113682400D01*
X190577600Y-113682400D01*
X190577600Y-113377600D01*
X190597600Y-113377600D01*
X190597600Y-113357600D01*
X190902400Y-113357600D01*
X190902400Y-113377600D01*
X192214378Y-113377600D01*
X192325815Y-113150254D01*
X192094243Y-112664075D01*
X191672144Y-112273891D01*
X191342894Y-112152424D01*
X191406057Y-112139860D01*
X191809834Y-111870065D01*
X192079629Y-111466288D01*
X192174369Y-110990000D01*
X192155196Y-110893610D01*
X193040292Y-110008514D01*
X193330830Y-110008514D01*
X193472020Y-109981947D01*
X193601695Y-109898504D01*
X193645446Y-109834472D01*
X194141246Y-110330272D01*
G36*
X205384390Y-115996158D02*
X205384390Y-119760990D01*
X205421126Y-119945673D01*
X205525740Y-120102240D01*
X206349750Y-120926250D01*
X206506317Y-121030864D01*
X206691000Y-121067600D01*
X207250295Y-121067600D01*
X207108206Y-121209689D01*
X207015400Y-121433743D01*
X207015400Y-121552600D01*
X207167800Y-121705000D01*
X208447600Y-121705000D01*
X208447600Y-121682600D01*
X208752400Y-121682600D01*
X208752400Y-121705000D01*
X210032200Y-121705000D01*
X210184600Y-121552600D01*
X210184600Y-121433743D01*
X210091794Y-121209689D01*
X209926924Y-121044819D01*
X209932859Y-121036134D01*
X209955959Y-120922064D01*
X210099689Y-121065794D01*
X210323743Y-121158600D01*
X210515200Y-121158600D01*
X210667600Y-121006200D01*
X210667600Y-120101400D01*
X210647600Y-120101400D01*
X210647600Y-119796600D01*
X210667600Y-119796600D01*
X210667600Y-119776600D01*
X210972400Y-119776600D01*
X210972400Y-119796600D01*
X210992400Y-119796600D01*
X210992400Y-120101400D01*
X210972400Y-120101400D01*
X210972400Y-121006200D01*
X211124800Y-121158600D01*
X211316257Y-121158600D01*
X211540311Y-121065794D01*
X211711794Y-120894311D01*
X211761536Y-120774223D01*
X211761536Y-120850000D01*
X211788103Y-120991190D01*
X211871546Y-121120865D01*
X211998866Y-121207859D01*
X212150000Y-121238464D01*
X213050000Y-121238464D01*
X213191190Y-121211897D01*
X213320865Y-121128454D01*
X213407859Y-121001134D01*
X213438464Y-120850000D01*
X213438464Y-119650000D01*
X213433949Y-119626000D01*
X213561536Y-119626000D01*
X213561536Y-120826000D01*
X213588103Y-120967190D01*
X213671546Y-121096865D01*
X213798866Y-121183859D01*
X213950000Y-121214464D01*
X214850000Y-121214464D01*
X214991190Y-121187897D01*
X215120865Y-121104454D01*
X215207859Y-120977134D01*
X215238464Y-120826000D01*
X215238464Y-119626000D01*
X215211897Y-119484810D01*
X215128454Y-119355135D01*
X215001134Y-119268141D01*
X214850000Y-119237536D01*
X213950000Y-119237536D01*
X213808810Y-119264103D01*
X213679135Y-119347546D01*
X213592141Y-119474866D01*
X213561536Y-119626000D01*
X213433949Y-119626000D01*
X213411897Y-119508810D01*
X213328454Y-119379135D01*
X213201134Y-119292141D01*
X213050000Y-119261536D01*
X212150000Y-119261536D01*
X212008810Y-119288103D01*
X211879135Y-119371546D01*
X211804600Y-119480632D01*
X211804600Y-119227743D01*
X211711794Y-119003689D01*
X211540311Y-118832206D01*
X211533011Y-118829182D01*
X211552859Y-118800134D01*
X211583464Y-118649000D01*
X211583464Y-118531600D01*
X211761536Y-118531600D01*
X211761536Y-118650000D01*
X211788103Y-118791190D01*
X211871546Y-118920865D01*
X211998866Y-119007859D01*
X212150000Y-119038464D01*
X213050000Y-119038464D01*
X213191190Y-119011897D01*
X213320865Y-118928454D01*
X213407859Y-118801134D01*
X213438464Y-118650000D01*
X213438464Y-118508600D01*
X213561536Y-118508600D01*
X213561536Y-118626000D01*
X213588103Y-118767190D01*
X213671546Y-118896865D01*
X213798866Y-118983859D01*
X213950000Y-119014464D01*
X214850000Y-119014464D01*
X214991190Y-118987897D01*
X215120865Y-118904454D01*
X215207859Y-118777134D01*
X215238464Y-118626000D01*
X215238464Y-118063761D01*
X215290400Y-118115697D01*
X215290400Y-122488200D01*
X215327136Y-122672883D01*
X215431750Y-122829450D01*
X216006550Y-123404250D01*
X216162536Y-123508476D01*
X216162536Y-124063000D01*
X216189103Y-124204190D01*
X216272546Y-124333865D01*
X216273379Y-124334434D01*
X216193141Y-124451866D01*
X216162536Y-124603000D01*
X216162536Y-125157524D01*
X216006550Y-125261750D01*
X215258900Y-126009400D01*
X210184600Y-126009400D01*
X210184600Y-125967400D01*
X210032200Y-125815000D01*
X208752400Y-125815000D01*
X208752400Y-125837400D01*
X208447600Y-125837400D01*
X208447600Y-125815000D01*
X207167800Y-125815000D01*
X207015400Y-125967400D01*
X207015400Y-126009400D01*
X200784600Y-126009400D01*
X200784600Y-125967400D01*
X200632200Y-125815000D01*
X199352400Y-125815000D01*
X199352400Y-125837400D01*
X199047600Y-125837400D01*
X199047600Y-125815000D01*
X197767800Y-125815000D01*
X197615400Y-125967400D01*
X197615400Y-126009400D01*
X196795900Y-126009400D01*
X196304600Y-125518100D01*
X196304600Y-124697400D01*
X197615400Y-124697400D01*
X197615400Y-124816257D01*
X197703935Y-125030000D01*
X197615400Y-125243743D01*
X197615400Y-125362600D01*
X197767800Y-125515000D01*
X199047600Y-125515000D01*
X199047600Y-124545000D01*
X199352400Y-124545000D01*
X199352400Y-125515000D01*
X200632200Y-125515000D01*
X200784600Y-125362600D01*
X200784600Y-125243743D01*
X200696065Y-125030000D01*
X200784600Y-124816257D01*
X200784600Y-124697400D01*
X207015400Y-124697400D01*
X207015400Y-124816257D01*
X207103935Y-125030000D01*
X207015400Y-125243743D01*
X207015400Y-125362600D01*
X207167800Y-125515000D01*
X208447600Y-125515000D01*
X208447600Y-124545000D01*
X208752400Y-124545000D01*
X208752400Y-125515000D01*
X210032200Y-125515000D01*
X210184600Y-125362600D01*
X210184600Y-125243743D01*
X210096065Y-125030000D01*
X210184600Y-124816257D01*
X210184600Y-124697400D01*
X210032200Y-124545000D01*
X208752400Y-124545000D01*
X208447600Y-124545000D01*
X207167800Y-124545000D01*
X207015400Y-124697400D01*
X200784600Y-124697400D01*
X200632200Y-124545000D01*
X199352400Y-124545000D01*
X199047600Y-124545000D01*
X197767800Y-124545000D01*
X197615400Y-124697400D01*
X196304600Y-124697400D01*
X196304600Y-123427400D01*
X197615400Y-123427400D01*
X197615400Y-123546257D01*
X197703935Y-123760000D01*
X197615400Y-123973743D01*
X197615400Y-124092600D01*
X197767800Y-124245000D01*
X199047600Y-124245000D01*
X199047600Y-123275000D01*
X199352400Y-123275000D01*
X199352400Y-124245000D01*
X200632200Y-124245000D01*
X200784600Y-124092600D01*
X200784600Y-123973743D01*
X200696065Y-123760000D01*
X200784600Y-123546257D01*
X200784600Y-123427400D01*
X207015400Y-123427400D01*
X207015400Y-123546257D01*
X207103935Y-123760000D01*
X207015400Y-123973743D01*
X207015400Y-124092600D01*
X207167800Y-124245000D01*
X208447600Y-124245000D01*
X208447600Y-123275000D01*
X208752400Y-123275000D01*
X208752400Y-124245000D01*
X210032200Y-124245000D01*
X210184600Y-124092600D01*
X210184600Y-123973743D01*
X210096065Y-123760000D01*
X210184600Y-123546257D01*
X210184600Y-123427400D01*
X210032200Y-123275000D01*
X208752400Y-123275000D01*
X208447600Y-123275000D01*
X207167800Y-123275000D01*
X207015400Y-123427400D01*
X200784600Y-123427400D01*
X200632200Y-123275000D01*
X199352400Y-123275000D01*
X199047600Y-123275000D01*
X197767800Y-123275000D01*
X197615400Y-123427400D01*
X196304600Y-123427400D01*
X196304600Y-122609639D01*
X196480743Y-122682600D01*
X196672200Y-122682600D01*
X196824600Y-122530200D01*
X196824600Y-121625400D01*
X196804600Y-121625400D01*
X196804600Y-121320600D01*
X196824600Y-121320600D01*
X196824600Y-121300600D01*
X197129400Y-121300600D01*
X197129400Y-121320600D01*
X197149400Y-121320600D01*
X197149400Y-121625400D01*
X197129400Y-121625400D01*
X197129400Y-122530200D01*
X197281800Y-122682600D01*
X197473257Y-122682600D01*
X197655410Y-122607150D01*
X197615400Y-122703743D01*
X197615400Y-122822600D01*
X197767800Y-122975000D01*
X199047600Y-122975000D01*
X199047600Y-122005000D01*
X199352400Y-122005000D01*
X199352400Y-122975000D01*
X200632200Y-122975000D01*
X200784600Y-122822600D01*
X200784600Y-122703743D01*
X200696065Y-122490000D01*
X200784600Y-122276257D01*
X200784600Y-122157400D01*
X207015400Y-122157400D01*
X207015400Y-122276257D01*
X207103935Y-122490000D01*
X207015400Y-122703743D01*
X207015400Y-122822600D01*
X207167800Y-122975000D01*
X208447600Y-122975000D01*
X208447600Y-122005000D01*
X208752400Y-122005000D01*
X208752400Y-122975000D01*
X210032200Y-122975000D01*
X210184600Y-122822600D01*
X210184600Y-122703743D01*
X210096065Y-122490000D01*
X210184600Y-122276257D01*
X210184600Y-122157400D01*
X210032200Y-122005000D01*
X208752400Y-122005000D01*
X208447600Y-122005000D01*
X207167800Y-122005000D01*
X207015400Y-122157400D01*
X200784600Y-122157400D01*
X200632200Y-122005000D01*
X199352400Y-122005000D01*
X199047600Y-122005000D01*
X199027600Y-122005000D01*
X199027600Y-121705000D01*
X199047600Y-121705000D01*
X199047600Y-120735000D01*
X199352400Y-120735000D01*
X199352400Y-121705000D01*
X200632200Y-121705000D01*
X200784600Y-121552600D01*
X200784600Y-121433743D01*
X200696065Y-121220000D01*
X200784600Y-121006257D01*
X200784600Y-120887400D01*
X200632200Y-120735000D01*
X199352400Y-120735000D01*
X199047600Y-120735000D01*
X199027600Y-120735000D01*
X199027600Y-120435000D01*
X199047600Y-120435000D01*
X199047600Y-120412600D01*
X199352400Y-120412600D01*
X199352400Y-120435000D01*
X200632200Y-120435000D01*
X200784600Y-120282600D01*
X200784600Y-120163743D01*
X200691794Y-119939689D01*
X200526924Y-119774819D01*
X200532859Y-119766134D01*
X200563464Y-119615000D01*
X200563464Y-119015000D01*
X200536897Y-118873810D01*
X200453454Y-118744135D01*
X200358813Y-118679470D01*
X200445865Y-118623454D01*
X200511359Y-118527600D01*
X200655000Y-118527600D01*
X200839683Y-118490864D01*
X200996250Y-118386250D01*
X201191247Y-118191252D01*
X201191250Y-118191250D01*
X201295864Y-118034683D01*
X201311197Y-117957600D01*
X201332601Y-117850000D01*
X201332600Y-117849995D01*
X201332600Y-117480482D01*
X201426987Y-117386259D01*
X201530882Y-117136054D01*
X201531118Y-116865135D01*
X201427661Y-116614748D01*
X201363080Y-116550055D01*
X201426987Y-116486259D01*
X201505340Y-116297566D01*
X201722889Y-116297756D01*
X201973276Y-116194299D01*
X202165011Y-116002897D01*
X202184572Y-115955790D01*
X204243518Y-115955790D01*
X204337741Y-116050177D01*
X204587946Y-116154072D01*
X204858865Y-116154308D01*
X205109252Y-116050851D01*
X205274311Y-115886079D01*
X205384390Y-115996158D01*
X205384390Y-115996158D01*
G37*
X205384390Y-115996158D02*
X205384390Y-119760990D01*
X205421126Y-119945673D01*
X205525740Y-120102240D01*
X206349750Y-120926250D01*
X206506317Y-121030864D01*
X206691000Y-121067600D01*
X207250295Y-121067600D01*
X207108206Y-121209689D01*
X207015400Y-121433743D01*
X207015400Y-121552600D01*
X207167800Y-121705000D01*
X208447600Y-121705000D01*
X208447600Y-121682600D01*
X208752400Y-121682600D01*
X208752400Y-121705000D01*
X210032200Y-121705000D01*
X210184600Y-121552600D01*
X210184600Y-121433743D01*
X210091794Y-121209689D01*
X209926924Y-121044819D01*
X209932859Y-121036134D01*
X209955959Y-120922064D01*
X210099689Y-121065794D01*
X210323743Y-121158600D01*
X210515200Y-121158600D01*
X210667600Y-121006200D01*
X210667600Y-120101400D01*
X210647600Y-120101400D01*
X210647600Y-119796600D01*
X210667600Y-119796600D01*
X210667600Y-119776600D01*
X210972400Y-119776600D01*
X210972400Y-119796600D01*
X210992400Y-119796600D01*
X210992400Y-120101400D01*
X210972400Y-120101400D01*
X210972400Y-121006200D01*
X211124800Y-121158600D01*
X211316257Y-121158600D01*
X211540311Y-121065794D01*
X211711794Y-120894311D01*
X211761536Y-120774223D01*
X211761536Y-120850000D01*
X211788103Y-120991190D01*
X211871546Y-121120865D01*
X211998866Y-121207859D01*
X212150000Y-121238464D01*
X213050000Y-121238464D01*
X213191190Y-121211897D01*
X213320865Y-121128454D01*
X213407859Y-121001134D01*
X213438464Y-120850000D01*
X213438464Y-119650000D01*
X213433949Y-119626000D01*
X213561536Y-119626000D01*
X213561536Y-120826000D01*
X213588103Y-120967190D01*
X213671546Y-121096865D01*
X213798866Y-121183859D01*
X213950000Y-121214464D01*
X214850000Y-121214464D01*
X214991190Y-121187897D01*
X215120865Y-121104454D01*
X215207859Y-120977134D01*
X215238464Y-120826000D01*
X215238464Y-119626000D01*
X215211897Y-119484810D01*
X215128454Y-119355135D01*
X215001134Y-119268141D01*
X214850000Y-119237536D01*
X213950000Y-119237536D01*
X213808810Y-119264103D01*
X213679135Y-119347546D01*
X213592141Y-119474866D01*
X213561536Y-119626000D01*
X213433949Y-119626000D01*
X213411897Y-119508810D01*
X213328454Y-119379135D01*
X213201134Y-119292141D01*
X213050000Y-119261536D01*
X212150000Y-119261536D01*
X212008810Y-119288103D01*
X211879135Y-119371546D01*
X211804600Y-119480632D01*
X211804600Y-119227743D01*
X211711794Y-119003689D01*
X211540311Y-118832206D01*
X211533011Y-118829182D01*
X211552859Y-118800134D01*
X211583464Y-118649000D01*
X211583464Y-118531600D01*
X211761536Y-118531600D01*
X211761536Y-118650000D01*
X211788103Y-118791190D01*
X211871546Y-118920865D01*
X211998866Y-119007859D01*
X212150000Y-119038464D01*
X213050000Y-119038464D01*
X213191190Y-119011897D01*
X213320865Y-118928454D01*
X213407859Y-118801134D01*
X213438464Y-118650000D01*
X213438464Y-118508600D01*
X213561536Y-118508600D01*
X213561536Y-118626000D01*
X213588103Y-118767190D01*
X213671546Y-118896865D01*
X213798866Y-118983859D01*
X213950000Y-119014464D01*
X214850000Y-119014464D01*
X214991190Y-118987897D01*
X215120865Y-118904454D01*
X215207859Y-118777134D01*
X215238464Y-118626000D01*
X215238464Y-118063761D01*
X215290400Y-118115697D01*
X215290400Y-122488200D01*
X215327136Y-122672883D01*
X215431750Y-122829450D01*
X216006550Y-123404250D01*
X216162536Y-123508476D01*
X216162536Y-124063000D01*
X216189103Y-124204190D01*
X216272546Y-124333865D01*
X216273379Y-124334434D01*
X216193141Y-124451866D01*
X216162536Y-124603000D01*
X216162536Y-125157524D01*
X216006550Y-125261750D01*
X215258900Y-126009400D01*
X210184600Y-126009400D01*
X210184600Y-125967400D01*
X210032200Y-125815000D01*
X208752400Y-125815000D01*
X208752400Y-125837400D01*
X208447600Y-125837400D01*
X208447600Y-125815000D01*
X207167800Y-125815000D01*
X207015400Y-125967400D01*
X207015400Y-126009400D01*
X200784600Y-126009400D01*
X200784600Y-125967400D01*
X200632200Y-125815000D01*
X199352400Y-125815000D01*
X199352400Y-125837400D01*
X199047600Y-125837400D01*
X199047600Y-125815000D01*
X197767800Y-125815000D01*
X197615400Y-125967400D01*
X197615400Y-126009400D01*
X196795900Y-126009400D01*
X196304600Y-125518100D01*
X196304600Y-124697400D01*
X197615400Y-124697400D01*
X197615400Y-124816257D01*
X197703935Y-125030000D01*
X197615400Y-125243743D01*
X197615400Y-125362600D01*
X197767800Y-125515000D01*
X199047600Y-125515000D01*
X199047600Y-124545000D01*
X199352400Y-124545000D01*
X199352400Y-125515000D01*
X200632200Y-125515000D01*
X200784600Y-125362600D01*
X200784600Y-125243743D01*
X200696065Y-125030000D01*
X200784600Y-124816257D01*
X200784600Y-124697400D01*
X207015400Y-124697400D01*
X207015400Y-124816257D01*
X207103935Y-125030000D01*
X207015400Y-125243743D01*
X207015400Y-125362600D01*
X207167800Y-125515000D01*
X208447600Y-125515000D01*
X208447600Y-124545000D01*
X208752400Y-124545000D01*
X208752400Y-125515000D01*
X210032200Y-125515000D01*
X210184600Y-125362600D01*
X210184600Y-125243743D01*
X210096065Y-125030000D01*
X210184600Y-124816257D01*
X210184600Y-124697400D01*
X210032200Y-124545000D01*
X208752400Y-124545000D01*
X208447600Y-124545000D01*
X207167800Y-124545000D01*
X207015400Y-124697400D01*
X200784600Y-124697400D01*
X200632200Y-124545000D01*
X199352400Y-124545000D01*
X199047600Y-124545000D01*
X197767800Y-124545000D01*
X197615400Y-124697400D01*
X196304600Y-124697400D01*
X196304600Y-123427400D01*
X197615400Y-123427400D01*
X197615400Y-123546257D01*
X197703935Y-123760000D01*
X197615400Y-123973743D01*
X197615400Y-124092600D01*
X197767800Y-124245000D01*
X199047600Y-124245000D01*
X199047600Y-123275000D01*
X199352400Y-123275000D01*
X199352400Y-124245000D01*
X200632200Y-124245000D01*
X200784600Y-124092600D01*
X200784600Y-123973743D01*
X200696065Y-123760000D01*
X200784600Y-123546257D01*
X200784600Y-123427400D01*
X207015400Y-123427400D01*
X207015400Y-123546257D01*
X207103935Y-123760000D01*
X207015400Y-123973743D01*
X207015400Y-124092600D01*
X207167800Y-124245000D01*
X208447600Y-124245000D01*
X208447600Y-123275000D01*
X208752400Y-123275000D01*
X208752400Y-124245000D01*
X210032200Y-124245000D01*
X210184600Y-124092600D01*
X210184600Y-123973743D01*
X210096065Y-123760000D01*
X210184600Y-123546257D01*
X210184600Y-123427400D01*
X210032200Y-123275000D01*
X208752400Y-123275000D01*
X208447600Y-123275000D01*
X207167800Y-123275000D01*
X207015400Y-123427400D01*
X200784600Y-123427400D01*
X200632200Y-123275000D01*
X199352400Y-123275000D01*
X199047600Y-123275000D01*
X197767800Y-123275000D01*
X197615400Y-123427400D01*
X196304600Y-123427400D01*
X196304600Y-122609639D01*
X196480743Y-122682600D01*
X196672200Y-122682600D01*
X196824600Y-122530200D01*
X196824600Y-121625400D01*
X196804600Y-121625400D01*
X196804600Y-121320600D01*
X196824600Y-121320600D01*
X196824600Y-121300600D01*
X197129400Y-121300600D01*
X197129400Y-121320600D01*
X197149400Y-121320600D01*
X197149400Y-121625400D01*
X197129400Y-121625400D01*
X197129400Y-122530200D01*
X197281800Y-122682600D01*
X197473257Y-122682600D01*
X197655410Y-122607150D01*
X197615400Y-122703743D01*
X197615400Y-122822600D01*
X197767800Y-122975000D01*
X199047600Y-122975000D01*
X199047600Y-122005000D01*
X199352400Y-122005000D01*
X199352400Y-122975000D01*
X200632200Y-122975000D01*
X200784600Y-122822600D01*
X200784600Y-122703743D01*
X200696065Y-122490000D01*
X200784600Y-122276257D01*
X200784600Y-122157400D01*
X207015400Y-122157400D01*
X207015400Y-122276257D01*
X207103935Y-122490000D01*
X207015400Y-122703743D01*
X207015400Y-122822600D01*
X207167800Y-122975000D01*
X208447600Y-122975000D01*
X208447600Y-122005000D01*
X208752400Y-122005000D01*
X208752400Y-122975000D01*
X210032200Y-122975000D01*
X210184600Y-122822600D01*
X210184600Y-122703743D01*
X210096065Y-122490000D01*
X210184600Y-122276257D01*
X210184600Y-122157400D01*
X210032200Y-122005000D01*
X208752400Y-122005000D01*
X208447600Y-122005000D01*
X207167800Y-122005000D01*
X207015400Y-122157400D01*
X200784600Y-122157400D01*
X200632200Y-122005000D01*
X199352400Y-122005000D01*
X199047600Y-122005000D01*
X199027600Y-122005000D01*
X199027600Y-121705000D01*
X199047600Y-121705000D01*
X199047600Y-120735000D01*
X199352400Y-120735000D01*
X199352400Y-121705000D01*
X200632200Y-121705000D01*
X200784600Y-121552600D01*
X200784600Y-121433743D01*
X200696065Y-121220000D01*
X200784600Y-121006257D01*
X200784600Y-120887400D01*
X200632200Y-120735000D01*
X199352400Y-120735000D01*
X199047600Y-120735000D01*
X199027600Y-120735000D01*
X199027600Y-120435000D01*
X199047600Y-120435000D01*
X199047600Y-120412600D01*
X199352400Y-120412600D01*
X199352400Y-120435000D01*
X200632200Y-120435000D01*
X200784600Y-120282600D01*
X200784600Y-120163743D01*
X200691794Y-119939689D01*
X200526924Y-119774819D01*
X200532859Y-119766134D01*
X200563464Y-119615000D01*
X200563464Y-119015000D01*
X200536897Y-118873810D01*
X200453454Y-118744135D01*
X200358813Y-118679470D01*
X200445865Y-118623454D01*
X200511359Y-118527600D01*
X200655000Y-118527600D01*
X200839683Y-118490864D01*
X200996250Y-118386250D01*
X201191247Y-118191252D01*
X201191250Y-118191250D01*
X201295864Y-118034683D01*
X201311197Y-117957600D01*
X201332601Y-117850000D01*
X201332600Y-117849995D01*
X201332600Y-117480482D01*
X201426987Y-117386259D01*
X201530882Y-117136054D01*
X201531118Y-116865135D01*
X201427661Y-116614748D01*
X201363080Y-116550055D01*
X201426987Y-116486259D01*
X201505340Y-116297566D01*
X201722889Y-116297756D01*
X201973276Y-116194299D01*
X202165011Y-116002897D01*
X202184572Y-115955790D01*
X204243518Y-115955790D01*
X204337741Y-116050177D01*
X204587946Y-116154072D01*
X204858865Y-116154308D01*
X205109252Y-116050851D01*
X205274311Y-115886079D01*
X205384390Y-115996158D01*
G36*
X216340166Y-111870065D02*
X216743943Y-112139860D01*
X216807106Y-112152424D01*
X216477856Y-112273891D01*
X216055757Y-112664075D01*
X215824185Y-113150254D01*
X215935622Y-113377600D01*
X217247600Y-113377600D01*
X217247600Y-113357600D01*
X217552400Y-113357600D01*
X217552400Y-113377600D01*
X217572400Y-113377600D01*
X217572400Y-113682400D01*
X217552400Y-113682400D01*
X217552400Y-114850800D01*
X217782859Y-114985062D01*
X218322144Y-114786109D01*
X218544000Y-114581028D01*
X218544000Y-116373400D01*
X217855800Y-116373400D01*
X217703400Y-116525800D01*
X217703400Y-117830600D01*
X217723400Y-117830600D01*
X217723400Y-118135400D01*
X217703400Y-118135400D01*
X217703400Y-118155400D01*
X217398600Y-118155400D01*
X217398600Y-118135400D01*
X217378600Y-118135400D01*
X217378600Y-117830600D01*
X217398600Y-117830600D01*
X217398600Y-116525800D01*
X217246200Y-116373400D01*
X216581211Y-116373400D01*
X216495250Y-116244750D01*
X216338683Y-116140136D01*
X216154000Y-116103400D01*
X215083899Y-116103400D01*
X214352964Y-115372464D01*
X215080000Y-115372464D01*
X215221190Y-115345897D01*
X215350865Y-115262454D01*
X215437859Y-115135134D01*
X215468464Y-114984000D01*
X215468464Y-113909746D01*
X215824185Y-113909746D01*
X216055757Y-114395925D01*
X216477856Y-114786109D01*
X217017141Y-114985062D01*
X217247600Y-114850800D01*
X217247600Y-113682400D01*
X215935622Y-113682400D01*
X215824185Y-113909746D01*
X215468464Y-113909746D01*
X215468464Y-113784000D01*
X215441897Y-113642810D01*
X215358454Y-113513135D01*
X215231134Y-113426141D01*
X215080000Y-113395536D01*
X214223600Y-113395536D01*
X214223600Y-113172464D01*
X215080000Y-113172464D01*
X215221190Y-113145897D01*
X215350865Y-113062454D01*
X215437859Y-112935134D01*
X215468464Y-112784000D01*
X215468464Y-111625000D01*
X216176419Y-111625000D01*
X216340166Y-111870065D01*
X216340166Y-111870065D01*
G37*
X216340166Y-111870065D02*
X216743943Y-112139860D01*
X216807106Y-112152424D01*
X216477856Y-112273891D01*
X216055757Y-112664075D01*
X215824185Y-113150254D01*
X215935622Y-113377600D01*
X217247600Y-113377600D01*
X217247600Y-113357600D01*
X217552400Y-113357600D01*
X217552400Y-113377600D01*
X217572400Y-113377600D01*
X217572400Y-113682400D01*
X217552400Y-113682400D01*
X217552400Y-114850800D01*
X217782859Y-114985062D01*
X218322144Y-114786109D01*
X218544000Y-114581028D01*
X218544000Y-116373400D01*
X217855800Y-116373400D01*
X217703400Y-116525800D01*
X217703400Y-117830600D01*
X217723400Y-117830600D01*
X217723400Y-118135400D01*
X217703400Y-118135400D01*
X217703400Y-118155400D01*
X217398600Y-118155400D01*
X217398600Y-118135400D01*
X217378600Y-118135400D01*
X217378600Y-117830600D01*
X217398600Y-117830600D01*
X217398600Y-116525800D01*
X217246200Y-116373400D01*
X216581211Y-116373400D01*
X216495250Y-116244750D01*
X216338683Y-116140136D01*
X216154000Y-116103400D01*
X215083899Y-116103400D01*
X214352964Y-115372464D01*
X215080000Y-115372464D01*
X215221190Y-115345897D01*
X215350865Y-115262454D01*
X215437859Y-115135134D01*
X215468464Y-114984000D01*
X215468464Y-113909746D01*
X215824185Y-113909746D01*
X216055757Y-114395925D01*
X216477856Y-114786109D01*
X217017141Y-114985062D01*
X217247600Y-114850800D01*
X217247600Y-113682400D01*
X215935622Y-113682400D01*
X215824185Y-113909746D01*
X215468464Y-113909746D01*
X215468464Y-113784000D01*
X215441897Y-113642810D01*
X215358454Y-113513135D01*
X215231134Y-113426141D01*
X215080000Y-113395536D01*
X214223600Y-113395536D01*
X214223600Y-113172464D01*
X215080000Y-113172464D01*
X215221190Y-113145897D01*
X215350865Y-113062454D01*
X215437859Y-112935134D01*
X215468464Y-112784000D01*
X215468464Y-111625000D01*
X216176419Y-111625000D01*
X216340166Y-111870065D01*
G36*
X209250118Y-96256946D02*
X209249882Y-96527865D01*
X209353339Y-96778252D01*
X209544741Y-96969987D01*
X209794946Y-97073882D01*
X209929499Y-97073999D01*
X211682750Y-98827250D01*
X211839317Y-98931864D01*
X212024000Y-98968600D01*
X212348259Y-98968600D01*
X212359293Y-99027240D01*
X212442736Y-99156915D01*
X212570056Y-99243909D01*
X212721190Y-99274514D01*
X213146014Y-99274514D01*
X213451400Y-99579900D01*
X213451400Y-100816843D01*
X213216054Y-100719118D01*
X212945135Y-100718882D01*
X212694748Y-100822339D01*
X212599522Y-100917400D01*
X212439078Y-100917400D01*
X212254395Y-100954136D01*
X212097828Y-101058750D01*
X210318750Y-102837828D01*
X210214136Y-102994395D01*
X210177400Y-103179078D01*
X210177400Y-108820010D01*
X210214136Y-109004693D01*
X210318750Y-109161260D01*
X211922738Y-110765247D01*
X211922740Y-110765250D01*
X212079307Y-110869864D01*
X212087659Y-110871525D01*
X212105293Y-110965240D01*
X212188736Y-111094915D01*
X212316056Y-111181909D01*
X212467190Y-111212514D01*
X213019015Y-111212514D01*
X213029790Y-111223289D01*
X213029790Y-111419298D01*
X213066526Y-111603981D01*
X213171140Y-111760548D01*
X213258400Y-111847808D01*
X213258400Y-114148200D01*
X213279431Y-114253929D01*
X213225135Y-114253882D01*
X212974748Y-114357339D01*
X212783013Y-114548741D01*
X212679118Y-114798946D01*
X212678882Y-115069865D01*
X212782339Y-115320252D01*
X212973741Y-115511987D01*
X213223946Y-115615882D01*
X213231389Y-115615888D01*
X213291455Y-115675954D01*
X213101748Y-115754339D01*
X212910013Y-115945741D01*
X212806118Y-116195946D01*
X212805882Y-116466865D01*
X212909339Y-116717252D01*
X213100741Y-116908987D01*
X213350946Y-117012882D01*
X213485499Y-117012999D01*
X213655150Y-117182650D01*
X213592141Y-117274866D01*
X213561536Y-117426000D01*
X213561536Y-117543400D01*
X213438464Y-117543400D01*
X213438464Y-117450000D01*
X213411897Y-117308810D01*
X213328454Y-117179135D01*
X213201134Y-117092141D01*
X213050000Y-117061536D01*
X212150000Y-117061536D01*
X212008810Y-117088103D01*
X211879135Y-117171546D01*
X211792141Y-117298866D01*
X211761536Y-117450000D01*
X211761536Y-117566400D01*
X211583464Y-117566400D01*
X211583464Y-117449000D01*
X211556897Y-117307810D01*
X211473454Y-117178135D01*
X211346134Y-117091141D01*
X211195000Y-117060536D01*
X210445000Y-117060536D01*
X210303810Y-117087103D01*
X210174135Y-117170546D01*
X210087141Y-117297866D01*
X210056536Y-117449000D01*
X210056536Y-117562400D01*
X209910251Y-117562400D01*
X209853454Y-117474135D01*
X209758813Y-117409470D01*
X209845865Y-117353454D01*
X209932859Y-117226134D01*
X209963464Y-117075000D01*
X209963464Y-116475000D01*
X209936897Y-116333810D01*
X209925698Y-116316407D01*
X210091794Y-116150311D01*
X210184600Y-115926257D01*
X210184600Y-115807400D01*
X210032200Y-115655000D01*
X208752400Y-115655000D01*
X208752400Y-115677400D01*
X208447600Y-115677400D01*
X208447600Y-115655000D01*
X207167800Y-115655000D01*
X207015400Y-115807400D01*
X207015400Y-115926257D01*
X207108206Y-116150311D01*
X207273076Y-116315181D01*
X207267141Y-116323866D01*
X207236536Y-116475000D01*
X207236536Y-117075000D01*
X207263103Y-117216190D01*
X207346546Y-117345865D01*
X207441187Y-117410530D01*
X207354135Y-117466546D01*
X207305996Y-117537000D01*
X206901421Y-117537000D01*
X206756000Y-117391580D01*
X206756000Y-114537400D01*
X207015400Y-114537400D01*
X207015400Y-114656257D01*
X207103935Y-114870000D01*
X207015400Y-115083743D01*
X207015400Y-115202600D01*
X207167800Y-115355000D01*
X208447600Y-115355000D01*
X208447600Y-114385000D01*
X208752400Y-114385000D01*
X208752400Y-115355000D01*
X210032200Y-115355000D01*
X210184600Y-115202600D01*
X210184600Y-115083743D01*
X210096065Y-114870000D01*
X210184600Y-114656257D01*
X210184600Y-114537400D01*
X210032200Y-114385000D01*
X208752400Y-114385000D01*
X208447600Y-114385000D01*
X207167800Y-114385000D01*
X207015400Y-114537400D01*
X206756000Y-114537400D01*
X206756000Y-114300000D01*
X206717331Y-114105597D01*
X206607210Y-113940790D01*
X206468963Y-113802543D01*
X206633252Y-113734661D01*
X206745343Y-113622765D01*
X207094506Y-113622765D01*
X207015400Y-113813743D01*
X207015400Y-113932600D01*
X207167800Y-114085000D01*
X208447600Y-114085000D01*
X208447600Y-113477800D01*
X208752400Y-113477800D01*
X208752400Y-114085000D01*
X210032200Y-114085000D01*
X210184600Y-113932600D01*
X210184600Y-113813743D01*
X210091794Y-113589689D01*
X209920311Y-113418206D01*
X209696257Y-113325400D01*
X208904800Y-113325400D01*
X208752400Y-113477800D01*
X208447600Y-113477800D01*
X208380292Y-113410492D01*
X208436047Y-113276219D01*
X208436283Y-113005300D01*
X208332826Y-112754913D01*
X208141424Y-112563178D01*
X207891219Y-112459283D01*
X207620300Y-112459047D01*
X207369913Y-112562504D01*
X207274687Y-112657565D01*
X206711676Y-112657565D01*
X206634259Y-112580013D01*
X206384054Y-112476118D01*
X206113135Y-112475882D01*
X205862748Y-112579339D01*
X205671013Y-112770741D01*
X205567118Y-113020946D01*
X205567096Y-113046131D01*
X205486000Y-113030000D01*
X202828906Y-113030000D01*
X202877882Y-112912054D01*
X202878118Y-112641135D01*
X202774661Y-112390748D01*
X202768500Y-112384576D01*
X202768500Y-111252000D01*
X202724997Y-111033296D01*
X202601112Y-110847888D01*
X202601109Y-110847886D01*
X202529711Y-110776487D01*
X202344303Y-110652602D01*
X202308017Y-110645384D01*
X202125599Y-110609098D01*
X202125594Y-110609099D01*
X196413406Y-110609099D01*
X196413401Y-110609098D01*
X196194698Y-110652601D01*
X196194696Y-110652602D01*
X196194697Y-110652602D01*
X196164200Y-110672979D01*
X196164200Y-108331000D01*
X196129398Y-108156037D01*
X196030289Y-108007711D01*
X195969289Y-107946711D01*
X195820963Y-107847602D01*
X195709912Y-107825513D01*
X195691707Y-107728760D01*
X195608264Y-107599085D01*
X195480944Y-107512091D01*
X195329810Y-107481486D01*
X194823745Y-107481486D01*
X194387652Y-107045392D01*
X194467575Y-106852917D01*
X194698865Y-106853118D01*
X194949252Y-106749661D01*
X195044478Y-106654600D01*
X197158100Y-106654600D01*
X198200998Y-107697497D01*
X198200882Y-107830865D01*
X198304339Y-108081252D01*
X198495741Y-108272987D01*
X198745946Y-108376882D01*
X198953401Y-108377063D01*
X198953401Y-108936001D01*
X198990137Y-109120684D01*
X199094751Y-109277251D01*
X199668998Y-109851498D01*
X199668882Y-109984865D01*
X199772339Y-110235252D01*
X199963741Y-110426987D01*
X200213946Y-110530882D01*
X200484865Y-110531118D01*
X200735252Y-110427661D01*
X200926987Y-110236259D01*
X201030882Y-109986054D01*
X201031118Y-109715135D01*
X200927661Y-109464748D01*
X200736259Y-109273013D01*
X200486054Y-109169118D01*
X200351501Y-109169001D01*
X199918601Y-108736101D01*
X199918601Y-108357409D01*
X200068743Y-108419600D01*
X203695200Y-108419600D01*
X203847600Y-108267200D01*
X203847600Y-104152400D01*
X204152400Y-104152400D01*
X204152400Y-108267200D01*
X204304800Y-108419600D01*
X207931257Y-108419600D01*
X208155311Y-108326794D01*
X208326794Y-108155311D01*
X208419600Y-107931257D01*
X208419600Y-104304800D01*
X208267200Y-104152400D01*
X204152400Y-104152400D01*
X203847600Y-104152400D01*
X199732800Y-104152400D01*
X199580400Y-104304800D01*
X199580400Y-106891979D01*
X198163563Y-105475141D01*
X198006996Y-105370527D01*
X197822313Y-105333791D01*
X196891339Y-105333791D01*
X197158704Y-105066892D01*
X197445673Y-104375796D01*
X197446326Y-103627487D01*
X197160564Y-102935891D01*
X196631892Y-102406296D01*
X195940796Y-102119327D01*
X195192487Y-102118674D01*
X194500891Y-102404436D01*
X193971296Y-102933108D01*
X193684327Y-103624204D01*
X193683674Y-104372513D01*
X193969436Y-105064109D01*
X194041178Y-105135976D01*
X193859396Y-105172135D01*
X193702829Y-105276749D01*
X192611447Y-106368131D01*
X192506833Y-106524698D01*
X192470097Y-106709381D01*
X192470097Y-106914295D01*
X192506833Y-107098978D01*
X192571711Y-107196076D01*
X192571578Y-107349159D01*
X192662414Y-107569000D01*
X192151190Y-107569000D01*
X192127897Y-107445210D01*
X192044454Y-107315535D01*
X191917134Y-107228541D01*
X191766000Y-107197936D01*
X189734000Y-107197936D01*
X189592810Y-107224503D01*
X189463135Y-107307946D01*
X189456000Y-107318388D01*
X189456000Y-103431028D01*
X189677856Y-103636109D01*
X190217141Y-103835062D01*
X190447600Y-103700800D01*
X190447600Y-102532400D01*
X190427600Y-102532400D01*
X190427600Y-102227600D01*
X190447600Y-102227600D01*
X190447600Y-102207600D01*
X190752400Y-102207600D01*
X190752400Y-102227600D01*
X190772400Y-102227600D01*
X190772400Y-102532400D01*
X190752400Y-102532400D01*
X190752400Y-103700800D01*
X190982859Y-103835062D01*
X191522144Y-103636109D01*
X191944243Y-103245925D01*
X192175815Y-102759746D01*
X192064379Y-102532402D01*
X192201536Y-102532402D01*
X192201536Y-103046000D01*
X192228103Y-103187190D01*
X192311546Y-103316865D01*
X192438866Y-103403859D01*
X192590000Y-103434464D01*
X193490000Y-103434464D01*
X193631190Y-103407897D01*
X193760865Y-103324454D01*
X193847859Y-103197134D01*
X193878464Y-103046000D01*
X193878464Y-102891476D01*
X194034450Y-102787250D01*
X196048250Y-100773450D01*
X196152864Y-100616883D01*
X196189600Y-100432200D01*
X196189600Y-100068743D01*
X199580400Y-100068743D01*
X199580400Y-103695200D01*
X199732800Y-103847600D01*
X203847600Y-103847600D01*
X203847600Y-99732800D01*
X204152400Y-99732800D01*
X204152400Y-103847600D01*
X208267200Y-103847600D01*
X208419600Y-103695200D01*
X208419600Y-100068743D01*
X208326794Y-99844689D01*
X208155311Y-99673206D01*
X207931257Y-99580400D01*
X204304800Y-99580400D01*
X204152400Y-99732800D01*
X203847600Y-99732800D01*
X203695200Y-99580400D01*
X200068743Y-99580400D01*
X199844689Y-99673206D01*
X199673206Y-99844689D01*
X199580400Y-100068743D01*
X196189600Y-100068743D01*
X196189600Y-97129600D01*
X196750518Y-97129600D01*
X196844741Y-97223987D01*
X197094946Y-97327882D01*
X197365865Y-97328118D01*
X197616252Y-97224661D01*
X197807987Y-97033259D01*
X197911882Y-96783054D01*
X197912118Y-96512135D01*
X197808661Y-96261748D01*
X197703097Y-96156000D01*
X209292035Y-96156000D01*
X209250118Y-96256946D01*
X209250118Y-96256946D01*
G37*
X209250118Y-96256946D02*
X209249882Y-96527865D01*
X209353339Y-96778252D01*
X209544741Y-96969987D01*
X209794946Y-97073882D01*
X209929499Y-97073999D01*
X211682750Y-98827250D01*
X211839317Y-98931864D01*
X212024000Y-98968600D01*
X212348259Y-98968600D01*
X212359293Y-99027240D01*
X212442736Y-99156915D01*
X212570056Y-99243909D01*
X212721190Y-99274514D01*
X213146014Y-99274514D01*
X213451400Y-99579900D01*
X213451400Y-100816843D01*
X213216054Y-100719118D01*
X212945135Y-100718882D01*
X212694748Y-100822339D01*
X212599522Y-100917400D01*
X212439078Y-100917400D01*
X212254395Y-100954136D01*
X212097828Y-101058750D01*
X210318750Y-102837828D01*
X210214136Y-102994395D01*
X210177400Y-103179078D01*
X210177400Y-108820010D01*
X210214136Y-109004693D01*
X210318750Y-109161260D01*
X211922738Y-110765247D01*
X211922740Y-110765250D01*
X212079307Y-110869864D01*
X212087659Y-110871525D01*
X212105293Y-110965240D01*
X212188736Y-111094915D01*
X212316056Y-111181909D01*
X212467190Y-111212514D01*
X213019015Y-111212514D01*
X213029790Y-111223289D01*
X213029790Y-111419298D01*
X213066526Y-111603981D01*
X213171140Y-111760548D01*
X213258400Y-111847808D01*
X213258400Y-114148200D01*
X213279431Y-114253929D01*
X213225135Y-114253882D01*
X212974748Y-114357339D01*
X212783013Y-114548741D01*
X212679118Y-114798946D01*
X212678882Y-115069865D01*
X212782339Y-115320252D01*
X212973741Y-115511987D01*
X213223946Y-115615882D01*
X213231389Y-115615888D01*
X213291455Y-115675954D01*
X213101748Y-115754339D01*
X212910013Y-115945741D01*
X212806118Y-116195946D01*
X212805882Y-116466865D01*
X212909339Y-116717252D01*
X213100741Y-116908987D01*
X213350946Y-117012882D01*
X213485499Y-117012999D01*
X213655150Y-117182650D01*
X213592141Y-117274866D01*
X213561536Y-117426000D01*
X213561536Y-117543400D01*
X213438464Y-117543400D01*
X213438464Y-117450000D01*
X213411897Y-117308810D01*
X213328454Y-117179135D01*
X213201134Y-117092141D01*
X213050000Y-117061536D01*
X212150000Y-117061536D01*
X212008810Y-117088103D01*
X211879135Y-117171546D01*
X211792141Y-117298866D01*
X211761536Y-117450000D01*
X211761536Y-117566400D01*
X211583464Y-117566400D01*
X211583464Y-117449000D01*
X211556897Y-117307810D01*
X211473454Y-117178135D01*
X211346134Y-117091141D01*
X211195000Y-117060536D01*
X210445000Y-117060536D01*
X210303810Y-117087103D01*
X210174135Y-117170546D01*
X210087141Y-117297866D01*
X210056536Y-117449000D01*
X210056536Y-117562400D01*
X209910251Y-117562400D01*
X209853454Y-117474135D01*
X209758813Y-117409470D01*
X209845865Y-117353454D01*
X209932859Y-117226134D01*
X209963464Y-117075000D01*
X209963464Y-116475000D01*
X209936897Y-116333810D01*
X209925698Y-116316407D01*
X210091794Y-116150311D01*
X210184600Y-115926257D01*
X210184600Y-115807400D01*
X210032200Y-115655000D01*
X208752400Y-115655000D01*
X208752400Y-115677400D01*
X208447600Y-115677400D01*
X208447600Y-115655000D01*
X207167800Y-115655000D01*
X207015400Y-115807400D01*
X207015400Y-115926257D01*
X207108206Y-116150311D01*
X207273076Y-116315181D01*
X207267141Y-116323866D01*
X207236536Y-116475000D01*
X207236536Y-117075000D01*
X207263103Y-117216190D01*
X207346546Y-117345865D01*
X207441187Y-117410530D01*
X207354135Y-117466546D01*
X207305996Y-117537000D01*
X206901421Y-117537000D01*
X206756000Y-117391580D01*
X206756000Y-114537400D01*
X207015400Y-114537400D01*
X207015400Y-114656257D01*
X207103935Y-114870000D01*
X207015400Y-115083743D01*
X207015400Y-115202600D01*
X207167800Y-115355000D01*
X208447600Y-115355000D01*
X208447600Y-114385000D01*
X208752400Y-114385000D01*
X208752400Y-115355000D01*
X210032200Y-115355000D01*
X210184600Y-115202600D01*
X210184600Y-115083743D01*
X210096065Y-114870000D01*
X210184600Y-114656257D01*
X210184600Y-114537400D01*
X210032200Y-114385000D01*
X208752400Y-114385000D01*
X208447600Y-114385000D01*
X207167800Y-114385000D01*
X207015400Y-114537400D01*
X206756000Y-114537400D01*
X206756000Y-114300000D01*
X206717331Y-114105597D01*
X206607210Y-113940790D01*
X206468963Y-113802543D01*
X206633252Y-113734661D01*
X206745343Y-113622765D01*
X207094506Y-113622765D01*
X207015400Y-113813743D01*
X207015400Y-113932600D01*
X207167800Y-114085000D01*
X208447600Y-114085000D01*
X208447600Y-113477800D01*
X208752400Y-113477800D01*
X208752400Y-114085000D01*
X210032200Y-114085000D01*
X210184600Y-113932600D01*
X210184600Y-113813743D01*
X210091794Y-113589689D01*
X209920311Y-113418206D01*
X209696257Y-113325400D01*
X208904800Y-113325400D01*
X208752400Y-113477800D01*
X208447600Y-113477800D01*
X208380292Y-113410492D01*
X208436047Y-113276219D01*
X208436283Y-113005300D01*
X208332826Y-112754913D01*
X208141424Y-112563178D01*
X207891219Y-112459283D01*
X207620300Y-112459047D01*
X207369913Y-112562504D01*
X207274687Y-112657565D01*
X206711676Y-112657565D01*
X206634259Y-112580013D01*
X206384054Y-112476118D01*
X206113135Y-112475882D01*
X205862748Y-112579339D01*
X205671013Y-112770741D01*
X205567118Y-113020946D01*
X205567096Y-113046131D01*
X205486000Y-113030000D01*
X202828906Y-113030000D01*
X202877882Y-112912054D01*
X202878118Y-112641135D01*
X202774661Y-112390748D01*
X202768500Y-112384576D01*
X202768500Y-111252000D01*
X202724997Y-111033296D01*
X202601112Y-110847888D01*
X202601109Y-110847886D01*
X202529711Y-110776487D01*
X202344303Y-110652602D01*
X202308017Y-110645384D01*
X202125599Y-110609098D01*
X202125594Y-110609099D01*
X196413406Y-110609099D01*
X196413401Y-110609098D01*
X196194698Y-110652601D01*
X196194696Y-110652602D01*
X196194697Y-110652602D01*
X196164200Y-110672979D01*
X196164200Y-108331000D01*
X196129398Y-108156037D01*
X196030289Y-108007711D01*
X195969289Y-107946711D01*
X195820963Y-107847602D01*
X195709912Y-107825513D01*
X195691707Y-107728760D01*
X195608264Y-107599085D01*
X195480944Y-107512091D01*
X195329810Y-107481486D01*
X194823745Y-107481486D01*
X194387652Y-107045392D01*
X194467575Y-106852917D01*
X194698865Y-106853118D01*
X194949252Y-106749661D01*
X195044478Y-106654600D01*
X197158100Y-106654600D01*
X198200998Y-107697497D01*
X198200882Y-107830865D01*
X198304339Y-108081252D01*
X198495741Y-108272987D01*
X198745946Y-108376882D01*
X198953401Y-108377063D01*
X198953401Y-108936001D01*
X198990137Y-109120684D01*
X199094751Y-109277251D01*
X199668998Y-109851498D01*
X199668882Y-109984865D01*
X199772339Y-110235252D01*
X199963741Y-110426987D01*
X200213946Y-110530882D01*
X200484865Y-110531118D01*
X200735252Y-110427661D01*
X200926987Y-110236259D01*
X201030882Y-109986054D01*
X201031118Y-109715135D01*
X200927661Y-109464748D01*
X200736259Y-109273013D01*
X200486054Y-109169118D01*
X200351501Y-109169001D01*
X199918601Y-108736101D01*
X199918601Y-108357409D01*
X200068743Y-108419600D01*
X203695200Y-108419600D01*
X203847600Y-108267200D01*
X203847600Y-104152400D01*
X204152400Y-104152400D01*
X204152400Y-108267200D01*
X204304800Y-108419600D01*
X207931257Y-108419600D01*
X208155311Y-108326794D01*
X208326794Y-108155311D01*
X208419600Y-107931257D01*
X208419600Y-104304800D01*
X208267200Y-104152400D01*
X204152400Y-104152400D01*
X203847600Y-104152400D01*
X199732800Y-104152400D01*
X199580400Y-104304800D01*
X199580400Y-106891979D01*
X198163563Y-105475141D01*
X198006996Y-105370527D01*
X197822313Y-105333791D01*
X196891339Y-105333791D01*
X197158704Y-105066892D01*
X197445673Y-104375796D01*
X197446326Y-103627487D01*
X197160564Y-102935891D01*
X196631892Y-102406296D01*
X195940796Y-102119327D01*
X195192487Y-102118674D01*
X194500891Y-102404436D01*
X193971296Y-102933108D01*
X193684327Y-103624204D01*
X193683674Y-104372513D01*
X193969436Y-105064109D01*
X194041178Y-105135976D01*
X193859396Y-105172135D01*
X193702829Y-105276749D01*
X192611447Y-106368131D01*
X192506833Y-106524698D01*
X192470097Y-106709381D01*
X192470097Y-106914295D01*
X192506833Y-107098978D01*
X192571711Y-107196076D01*
X192571578Y-107349159D01*
X192662414Y-107569000D01*
X192151190Y-107569000D01*
X192127897Y-107445210D01*
X192044454Y-107315535D01*
X191917134Y-107228541D01*
X191766000Y-107197936D01*
X189734000Y-107197936D01*
X189592810Y-107224503D01*
X189463135Y-107307946D01*
X189456000Y-107318388D01*
X189456000Y-103431028D01*
X189677856Y-103636109D01*
X190217141Y-103835062D01*
X190447600Y-103700800D01*
X190447600Y-102532400D01*
X190427600Y-102532400D01*
X190427600Y-102227600D01*
X190447600Y-102227600D01*
X190447600Y-102207600D01*
X190752400Y-102207600D01*
X190752400Y-102227600D01*
X190772400Y-102227600D01*
X190772400Y-102532400D01*
X190752400Y-102532400D01*
X190752400Y-103700800D01*
X190982859Y-103835062D01*
X191522144Y-103636109D01*
X191944243Y-103245925D01*
X192175815Y-102759746D01*
X192064379Y-102532402D01*
X192201536Y-102532402D01*
X192201536Y-103046000D01*
X192228103Y-103187190D01*
X192311546Y-103316865D01*
X192438866Y-103403859D01*
X192590000Y-103434464D01*
X193490000Y-103434464D01*
X193631190Y-103407897D01*
X193760865Y-103324454D01*
X193847859Y-103197134D01*
X193878464Y-103046000D01*
X193878464Y-102891476D01*
X194034450Y-102787250D01*
X196048250Y-100773450D01*
X196152864Y-100616883D01*
X196189600Y-100432200D01*
X196189600Y-100068743D01*
X199580400Y-100068743D01*
X199580400Y-103695200D01*
X199732800Y-103847600D01*
X203847600Y-103847600D01*
X203847600Y-99732800D01*
X204152400Y-99732800D01*
X204152400Y-103847600D01*
X208267200Y-103847600D01*
X208419600Y-103695200D01*
X208419600Y-100068743D01*
X208326794Y-99844689D01*
X208155311Y-99673206D01*
X207931257Y-99580400D01*
X204304800Y-99580400D01*
X204152400Y-99732800D01*
X203847600Y-99732800D01*
X203695200Y-99580400D01*
X200068743Y-99580400D01*
X199844689Y-99673206D01*
X199673206Y-99844689D01*
X199580400Y-100068743D01*
X196189600Y-100068743D01*
X196189600Y-97129600D01*
X196750518Y-97129600D01*
X196844741Y-97223987D01*
X197094946Y-97327882D01*
X197365865Y-97328118D01*
X197616252Y-97224661D01*
X197807987Y-97033259D01*
X197911882Y-96783054D01*
X197912118Y-96512135D01*
X197808661Y-96261748D01*
X197703097Y-96156000D01*
X209292035Y-96156000D01*
X209250118Y-96256946D01*
G36*
X216062957Y-99400983D02*
X215975631Y-99840000D01*
X216070371Y-100316288D01*
X216340166Y-100720065D01*
X216743943Y-100989860D01*
X216807106Y-101002424D01*
X216477856Y-101123891D01*
X216055757Y-101514075D01*
X215824185Y-102000254D01*
X215935622Y-102227600D01*
X217247600Y-102227600D01*
X217247600Y-102207600D01*
X217552400Y-102207600D01*
X217552400Y-102227600D01*
X217572400Y-102227600D01*
X217572400Y-102532400D01*
X217552400Y-102532400D01*
X217552400Y-103700800D01*
X217782859Y-103835062D01*
X218322144Y-103636109D01*
X218544000Y-103431028D01*
X218544000Y-107223856D01*
X218416000Y-107197936D01*
X216384000Y-107197936D01*
X216242810Y-107224503D01*
X216113135Y-107307946D01*
X216026141Y-107435266D01*
X215995536Y-107586400D01*
X215995536Y-107889000D01*
X213568855Y-107889000D01*
X213545744Y-107853085D01*
X213418424Y-107766091D01*
X213267290Y-107735486D01*
X212467190Y-107735486D01*
X212326000Y-107762053D01*
X212196325Y-107845496D01*
X212109331Y-107972816D01*
X212078726Y-108123950D01*
X212078726Y-108924050D01*
X212105293Y-109065240D01*
X212188736Y-109194915D01*
X212316056Y-109281909D01*
X212467190Y-109312514D01*
X213267290Y-109312514D01*
X213385400Y-109290290D01*
X213385400Y-109659404D01*
X213267290Y-109635486D01*
X212467190Y-109635486D01*
X212326000Y-109662053D01*
X212239928Y-109717439D01*
X211142600Y-108620110D01*
X211142600Y-105367802D01*
X211368108Y-105593704D01*
X212059204Y-105880673D01*
X212807513Y-105881326D01*
X213499109Y-105595564D01*
X214028704Y-105066892D01*
X214315673Y-104375796D01*
X214316326Y-103627487D01*
X214200738Y-103347743D01*
X214282866Y-103403859D01*
X214434000Y-103434464D01*
X215334000Y-103434464D01*
X215475190Y-103407897D01*
X215604865Y-103324454D01*
X215691859Y-103197134D01*
X215722464Y-103046000D01*
X215722464Y-102759746D01*
X215824185Y-102759746D01*
X216055757Y-103245925D01*
X216477856Y-103636109D01*
X217017141Y-103835062D01*
X217247600Y-103700800D01*
X217247600Y-102532400D01*
X215935622Y-102532400D01*
X215824185Y-102759746D01*
X215722464Y-102759746D01*
X215722464Y-101846000D01*
X215695897Y-101704810D01*
X215612454Y-101575135D01*
X215485134Y-101488141D01*
X215334000Y-101457536D01*
X214728036Y-101457536D01*
X214504964Y-101234464D01*
X215334000Y-101234464D01*
X215475190Y-101207897D01*
X215604865Y-101124454D01*
X215691859Y-100997134D01*
X215722464Y-100846000D01*
X215722464Y-99646000D01*
X215695897Y-99504810D01*
X215612454Y-99375135D01*
X215485134Y-99288141D01*
X215366600Y-99264138D01*
X215366600Y-98991463D01*
X215366601Y-98991458D01*
X215329864Y-98806775D01*
X215256988Y-98697708D01*
X215225250Y-98650208D01*
X215225247Y-98650206D01*
X214899556Y-98324514D01*
X214986488Y-98324514D01*
X216062957Y-99400983D01*
X216062957Y-99400983D01*
G37*
X216062957Y-99400983D02*
X215975631Y-99840000D01*
X216070371Y-100316288D01*
X216340166Y-100720065D01*
X216743943Y-100989860D01*
X216807106Y-101002424D01*
X216477856Y-101123891D01*
X216055757Y-101514075D01*
X215824185Y-102000254D01*
X215935622Y-102227600D01*
X217247600Y-102227600D01*
X217247600Y-102207600D01*
X217552400Y-102207600D01*
X217552400Y-102227600D01*
X217572400Y-102227600D01*
X217572400Y-102532400D01*
X217552400Y-102532400D01*
X217552400Y-103700800D01*
X217782859Y-103835062D01*
X218322144Y-103636109D01*
X218544000Y-103431028D01*
X218544000Y-107223856D01*
X218416000Y-107197936D01*
X216384000Y-107197936D01*
X216242810Y-107224503D01*
X216113135Y-107307946D01*
X216026141Y-107435266D01*
X215995536Y-107586400D01*
X215995536Y-107889000D01*
X213568855Y-107889000D01*
X213545744Y-107853085D01*
X213418424Y-107766091D01*
X213267290Y-107735486D01*
X212467190Y-107735486D01*
X212326000Y-107762053D01*
X212196325Y-107845496D01*
X212109331Y-107972816D01*
X212078726Y-108123950D01*
X212078726Y-108924050D01*
X212105293Y-109065240D01*
X212188736Y-109194915D01*
X212316056Y-109281909D01*
X212467190Y-109312514D01*
X213267290Y-109312514D01*
X213385400Y-109290290D01*
X213385400Y-109659404D01*
X213267290Y-109635486D01*
X212467190Y-109635486D01*
X212326000Y-109662053D01*
X212239928Y-109717439D01*
X211142600Y-108620110D01*
X211142600Y-105367802D01*
X211368108Y-105593704D01*
X212059204Y-105880673D01*
X212807513Y-105881326D01*
X213499109Y-105595564D01*
X214028704Y-105066892D01*
X214315673Y-104375796D01*
X214316326Y-103627487D01*
X214200738Y-103347743D01*
X214282866Y-103403859D01*
X214434000Y-103434464D01*
X215334000Y-103434464D01*
X215475190Y-103407897D01*
X215604865Y-103324454D01*
X215691859Y-103197134D01*
X215722464Y-103046000D01*
X215722464Y-102759746D01*
X215824185Y-102759746D01*
X216055757Y-103245925D01*
X216477856Y-103636109D01*
X217017141Y-103835062D01*
X217247600Y-103700800D01*
X217247600Y-102532400D01*
X215935622Y-102532400D01*
X215824185Y-102759746D01*
X215722464Y-102759746D01*
X215722464Y-101846000D01*
X215695897Y-101704810D01*
X215612454Y-101575135D01*
X215485134Y-101488141D01*
X215334000Y-101457536D01*
X214728036Y-101457536D01*
X214504964Y-101234464D01*
X215334000Y-101234464D01*
X215475190Y-101207897D01*
X215604865Y-101124454D01*
X215691859Y-100997134D01*
X215722464Y-100846000D01*
X215722464Y-99646000D01*
X215695897Y-99504810D01*
X215612454Y-99375135D01*
X215485134Y-99288141D01*
X215366600Y-99264138D01*
X215366600Y-98991463D01*
X215366601Y-98991458D01*
X215329864Y-98806775D01*
X215256988Y-98697708D01*
X215225250Y-98650208D01*
X215225247Y-98650206D01*
X214899556Y-98324514D01*
X214986488Y-98324514D01*
X216062957Y-99400983D01*
M02*
